<svg width="29" height="41" viewBox="0 0 29 41" fill="none" xmlns="http://www.w3.org/2000/svg">
<path d="M11.2021 4.22168H13.7614C14.093 4.22168 14.362 3.95262 14.362 3.62109C14.362 3.28957 14.093 3.02051 13.7614 3.02051H11.2021C10.8706 3.02051 10.6016 3.28957 10.6016 3.62109C10.6016 3.95262 10.8706 4.22168 11.2021 4.22168Z" fill="#5956E8"/>
<path d="M28.3821 11.271C28.2844 9.8352 27.0792 8.67967 25.6386 8.64043C25.408 8.63402 25.1822 8.65564 24.9628 8.70209V3.80371C24.9628 1.70646 23.2563 0 21.159 0H3.80371C1.70646 0 0 1.70646 0 3.80371V37.1963C0 39.2935 1.70646 41 3.80371 41H21.159C23.2563 41 24.9628 39.2935 24.9628 37.1963V15.182C25.9517 14.575 27.0031 13.9224 27.2514 13.7366C28.0257 13.1584 28.4486 12.2367 28.3821 11.271ZM3.80371 1.20117H21.159C22.594 1.20117 23.7616 2.36871 23.7616 3.80371V9.08006C23.2571 8.75975 22.6597 8.606 22.0567 8.64604C20.669 8.73732 19.5391 9.85041 19.427 11.2358C19.3509 12.1807 19.7473 13.0952 20.4864 13.6838C20.7883 13.9232 22.1905 14.788 23.3139 15.4711C23.4533 15.556 23.6062 15.608 23.7616 15.6272V34.0941H1.20117V3.80371C1.20117 2.36871 2.36871 1.20117 3.80371 1.20117ZM23.7616 37.1963C23.7616 38.6313 22.594 39.7988 21.159 39.7988H3.80371C2.36871 39.7988 1.20117 38.6313 1.20117 37.1963V35.2944H23.7616V37.1963ZM26.5323 12.7741C26.3465 12.9126 25.3399 13.5436 23.9017 14.4229C22.4635 13.5484 21.4177 12.8902 21.2335 12.7436C20.8075 12.4049 20.5793 11.8772 20.6233 11.3319C20.6874 10.5359 21.3368 9.89686 22.1344 9.844C22.172 9.8416 22.2097 9.84 22.2473 9.84C22.6005 9.84 22.9344 9.95051 23.2179 10.1627C23.6271 10.4678 24.1764 10.4678 24.5856 10.1627C24.8811 9.9417 25.2342 9.83119 25.6042 9.8408C26.433 9.86322 27.1257 10.5279 27.1825 11.3527C27.221 11.9092 26.9775 12.4409 26.5315 12.7741H26.5323Z" fill="#5956E8"/>
<path d="M3.66736 17.1645C3.8035 17.1645 3.94123 17.118 4.05334 17.0235L10.2906 11.78V12.0963C10.2906 12.5207 10.5285 12.8971 10.9112 13.0805C11.294 13.2631 11.7368 13.211 12.0668 12.9444L16.7169 9.18309V9.56426C16.7169 9.89578 16.986 10.1648 17.3175 10.1648C17.649 10.1648 17.9181 9.89578 17.9181 9.56426V7.71045C17.9181 7.37893 17.649 7.10986 17.3175 7.10986H15.4637C15.1321 7.10986 14.8631 7.37893 14.8631 7.71045C14.8631 8.04197 15.1321 8.31104 15.4637 8.31104H15.8857L11.4926 11.8649V11.5422C11.4926 11.1138 11.2516 10.735 10.8624 10.554C10.474 10.373 10.0288 10.4323 9.70045 10.7078L3.28059 16.105C3.02674 16.3188 2.99391 16.6976 3.20691 16.9515C3.32543 17.0924 3.496 17.1653 3.66736 17.1653V17.1645Z" fill="#5956E8"/>
<path d="M15.346 14.7329C14.5316 14.7329 13.8702 15.3952 13.8702 16.2088V19.0427H11.3677C10.5533 19.0427 9.89188 19.705 9.89188 20.5186V22.1129H7.38943C6.57504 22.1129 5.91359 22.7752 5.91359 23.5888V29.8196H5.06396C4.73244 29.8196 4.46338 30.0887 4.46338 30.4202C4.46338 30.7517 4.73244 31.0208 5.06396 31.0208H19.8992C20.2308 31.0208 20.4998 30.7517 20.4998 30.4202C20.4998 30.0887 20.2308 29.8196 19.8992 29.8196H19.0496V16.2096C19.0496 15.396 18.3874 14.7337 17.5738 14.7337H15.346V14.7329ZM7.11397 23.5904C7.11397 23.439 7.23728 23.3157 7.38863 23.3157H9.89107V29.822H7.11397V23.5912V23.5904ZM11.0922 22.7151V20.5202C11.0922 20.3688 11.2156 20.2455 11.3669 20.2455H13.8694V29.822H11.0922V22.7151ZM17.8484 16.2096V29.822H15.0713V16.2096C15.0713 16.0582 15.1946 15.9349 15.346 15.9349H17.5738C17.7251 15.9349 17.8484 16.0582 17.8484 16.2096Z" fill="#5956E8"/>
</svg>
