<svg width="34" height="34" viewBox="0 0 34 34" fill="none" xmlns="http://www.w3.org/2000/svg">
<path d="M11.6875 21.25C15.5017 21.25 18.5938 18.158 18.5938 14.3438C18.5938 10.5295 15.5017 7.4375 11.6875 7.4375C7.87328 7.4375 4.78125 10.5295 4.78125 14.3438C4.78125 18.158 7.87328 21.25 11.6875 21.25Z" stroke="#5956E8" stroke-width="2" stroke-miterlimit="10"/>
<path d="M20.6392 7.68984C21.2497 7.52426 21.8793 7.43943 22.5118 7.4375C24.3435 7.4375 26.1001 8.16512 27.3953 9.46029C28.6904 10.7555 29.4181 12.5121 29.4181 14.3438C29.4181 16.1754 28.6904 17.932 27.3953 19.2272C26.1001 20.5224 24.3435 21.25 22.5118 21.25" stroke="#5956E8" stroke-width="2" stroke-linecap="round" stroke-linejoin="round"/>
<path d="M2.125 26.2167C3.20337 24.6821 4.63521 23.4297 6.29957 22.565C7.96394 21.7004 9.81195 21.249 11.6875 21.249C13.5631 21.249 15.4111 21.7004 17.0754 22.565C18.7398 23.4297 20.1716 24.6821 21.25 26.2167" stroke="#5956E8" stroke-width="2" stroke-linecap="round" stroke-linejoin="round"/>
<path d="M22.5117 21.25C24.3874 21.2488 26.2358 21.6997 27.9004 22.5643C29.5649 23.4289 30.9966 24.6819 32.0742 26.2172" stroke="#5956E8" stroke-width="2" stroke-linecap="round" stroke-linejoin="round"/>
</svg>
