<svg width="42" height="42" viewBox="0 0 42 42" fill="none" xmlns="http://www.w3.org/2000/svg">
<path d="M35.6877 0.150146H5.86681C2.77875 0.150146 0.275391 2.65351 0.275391 5.74157V35.5625C0.275391 38.6505 2.77875 41.1539 5.86681 41.1539H35.6877C38.7758 41.1539 41.2791 38.6505 41.2791 35.5625V5.74157C41.2791 2.65351 38.7758 0.150146 35.6877 0.150146Z" fill="#0077B5"/>
<path d="M15.0459 11.333C15.0459 12.0242 14.841 12.6998 14.457 13.2745C14.073 13.8492 13.5272 14.2971 12.8886 14.5616C12.2501 14.8261 11.5474 14.8953 10.8695 14.7605C10.1916 14.6257 9.56893 14.2928 9.0802 13.8041C8.59146 13.3154 8.25863 12.6927 8.12379 12.0148C7.98895 11.3369 8.05815 10.6342 8.32266 9.99568C8.58716 9.35712 9.03507 8.81133 9.60976 8.42733C10.1845 8.04334 10.8601 7.83838 11.5513 7.83838C12.4781 7.83838 13.367 8.20656 14.0224 8.86193C14.6777 9.51731 15.0459 10.4062 15.0459 11.333Z" fill="white"/>
<path d="M14.2532 17.1574V32.5968C14.2538 32.7107 14.2319 32.8235 14.1888 32.929C14.1456 33.0344 14.082 33.1302 14.0017 33.211C13.9214 33.2917 13.8259 33.3558 13.7207 33.3995C13.6156 33.4432 13.5028 33.4658 13.3889 33.4658H9.70554C9.59164 33.4661 9.47881 33.4439 9.37352 33.4004C9.26823 33.357 9.17257 33.2931 9.09203 33.2126C9.01149 33.1321 8.94766 33.0364 8.90422 32.9311C8.86077 32.8258 8.83856 32.713 8.83887 32.5991V17.1574C8.83887 16.9276 8.93018 16.7071 9.09271 16.5446C9.25524 16.3821 9.47569 16.2908 9.70554 16.2908H13.3889C13.6183 16.2914 13.8382 16.383 14.0002 16.5454C14.1622 16.7079 14.2532 16.928 14.2532 17.1574Z" fill="white"/>
<path d="M33.5063 25.1951V32.669C33.5066 32.7737 33.4862 32.8774 33.4462 32.9742C33.4063 33.071 33.3476 33.159 33.2736 33.2331C33.1995 33.3071 33.1116 33.3658 33.0148 33.4057C32.9179 33.4456 32.8142 33.466 32.7095 33.4657H28.7489C28.6442 33.466 28.5404 33.4456 28.4436 33.4057C28.3468 33.3658 28.2588 33.3071 28.1848 33.2331C28.1107 33.159 28.0521 33.071 28.0121 32.9742C27.9722 32.8774 27.9518 32.7737 27.9521 32.669V25.4257C27.9521 24.3447 28.269 20.6917 25.1261 20.6917C22.6915 20.6917 22.1953 23.1915 22.0974 24.3144V32.669C22.0974 32.8783 22.0151 33.0792 21.8682 33.2283C21.7213 33.3774 21.5216 33.4627 21.3123 33.4657H17.4868C17.3823 33.4657 17.2788 33.4451 17.1823 33.405C17.0857 33.365 16.9981 33.3062 16.9242 33.2322C16.8504 33.1582 16.792 33.0704 16.7522 32.9737C16.7124 32.877 16.6921 32.7735 16.6924 32.669V17.0899C16.6921 16.9853 16.7124 16.8818 16.7522 16.7851C16.792 16.6885 16.8504 16.6006 16.9242 16.5266C16.9981 16.4526 17.0857 16.3939 17.1823 16.3538C17.2788 16.3137 17.3823 16.2931 17.4868 16.2931H21.3123C21.5236 16.2931 21.7263 16.377 21.8757 16.5265C22.0251 16.6759 22.1091 16.8785 22.1091 17.0899V18.4365C23.013 17.0805 24.3526 16.0345 27.2112 16.0345C33.5435 16.0345 33.5063 21.9474 33.5063 25.1951Z" fill="white"/>
</svg>
