<svg width="15" height="29" viewBox="0 0 15 29" fill="none" xmlns="http://www.w3.org/2000/svg">
<path d="M8.50793 28.518L14.0967 22.9966C14.6396 22.4286 14.6396 21.5136 14.0648 20.9773C13.4899 20.4409 12.5957 20.4409 12.0528 20.9773L8.95504 24.0377L8.95504 2.40137C8.95504 1.61259 8.28438 0.981567 7.48599 0.981567C6.68759 0.981567 6.04887 1.61259 6.04887 2.40137L6.04887 24.0377L2.95108 20.9773C2.37624 20.4409 1.45009 20.4409 0.907183 21.0088C0.364272 21.5768 0.364272 22.4602 0.907183 22.9966L6.49597 28.518C7.03888 29.0859 7.93309 29.149 8.50793 28.6127C8.50793 28.5811 8.53987 28.5811 8.50793 28.518Z" fill="black"/>
</svg>
