<svg width="63" height="62" viewBox="0 0 63 62" fill="none" xmlns="http://www.w3.org/2000/svg">
<circle cx="31.5211" cy="31.1559" r="30.6187" fill="#292930"/>
<path d="M41.9953 27.099L34.0727 19.3933C33.4015 18.7552 32.5109 18.3994 31.5849 18.3994C30.6589 18.3994 29.7682 18.7552 29.0971 19.3933L21.1745 27.048C20.8225 27.3553 20.5394 27.7335 20.3437 28.1578C20.148 28.5821 20.0442 29.043 20.0391 29.5103V40.4565C20.0525 41.3847 20.4333 42.2698 21.0981 42.9179C21.7629 43.5659 22.6574 43.9241 23.5857 43.9138H39.4565C40.3848 43.9241 41.2793 43.5659 41.9441 42.9179C42.6089 42.2698 42.9897 41.3847 43.0031 40.4565V29.5103C43.0021 29.0618 42.9126 28.6179 42.7396 28.2041C42.5667 27.7904 42.3137 27.4148 41.9953 27.099ZM30.8067 21.2304C31.0018 21.052 31.2567 20.9531 31.5211 20.9531C31.7855 20.9531 32.0404 21.052 32.2355 21.2304L39.1758 27.9666L32.1973 34.7027C32.0021 34.8811 31.7472 34.98 31.4828 34.98C31.2184 34.98 30.9635 34.8811 30.7684 34.7027L23.8664 27.9666L30.8067 21.2304ZM40.4516 40.4565C40.4352 40.7069 40.3223 40.9412 40.1367 41.1101C39.9511 41.279 39.7073 41.3694 39.4565 41.3623H23.5857C23.3349 41.3694 23.091 41.279 22.9055 41.1101C22.7199 40.9412 22.607 40.7069 22.5906 40.4565V30.3268L27.7575 35.3023L25.6397 37.3436C25.4021 37.5826 25.2688 37.9059 25.2688 38.243C25.2688 38.58 25.4021 38.9034 25.6397 39.1424C25.7583 39.2668 25.9008 39.3659 26.0587 39.4339C26.2165 39.5019 26.3865 39.5372 26.5583 39.5379C26.8868 39.5366 27.2021 39.4086 27.4386 39.1807L29.6967 37.0119C30.2576 37.3546 30.9021 37.5359 31.5594 37.5359C32.2166 37.5359 32.8612 37.3546 33.422 37.0119L35.6801 39.1807C35.9166 39.4086 36.232 39.5366 36.5604 39.5379C36.7323 39.5372 36.9022 39.5019 37.0601 39.4339C37.2179 39.3659 37.3604 39.2668 37.479 39.1424C37.7166 38.9034 37.85 38.58 37.85 38.243C37.85 37.9059 37.7166 37.5826 37.479 37.3436L35.3484 35.3023L40.4516 30.3268V40.4565Z" fill="#F0FDF4"/>
</svg>
