<svg width="99" height="99" viewBox="0 0 99 99" fill="none" xmlns="http://www.w3.org/2000/svg">
<rect x="0.556274" y="0.418701" width="98.2" height="98.2" rx="9.20625" fill="#292930"/>
<g clip-path="url(#clip0_507_407)">
<path d="M57.3281 64.2945H38.9156C37.6948 64.2945 36.524 63.8096 35.6607 62.9463C34.7975 62.0831 34.3125 60.9122 34.3125 59.6914V47.4164C34.3125 47.0095 34.1508 46.6192 33.8631 46.3314C33.5753 46.0437 33.1851 45.882 32.7781 45.882C32.3712 45.882 31.9809 46.0437 31.6932 46.3314C31.4054 46.6192 31.2437 47.0095 31.2437 47.4164V59.6914C31.2437 61.7261 32.052 63.6775 33.4908 65.1162C34.9295 66.555 36.8809 67.3633 38.9156 67.3633H57.3281C57.7351 67.3633 58.1253 67.2016 58.4131 66.9139C58.7008 66.6261 58.8625 66.2358 58.8625 65.8289C58.8625 65.422 58.7008 65.0317 58.4131 64.7439C58.1253 64.4562 57.7351 64.2945 57.3281 64.2945ZM63.4656 36.6758H41.9844C40.7635 36.6758 39.5927 37.1608 38.7295 38.024C37.8662 38.8873 37.3812 40.0581 37.3812 41.2789V56.6227C37.3812 57.8435 37.8662 59.0143 38.7295 59.8776C39.5927 60.7408 40.7635 61.2258 41.9844 61.2258H63.4656C64.6864 61.2258 65.8573 60.7408 66.7205 59.8776C67.5838 59.0143 68.0687 57.8435 68.0687 56.6227V41.2789C68.0687 40.0581 67.5838 38.8873 66.7205 38.024C65.8573 37.1608 64.6864 36.6758 63.4656 36.6758ZM62.8365 39.7445L53.8144 48.7667C53.6718 48.9105 53.5021 49.0246 53.3151 49.1025C53.1281 49.1804 52.9276 49.2205 52.725 49.2205C52.5224 49.2205 52.3219 49.1804 52.1349 49.1025C51.9479 49.0246 51.7782 48.9105 51.6356 48.7667L42.6135 39.7445H62.8365ZM65 56.6227C65 57.0296 64.8383 57.4199 64.5506 57.7076C64.2628 57.9954 63.8726 58.157 63.4656 58.157H41.9844C41.5774 58.157 41.1872 57.9954 40.8994 57.7076C40.6117 57.4199 40.45 57.0296 40.45 56.6227V41.8466L49.4721 50.8688C50.3352 51.7308 51.5052 52.215 52.725 52.215C53.9448 52.215 55.1148 51.7308 55.9779 50.8688L65 41.8466V56.6227Z" fill="white"/>
</g>
<defs>
<clipPath id="clip0_507_407">
<rect width="36.825" height="36.825" fill="white" transform="translate(31.2437 31.1062)"/>
</clipPath>
</defs>
</svg>
