<svg width="29" height="44" viewBox="0 0 29 44" fill="none" xmlns="http://www.w3.org/2000/svg">
<path d="M14.4053 43.809C6.51916 43.809 0.129395 37.1785 0.129395 29.0467V15.7021C0.129395 7.5703 6.51916 0.981445 14.4053 0.981445C22.2914 0.981445 28.6811 7.5703 28.6811 15.7021V29.0467C28.6811 37.1785 22.2914 43.809 14.4053 43.809ZM14.4053 4.52608C8.41991 4.52608 3.56693 9.53028 3.56693 15.7021V29.0467C3.56693 35.2185 8.41991 40.2227 14.4053 40.2227C20.3906 40.2227 25.2436 35.2185 25.2436 29.0467V15.7021C25.2436 9.53028 20.3906 4.52608 14.4053 4.52608Z" fill="black"/>
<path d="M14.4053 18.8263C13.1326 18.8263 12.0259 17.899 12.0259 16.7276V11.4077C12.0259 10.2852 13.0773 9.30903 14.4053 9.30903C15.7332 9.30903 16.7846 10.2364 16.7846 11.4077V16.7276C16.7846 17.899 15.7332 18.8263 14.4053 18.8263Z" fill="black"/>
</svg>
