<svg width="405" height="298" viewBox="0 0 405 298" fill="none" xmlns="http://www.w3.org/2000/svg">
<g filter="url(#filter0_i_28_432)">
<rect width="160.383" height="83.453" rx="13.6921" transform="matrix(0.99993 0.0117992 -0.013219 0.999913 29.3203 54.4272)" fill="url(#paint0_linear_28_432)" fill-opacity="0.93"/>
</g>
<path d="M54.0473 68.0415L52.9503 135.06M115.468 68.9944L114.371 136.013M85.23 68.5253L84.133 135.543M146.336 69.4732L145.239 136.491M69.166 68.2761L68.069 135.294M130.902 69.2338L129.805 136.252M100.349 68.7599L99.2517 135.778M161.769 69.7127L160.672 136.731M40.3914 122.994L176.146 125.1M40.8605 94.3299L176.615 96.4359M40.6223 108.864L176.377 110.97M41.0982 79.7959L176.853 81.9019" stroke="url(#paint1_linear_28_432)" stroke-width="0.36362"/>
<path d="M42.7874 71.9438L44.2085 74.3605L45.7393 72.0076L46.0007 74.872L47.0841 74.8954L46.4509 69.5353L44.2449 72.7755L42.1902 69.4432L41.3111 74.7706L42.3945 74.7941L42.7874 71.9438ZM48.6873 73.8899C48.6895 73.793 48.7131 73.7135 48.7582 73.6514C48.8034 73.5845 48.8724 73.535 48.9653 73.5031C49.0583 73.4663 49.1775 73.4495 49.3229 73.4526C49.5023 73.4565 49.6714 73.4844 49.8302 73.5363C49.9939 73.5884 50.14 73.6643 50.2687 73.7641L50.2787 73.3278C50.2316 73.2686 50.153 73.2063 50.043 73.1409C49.9329 73.0755 49.796 73.0191 49.6322 72.972C49.4733 72.9249 49.2872 72.899 49.0739 72.8944C48.657 72.8854 48.3325 72.973 48.1004 73.1571C47.8682 73.3412 47.7484 73.5956 47.7409 73.9204C47.7357 74.1482 47.7845 74.3432 47.8875 74.5055C47.9954 74.663 48.1381 74.7849 48.3155 74.8711C48.493 74.9574 48.6859 75.0028 48.8943 75.0073C49.0979 75.0117 49.2926 74.9795 49.4785 74.9108C49.6692 74.8422 49.8244 74.7365 49.9441 74.5936C50.0686 74.4508 50.1333 74.2727 50.1382 74.0595L50.0319 73.6207C50.0283 73.7807 49.9887 73.918 49.9133 74.0328C49.8381 74.1427 49.7415 74.2279 49.6238 74.2884C49.5061 74.344 49.3745 74.3703 49.2291 74.3672C49.1273 74.365 49.0332 74.3459 48.9467 74.3101C48.8652 74.2696 48.801 74.2148 48.7541 74.1459C48.7073 74.0722 48.685 73.9868 48.6873 73.8899ZM48.355 72.5225C48.4043 72.4896 48.4803 72.45 48.5832 72.4037C48.6862 72.3575 48.8083 72.3189 48.9496 72.288C49.091 72.2571 49.2392 72.2433 49.3943 72.2467C49.4961 72.2489 49.588 72.2606 49.6699 72.2817C49.7519 72.3029 49.8214 72.3359 49.8786 72.3808C49.9406 72.4258 49.9854 72.4825 50.0129 72.551C50.0405 72.6147 50.0533 72.6925 50.0512 72.7846L50.0012 74.9585L50.91 74.9781L50.9645 72.608C50.9698 72.3802 50.9112 72.1873 50.7887 72.0295C50.6664 71.8668 50.4946 71.7419 50.2736 71.6547C50.0525 71.5674 49.799 71.5207 49.513 71.5146C49.2028 71.5079 48.9206 71.5454 48.6666 71.6272C48.4126 71.7042 48.1974 71.7868 48.0207 71.8751L48.355 72.5225ZM52.9681 71.6765L52.0447 71.6566L51.9678 75.001L52.8911 75.021L52.9681 71.6765ZM53.9271 72.6793L54.3744 71.8888C54.3086 71.8001 54.2204 71.7327 54.1099 71.6867C54.0043 71.6408 53.8909 71.6165 53.7697 71.6139C53.5952 71.6101 53.4241 71.6694 53.2564 71.7919C53.0888 71.9095 52.9517 72.0714 52.8452 72.2776C52.7387 72.479 52.6824 72.713 52.6762 72.9796L52.932 73.247C52.9356 73.087 52.9582 72.9517 52.9995 72.8411C53.0458 72.7257 53.1109 72.6374 53.1947 72.5762C53.2786 72.5149 53.3787 72.4856 53.495 72.4881C53.5919 72.4902 53.6715 72.5089 53.7338 72.5442C53.801 72.5747 53.8654 72.6198 53.9271 72.6793ZM55.0912 69.3947L54.9607 75.0657L55.8696 75.0854L56.0001 69.4144L55.0912 69.3947ZM57.1753 71.7675L55.7039 73.1178L57.251 75.1152L58.3707 75.1394L56.8309 73.1421L58.3022 71.7919L57.1753 71.7675ZM60.5178 75.2586C60.9201 75.2673 61.266 75.1972 61.5555 75.0482C61.8501 74.8946 62.0882 74.6621 62.2699 74.3508L61.4542 74.0786C61.3536 74.2365 61.2272 74.355 61.075 74.4341C60.9278 74.5085 60.75 74.5435 60.5416 74.539C60.3574 74.535 60.2008 74.4904 60.0718 74.4051C59.9429 74.3199 59.8462 74.199 59.7819 74.0425C59.7225 73.886 59.6953 73.6963 59.7005 73.4733C59.7107 73.2408 59.749 73.0476 59.8156 72.8939C59.8872 72.7354 59.9844 72.6187 60.1074 72.5437C60.2353 72.4641 60.3914 72.4262 60.5756 72.4302C60.7258 72.4335 60.8559 72.4702 60.9658 72.5405C61.0758 72.6108 61.1585 72.7047 61.2139 72.8223C61.2743 72.94 61.3026 73.0812 61.2988 73.246C61.298 73.2799 61.2873 73.3233 61.2667 73.3762C61.251 73.4244 61.2332 73.4628 61.2131 73.4915L61.4753 73.1625L59.3013 73.1155L59.2879 73.6972L62.2835 73.7619C62.289 73.7329 62.2923 73.6942 62.2934 73.6458C62.2994 73.5974 62.3029 73.5514 62.3039 73.5078C62.3121 73.1491 62.2513 72.8423 62.1214 72.5873C61.9916 72.3275 61.7973 72.1293 61.5386 71.9928C61.2848 71.8515 60.9737 71.7769 60.6053 71.7689C60.2369 71.7609 59.9154 71.8267 59.6406 71.9663C59.3659 72.101 59.1504 72.2976 58.9941 72.5561C58.8428 72.8098 58.763 73.116 58.7548 73.4747C58.7466 73.8285 58.8122 74.1379 58.9516 74.4028C59.096 74.6629 59.3022 74.8686 59.5703 75.0199C59.8384 75.1712 60.1542 75.2507 60.5178 75.2586ZM62.8044 71.8892L62.7862 72.6817L64.851 72.7263L64.8693 71.9338L62.8044 71.8892ZM63.4055 70.7383L63.3018 75.246L64.2107 75.2657L64.3144 70.758L63.4055 70.7383ZM65.5385 70.6535C65.535 70.8038 65.5879 70.931 65.697 71.0352C65.8062 71.1394 65.9383 71.1932 66.0934 71.1965C66.2485 71.1999 66.3805 71.1518 66.4895 71.0523C66.6033 70.9529 66.662 70.8281 66.6654 70.6779C66.669 70.5228 66.6162 70.3955 66.5069 70.2962C66.4026 70.1921 66.2729 70.1384 66.1178 70.135C65.9627 70.1317 65.8282 70.1797 65.7144 70.2791C65.6007 70.3736 65.542 70.4984 65.5385 70.6535ZM65.6105 71.9499L65.5335 75.2943L66.4497 75.3141L66.5266 71.9697L65.6105 71.9499ZM69.8373 73.3506L69.7904 75.3863L70.7647 75.4074L70.8139 73.2698C70.8231 72.8675 70.7334 72.5528 70.5446 72.3257C70.356 72.0937 70.0629 71.9734 69.6655 71.9648C69.428 71.9596 69.2232 72.0061 69.0512 72.1043C68.8842 72.1976 68.7476 72.3377 68.6415 72.5246L68.6532 72.0156L67.708 71.9952L67.631 75.3396L68.5762 75.3601L68.6231 73.3243C68.6263 73.1838 68.6557 73.0632 68.7114 72.9625C68.7671 72.8619 68.8464 72.786 68.9494 72.7349C69.0525 72.6789 69.1695 72.6524 69.3004 72.6552C69.4943 72.6594 69.6335 72.7206 69.7181 72.8388C69.8027 72.957 69.8424 73.1276 69.8373 73.3506ZM71.7089 75.6605C71.7216 75.9518 71.7932 76.2104 71.9238 76.4362C72.0591 76.6671 72.2563 76.8459 72.5152 76.9728C72.7741 77.1044 73.0974 77.1745 73.4851 77.1829C73.8051 77.1898 74.1022 77.1332 74.3765 77.013C74.6507 76.8977 74.8709 76.7085 75.037 76.4454C75.2079 76.1823 75.2981 75.8448 75.3076 75.4328L75.3829 72.1611L74.4741 72.1415L74.3988 75.4132C74.3935 75.641 74.3456 75.8291 74.2549 75.9775C74.169 76.1259 74.0549 76.235 73.9127 76.3047C73.7753 76.3744 73.6291 76.4076 73.474 76.4043C73.3043 76.4006 73.1571 76.3683 73.0325 76.3075C72.9078 76.2466 72.8103 76.162 72.74 76.0538C72.6697 75.9505 72.6337 75.826 72.6322 75.6805L71.7089 75.6605ZM71.6879 73.7252C71.6794 74.0936 71.7474 74.4078 71.8917 74.6679C72.0362 74.9232 72.2305 75.119 72.4747 75.2552C72.7189 75.3914 72.9791 75.4625 73.2554 75.4685C73.5366 75.4746 73.7853 75.4145 74.0016 75.2882C74.2228 75.1572 74.397 74.9646 74.5241 74.7103C74.656 74.4561 74.7261 74.1497 74.7343 73.791C74.7427 73.4275 74.6868 73.1184 74.5666 72.8636C74.4513 72.6041 74.2862 72.4041 74.0712 72.2637C73.861 72.1234 73.6154 72.0502 73.3342 72.0441C73.0579 72.0381 72.7947 72.0979 72.5445 72.2234C72.2943 72.3489 72.0911 72.5385 71.9349 72.7922C71.7788 73.041 71.6965 73.352 71.6879 73.7252ZM72.6622 73.7462C72.6669 73.5427 72.712 73.3739 72.7975 73.24C72.8831 73.1012 72.9971 72.997 73.1393 72.9273C73.2816 72.8576 73.4327 72.8245 73.5926 72.828C73.6993 72.8303 73.803 72.8544 73.9037 72.9002C74.0046 72.9412 74.0954 73.0013 74.176 73.0807C74.2615 73.1601 74.3271 73.2585 74.3729 73.3759C74.4187 73.4933 74.4398 73.6295 74.4362 73.7846C74.4316 73.9882 74.384 74.1593 74.2935 74.298C74.208 74.4319 74.0965 74.5338 73.9591 74.6035C73.8267 74.6686 73.6902 74.6996 73.5496 74.6965C73.3897 74.6931 73.2402 74.6535 73.1013 74.5777C72.9625 74.502 72.8534 74.3953 72.7741 74.2579C72.6949 74.1155 72.6576 73.945 72.6622 73.7462ZM78.9567 74.4279L78.4851 75.0069C78.6083 75.1308 78.7463 75.2477 78.8989 75.3577C79.0566 75.463 79.2316 75.5492 79.424 75.6164C79.6213 75.6837 79.8387 75.7199 80.0762 75.725C80.4591 75.7333 80.7618 75.6477 80.9841 75.4683C81.2066 75.2839 81.3217 75.0246 81.3294 74.6901C81.3341 74.4865 81.2918 74.3208 81.2026 74.1927C81.1134 74.0647 80.9922 73.9578 80.839 73.8721C80.6907 73.7816 80.5277 73.7005 80.3499 73.6288C80.206 73.5626 80.0763 73.5065 79.961 73.4603C79.8505 73.4143 79.7644 73.3639 79.7026 73.3092C79.6458 73.2498 79.6182 73.1838 79.6199 73.1111C79.6218 73.0287 79.6522 72.9687 79.7113 72.9312C79.7753 72.8889 79.8606 72.8689 79.9673 72.8712C80.1272 72.8747 80.2887 72.9194 80.4516 73.0054C80.6193 73.0914 80.7623 73.2012 80.8805 73.3347L81.3083 72.762C81.2041 72.6531 81.0826 72.5583 80.9438 72.4777C80.8051 72.3923 80.654 72.3236 80.4903 72.2715C80.3266 72.2195 80.1502 72.1914 79.9612 72.1873C79.7382 72.1825 79.5338 72.2145 79.3479 72.2832C79.167 72.3472 79.0216 72.4483 78.9118 72.5866C78.802 72.72 78.7449 72.886 78.7403 73.0848C78.7355 73.2932 78.7776 73.4662 78.8665 73.604C78.9605 73.7369 79.0792 73.8462 79.2227 73.9317C79.3664 74.0124 79.5151 74.0835 79.6688 74.145C79.8324 74.2019 79.9669 74.2557 80.0725 74.3065C80.178 74.3573 80.2567 74.4148 80.3086 74.4789C80.3654 74.5383 80.3928 74.6117 80.3908 74.6989C80.3886 74.7959 80.3528 74.8727 80.2836 74.9294C80.2146 74.9812 80.117 75.0058 79.991 75.0031C79.894 75.001 79.7903 74.9793 79.6797 74.9381C79.5739 74.8971 79.4614 74.8364 79.342 74.7563C79.2227 74.6712 79.0943 74.5618 78.9567 74.4279ZM81.7878 72.2996L81.7695 73.0921L83.8344 73.1367L83.8526 72.3442L81.7878 72.2996ZM82.3889 71.1487L82.2852 75.6564L83.194 75.6761L83.2978 71.1684L82.3889 71.1487ZM85.4591 72.3789L84.5357 72.359L84.4587 75.7034L85.3821 75.7234L85.4591 72.3789ZM86.418 73.3817L86.8654 72.5912C86.7996 72.5025 86.7114 72.4351 86.6009 72.3891C86.4953 72.3432 86.3819 72.3189 86.2607 72.3163C86.0862 72.3125 85.9151 72.3718 85.7474 72.4943C85.5798 72.6119 85.4427 72.7738 85.3361 72.98C85.2297 73.1814 85.1733 73.4154 85.1672 73.682L85.4229 73.9494C85.4266 73.7894 85.4491 73.6541 85.4905 73.5435C85.5368 73.4281 85.6018 73.3398 85.6857 73.2786C85.7696 73.2173 85.8696 73.188 85.986 73.1905C86.0829 73.1926 86.1625 73.2113 86.2247 73.2466C86.2919 73.2771 86.3564 73.3222 86.418 73.3817ZM88.1664 74.7434C88.1686 74.6464 88.1922 74.5669 88.2373 74.5048C88.2825 74.4379 88.3515 74.3885 88.4444 74.3566C88.5374 74.3198 88.6566 74.303 88.802 74.3061C88.9814 74.31 89.1504 74.3379 89.3093 74.3898C89.473 74.4418 89.6191 74.5177 89.7478 74.6175L89.7578 74.1813C89.7107 74.1221 89.6321 74.0598 89.5221 73.9943C89.412 73.9289 89.2751 73.8726 89.1113 73.8254C88.9524 73.7783 88.7662 73.7525 88.553 73.7479C88.1361 73.7389 87.8116 73.8264 87.5794 74.0105C87.3473 74.1946 87.2275 74.4491 87.22 74.7738C87.2147 75.0016 87.2636 75.1967 87.3666 75.3589C87.4745 75.5164 87.6172 75.6383 87.7946 75.7246C87.9721 75.8109 88.165 75.8563 88.3734 75.8608C88.577 75.8652 88.7717 75.833 88.9576 75.7643C89.1483 75.6957 89.3035 75.5899 89.4232 75.447C89.5477 75.3042 89.6124 75.1262 89.6173 74.9129L89.511 74.4742C89.5073 74.6341 89.4678 74.7715 89.3924 74.8863C89.3172 74.9962 89.2206 75.0814 89.1028 75.1419C88.9852 75.1975 88.8536 75.2238 88.7082 75.2206C88.6064 75.2184 88.5123 75.1994 88.4258 75.1636C88.3443 75.123 88.2801 75.0683 88.2332 74.9994C88.1864 74.9256 88.1641 74.8403 88.1664 74.7434ZM87.8341 73.3759C87.8834 73.343 87.9594 73.3035 88.0623 73.2572C88.1652 73.2109 88.2874 73.1723 88.4287 73.1415C88.5701 73.1106 88.7183 73.0968 88.8734 73.1002C88.9752 73.1024 89.0671 73.114 89.149 73.1352C89.231 73.1564 89.3005 73.1894 89.3577 73.2343C89.4197 73.2793 89.4645 73.336 89.492 73.4045C89.5196 73.4681 89.5324 73.546 89.5303 73.6381L89.4802 75.812L90.3891 75.8316L90.4436 73.4614C90.4489 73.2336 90.3903 73.0408 90.2678 72.883C90.1454 72.7203 89.9737 72.5954 89.7527 72.5081C89.5316 72.4209 89.2781 72.3742 88.9921 72.368C88.6819 72.3613 88.3997 72.3989 88.1457 72.4807C87.8917 72.5576 87.6764 72.6403 87.4998 72.7286L87.8341 73.3759ZM91.0948 72.5008L91.0766 73.2933L93.1415 73.3379L93.1597 72.5454L91.0948 72.5008ZM91.696 71.3499L91.5923 75.8576L92.5011 75.8773L92.6048 71.3696L91.696 71.3499ZM95.3419 76.0114C95.7442 76.0201 96.0901 75.95 96.3797 75.8011C96.6742 75.6474 96.9123 75.4149 97.0941 75.1037L96.2783 74.8314C96.1777 74.9893 96.0513 75.1078 95.8992 75.1869C95.752 75.2614 95.5741 75.2963 95.3657 75.2918C95.1815 75.2878 95.0249 75.2432 94.896 75.158C94.767 75.0728 94.6704 74.9519 94.6061 74.7953C94.5466 74.6388 94.5195 74.4491 94.5246 74.2261C94.5348 73.9936 94.5732 73.8004 94.6398 73.6467C94.7113 73.4882 94.8086 73.3715 94.9315 73.2966C95.0594 73.2169 95.2155 73.1791 95.3997 73.183C95.55 73.1863 95.68 73.2231 95.79 73.2933C95.8999 73.3636 95.9826 73.4575 96.0381 73.5751C96.0984 73.6928 96.1267 73.834 96.1229 73.9988C96.1221 74.0328 96.1114 74.0762 96.0908 74.1291C96.0752 74.1772 96.0573 74.2156 96.0372 74.2443L96.2994 73.9154L94.1255 73.8684L94.1121 74.45L97.1076 74.5148C97.1131 74.4858 97.1164 74.4471 97.1176 74.3986C97.1235 74.3502 97.127 74.3042 97.128 74.2606C97.1363 73.9019 97.0754 73.5951 96.9455 73.3401C96.8157 73.0803 96.6214 72.8821 96.3627 72.7456C96.1089 72.6043 95.7978 72.5297 95.4295 72.5217C95.0611 72.5138 94.7395 72.5796 94.4647 72.7191C94.19 72.8538 93.9745 73.0504 93.8183 73.3089C93.6669 73.5626 93.5872 73.8688 93.5789 74.2275C93.5708 74.5814 93.6364 74.8907 93.7758 75.1556C93.9201 75.4157 94.1263 75.6214 94.3944 75.7727C94.6625 75.924 94.9784 76.0036 95.3419 76.0114ZM97.8152 76.2249C97.8279 76.5162 97.8996 76.7747 98.0302 77.0006C98.1655 77.2315 98.3626 77.4103 98.6216 77.5371C98.8804 77.6688 99.2038 77.7389 99.5915 77.7472C99.9114 77.7542 100.209 77.6975 100.483 77.5774C100.757 77.4621 100.977 77.2729 101.143 77.0097C101.314 76.7467 101.405 76.4092 101.414 75.9972L101.489 72.7255L100.58 72.7058L100.505 75.9776C100.5 76.2054 100.452 76.3935 100.361 76.5418C100.275 76.6903 100.161 76.7994 100.019 76.869C99.8817 76.9388 99.7354 76.972 99.5803 76.9687C99.4107 76.965 99.2635 76.9327 99.1388 76.8718C99.0141 76.8109 98.9167 76.7264 98.8464 76.6182C98.7761 76.5148 98.7401 76.3904 98.7386 76.2449L97.8152 76.2249ZM97.7943 74.2896C97.7858 74.6579 97.8538 74.9722 97.9981 75.2323C98.1426 75.4876 98.3369 75.6834 98.5811 75.8196C98.8253 75.9558 99.0855 76.0269 99.3618 76.0329C99.643 76.0389 99.8917 75.9788 100.108 75.8526C100.329 75.7216 100.503 75.5289 100.63 75.2747C100.762 75.0205 100.832 74.7141 100.841 74.3554C100.849 73.9919 100.793 73.6827 100.673 73.428C100.558 73.1685 100.393 72.9685 100.178 72.8281C99.9674 72.6877 99.7217 72.6145 99.4406 72.6085C99.1643 72.6025 98.9011 72.6623 98.6509 72.7878C98.4006 72.9133 98.1974 73.1029 98.0413 73.3565C97.8852 73.6053 97.8029 73.9163 97.7943 74.2896ZM98.7686 74.3106C98.7733 74.107 98.8184 73.9383 98.9039 73.8044C98.9895 73.6656 99.1035 73.5614 99.2457 73.4917C99.3879 73.422 99.539 73.3889 99.699 73.3924C99.8056 73.3947 99.9093 73.4187 100.01 73.4646C100.111 73.5055 100.202 73.5657 100.282 73.645C100.368 73.7245 100.433 73.8229 100.479 73.9403C100.525 74.0576 100.546 74.1939 100.543 74.349C100.538 74.5525 100.49 74.7237 100.4 74.8623C100.314 74.9963 100.203 75.0981 100.066 75.1679C99.9331 75.2329 99.7966 75.2639 99.656 75.2609C99.4961 75.2574 99.3466 75.2178 99.2077 75.1421C99.0688 75.0663 98.9598 74.9597 98.8805 74.8222C98.8013 74.6799 98.764 74.5093 98.7686 74.3106ZM105.769 72.818L104.788 72.7968L103.673 75.4205L104.138 75.4451L103.123 72.7608L102.076 72.7382L103.395 75.7782L102.507 77.6939L103.474 77.7148L105.769 72.818Z" fill="#353E6C"/>
<path d="M157.109 74.2112L158.338 73.9177L158.244 78.0037L159.254 78.0256L159.373 72.849L157.13 73.2733L157.109 74.2112ZM164.514 76.4953C164.522 76.1463 164.456 75.8467 164.316 75.5963C164.182 75.3413 163.999 75.1433 163.77 75.0026C163.54 74.8618 163.287 74.7885 163.011 74.7825C162.861 74.7793 162.713 74.7906 162.567 74.8165C162.426 74.8377 162.291 74.8809 162.164 74.946L162.493 73.9057L164.493 73.9489L164.513 73.0474L161.743 72.9875L160.979 75.837C161.156 75.7438 161.322 75.6747 161.479 75.6295C161.64 75.5797 161.796 75.5467 161.946 75.5306C162.097 75.5096 162.241 75.5005 162.376 75.5035C162.56 75.5075 162.729 75.5451 162.883 75.6163C163.041 75.6827 163.165 75.78 163.254 75.908C163.349 76.0361 163.393 76.1923 163.389 76.3764C163.385 76.5655 163.34 76.7245 163.255 76.8536C163.169 76.9779 163.048 77.0722 162.892 77.1367C162.74 77.2013 162.555 77.2313 162.337 77.2266C162.196 77.2235 162.049 77.1937 161.895 77.137C161.741 77.0755 161.593 76.9947 161.45 76.8946C161.311 76.7946 161.183 76.6827 161.064 76.559L160.559 77.3554C160.696 77.499 160.855 77.6334 161.037 77.7586C161.218 77.8789 161.429 77.978 161.67 78.056C161.916 78.134 162.194 78.1764 162.504 78.1831C162.751 78.1884 162.992 78.1597 163.226 78.0969C163.46 78.034 163.673 77.9344 163.866 77.7979C164.058 77.6614 164.212 77.4853 164.329 77.2696C164.445 77.0539 164.507 76.7958 164.514 76.4953ZM165.229 74.234C165.223 74.4666 165.274 74.6835 165.381 74.8847C165.493 75.0811 165.647 75.2396 165.843 75.3602C166.039 75.4808 166.261 75.5438 166.508 75.5491C166.76 75.5546 166.984 75.5013 167.181 75.3891C167.382 75.2771 167.541 75.1253 167.657 74.9339C167.773 74.7375 167.834 74.5231 167.839 74.2904C167.845 74.0481 167.794 73.8287 167.687 73.6324C167.58 73.4362 167.428 73.2801 167.232 73.1643C167.041 73.0438 166.819 72.9808 166.567 72.9754C166.32 72.9701 166.096 73.0234 165.894 73.1354C165.693 73.2426 165.532 73.3919 165.411 73.5833C165.295 73.7747 165.234 73.9916 165.229 74.234ZM166.014 74.251C166.016 74.1492 166.04 74.0575 166.086 73.9761C166.131 73.8946 166.193 73.8305 166.272 73.7837C166.351 73.7321 166.444 73.7074 166.55 73.7097C166.657 73.712 166.746 73.7406 166.817 73.7955C166.894 73.8457 166.953 73.9124 166.995 73.9957C167.036 74.0791 167.056 74.1716 167.054 74.2734C167.052 74.3704 167.028 74.462 166.982 74.5483C166.936 74.6297 166.874 74.6939 166.796 74.7407C166.722 74.7876 166.632 74.8099 166.525 74.8076C166.418 74.8053 166.327 74.779 166.25 74.7289C166.174 74.6787 166.115 74.612 166.073 74.5286C166.032 74.4405 166.012 74.3479 166.014 74.251ZM168.474 77.0537C168.468 77.2912 168.519 77.5081 168.626 77.7044C168.738 77.9008 168.892 78.0593 169.088 78.18C169.284 78.3006 169.506 78.3636 169.753 78.3689C170.005 78.3744 170.229 78.321 170.426 78.2089C170.627 78.0968 170.786 77.9451 170.902 77.7536C171.018 77.5622 171.078 77.3477 171.084 77.1102C171.089 76.8727 171.039 76.6558 170.932 76.4595C170.825 76.2583 170.673 76.0999 170.477 75.9841C170.286 75.8636 170.064 75.8006 169.812 75.7952C169.565 75.7898 169.341 75.8432 169.139 75.9552C168.938 76.0624 168.777 76.2141 168.656 76.4103C168.54 76.6017 168.479 76.8162 168.474 77.0537ZM169.259 77.0707C169.261 76.9689 169.285 76.8773 169.331 76.7958C169.376 76.7144 169.438 76.6503 169.517 76.6035C169.596 76.5567 169.688 76.5344 169.795 76.5367C169.902 76.539 169.991 76.5652 170.062 76.6153C170.139 76.6654 170.198 76.7322 170.24 76.8155C170.281 76.8988 170.301 76.9914 170.299 77.0932C170.296 77.1901 170.273 77.2818 170.227 77.3681C170.181 77.4495 170.119 77.5136 170.041 77.5604C169.967 77.6073 169.877 77.6296 169.77 77.6273C169.663 77.625 169.572 77.5988 169.495 77.5486C169.419 77.4985 169.36 77.4317 169.318 77.3484C169.276 77.2602 169.257 77.1677 169.259 77.0707ZM169.596 73.1573L165.771 78.1664L166.724 78.187L170.549 73.1779L169.596 73.1573Z" fill="#45B751"/>
<path d="M175.565 73.2268L177.964 76.2436L173.152 76.2389L175.565 73.2268Z" fill="#45B751"/>
<path d="M69.7567 100.419C58.228 93.7667 45.1728 96.2622 40.0862 98.3414L39.7333 120.351L175.397 123.187L175.625 108.964C172.724 103.823 163.583 95.2518 150.226 102.101C133.531 110.662 123.358 106.695 115.467 99.9172C109.155 94.4951 100.937 97.8576 97.6177 100.217C93.1343 103.056 81.2854 107.071 69.7567 100.419Z" fill="url(#paint2_linear_28_432)"/>
<path d="M40.0863 98.3374C45.1611 96.2611 58.1862 93.7691 69.6881 100.411C81.1901 107.053 93.0117 103.044 97.4847 100.209C100.797 97.8532 108.995 94.4955 115.293 99.9096C123.165 106.677 133.315 110.639 149.972 102.089C163.297 95.2501 172.417 103.808 175.311 108.942" stroke="#24B8D2" stroke-width="0.72724" stroke-linecap="round" stroke-linejoin="round"/>
<path d="M93.5302 103.783C67.0045 57.559 41.0759 111.2 40.0155 111.181L39.9092 116.728C39.7729 123.836 45.4249 129.701 52.5335 129.827L162.299 131.778C169.407 131.905 175.28 126.245 175.417 119.136L175.791 99.6238C162.14 122.091 154.316 117.053 152.11 111.726C146.976 100.93 133.251 83.7725 119.423 101.516C105.594 119.26 96.3991 110.421 93.5302 103.783Z" fill="url(#paint3_linear_28_432)"/>
<path d="M40.1504 111.153C41.2082 111.172 67.076 57.5885 93.537 103.762C96.3989 110.392 105.572 119.222 119.367 101.497C133.163 83.7721 146.855 100.91 151.977 111.695C154.177 117.016 161.981 122.048 175.601 99.6052" stroke="#7F7CFF" stroke-width="0.727241" stroke-linecap="round" stroke-linejoin="round"/>
<g filter="url(#filter1_i_28_432)">
<rect width="130.384" height="63.8264" rx="13.6921" transform="matrix(0.999992 0.00412006 -0.00554003 0.999985 202.207 71.0474)" fill="url(#paint4_linear_28_432)" fill-opacity="0.93"/>
</g>
<path d="M261.515 100.177L265.226 100.264C265.106 100.655 264.937 101.014 264.719 101.342C264.502 101.669 264.236 101.959 263.922 102.21C263.62 102.462 263.258 102.656 262.836 102.794C262.414 102.92 261.939 102.977 261.41 102.965C260.609 102.946 259.894 102.745 259.263 102.36C258.644 101.977 258.158 101.448 257.805 100.775C257.453 100.089 257.287 99.3033 257.309 98.4171C257.331 97.5186 257.535 96.7474 257.92 96.1036C258.318 95.4601 258.841 94.9735 259.49 94.6437C260.138 94.3016 260.851 94.1396 261.626 94.1576C262.451 94.1768 263.142 94.3714 263.699 94.7415C264.269 95.0996 264.707 95.5654 265.014 96.1391L267.298 94.8805C266.919 94.2682 266.458 93.7403 265.915 93.2966C265.384 92.8409 264.765 92.4817 264.057 92.2189C263.361 91.9564 262.57 91.8149 261.684 91.7943C260.687 91.7712 259.76 91.9097 258.903 92.21C258.046 92.5103 257.296 92.9486 256.654 93.5248C256.011 94.1011 255.501 94.8035 255.124 95.6322C254.759 96.4489 254.564 97.3558 254.54 98.3528C254.515 99.3498 254.659 100.271 254.971 101.115C255.295 101.96 255.757 102.692 256.358 103.309C256.97 103.927 257.691 104.411 258.52 104.763C259.361 105.115 260.28 105.303 261.278 105.326C262.336 105.351 263.282 105.182 264.117 104.819C264.951 104.457 265.653 103.95 266.223 103.298C266.806 102.634 267.237 101.868 267.517 101C267.81 100.133 267.949 99.2062 267.937 98.2206L261.567 98.0726L261.515 100.177ZM272.255 96.7322L269.91 96.6777L269.701 105.171L272.046 105.225L272.255 96.7322ZM274.686 99.2826L275.826 97.277C275.659 97.0514 275.435 96.8799 275.155 96.7626C274.887 96.6455 274.599 96.5834 274.291 96.5763C273.848 96.566 273.413 96.716 272.987 97.0263C272.561 97.3243 272.212 97.7349 271.94 98.2582C271.669 98.7691 271.525 99.3631 271.508 100.04L272.157 100.72C272.167 100.314 272.225 99.9705 272.33 99.6897C272.448 99.3969 272.614 99.1729 272.827 99.0177C273.04 98.8626 273.294 98.7884 273.59 98.7953C273.836 98.801 274.038 98.8488 274.196 98.9387C274.366 99.0165 274.53 99.1312 274.686 99.2826ZM276.157 101.072C276.136 101.946 276.32 102.726 276.709 103.412C277.111 104.087 277.659 104.617 278.351 105.002C279.056 105.388 279.858 105.591 280.756 105.612C281.655 105.633 282.46 105.467 283.17 105.114C283.893 104.761 284.466 104.258 284.889 103.602C285.324 102.935 285.552 102.164 285.574 101.291C285.595 100.404 285.405 99.624 285.003 98.9496C284.613 98.2755 284.066 97.7455 283.361 97.3596C282.668 96.9741 281.873 96.7709 280.974 96.75C280.076 96.7291 279.265 96.895 278.542 97.2477C277.831 97.6007 277.258 98.1046 276.824 98.7596C276.401 99.4148 276.179 100.186 276.157 101.072ZM278.594 101.128C278.606 100.648 278.715 100.226 278.921 99.8613C279.139 99.4969 279.423 99.2202 279.773 99.0313C280.122 98.8423 280.506 98.7527 280.925 98.7625C281.343 98.7722 281.722 98.8795 282.062 99.0845C282.402 99.2894 282.666 99.5788 282.854 99.9526C283.054 100.327 283.148 100.754 283.136 101.234C283.125 101.714 283.01 102.136 282.791 102.501C282.585 102.853 282.308 103.13 281.958 103.331C281.608 103.52 281.224 103.61 280.806 103.6C280.387 103.59 280.008 103.483 279.668 103.278C279.329 103.061 279.059 102.771 278.858 102.409C278.671 102.035 278.583 101.608 278.594 101.128ZM285.946 97.0502L289.896 106.213L292.688 100.865L295.287 106.338L299.665 97.3689L297.135 97.3101L295.136 101.993L292.775 96.5623L290.243 101.861L288.494 97.1094L285.946 97.0502Z" fill="#303030"/>
<path d="M256.266 110.441L257.911 113.249L259.693 110.521L259.991 113.846L261.248 113.876L260.523 107.652L257.956 111.409L255.577 107.537L254.547 113.72L255.804 113.749L256.266 110.441ZM262.901 112.706C262.903 112.594 262.931 112.502 262.983 112.43C263.036 112.352 263.116 112.295 263.224 112.258C263.332 112.215 263.47 112.196 263.639 112.2C263.847 112.205 264.044 112.237 264.228 112.298C264.418 112.359 264.588 112.447 264.737 112.563L264.749 112.057C264.695 111.988 264.603 111.915 264.476 111.839C264.348 111.763 264.189 111.698 263.999 111.642C263.815 111.588 263.599 111.557 263.351 111.551C262.867 111.54 262.49 111.641 262.22 111.855C261.951 112.068 261.811 112.363 261.802 112.74C261.795 113.004 261.852 113.231 261.971 113.42C262.096 113.603 262.261 113.744 262.467 113.845C262.673 113.945 262.897 113.998 263.139 114.004C263.375 114.01 263.601 113.973 263.817 113.893C264.039 113.814 264.219 113.691 264.358 113.526C264.503 113.36 264.579 113.154 264.585 112.906L264.462 112.396C264.458 112.582 264.411 112.741 264.324 112.875C264.236 113.002 264.124 113.101 263.987 113.171C263.85 113.235 263.698 113.265 263.529 113.261C263.411 113.259 263.301 113.236 263.201 113.195C263.106 113.147 263.032 113.084 262.978 113.004C262.923 112.918 262.898 112.819 262.901 112.706ZM262.517 111.118C262.575 111.08 262.663 111.034 262.782 110.981C262.902 110.927 263.044 110.883 263.208 110.847C263.372 110.812 263.544 110.796 263.724 110.8C263.843 110.803 263.949 110.817 264.044 110.841C264.139 110.866 264.22 110.904 264.286 110.957C264.358 111.009 264.41 111.075 264.442 111.154C264.474 111.228 264.489 111.319 264.486 111.426L264.424 113.949L265.479 113.974L265.547 111.222C265.553 110.958 265.485 110.734 265.344 110.551C265.202 110.361 265.003 110.216 264.746 110.114C264.49 110.013 264.195 109.958 263.863 109.95C263.503 109.942 263.176 109.985 262.881 110.079C262.586 110.168 262.336 110.264 262.13 110.366L262.517 111.118ZM267.663 110.14L266.591 110.115L266.496 113.998L267.568 114.022L267.663 110.14ZM268.775 111.306L269.296 110.389C269.219 110.286 269.117 110.207 268.989 110.154C268.866 110.1 268.735 110.072 268.594 110.069C268.392 110.064 268.193 110.133 267.998 110.274C267.803 110.411 267.644 110.598 267.52 110.838C267.396 111.071 267.33 111.343 267.322 111.652L267.619 111.963C267.623 111.777 267.649 111.62 267.698 111.492C267.752 111.358 267.827 111.256 267.925 111.185C268.022 111.114 268.139 111.08 268.274 111.083C268.386 111.086 268.478 111.108 268.551 111.149C268.629 111.184 268.703 111.237 268.775 111.306ZM269.921 107.49L269.759 114.073L270.815 114.098L270.976 107.514L269.921 107.49ZM272.336 110.248L270.626 111.813L272.418 114.135L273.718 114.165L271.934 111.844L273.645 110.279L272.336 110.248ZM275.999 114.303C276.466 114.314 276.868 114.233 277.205 114.06C277.547 113.883 277.824 113.613 278.035 113.252L277.089 112.935C276.972 113.118 276.825 113.255 276.648 113.347C276.477 113.433 276.27 113.473 276.028 113.467C275.815 113.462 275.633 113.41 275.483 113.311C275.334 113.212 275.222 113.071 275.147 112.89C275.079 112.708 275.048 112.487 275.054 112.229C275.066 111.959 275.111 111.735 275.189 111.556C275.272 111.372 275.385 111.237 275.528 111.15C275.677 111.058 275.858 111.014 276.072 111.019C276.246 111.023 276.397 111.066 276.525 111.148C276.652 111.23 276.748 111.339 276.812 111.476C276.882 111.612 276.915 111.776 276.91 111.968C276.909 112.007 276.896 112.057 276.872 112.119C276.854 112.175 276.833 112.219 276.81 112.253L277.115 111.871L274.591 111.813L274.575 112.488L278.052 112.569C278.059 112.535 278.062 112.49 278.064 112.434C278.071 112.378 278.075 112.324 278.076 112.273C278.086 111.857 278.016 111.501 277.866 111.205C277.716 110.903 277.491 110.672 277.191 110.513C276.896 110.349 276.535 110.262 276.107 110.252C275.68 110.242 275.306 110.317 274.987 110.479C274.668 110.635 274.417 110.863 274.236 111.162C274.059 111.457 273.966 111.812 273.956 112.228C273.946 112.639 274.021 112.998 274.183 113.306C274.35 113.609 274.589 113.848 274.9 114.024C275.211 114.2 275.577 114.293 275.999 114.303ZM278.449 110.39L278.427 111.31L280.824 111.366L280.846 110.446L278.449 110.39ZM279.149 109.055L279.021 114.288L280.076 114.313L280.204 109.08L279.149 109.055ZM281.415 108.956C281.41 109.131 281.471 109.278 281.598 109.4C281.724 109.521 281.878 109.583 282.058 109.588C282.238 109.592 282.391 109.536 282.518 109.421C282.65 109.306 282.719 109.161 282.723 108.986C282.727 108.806 282.666 108.659 282.54 108.543C282.419 108.422 282.268 108.359 282.088 108.355C281.908 108.351 281.752 108.407 281.62 108.522C281.487 108.631 281.419 108.776 281.415 108.956ZM281.496 110.461L281.4 114.344L282.464 114.368L282.559 110.486L281.496 110.461ZM286.189 112.09L286.131 114.454L287.262 114.48L287.323 111.998C287.335 111.531 287.231 111.166 287.012 110.902C286.794 110.632 286.454 110.492 285.992 110.481C285.717 110.475 285.479 110.528 285.279 110.642C285.085 110.75 284.926 110.912 284.803 111.129L284.817 110.538L283.72 110.513L283.624 114.395L284.722 114.421L284.78 112.058C284.784 111.894 284.818 111.754 284.883 111.638C284.948 111.521 285.04 111.433 285.16 111.374C285.279 111.309 285.415 111.279 285.567 111.282C285.792 111.287 285.954 111.359 286.052 111.496C286.15 111.633 286.196 111.832 286.189 112.09ZM288.147 114.771C288.161 115.109 288.244 115.409 288.395 115.672C288.552 115.94 288.78 116.148 289.081 116.296C289.381 116.449 289.756 116.531 290.206 116.541C290.578 116.55 290.923 116.485 291.241 116.346C291.56 116.212 291.816 115.993 292.009 115.688C292.208 115.383 292.313 114.991 292.325 114.513L292.419 110.715L291.364 110.69L291.27 114.489C291.264 114.753 291.208 114.971 291.102 115.143C291.002 115.316 290.869 115.442 290.704 115.523C290.545 115.603 290.375 115.642 290.195 115.637C289.998 115.633 289.827 115.595 289.682 115.524C289.538 115.453 289.425 115.355 289.343 115.229C289.262 115.109 289.22 114.965 289.219 114.796L288.147 114.771ZM288.126 112.524C288.116 112.951 288.194 113.316 288.361 113.619C288.528 113.915 288.753 114.143 289.037 114.302C289.32 114.46 289.622 114.543 289.943 114.551C290.269 114.558 290.558 114.489 290.809 114.343C291.066 114.191 291.269 113.968 291.417 113.673C291.57 113.378 291.652 113.022 291.663 112.606C291.673 112.184 291.609 111.825 291.47 111.529C291.336 111.227 291.145 110.995 290.896 110.832C290.652 110.668 290.367 110.583 290.04 110.575C289.72 110.568 289.414 110.637 289.123 110.782C288.833 110.927 288.596 111.147 288.415 111.441C288.233 111.73 288.137 112.091 288.126 112.524ZM289.257 112.55C289.263 112.314 289.316 112.118 289.415 111.963C289.515 111.802 289.647 111.681 289.813 111.6C289.978 111.52 290.153 111.481 290.339 111.486C290.463 111.489 290.583 111.517 290.7 111.57C290.817 111.618 290.922 111.688 291.016 111.78C291.115 111.873 291.191 111.987 291.244 112.123C291.297 112.26 291.321 112.418 291.317 112.598C291.311 112.834 291.255 113.033 291.15 113.194C291.05 113.349 290.921 113.467 290.761 113.548C290.607 113.623 290.449 113.659 290.286 113.655C290.1 113.651 289.927 113.604 289.765 113.516C289.604 113.428 289.478 113.304 289.386 113.144C289.294 112.979 289.251 112.781 289.257 112.55ZM295.543 109.85L297.13 109.887L297.012 114.706L298.219 114.734L298.337 109.915L299.932 109.952L299.959 108.863L295.57 108.761L295.543 109.85ZM300.89 110.912L299.818 110.887L299.722 114.769L300.794 114.794L300.89 110.912ZM302.001 112.078L302.522 111.161C302.446 111.058 302.344 110.979 302.215 110.926C302.093 110.872 301.961 110.844 301.821 110.84C301.618 110.836 301.419 110.904 301.224 111.046C301.03 111.182 300.87 111.37 300.746 111.609C300.622 111.843 300.556 112.114 300.549 112.424L300.845 112.735C300.85 112.549 300.876 112.392 300.924 112.264C300.978 112.13 301.054 112.027 301.151 111.957C301.249 111.886 301.365 111.852 301.5 111.855C301.613 111.857 301.705 111.879 301.777 111.92C301.855 111.956 301.93 112.008 302.001 112.078ZM303.817 113.657C303.82 113.544 303.848 113.452 303.9 113.38C303.953 113.302 304.033 113.245 304.141 113.208C304.249 113.166 304.387 113.146 304.556 113.15C304.764 113.155 304.961 113.188 305.145 113.249C305.335 113.309 305.504 113.398 305.654 113.514L305.666 113.007C305.611 112.938 305.52 112.866 305.393 112.79C305.265 112.714 305.106 112.648 304.916 112.593C304.732 112.538 304.516 112.508 304.268 112.502C303.784 112.491 303.407 112.592 303.137 112.805C302.868 113.018 302.728 113.313 302.719 113.69C302.712 113.955 302.769 114.181 302.888 114.37C303.013 114.553 303.178 114.695 303.384 114.795C303.59 114.896 303.814 114.949 304.056 114.954C304.292 114.96 304.518 114.923 304.734 114.844C304.956 114.764 305.136 114.642 305.275 114.476C305.42 114.311 305.496 114.104 305.502 113.856L305.379 113.347C305.374 113.533 305.328 113.692 305.241 113.825C305.153 113.952 305.041 114.051 304.904 114.121C304.767 114.186 304.614 114.216 304.446 114.212C304.327 114.209 304.218 114.187 304.118 114.145C304.023 114.098 303.949 114.034 303.895 113.954C303.84 113.868 303.815 113.769 303.817 113.657ZM303.434 112.069C303.491 112.031 303.58 111.985 303.699 111.931C303.819 111.878 303.961 111.833 304.125 111.798C304.289 111.762 304.461 111.746 304.641 111.75C304.759 111.753 304.866 111.767 304.961 111.792C305.056 111.816 305.137 111.855 305.203 111.907C305.275 111.959 305.327 112.025 305.359 112.105C305.391 112.179 305.406 112.269 305.403 112.376L305.341 114.9L306.396 114.924L306.464 112.173C306.47 111.908 306.402 111.684 306.261 111.501C306.119 111.312 305.92 111.166 305.663 111.065C305.407 110.963 305.112 110.908 304.78 110.901C304.42 110.892 304.093 110.935 303.798 111.03C303.503 111.119 303.253 111.214 303.047 111.317L303.434 112.069ZM307.179 111.058L307.157 111.978L309.587 112.034L309.61 111.114L307.179 111.058ZM309.531 109.508L310.016 108.7C309.966 108.643 309.898 108.582 309.809 108.518C309.726 108.454 309.623 108.401 309.5 108.359C309.378 108.311 309.229 108.285 309.055 108.281C308.762 108.274 308.513 108.324 308.308 108.432C308.103 108.534 307.947 108.686 307.841 108.886C307.734 109.086 307.678 109.335 307.67 109.634L307.539 114.951L308.595 114.975L308.719 109.903C308.723 109.757 308.743 109.636 308.779 109.541C308.815 109.446 308.862 109.38 308.919 109.342C308.982 109.298 309.056 109.277 309.14 109.279C309.208 109.281 309.275 109.299 309.341 109.335C309.414 109.364 309.477 109.422 309.531 109.508ZM309.932 111.122L309.91 112.042L312.34 112.098L312.363 111.178L309.932 111.122ZM312.284 109.572L312.769 108.764C312.719 108.706 312.651 108.646 312.562 108.582C312.479 108.518 312.376 108.465 312.254 108.423C312.131 108.375 311.982 108.349 311.808 108.345C311.515 108.338 311.266 108.388 311.061 108.496C310.856 108.598 310.7 108.75 310.594 108.95C310.487 109.15 310.431 109.399 310.423 109.698L310.293 115.015L311.348 115.039L311.472 109.967C311.476 109.82 311.496 109.7 311.532 109.605C311.568 109.51 311.615 109.444 311.672 109.406C311.735 109.362 311.809 109.341 311.893 109.343C311.961 109.345 312.028 109.363 312.094 109.399C312.167 109.428 312.23 109.486 312.284 109.572ZM313.001 109.69C312.996 109.864 313.058 110.012 313.184 110.133C313.311 110.254 313.464 110.317 313.644 110.321C313.824 110.325 313.977 110.27 314.104 110.155C314.236 110.039 314.305 109.895 314.309 109.72C314.313 109.54 314.252 109.392 314.126 109.277C314.005 109.156 313.854 109.093 313.674 109.089C313.494 109.085 313.338 109.14 313.206 109.255C313.074 109.365 313.005 109.51 313.001 109.69ZM313.082 111.195L312.987 115.077L314.05 115.102L314.146 111.22L313.082 111.195ZM316.085 113.207C316.091 112.988 316.146 112.795 316.252 112.628C316.357 112.462 316.495 112.333 316.667 112.241C316.843 112.144 317.036 112.098 317.244 112.102C317.402 112.106 317.559 112.135 317.715 112.189C317.871 112.244 318.013 112.32 318.14 112.419C318.273 112.512 318.372 112.621 318.436 112.747L318.464 111.624C318.332 111.503 318.157 111.406 317.939 111.333C317.727 111.255 317.477 111.213 317.19 111.206C316.78 111.196 316.406 111.272 316.07 111.433C315.739 111.594 315.475 111.825 315.276 112.124C315.083 112.424 314.981 112.776 314.971 113.181C314.961 113.581 315.046 113.937 315.224 114.251C315.407 114.559 315.661 114.802 315.983 114.978C316.311 115.155 316.68 115.248 317.091 115.257C317.378 115.264 317.629 115.236 317.844 115.173C318.066 115.105 318.245 115.011 318.383 114.89L318.411 113.768C318.34 113.89 318.239 113.997 318.107 114.09C317.981 114.177 317.839 114.247 317.68 114.3C317.521 114.347 317.357 114.368 317.189 114.364C316.98 114.36 316.79 114.307 316.618 114.208C316.452 114.108 316.32 113.973 316.223 113.801C316.126 113.63 316.08 113.432 316.085 113.207Z" fill="#303030"/>
<ellipse cx="230.041" cy="103.429" rx="17.6906" ry="17.7275" transform="rotate(21.7327 230.041 103.429)" fill="#CFDDFF"/>
<g filter="url(#filter2_d_28_432)">
<ellipse cx="230.043" cy="103.429" rx="9.18119" ry="9.20036" transform="rotate(21.7327 230.043 103.429)" fill="#2562FF"/>
<path d="M238.326 106.731C236.499 111.316 231.308 113.554 226.734 111.73C222.159 109.907 219.932 104.712 221.759 100.127C223.587 95.5418 228.777 93.3042 233.352 95.1276C237.926 96.951 240.154 102.146 238.326 106.731Z" stroke="#CAD9FF" stroke-width="0.527677"/>
</g>
<path d="M133.387 148.001L131.896 295.768M268.811 149.252L267.32 297.019M202.14 148.636L200.649 296.403M336.87 149.881L335.379 297.647M166.722 148.309L165.231 296.076M302.84 149.566L301.349 297.333M235.475 148.944L233.984 296.711M370.899 150.195L369.408 297.961M104.041 269.342L403.361 272.106M104.679 206.14L403.999 208.905M104.355 238.186L403.675 240.951M105.001 174.095L404.322 176.859" stroke="#E4B5A8" stroke-width="0.411357"/>
<path d="M126 286.001L195.077 226.683L219.5 258.001L275 212.001L318.822 262.877L383 193.001" stroke="url(#paint5_linear_28_432)" stroke-width="8" stroke-linecap="round"/>
<g filter="url(#filter3_d_28_432)">
<ellipse cx="275.727" cy="212.743" rx="12.0979" ry="12.1232" transform="rotate(21.7327 275.727 212.743)" fill="white"/>
<path d="M285.107 216.482C283.036 221.679 277.156 224.21 271.979 222.146C266.802 220.083 264.275 214.201 266.347 209.003C268.419 203.806 274.299 201.275 279.475 203.339C284.652 205.402 287.179 211.284 285.107 216.482Z" stroke="#3DACB7" stroke-width="4"/>
</g>
<g filter="url(#filter4_d_28_432)">
<ellipse cx="217.727" cy="258.742" rx="12.0979" ry="12.1232" transform="rotate(21.7327 217.727 258.742)" fill="white"/>
<path d="M227.107 262.482C225.036 267.679 219.156 270.21 213.979 268.146C208.802 266.083 206.275 260.201 208.347 255.003C210.419 249.806 216.299 247.275 221.475 249.339C226.652 251.402 229.179 257.284 227.107 262.482Z" stroke="#3D95CF" stroke-width="4"/>
</g>
<g filter="url(#filter5_d_28_432)">
<ellipse cx="320.727" cy="258.742" rx="12.0979" ry="12.1232" transform="rotate(21.7327 320.727 258.742)" fill="white"/>
<path d="M330.107 262.482C328.036 267.679 322.156 270.21 316.979 268.146C311.802 266.083 309.275 260.201 311.347 255.003C313.419 249.806 319.299 247.275 324.475 249.339C329.652 251.402 332.179 257.284 330.107 262.482Z" stroke="#3DC39E" stroke-width="4"/>
</g>
<g filter="url(#filter6_d_28_432)">
<ellipse cx="191.704" cy="227.72" rx="12.0803" ry="12.1055" transform="rotate(21.7327 191.704 227.72)" fill="white"/>
<path d="M201.068 231.452C199 236.64 193.13 239.167 187.962 237.107C182.794 235.047 180.272 229.175 182.34 223.987C184.408 218.799 190.278 216.272 195.446 218.332C200.614 220.392 203.136 226.264 201.068 231.452Z" stroke="#3C88DC" stroke-width="4"/>
</g>
<defs>
<filter id="filter0_i_28_432" x="28.397" y="54.5879" width="161.116" height="85.0171" filterUnits="userSpaceOnUse" color-interpolation-filters="sRGB">
<feFlood flood-opacity="0" result="BackgroundImageFix"/>
<feBlend mode="normal" in="SourceGraphic" in2="BackgroundImageFix" result="shape"/>
<feColorMatrix in="SourceAlpha" type="matrix" values="0 0 0 0 0 0 0 0 0 0 0 0 0 0 0 0 0 0 127 0" result="hardAlpha"/>
<feOffset dx="-1.02691" dy="1.02691"/>
<feComposite in2="hardAlpha" operator="arithmetic" k2="-1" k3="1"/>
<feColorMatrix type="matrix" values="0 0 0 0 1 0 0 0 0 1 0 0 0 0 1 0 0 0 1 0"/>
<feBlend mode="normal" in2="shape" result="effect1_innerShadow_28_432"/>
</filter>
<filter id="filter1_i_28_432" x="201.929" y="71.1035" width="130.585" height="64.25" filterUnits="userSpaceOnUse" color-interpolation-filters="sRGB">
<feFlood flood-opacity="0" result="BackgroundImageFix"/>
<feBlend mode="normal" in="SourceGraphic" in2="BackgroundImageFix" result="shape"/>
<feColorMatrix in="SourceAlpha" type="matrix" values="0 0 0 0 0 0 0 0 0 0 0 0 0 0 0 0 0 0 127 0" result="hardAlpha"/>
<feOffset dx="-1.02691" dy="1.02691"/>
<feComposite in2="hardAlpha" operator="arithmetic" k2="-1" k3="1"/>
<feColorMatrix type="matrix" values="0 0 0 0 1 0 0 0 0 1 0 0 0 0 1 0 0 0 1 0"/>
<feBlend mode="normal" in2="shape" result="effect1_innerShadow_28_432"/>
</filter>
<filter id="filter2_d_28_432" x="219.273" y="94.2285" width="24.7047" height="25.2602" filterUnits="userSpaceOnUse" color-interpolation-filters="sRGB">
<feFlood flood-opacity="0" result="BackgroundImageFix"/>
<feColorMatrix in="SourceAlpha" type="matrix" values="0 0 0 0 0 0 0 0 0 0 0 0 0 0 0 0 0 0 127 0" result="hardAlpha"/>
<feOffset dx="1.58303" dy="3.69374"/>
<feGaussianBlur stdDeviation="1.58303"/>
<feComposite in2="hardAlpha" operator="out"/>
<feColorMatrix type="matrix" values="0 0 0 0 0.66125 0 0 0 0 0.717563 0 0 0 0 0.8625 0 0 0 1 0"/>
<feBlend mode="normal" in2="BackgroundImageFix" result="effect1_dropShadow_28_432"/>
<feBlend mode="normal" in="SourceGraphic" in2="effect1_dropShadow_28_432" result="shape"/>
</filter>
<filter id="filter3_d_28_432" x="261.832" y="200.62" width="31.3724" height="32.006" filterUnits="userSpaceOnUse" color-interpolation-filters="sRGB">
<feFlood flood-opacity="0" result="BackgroundImageFix"/>
<feColorMatrix in="SourceAlpha" type="matrix" values="0 0 0 0 0 0 0 0 0 0 0 0 0 0 0 0 0 0 127 0" result="hardAlpha"/>
<feOffset dx="1.79086" dy="4.17866"/>
<feGaussianBlur stdDeviation="1.79086"/>
<feComposite in2="hardAlpha" operator="out"/>
<feColorMatrix type="matrix" values="0 0 0 0 0.875 0 0 0 0 0.73125 0 0 0 0 0.707292 0 0 0 1 0"/>
<feBlend mode="multiply" in2="BackgroundImageFix" result="effect1_dropShadow_28_432"/>
<feBlend mode="normal" in="SourceGraphic" in2="effect1_dropShadow_28_432" result="shape"/>
</filter>
<filter id="filter4_d_28_432" x="203.832" y="246.62" width="31.3724" height="32.006" filterUnits="userSpaceOnUse" color-interpolation-filters="sRGB">
<feFlood flood-opacity="0" result="BackgroundImageFix"/>
<feColorMatrix in="SourceAlpha" type="matrix" values="0 0 0 0 0 0 0 0 0 0 0 0 0 0 0 0 0 0 127 0" result="hardAlpha"/>
<feOffset dx="1.79086" dy="4.17866"/>
<feGaussianBlur stdDeviation="1.79086"/>
<feComposite in2="hardAlpha" operator="out"/>
<feColorMatrix type="matrix" values="0 0 0 0 0.875 0 0 0 0 0.73125 0 0 0 0 0.707292 0 0 0 1 0"/>
<feBlend mode="multiply" in2="BackgroundImageFix" result="effect1_dropShadow_28_432"/>
<feBlend mode="normal" in="SourceGraphic" in2="effect1_dropShadow_28_432" result="shape"/>
</filter>
<filter id="filter5_d_28_432" x="306.832" y="246.62" width="31.3724" height="32.006" filterUnits="userSpaceOnUse" color-interpolation-filters="sRGB">
<feFlood flood-opacity="0" result="BackgroundImageFix"/>
<feColorMatrix in="SourceAlpha" type="matrix" values="0 0 0 0 0 0 0 0 0 0 0 0 0 0 0 0 0 0 127 0" result="hardAlpha"/>
<feOffset dx="1.79086" dy="4.17866"/>
<feGaussianBlur stdDeviation="1.79086"/>
<feComposite in2="hardAlpha" operator="out"/>
<feColorMatrix type="matrix" values="0 0 0 0 0.875 0 0 0 0 0.73125 0 0 0 0 0.707292 0 0 0 1 0"/>
<feBlend mode="multiply" in2="BackgroundImageFix" result="effect1_dropShadow_28_432"/>
<feBlend mode="normal" in="SourceGraphic" in2="effect1_dropShadow_28_432" result="shape"/>
</filter>
<filter id="filter6_d_28_432" x="177.826" y="215.614" width="31.3372" height="31.9708" filterUnits="userSpaceOnUse" color-interpolation-filters="sRGB">
<feFlood flood-opacity="0" result="BackgroundImageFix"/>
<feColorMatrix in="SourceAlpha" type="matrix" values="0 0 0 0 0 0 0 0 0 0 0 0 0 0 0 0 0 0 127 0" result="hardAlpha"/>
<feOffset dx="1.79086" dy="4.17866"/>
<feGaussianBlur stdDeviation="1.79086"/>
<feComposite in2="hardAlpha" operator="out"/>
<feColorMatrix type="matrix" values="0 0 0 0 0.875 0 0 0 0 0.73125 0 0 0 0 0.707292 0 0 0 1 0"/>
<feBlend mode="multiply" in2="BackgroundImageFix" result="effect1_dropShadow_28_432"/>
<feBlend mode="normal" in="SourceGraphic" in2="effect1_dropShadow_28_432" result="shape"/>
</filter>
<linearGradient id="paint0_linear_28_432" x1="146.232" y1="30.4321" x2="11.7943" y2="1.06736" gradientUnits="userSpaceOnUse">
<stop stop-color="#F4F4F4"/>
<stop offset="0.421875" stop-color="#F4F4F4"/>
<stop offset="1" stop-color="white"/>
</linearGradient>
<linearGradient id="paint1_linear_28_432" x1="108.885" y1="68.3857" x2="108.458" y2="136.403" gradientUnits="userSpaceOnUse">
<stop stop-color="#DADADA"/>
<stop offset="1" stop-color="white" stop-opacity="0"/>
</linearGradient>
<linearGradient id="paint2_linear_28_432" x1="107.962" y1="97.0073" x2="107.444" y2="121.766" gradientUnits="userSpaceOnUse">
<stop stop-color="#65D2E5"/>
<stop offset="1" stop-color="white" stop-opacity="0"/>
</linearGradient>
<linearGradient id="paint3_linear_28_432" x1="108.282" y1="85.6706" x2="107.479" y2="130.804" gradientUnits="userSpaceOnUse">
<stop stop-color="#6865E5"/>
<stop offset="1" stop-color="white" stop-opacity="0"/>
</linearGradient>
<linearGradient id="paint4_linear_28_432" x1="118.88" y1="23.2751" x2="10.2306" y2="-1.95031" gradientUnits="userSpaceOnUse">
<stop stop-color="#F4F4F4"/>
<stop offset="0.421875" stop-color="#F4F4F4"/>
<stop offset="1" stop-color="white"/>
</linearGradient>
<linearGradient id="paint5_linear_28_432" x1="342.131" y1="185.964" x2="130.79" y2="245.965" gradientUnits="userSpaceOnUse">
<stop stop-color="#3DCF92"/>
<stop offset="1" stop-color="#3D67FF"/>
</linearGradient>
</defs>
</svg>
