<svg width="313" height="213" viewBox="0 0 313 213" fill="none" xmlns="http://www.w3.org/2000/svg">
<rect x="17.9272" y="0.00146484" width="292.359" height="142.519" rx="8.78541" fill="#CDD5EA"/>
<g filter="url(#filter0_d_28_480)">
<rect x="31.5933" y="26.8462" width="265.027" height="152.281" rx="8.78541" fill="white"/>
</g>
<rect x="224.873" y="12.6919" width="61.0098" height="4.39271" rx="2.19635" fill="white"/>
<rect x="62.3423" y="67.356" width="93.7111" height="5.36886" rx="2.68443" fill="#E7E7E7"/>
<rect x="230.729" y="69.3081" width="38.5582" height="5.85694" rx="2.92847" fill="#353535"/>
<rect x="62.3423" y="58.0825" width="93.7111" height="5.85694" rx="2.92847" fill="#E7E7E7"/>
<rect x="230.729" y="58.0825" width="38.5582" height="5.85694" rx="2.92847" fill="#E7E7E7"/>
<rect x="62.3423" y="76.1421" width="93.7111" height="5.85694" rx="2.92847" fill="#E7E7E7"/>
<rect x="230.729" y="81.0229" width="38.5582" height="5.85694" rx="2.92847" fill="#E7E7E7"/>
<rect x="62.3423" y="85.4155" width="53.2006" height="5.36886" rx="2.68443" fill="#292929"/>
<rect x="230.729" y="92.7368" width="21.9635" height="5.85694" rx="2.92847" fill="#E7E7E7"/>
<circle cx="36.9625" cy="15.1315" r="4.39271" fill="#FE5151"/>
<circle cx="49.1642" cy="15.1315" r="4.39271" fill="#FFAC2F"/>
<circle cx="61.3663" cy="15.1315" r="4.39271" fill="#3FD28C"/>
<line x1="188.296" y1="120.491" x2="274.855" y2="120.491" stroke="#F1F1F1" stroke-width="0.488079"/>
<line x1="187.059" y1="137.212" x2="273.617" y2="137.212" stroke="#F1F1F1" stroke-width="0.488079"/>
<line x1="187.059" y1="112.129" x2="273.617" y2="112.129" stroke="#F1F1F1" stroke-width="0.488079"/>
<line x1="187.059" y1="128.851" x2="273.617" y2="128.851" stroke="#F1F1F1" stroke-width="0.488079"/>
<line x1="187.059" y1="103.769" x2="273.617" y2="103.769" stroke="#F1F1F1" stroke-width="0.488079"/>
<line x1="193.486" y1="95.6528" x2="193.486" y2="142.158" stroke="#F1F1F1" stroke-width="0.488079"/>
<line x1="223.163" y1="95.6528" x2="223.163" y2="142.158" stroke="#F1F1F1" stroke-width="0.488079"/>
<line x1="252.839" y1="95.6528" x2="252.839" y2="142.158" stroke="#F1F1F1" stroke-width="0.488079"/>
<line x1="203.379" y1="95.1304" x2="203.379" y2="141.636" stroke="#F1F1F1" stroke-width="0.488079"/>
<line x1="233.056" y1="95.1304" x2="233.056" y2="141.636" stroke="#F1F1F1" stroke-width="0.488079"/>
<line x1="262.734" y1="95.1304" x2="262.734" y2="141.636" stroke="#F1F1F1" stroke-width="0.488079"/>
<line x1="213.27" y1="95.1304" x2="213.27" y2="141.636" stroke="#F1F1F1" stroke-width="0.488079"/>
<line x1="242.948" y1="95.1304" x2="242.948" y2="141.636" stroke="#F1F1F1" stroke-width="0.488079"/>
<line x1="272.625" y1="95.1304" x2="272.625" y2="141.636" stroke="#F1F1F1" stroke-width="0.488079"/>
<path d="M232.749 125.095C208.387 116.352 192.278 133.353 186.539 144.116C186.201 144.749 186.674 145.488 187.391 145.488H274.061C274.595 145.488 275.029 145.079 275.031 144.546C275.058 138.105 274.851 100.84 266.379 100.84C257.105 100.84 258.175 134.22 232.749 125.095Z" fill="url(#paint0_linear_28_480)"/>
<path d="M179.455 91.0015V152.527H282.805" stroke="#2562FF"/>
<circle cx="215.375" cy="120.608" r="10.0056" fill="white"/>
<ellipse cx="215.375" cy="120.852" rx="6.58906" ry="6.8331" fill="#5C5CE9"/>
<rect x="148.925" y="119.001" width="7.07524" height="31.9176" rx="3.53762" fill="#EEEEEE"/>
<rect x="148.925" y="133.128" width="7.07524" height="17.7901" rx="3.53762" fill="#5C5CE9"/>
<rect x="134.437" y="119.001" width="7.07524" height="31.9176" rx="3.53762" fill="#EEEEEE"/>
<rect x="134.437" y="140.455" width="7.07524" height="10.4648" rx="3.53762" fill="#5C5CE9"/>
<rect x="119.949" y="119.001" width="7.07524" height="31.9176" rx="3.53762" fill="#EEEEEE"/>
<rect x="119.949" y="126.328" width="7.07524" height="24.5922" rx="3.53762" fill="#5C5CE9"/>
<rect x="105.461" y="119.001" width="7.07524" height="31.9176" rx="3.53762" fill="#EEEEEE"/>
<rect x="105.461" y="129.466" width="7.07524" height="21.4528" rx="3.53762" fill="#5C5CE9"/>
<rect x="90.9746" y="119.001" width="7.07524" height="31.9176" rx="3.53762" fill="#EEEEEE"/>
<rect x="90.9746" y="133.128" width="7.07524" height="17.7901" rx="3.53762" fill="#5C5CE9"/>
<rect x="76.4878" y="119.001" width="7.07524" height="31.9176" rx="3.53762" fill="#EEEEEE"/>
<rect x="76.4878" y="124.757" width="7.07524" height="26.1619" rx="3.53762" fill="#5C5CE9"/>
<rect x="62" y="119.001" width="7.07524" height="31.9176" rx="3.53762" fill="#EEEEEE"/>
<rect x="62" y="137.837" width="7.07524" height="13.081" rx="3.53762" fill="#5C5CE9"/>
<defs>
<filter id="filter0_d_28_480" x="0.356236" y="13.6681" width="311.882" height="199.136" filterUnits="userSpaceOnUse" color-interpolation-filters="sRGB">
<feFlood flood-opacity="0" result="BackgroundImageFix"/>
<feColorMatrix in="SourceAlpha" type="matrix" values="0 0 0 0 0 0 0 0 0 0 0 0 0 0 0 0 0 0 127 0" result="hardAlpha"/>
<feOffset dx="-7.80926" dy="10.2496"/>
<feGaussianBlur stdDeviation="11.7139"/>
<feComposite in2="hardAlpha" operator="out"/>
<feColorMatrix type="matrix" values="0 0 0 0 0.941667 0 0 0 0 0.900905 0 0 0 0 0.898507 0 0 0 0.25 0"/>
<feBlend mode="multiply" in2="BackgroundImageFix" result="effect1_dropShadow_28_480"/>
<feBlend mode="normal" in="SourceGraphic" in2="effect1_dropShadow_28_480" result="shape"/>
</filter>
<linearGradient id="paint0_linear_28_480" x1="230.435" y1="91.5668" x2="230.435" y2="145.488" gradientUnits="userSpaceOnUse">
<stop stop-color="#FFE279"/>
<stop offset="1" stop-color="#FFDC60"/>
</linearGradient>
</defs>
</svg>
