<svg width="89" height="88" viewBox="0 0 89 88" fill="none" xmlns="http://www.w3.org/2000/svg">
<circle cx="44.5" cy="44.0015" r="44" fill="#292930"/>
<path d="M54.2778 29.0015C53.9536 29.0015 53.6427 29.119 53.4135 29.3282C53.1843 29.5373 53.0556 29.821 53.0556 30.1168V34.5784H35.9444V30.1168C35.9444 29.821 35.8157 29.5373 35.5865 29.3282C35.3573 29.119 35.0464 29.0015 34.7222 29.0015C34.3981 29.0015 34.0872 29.119 33.858 29.3282C33.6288 29.5373 33.5 29.821 33.5 30.1168V56.8861C33.5 57.1819 33.6288 57.4656 33.858 57.6748C34.0872 57.884 34.3981 58.0015 34.7222 58.0015C35.0464 58.0015 35.3573 57.884 35.5865 57.6748C35.8157 57.4656 35.9444 57.1819 35.9444 56.8861V52.4245H53.0556V56.8861C53.0556 57.1819 53.1843 57.4656 53.4135 57.6748C53.6427 57.884 53.9536 58.0015 54.2778 58.0015C54.6019 58.0015 54.9128 57.884 55.142 57.6748C55.3712 57.4656 55.5 57.1819 55.5 56.8861V30.1168C55.5 29.821 55.3712 29.5373 55.142 29.3282C54.9128 29.119 54.6019 29.0015 54.2778 29.0015ZM53.0556 36.8092V42.3861H35.9444V36.8092H53.0556ZM35.9444 50.1938V44.6168H53.0556V50.1938H35.9444Z" fill="#8A8A8A"/>
</svg>
