<svg width="287" height="263" viewBox="0 0 287 263" fill="none" xmlns="http://www.w3.org/2000/svg">
<rect x="1" y="92.0015" width="250" height="79" rx="10" fill="#FFF6EE"/>
<path d="M31 111.001C28.4288 111.001 25.9154 111.764 23.7776 113.192C21.6398 114.621 19.9735 116.651 18.9896 119.027C18.0056 121.402 17.7482 124.016 18.2498 126.538C18.7514 129.059 19.9895 131.376 21.8076 133.194C23.6257 135.012 25.9421 136.25 28.4638 136.752C30.9856 137.253 33.5994 136.996 35.9749 136.012C38.3503 135.028 40.3806 133.362 41.8091 131.224C43.2376 129.086 44 126.573 44 124.001C43.9934 120.556 42.6216 117.253 40.1851 114.816C37.7485 112.38 34.4458 111.008 31 111.001ZM37.1875 121.726L29.8625 128.726C29.6731 128.905 29.4225 129.003 29.1625 129.001C29.0354 129.003 28.9092 128.98 28.7913 128.933C28.6733 128.886 28.5658 128.815 28.475 128.726L24.8125 125.226C24.7109 125.138 24.6283 125.03 24.5696 124.908C24.5109 124.787 24.4774 124.655 24.471 124.52C24.4647 124.386 24.4856 124.251 24.5325 124.125C24.5795 123.998 24.6515 123.883 24.7443 123.785C24.8371 123.687 24.9486 123.609 25.0723 123.555C25.196 123.502 25.3293 123.474 25.4641 123.473C25.5989 123.472 25.7325 123.499 25.8568 123.551C25.9811 123.603 26.0936 123.68 26.1875 123.776L29.1625 126.614L35.8125 120.276C36.0069 120.107 36.2594 120.019 36.5172 120.031C36.7749 120.043 37.018 120.155 37.1955 120.342C37.3731 120.529 37.4714 120.778 37.4699 121.036C37.4684 121.294 37.3672 121.541 37.1875 121.726Z" fill="#3FCD78"/>
<rect x="55" y="112.001" width="166" height="13" rx="6.5" fill="#EBC8A8"/>
<rect x="55" y="133.001" width="108" height="13" rx="6.5" fill="#FEE3CB"/>
<rect y="0.00146484" width="250" height="79" rx="10" fill="white"/>
<path d="M30 19.0015C27.4288 19.0015 24.9154 19.7639 22.7776 21.1924C20.6398 22.6208 18.9735 24.6511 17.9896 27.0266C17.0056 29.402 16.7482 32.0159 17.2498 34.5376C17.7514 37.0594 18.9895 39.3758 20.8076 41.1938C22.6257 43.0119 24.9421 44.2501 27.4638 44.7517C29.9856 45.2533 32.5994 44.9958 34.9749 44.0119C37.3503 43.028 39.3806 41.3617 40.8091 39.2239C42.2376 37.086 43 34.5726 43 32.0015C42.9934 28.5557 41.6216 25.2529 39.1851 22.8164C36.7485 20.3798 33.4458 19.0081 30 19.0015ZM36.1875 29.7265L28.8625 36.7265C28.6731 36.9046 28.4225 37.0031 28.1625 37.0015C28.0354 37.0033 27.9092 36.9799 27.7913 36.9327C27.6733 36.8855 27.5658 36.8154 27.475 36.7265L23.8125 33.2265C23.7109 33.1378 23.6283 33.0296 23.5696 32.9082C23.5109 32.7868 23.4774 32.6549 23.471 32.5202C23.4647 32.3855 23.4856 32.251 23.5325 32.1246C23.5795 31.9982 23.6515 31.8827 23.7443 31.7848C23.8371 31.687 23.9486 31.609 24.0723 31.5554C24.196 31.5018 24.3293 31.4737 24.4641 31.473C24.5989 31.4722 24.7325 31.4987 24.8568 31.5508C24.9811 31.603 25.0936 31.6797 25.1875 31.7765L28.1625 34.614L34.8125 28.2765C35.0069 28.1068 35.2594 28.0189 35.5172 28.0311C35.7749 28.0433 36.018 28.1547 36.1955 28.3419C36.3731 28.5291 36.4714 28.7778 36.4699 29.0358C36.4684 29.2938 36.3672 29.5413 36.1875 29.7265Z" fill="#3FCD78"/>
<rect x="54" y="20.0015" width="166" height="13" rx="6.5" fill="#FFE4D0"/>
<rect x="54" y="41.0015" width="108" height="13" rx="6.5" fill="#FEDBD5"/>
<rect x="37.5" y="184.501" width="249" height="78" rx="14.5" stroke="#CE6D54" stroke-dasharray="4 4"/>
<path d="M67 203.001C64.4288 203.001 61.9154 203.764 59.7776 205.192C57.6398 206.621 55.9735 208.651 54.9896 211.027C54.0056 213.402 53.7482 216.016 54.2498 218.538C54.7514 221.059 55.9895 223.376 57.8076 225.194C59.6257 227.012 61.9421 228.25 64.4638 228.752C66.9856 229.253 69.5994 228.996 71.9749 228.012C74.3503 227.028 76.3806 225.362 77.8091 223.224C79.2376 221.086 80 218.573 80 216.001C79.9934 212.556 78.6216 209.253 76.1851 206.816C73.7485 204.38 70.4458 203.008 67 203.001ZM73.1875 213.726L65.8625 220.726C65.6731 220.905 65.4225 221.003 65.1625 221.001C65.0354 221.003 64.9092 220.98 64.7913 220.933C64.6733 220.886 64.5658 220.815 64.475 220.726L60.8125 217.226C60.7109 217.138 60.6283 217.03 60.5696 216.908C60.5109 216.787 60.4774 216.655 60.471 216.52C60.4647 216.386 60.4856 216.251 60.5325 216.125C60.5795 215.998 60.6515 215.883 60.7443 215.785C60.8371 215.687 60.9486 215.609 61.0723 215.555C61.196 215.502 61.3293 215.474 61.4641 215.473C61.5989 215.472 61.7325 215.499 61.8568 215.551C61.9811 215.603 62.0936 215.68 62.1875 215.776L65.1625 218.614L71.8125 212.276C72.0069 212.107 72.2594 212.019 72.5172 212.031C72.7749 212.043 73.018 212.155 73.1955 212.342C73.3731 212.529 73.4714 212.778 73.4699 213.036C73.4684 213.294 73.3672 213.541 73.1875 213.726Z" fill="#2C2C2C"/>
<rect x="91" y="204.001" width="166" height="13" rx="6.5" fill="white"/>
<rect x="91" y="225.001" width="108" height="13" rx="6.5" fill="#F8F8F8"/>
</svg>
