<svg width="83" height="83" viewBox="0 0 83 83" fill="none" xmlns="http://www.w3.org/2000/svg">
<path d="M75.4759 8.29858C77.343 8.29858 78.8506 9.87532 78.8506 11.8255V65.6282C78.8506 67.5784 77.343 69.1551 75.4759 69.1551H7.53786C5.67067 69.1551 4.16309 67.5784 4.16309 65.6282V11.8255C4.16309 9.87532 5.67067 8.29858 7.53786 8.29858H75.4759Z" fill="#A3DAFF"/>
<path d="M37.3574 38.7268H31.825C31.0643 38.7268 30.4419 39.3492 30.4419 40.1099V48.4085H38.7405V40.1099C38.7405 39.3492 38.1181 38.7268 37.3574 38.7268Z" fill="#69AF86"/>
<path d="M47.039 30.4282H41.5066C40.7459 30.4282 40.1235 31.0506 40.1235 31.8113V48.4086H48.4222V31.8113C48.4222 31.0506 47.7998 30.4282 47.039 30.4282Z" fill="#FF82A9"/>
<path d="M56.7207 22.1296H51.1883C50.4276 22.1296 49.8052 22.752 49.8052 23.5127V48.4086H58.1038V23.5127C58.1038 22.752 57.4814 22.1296 56.7207 22.1296Z" fill="#9881F5"/>
<path d="M51.1612 67.4954H31.8531L29.0869 81.3264H53.9274L51.1612 67.4954Z" fill="#41408C"/>
<path d="M55.7668 0H27.2472C24.4395 0 22.1436 2.29595 22.1436 5.10365V14.2598C22.1436 17.0675 24.4395 19.3634 27.2472 19.3634H39.7366L38.7823 23.1808C38.644 23.7617 38.8791 24.3564 39.377 24.6746C39.6121 24.8267 39.8611 24.8958 40.1239 24.8958C40.4282 24.8958 40.7325 24.799 40.9814 24.5916L47.1086 19.6954C47.3713 19.4879 47.7033 19.3634 48.0352 19.3634H55.7529C58.5606 19.3634 60.8566 17.0675 60.8566 14.2598V5.10365C60.8566 2.29595 58.5606 0 55.7529 0H55.7668Z" fill="#FF4181"/>
<path d="M78.8506 53.9409V65.4483C78.8506 67.4953 77.343 69.155 75.4759 69.155H7.53786C5.67067 69.155 4.16309 67.4953 4.16309 65.4483V53.9409H78.8506Z" fill="#41408C"/>
<path d="M58.1039 80.22H24.9095C24.1456 80.22 23.5264 80.8392 23.5264 81.6031C23.5264 82.3669 24.1456 82.9862 24.9095 82.9862H58.1039C58.8678 82.9862 59.487 82.3669 59.487 81.6031C59.487 80.8392 58.8678 80.22 58.1039 80.22Z" fill="#41408C"/>
<path d="M41.5072 65.0056C43.7988 65.0056 45.6565 63.1479 45.6565 60.8563C45.6565 58.5647 43.7988 56.707 41.5072 56.707C39.2156 56.707 37.3579 58.5647 37.3579 60.8563C37.3579 63.1479 39.2156 65.0056 41.5072 65.0056Z" fill="#F0C054"/>
<path d="M81.6171 23.5127H65.0198C64.256 23.5127 63.6367 24.1319 63.6367 24.8958V48.4085C63.6367 49.1724 64.256 49.7916 65.0198 49.7916H81.6171C82.3809 49.7916 83.0002 49.1724 83.0002 48.4085V24.8958C83.0002 24.1319 82.3809 23.5127 81.6171 23.5127Z" fill="#F0C054"/>
<path d="M59.4871 47.0254H29.0589C28.295 47.0254 27.6758 47.6446 27.6758 48.4085C27.6758 49.1724 28.295 49.7916 29.0589 49.7916H59.4871C60.251 49.7916 60.8702 49.1724 60.8702 48.4085C60.8702 47.6446 60.251 47.0254 59.4871 47.0254Z" fill="#125488"/>
<path d="M25.8778 31.3688L24.7575 31.1613L25.3246 29.6814C25.6427 28.8792 25.4353 27.9525 24.8267 27.3439L22.4616 24.9788C21.853 24.3703 20.9402 24.1766 20.1241 24.4809L18.6442 25.048L18.4368 23.9277C18.2431 22.8903 17.3441 22.1296 16.2791 22.1296H11.3968C10.3318 22.1296 9.43276 22.8903 9.23913 23.9277L9.03166 25.048L7.55174 24.4809C6.74954 24.1628 5.82286 24.3703 5.2143 24.9788L2.84919 27.3439C2.24063 27.9525 2.04699 28.8653 2.35127 29.6814L2.91835 31.1613L1.79803 31.3688C0.760706 31.5624 0 32.4614 0 33.5264V38.4088C0 39.4737 0.760706 40.3728 1.79803 40.5664L2.91835 40.7739L2.35127 42.2538C2.03316 43.056 2.24063 43.9827 2.84919 44.5912L5.2143 46.9563C5.82286 47.5649 6.73571 47.7585 7.55174 47.4542L9.03166 46.8872L9.23913 48.0075C9.43276 49.0448 10.3318 49.8055 11.3968 49.8055H16.2791C17.3441 49.8055 18.2431 49.0448 18.4368 48.0075L18.6442 46.8872L20.1241 47.4542C20.9263 47.7724 21.853 47.5649 22.4616 46.9563L24.8267 44.5912C25.4353 43.9827 25.6289 43.0698 25.3246 42.2538L24.7575 40.7739L25.8778 40.5664C26.9152 40.3728 27.6759 39.4737 27.6759 38.4088V33.5264C27.6759 32.4614 26.9152 31.5624 25.8778 31.3688Z" fill="#FA7C66"/>
<path d="M13.8449 43.5676C18.0461 43.5676 21.4519 40.1618 21.4519 35.9606C21.4519 31.7593 18.0461 28.3535 13.8449 28.3535C9.64359 28.3535 6.23779 31.7593 6.23779 35.9606C6.23779 40.1618 9.64359 43.5676 13.8449 43.5676Z" fill="#FEA477"/>
<path d="M28.4641 15.214H32.157C33.4986 15.214 34.5913 14.1213 34.5913 12.7797V10.7466C34.5913 9.40496 33.4986 8.31231 32.157 8.31231H30.442V6.92921H33.8029C34.2317 6.92921 34.5913 6.58343 34.5913 6.14084V4.93754C34.5913 4.50878 34.2455 4.14917 33.8029 4.14917H30.11C28.7684 4.14917 27.6758 5.24182 27.6758 6.58343V8.61659C27.6758 9.9582 28.7684 11.0509 30.11 11.0509H31.8251V12.434H28.4641C28.0354 12.434 27.6758 12.7797 27.6758 13.2223V14.4256C27.6758 14.8544 28.0216 15.214 28.4641 15.214Z" fill="#41408C"/>
<path d="M39.557 15.2142H43.4989C43.9276 15.2142 44.2596 14.8685 44.2596 14.4535V13.2226C44.2596 12.7938 43.9138 12.4619 43.4989 12.4619H40.1103V11.0788H42.1158C42.5445 11.0788 42.8765 10.733 42.8765 10.3181V9.0871C42.8765 8.65834 42.5307 8.3264 42.1158 8.3264H40.1103V6.94329H43.4989C43.9276 6.94329 44.2596 6.59752 44.2596 6.18259V4.95162C44.2596 4.52286 43.9138 4.19092 43.4989 4.19092H39.557C38.3399 4.19092 37.3579 5.17292 37.3579 6.39005V13.0566C37.3579 14.2737 38.3399 15.2557 39.557 15.2557V15.2142Z" fill="#41408C"/>
<path d="M50.6909 15.2141H51.6729C53.6923 15.2141 55.3243 13.5682 55.3243 11.5627V7.81448C55.3243 5.79515 53.6784 4.16309 51.6729 4.16309H50.6909C48.6716 4.16309 47.0396 5.80898 47.0396 7.81448V11.5627C47.0396 13.582 48.6854 15.2141 50.6909 15.2141ZM49.8058 7.80065C49.8058 7.31656 50.2069 6.91546 50.6909 6.91546H51.6729C52.157 6.91546 52.5581 7.31656 52.5581 7.80065V11.5489C52.5581 12.0329 52.157 12.434 51.6729 12.434H50.6909C50.2069 12.434 49.8058 12.0329 49.8058 11.5489V7.80065Z" fill="#41408C"/>
<path d="M71.9353 31.8111H74.7016C75.4623 31.8111 76.0847 31.1887 76.0847 30.428C76.0847 29.6673 75.4623 29.0449 74.7016 29.0449H71.9353C71.1746 29.0449 70.5522 29.6673 70.5522 30.428C70.5522 31.1887 71.1746 31.8111 71.9353 31.8111Z" fill="#125488"/>
<path d="M74.7016 41.4929H71.9353C71.1746 41.4929 70.5522 42.1153 70.5522 42.876C70.5522 43.6367 71.1746 44.2591 71.9353 44.2591H74.7016C75.4623 44.2591 76.0847 43.6367 76.0847 42.876C76.0847 42.1153 75.4623 41.4929 74.7016 41.4929Z" fill="#125488"/>
<path d="M70.552 35.9605H76.0845C76.8452 35.9605 77.4676 35.3381 77.4676 34.5774C77.4676 33.8167 76.8452 33.1943 76.0845 33.1943H70.552C69.7913 33.1943 69.1689 33.8167 69.1689 34.5774C69.1689 35.3381 69.7913 35.9605 70.552 35.9605Z" fill="#125488"/>
<path d="M70.552 40.11H76.0845C76.8452 40.11 77.4676 39.4876 77.4676 38.7269C77.4676 37.9661 76.8452 37.3438 76.0845 37.3438H70.552C69.7913 37.3438 69.1689 37.9661 69.1689 38.7269C69.1689 39.4876 69.7913 40.11 70.552 40.11Z" fill="#125488"/>
<path d="M50.6562 69.155L51.5207 69.155L53.6818 80.2198L52.558 80.2199L50.6562 69.155Z" fill="#88BDE7"/>
<path d="M78.837 53.9412V63.7373C78.837 66.8257 78.5449 69.0688 75.4657 69.0688H69.0688C72.1479 69.0688 74.9021 66.8259 74.9021 63.7373V53.9412H78.837Z" fill="#88BDE7"/>
</svg>
