<svg width="1920" height="181" viewBox="0 0 1920 181" fill="none" xmlns="http://www.w3.org/2000/svg">
<path d="M48.5443 132.317C-4.993 135.313 -25.2821 154.835 -29 169.815L2006 181C1998.35 149.544 1943.86 152.446 1923.14 154.786C1892.55 122.955 1839.76 132.942 1810.02 136.998C1767.31 115.279 1723.71 127.948 1707.24 136.998C1681.75 106.291 1607.92 113.281 1574.2 120.615C1553.16 98.5205 1499.04 99.2383 1474.61 102.359C1473.02 85.9754 1441.95 65.379 1347.14 65.379C1331.21 30.9269 1271.46 35.7326 1243.57 42.4421C1217.44 16.9774 1164.7 24.0301 1141.6 30.7395C1123.75 5.64926 1069.89 5.30607 1045.2 8.27075C1019.07 -6.70838 989.164 2.02945 977.479 8.27075C922.03 -1.09127 888.516 27.1508 878.69 42.4421C831.527 24.0925 793.13 45.2307 774.806 52.8764C724.456 42.0165 686.412 57.9923 678.711 70.1629C626.669 58.1687 597.481 75.0391 583.146 85.9242C527.931 75.0391 486.787 95.6965 479.617 108.803C443.288 93.8241 395.208 94.5131 378.212 103.719C311.848 77.7893 277.082 106.489 254.509 118.972C214.993 117.474 184.246 119.523 172.827 127.636C124.966 105.168 63.6813 117.338 48.5443 132.317Z" fill="white"/>
</svg>
