<svg width="39" height="38" viewBox="0 0 39 38" fill="none" xmlns="http://www.w3.org/2000/svg">
<g filter="url(#filter0_d_507_381)">
<g clip-path="url(#clip0_507_381)">
<circle cx="19.1562" cy="17.1562" r="15.1562" fill="#5956E8"/>
</g>
</g>
<path d="M27.6311 11.1064C27.5137 10.988 27.374 10.894 27.2201 10.8299C27.0662 10.7658 26.9011 10.7328 26.7344 10.7328C26.5676 10.7328 26.4026 10.7658 26.2486 10.8299C26.0947 10.894 25.955 10.988 25.8376 11.1064L16.4281 20.5285L12.4749 16.5626C12.353 16.4449 12.209 16.3523 12.0514 16.2901C11.8937 16.228 11.7253 16.1975 11.5558 16.2004C11.3863 16.2034 11.2191 16.2397 11.0636 16.3072C10.9082 16.3748 10.7676 16.4723 10.6498 16.5942C10.532 16.7161 10.4394 16.86 10.3773 17.0177C10.3152 17.1754 10.2847 17.3438 10.2876 17.5133C10.2905 17.6828 10.3268 17.85 10.3944 18.0054C10.462 18.1609 10.5595 18.3015 10.6814 18.4193L15.5314 23.2693C15.6488 23.3877 15.7885 23.4816 15.9424 23.5457C16.0963 23.6099 16.2614 23.6429 16.4281 23.6429C16.5949 23.6429 16.7599 23.6099 16.9139 23.5457C17.0678 23.4816 17.2075 23.3877 17.3249 23.2693L27.6311 12.963C27.7593 12.8448 27.8616 12.7012 27.9316 12.5414C28.0016 12.3817 28.0377 12.2091 28.0377 12.0347C28.0377 11.8603 28.0016 11.6877 27.9316 11.528C27.8616 11.3682 27.7593 11.2247 27.6311 11.1064V11.1064Z" fill="white"/>
<defs>
<filter id="filter0_d_507_381" x="0.210938" y="0.105469" width="37.8906" height="37.8906" filterUnits="userSpaceOnUse" color-interpolation-filters="sRGB">
<feFlood flood-opacity="0" result="BackgroundImageFix"/>
<feColorMatrix in="SourceAlpha" type="matrix" values="0 0 0 0 0 0 0 0 0 0 0 0 0 0 0 0 0 0 127 0" result="hardAlpha"/>
<feOffset dy="1.89453"/>
<feGaussianBlur stdDeviation="1.89453"/>
<feColorMatrix type="matrix" values="0 0 0 0 0 0 0 0 0 0 0 0 0 0 0 0 0 0 0.05 0"/>
<feBlend mode="normal" in2="BackgroundImageFix" result="effect1_dropShadow_507_381"/>
<feBlend mode="normal" in="SourceGraphic" in2="effect1_dropShadow_507_381" result="shape"/>
</filter>
<clipPath id="clip0_507_381">
<rect x="4" y="2" width="30.3125" height="30.3125" rx="15.1562" fill="white"/>
</clipPath>
</defs>
</svg>
