<svg width="103" height="97" viewBox="0 0 103 97" fill="none" xmlns="http://www.w3.org/2000/svg">
<path d="M88.9092 8.9436H34.3422L18.8682 23.2649V87.7623H85.1335C86.1345 87.7623 87.0946 87.393 87.8024 86.7356C88.5102 86.0782 88.9079 85.1866 88.9079 84.2569L88.9092 8.9436Z" fill="#BDDEFF"/>
<path d="M23.1484 60.3751C22.5285 57.5758 22.1477 54.7354 22.0093 51.8804C21.9959 51.5988 21.9126 51.324 21.7657 51.0774C21.6189 50.8308 21.4126 50.6192 21.163 50.459C20.9133 50.2988 20.6271 50.1945 20.3269 50.1542C20.0266 50.114 19.7203 50.1388 19.4321 50.2268L18.8682 50.3991V87.7623H27.6105L27.8402 86.8335L25.3049 85.8912L27.2315 79.8658H31.0794C32.0898 79.878 33.0863 79.6464 33.9715 79.1938C37.1504 77.5133 37.3701 73.8401 37.3701 73.8401L33.9673 72.2396C32.3292 71.781 30.802 71.0324 29.47 70.0351C26.2049 67.606 23.9665 64.1855 23.1484 60.3751Z" fill="#497FCE"/>
<path d="M4.05291 84.4797L5.62654 77.1124C5.83179 76.1571 5.65432 75.1651 5.12748 74.3227C2.7621 70.4959 1.31894 66.238 0.897589 61.8429C0.851744 61.3238 0.945138 60.8022 1.16942 60.3248C1.3937 59.8474 1.74188 59.429 2.18282 59.1072L4.16776 57.6553C4.16776 57.6553 3.89226 55.8876 3.76838 53.7157C3.73746 53.1934 3.84625 52.6722 4.08503 52.1984C4.32381 51.7247 4.68516 51.3132 5.13684 51.0007L9.64288 47.8944C10.0047 47.6449 10.4313 47.4888 10.8791 47.4421C11.327 47.3953 11.7802 47.4596 12.1926 47.6283C12.6051 47.7969 12.9621 48.0641 13.2273 48.4025C13.4926 48.7408 13.6566 49.1384 13.7028 49.5548L13.7624 50.0962L16.3271 48.8573C16.6373 48.7076 16.9818 48.6295 17.3314 48.6297C17.681 48.6298 18.0254 48.7081 18.3355 48.858C18.6456 49.0079 18.9123 49.2249 19.113 49.4908C19.3137 49.7566 19.4425 50.0634 19.4885 50.3853C19.9805 53.7879 20.9535 59.5083 22.408 63.583C23.0079 65.2581 24.211 66.69 25.8147 67.6376C28.1258 69.0074 31.8889 71.0196 35.5139 72.005L34.5761 74.8309C34.3316 75.5677 33.8396 76.2125 33.1721 76.671C32.5047 77.1295 31.6967 77.3776 30.8665 77.379C28.8452 77.392 26.8244 77.3093 24.812 77.1313L21.7987 87.7614L4.05291 84.4797Z" fill="#FFD3BD"/>
<path d="M74.7735 8.9436H49.8638C49.7306 10.6598 51.45 11.4642 51.45 11.4642L50.4258 13.1828C50.1586 13.6314 50.0072 14.1314 49.9834 14.6436C49.9596 15.1557 50.064 15.6661 50.2885 16.1344C50.513 16.6027 50.8514 17.0163 51.2772 17.3426C51.7029 17.6689 52.2043 17.899 52.742 18.0148C56.8329 18.896 60.0566 19.9095 60.0566 19.9095C77.11 24.8192 77.3762 35.4421 77.3762 35.4421C84.9924 34.4765 84.5401 27.7871 84.5401 27.7871L88.9094 27.483V8.9436H74.7735Z" fill="#497FCE"/>
<path d="M34.3422 8.9436V20.0869C34.3424 20.5041 34.2541 20.9172 34.0824 21.3027C33.9106 21.6882 33.6588 22.0385 33.3412 22.3335C33.0236 22.6286 32.6466 22.8627 32.2316 23.0224C31.8166 23.1821 31.3718 23.2643 30.9227 23.2643H18.8682L34.3422 8.9436Z" fill="#7AAEED"/>
<path d="M72.871 45.8529C72.8711 42.6823 71.9728 39.5675 70.2663 36.8215C68.5597 34.0755 66.1051 31.7949 63.1491 30.2089C60.193 28.6229 56.8396 27.7873 53.4257 27.7861C50.0118 27.7849 46.6577 28.6182 43.7004 30.2021C40.7431 31.7861 38.2866 34.065 36.5779 36.8098C34.8692 39.5546 33.9683 42.6688 33.9658 45.8394C33.9634 49.01 34.8594 52.1253 36.5638 54.8725C38.2683 57.6196 40.7211 59.9018 43.676 61.4897C44.0439 61.6896 44.3488 61.9757 44.5603 62.3195C44.7717 62.6632 44.8823 63.0524 44.8809 63.4483V67.5829H61.9592V63.4498C61.9561 63.0568 62.064 62.6699 62.2722 62.3278C62.4804 61.9856 62.7816 61.7002 63.1457 61.4999C66.1036 59.9149 68.5598 57.6342 70.2671 54.8874C71.9744 52.1405 72.8725 49.0245 72.871 45.8529Z" fill="#FFDE76"/>
<path d="M44.8796 67.5818H61.9578V71.6475C61.9581 72.5417 61.7687 73.4272 61.4004 74.2534C61.0321 75.0797 60.4922 75.8304 59.8114 76.4628C59.1307 77.0952 58.3225 77.5969 57.4329 77.9391C56.5434 78.2814 55.59 78.4575 54.6272 78.4575H52.2096C51.2469 78.4575 50.2936 78.2814 49.4042 77.9393C48.5148 77.5971 47.7066 77.0956 47.0259 76.4633C46.3452 75.8311 45.8052 75.0805 45.4368 74.2545C45.0684 73.4284 44.8789 72.5431 44.8789 71.649L44.8796 67.5818Z" fill="#EFAC52"/>
<path d="M12.0145 47.5681C11.5096 53.8179 12.8268 59.8101 13.491 62.334C13.5273 62.4748 13.5935 62.6075 13.6857 62.7243C13.778 62.841 13.8944 62.9395 14.0282 63.0139C14.162 63.0883 14.3104 63.1371 14.4648 63.1575C14.6191 63.1779 14.7763 63.1694 14.9271 63.1326C15.0779 63.0958 15.2193 63.0314 15.343 62.9432C15.4666 62.855 15.57 62.7447 15.6471 62.6188C15.7242 62.493 15.7735 62.3541 15.792 62.2103C15.8106 62.0665 15.798 61.9207 15.755 61.7815C14.395 57.3374 13.7643 50.0968 13.7643 50.0968L13.7046 49.5554C13.6568 49.1088 13.4722 48.6843 13.1727 48.3321C12.8731 47.9799 12.4712 47.7148 12.0145 47.5681Z" fill="#EAA07F"/>
<path d="M6.6285 49.9727C5.96653 55.14 7.80727 61.8329 8.68022 64.613C8.76594 64.874 8.95878 65.0932 9.21708 65.2233C9.47538 65.3533 9.7784 65.3838 10.0607 65.3081C10.343 65.2324 10.5819 65.0566 10.7257 64.8187C10.8696 64.5808 10.907 64.2998 10.8297 64.0366C8.99088 58.2266 8.63603 51.1585 8.5657 48.6367L6.6285 49.9727Z" fill="#EAA07F"/>
<path d="M2.31104 59.0131C2.6465 61.577 3.27624 64.1003 4.18952 66.5398C4.27978 66.7848 4.47091 66.9867 4.72106 67.1011C4.97121 67.2155 5.25998 67.2332 5.52414 67.1503C5.7883 67.0674 6.00632 66.8906 6.13044 66.6587C6.25457 66.4268 6.27469 66.1587 6.1864 65.913C4.95311 62.5038 4.1692 57.6541 4.1692 57.6541L2.31104 59.0131Z" fill="#EAA07F"/>
<path d="M65.1302 45.2551C64.7076 44.3406 64.0711 43.5249 63.2669 42.8672C62.4627 42.2095 61.5109 41.7264 60.4806 41.4528C59.4642 41.1733 58.3936 41.1075 57.3464 41.2601C56.2992 41.4128 55.3017 41.7801 54.4264 42.3355C54.2854 42.424 54.1647 42.5376 54.0711 42.6697C53.9776 42.8018 53.9131 42.9498 53.8814 43.1051C53.8498 43.2604 53.8515 43.42 53.8865 43.5747C53.9215 43.7295 53.9891 43.8762 54.0855 44.0065C54.1818 44.1369 54.305 44.2482 54.4479 44.3341C54.5908 44.4201 54.7505 44.4789 54.918 44.5072C55.0855 44.5356 55.2573 44.5328 55.4236 44.4992C55.59 44.4656 55.7475 44.4018 55.8871 44.3114C56.4482 43.9573 57.0871 43.7237 57.7575 43.6275C58.4278 43.5312 59.1128 43.5748 59.7628 43.755C60.4263 43.9306 61.0395 44.2412 61.5577 44.6642C62.0759 45.0872 62.4862 45.6121 62.7588 46.2007C63.7982 48.4499 63.3282 51.0436 63.3285 51.0433C62.5665 54.5457 59.3283 57.1433 57.4669 58.3803C56.6944 58.896 56.0653 59.5751 55.6314 60.3613C55.1976 61.1476 54.9715 62.0185 54.9719 62.902V68.8385C54.9719 69.1563 55.1079 69.4611 55.3499 69.6859C55.5919 69.9106 55.9201 70.0369 56.2623 70.0369C56.6046 70.0369 56.9328 69.9106 57.1748 69.6859C57.4168 69.4611 57.5527 69.1563 57.5527 68.8385V62.902C57.5519 62.3997 57.6798 61.9044 57.9259 61.4571C58.172 61.0098 58.5292 60.6233 58.9679 60.3296C61.139 58.8879 64.9208 55.8256 65.8635 51.4912C65.8893 51.359 66.4822 48.1808 65.1302 45.2551Z" fill="#EFAC52"/>
<path d="M46.7349 43.3436C42.3824 43.6962 40.9833 47.3374 41.1104 50.3601C41.1237 50.6777 41.2724 50.9774 41.5236 51.1932C41.7749 51.409 42.1081 51.5233 42.4501 51.5109C42.7921 51.4985 43.1148 51.3605 43.3471 51.1271C43.5795 50.8938 43.7026 50.5843 43.6892 50.2666C43.635 48.9783 43.8505 45.9592 47.0007 45.7282C47.0549 45.724 47.1087 45.7168 47.162 45.7066C47.6586 45.6397 48.165 45.6776 48.6437 45.8175C46.8494 48.0792 46.5313 50.6355 47.763 53.1081C48.0256 53.6365 48.4463 54.0835 48.975 54.3959C49.5036 54.7082 50.1179 54.8728 50.7444 54.8698C50.8047 54.8698 50.8657 54.8683 50.9267 54.8653C51.577 54.8371 52.2031 54.6274 52.7232 54.2637C53.2433 53.9 53.6333 53.3992 53.8423 52.8265L53.8726 52.7417C54.2416 51.675 54.361 50.5474 54.2228 49.4344C54.0847 48.3214 53.6922 47.2486 53.0716 46.2879C50.9015 42.8942 47.3833 43.2462 46.7349 43.3436ZM51.4177 52.0038L51.3986 52.0568C51.3558 52.1761 51.2741 52.2801 51.1649 52.3545C51.0557 52.4288 50.9243 52.4699 50.7889 52.4721C50.6478 52.4837 50.5062 52.4543 50.3838 52.388C50.2614 52.3216 50.1642 52.2216 50.1057 52.1017C49.2792 50.4425 49.4769 48.8222 50.6918 47.2757C50.7462 47.3508 50.8 47.4295 50.8531 47.5118C51.2863 48.18 51.5608 48.9265 51.6581 49.7013C51.7555 50.476 51.6735 51.2611 51.4177 52.0041V52.0038Z" fill="#EFAC52"/>
<path d="M49.6336 58.3803C47.9338 57.2789 46.459 55.9049 45.2786 54.3227C45.1852 54.1914 45.0649 54.0784 44.9245 53.9902C44.7842 53.902 44.6265 53.8404 44.4605 53.8088C44.2945 53.7772 44.1234 53.7763 43.957 53.8061C43.7906 53.836 43.6322 53.896 43.4907 53.9827C43.3493 54.0693 43.2276 54.1811 43.1327 54.3114C43.0377 54.4418 42.9714 54.5883 42.9374 54.7424C42.9034 54.8966 42.9024 55.0555 42.9345 55.21C42.9666 55.3646 43.0312 55.5117 43.1246 55.6431C44.4793 57.47 46.1749 59.0572 48.1313 60.3298C48.57 60.6235 48.9272 61.0099 49.1733 61.4572C49.4194 61.9044 49.5473 62.3997 49.5465 62.902V68.8384C49.5465 69.1562 49.6825 69.4611 49.9245 69.6858C50.1665 69.9106 50.4947 70.0368 50.8369 70.0368C51.1791 70.0368 51.5073 69.9106 51.7493 69.6858C51.9913 69.4611 52.1273 69.1562 52.1273 68.8384V62.902C52.1278 62.0186 51.9019 61.1478 51.4683 60.3615C51.0347 59.5752 50.4058 58.8961 49.6336 58.3803Z" fill="#EFAC52"/>
<path d="M55.4449 33.2255C58.5226 33.4699 61.4077 34.7183 63.5891 36.7494C65.7705 38.7804 67.1073 41.4631 67.3626 44.3221C67.3665 44.3676 67.37 44.412 67.3733 44.4584C67.4093 44.9887 67.2725 45.5167 66.9809 45.9739C66.6893 46.431 66.2563 46.796 65.7382 47.0214C65.2202 47.2468 64.641 47.3221 64.0762 47.2376C63.5114 47.1531 62.9871 46.9127 62.5714 46.5476C59.4325 43.7954 55.844 40.6288 52.5906 37.7514C52.1739 37.3819 51.8875 36.904 51.769 36.3804C51.6505 35.8568 51.7055 35.3122 51.9267 34.8182C52.1478 34.3242 52.5249 33.904 53.0082 33.6129C53.4915 33.3217 54.0584 33.1733 54.6342 33.1872C54.9026 33.1924 55.1729 33.2051 55.4449 33.2255Z" fill="#FFF7E1"/>
<path d="M92.1758 5.64551L84.1147 6.22764C83.0691 6.3042 82.0294 6.02334 81.191 5.43788C77.3787 2.80459 72.9966 0.970765 68.3472 0.0629162C67.7975 -0.0406293 67.2288 -0.0160693 66.6918 0.134401C66.1549 0.284871 65.6665 0.556563 65.2702 0.925187L63.4833 2.58412C63.4833 2.58412 61.6265 2.12122 59.3186 1.75031C58.7638 1.66014 58.1936 1.69891 57.6589 1.86317C57.1241 2.02742 56.6414 2.31206 56.2539 2.69167L52.3989 6.47901C52.0894 6.78321 51.8721 7.1581 51.7691 7.56557C51.6662 7.97305 51.6813 8.39857 51.8128 8.79889C51.9444 9.1992 52.1877 9.56002 52.5181 9.84467C52.8485 10.1293 53.2541 10.3276 53.6938 10.4195L54.2658 10.5393L52.6383 12.7579C52.4415 13.0262 52.3172 13.3346 52.2759 13.6569C52.2345 13.9792 52.2774 14.3061 52.4008 14.6098C52.5242 14.9135 52.7245 15.1852 52.9848 15.4018C53.2452 15.6184 53.5578 15.7737 53.8964 15.8543C57.4772 16.7097 63.4775 18.283 67.6623 20.1058C69.3834 20.8561 70.7733 22.1346 71.598 23.7256C72.7893 26.0191 74.4962 29.7271 75.1217 33.1866L78.2541 32.6554C79.0712 32.5174 79.8192 32.14 80.3887 31.5785C80.9582 31.0171 81.3192 30.3011 81.4188 29.5353C81.6714 27.6727 81.8216 25.7993 81.8688 23.9225L93.5907 22.399L92.1758 5.64551Z" fill="#FFD3BD"/>
<path d="M51.7686 8.62646C58.5108 8.89911 64.7618 10.8214 67.3823 11.7322C67.5286 11.7822 67.6628 11.8589 67.7768 11.9578C67.8908 12.0566 67.9824 12.1756 68.0461 12.3078C68.1099 12.44 68.1447 12.5827 68.1482 12.7275C68.1518 12.8723 68.1242 13.0164 68.0671 13.1511C68.0099 13.2859 67.9243 13.4087 67.8153 13.5123C67.7063 13.6159 67.5761 13.6983 67.4324 13.7545C67.2887 13.8108 67.1343 13.8398 66.9783 13.8398C66.8223 13.8399 66.6679 13.811 66.5242 13.7549C61.9333 11.9758 54.2674 10.5389 54.2674 10.5389L53.6954 10.419C53.2234 10.3225 52.791 10.1024 52.4495 9.78466C52.108 9.46697 51.8717 9.06504 51.7686 8.62646Z" fill="#EAA07F"/>
<path d="M54.9777 3.94507C60.5805 3.94507 67.5193 6.43181 70.3884 7.56643C70.6618 7.6737 70.8781 7.87743 70.9897 8.1328C71.1013 8.38817 71.0991 8.67427 70.9836 8.92814C70.8681 9.18202 70.6488 9.38289 70.3738 9.48655C70.0988 9.59022 69.7908 9.58819 69.5174 9.48092C63.5229 7.09844 56.0077 5.93536 53.3198 5.57374L54.9777 3.94507Z" fill="#EAA07F"/>
<path d="M65.1541 1.03076C67.8559 1.64283 70.4793 2.52169 72.9797 3.65233C73.1046 3.70757 73.2167 3.78513 73.3094 3.88058C73.4021 3.97604 73.4736 4.08751 73.5199 4.20864C73.5663 4.32978 73.5864 4.4582 73.5793 4.58657C73.5722 4.71494 73.5379 4.84075 73.4784 4.95682C73.4189 5.07289 73.3354 5.17694 73.2326 5.26303C73.1299 5.34913 73.0098 5.41558 72.8794 5.45859C72.749 5.5016 72.6107 5.52033 72.4725 5.51371C72.3343 5.50709 72.1988 5.47525 72.0738 5.42001C68.5743 3.87973 63.4814 2.58393 63.4814 2.58393L65.1541 1.03076Z" fill="#EAA07F"/>
<path d="M88.9096 70.7089V64.457L70.75 87.7623H77.3671L88.9096 70.7089Z" fill="#497FCE"/>
<path d="M65.5132 94.4832C64.8831 94.0739 64.4538 93.4489 64.3198 92.7457C64.1858 92.0424 64.358 91.3186 64.7987 90.7333L93.966 51.994C94.729 50.9804 95.7258 50.1376 96.8839 49.527L100.392 47.6782C100.456 47.6441 100.53 47.6278 100.604 47.6313C100.679 47.6349 100.75 47.658 100.811 47.698C100.871 47.7381 100.918 47.7934 100.946 47.8573C100.974 47.9213 100.982 47.9914 100.968 48.0593L100.23 51.766C99.9975 52.9354 99.4973 54.0448 98.7636 55.0194L69.5508 93.8186C69.3327 94.1085 69.0553 94.3557 68.7343 94.546C68.4134 94.7363 68.0552 94.866 67.6803 94.9277C67.3053 94.9894 66.921 94.9819 66.5491 94.9056C66.1773 94.8293 65.8253 94.6858 65.5132 94.4832Z" fill="#FF8080"/>
<path d="M0 92.4618L2.17269 83.2456L24.8122 87.6094L22.4628 96.6348C22.4628 96.6348 8.083 95.182 0 92.4618Z" fill="#BDDEFF"/>
<path d="M18.1581 93.0258C18.0736 93.0252 17.9894 93.0172 17.9065 93.0018C17.8236 92.9864 17.7425 92.9633 17.6645 92.9329C17.5871 92.903 17.5126 92.8668 17.442 92.8247C17.372 92.78 17.3062 92.7298 17.2452 92.6749C17.0034 92.4499 16.8677 92.145 16.8677 91.8272C16.8677 91.5093 17.0034 91.2045 17.2452 90.9794C17.3063 90.9247 17.3721 90.8746 17.442 90.8296C17.5127 90.7877 17.5871 90.7515 17.6645 90.7215C17.7425 90.6912 17.8236 90.6681 17.9065 90.6526C18.0833 90.6194 18.2657 90.6211 18.4418 90.6575C18.6179 90.6939 18.7839 90.7642 18.9289 90.8638C19.074 90.9634 19.195 91.0902 19.284 91.2359C19.373 91.3817 19.4282 91.5431 19.4458 91.7099C19.4635 91.8767 19.4433 92.045 19.3866 92.2041C19.3299 92.3631 19.2379 92.5094 19.1166 92.6334C18.9952 92.7574 18.8472 92.8564 18.6821 92.924C18.5171 92.9915 18.3385 93.0262 18.1581 93.0258Z" fill="#497FCE"/>
<path d="M101.19 2.85034L91.0791 3.76534L93.0705 25.1597L102.998 24.059C102.998 24.059 103.143 10.6264 101.19 2.85034Z" fill="#BDDEFF"/>
<path d="M99.6474 19.6629C99.6566 19.585 99.6579 19.5064 99.6513 19.4283C99.6449 19.35 99.6299 19.2724 99.6065 19.197C99.5835 19.122 99.5536 19.049 99.5171 18.9789C99.4773 18.9092 99.4315 18.8426 99.3803 18.7796C99.1682 18.5302 98.8583 18.369 98.5184 18.3314C98.1786 18.2938 97.8366 18.3829 97.5673 18.5792C97.5015 18.6291 97.4401 18.6839 97.3838 18.7431C97.3307 18.8034 97.2833 18.8679 97.2422 18.9357C97.2004 19.004 97.1661 19.0759 97.1399 19.1505C97.0835 19.3098 97.0636 19.4782 97.0817 19.645C97.0997 19.8117 97.1552 19.9732 97.2446 20.1188C97.3339 20.2644 97.4552 20.391 97.6006 20.4903C97.7459 20.5897 97.9121 20.6597 98.0883 20.6957C98.2646 20.7317 98.447 20.733 98.6239 20.6994C98.8007 20.6659 98.968 20.5982 99.1149 20.5009C99.2618 20.4036 99.3851 20.2787 99.4769 20.1343C99.5686 19.99 99.6267 19.8294 99.6474 19.6629Z" fill="#497FCE"/>
</svg>
