<svg width="89" height="89" viewBox="0 0 89 89" fill="none" xmlns="http://www.w3.org/2000/svg">
<path d="M74.1902 14.8098L57.6968 31.3032C54.319 27.9254 49.6529 25.8358 44.5 25.8358V2.51172C56.0941 2.51172 66.5926 7.21022 74.1902 14.8098Z" fill="url(#paint0_linear_863_646)"/>
<path d="M31.3032 31.303C27.9254 34.6808 25.8358 39.3469 25.8358 44.4998H2.51172C2.51172 32.9057 7.21022 22.4072 14.8098 14.8096L31.3032 31.303Z" fill="url(#paint1_linear_863_646)"/>
<path d="M44.4998 2.51172V25.8358C39.3469 25.8358 34.6808 27.9254 31.303 31.3032L14.8096 14.8098C22.4072 7.21022 32.9057 2.51172 44.4998 2.51172Z" fill="url(#paint2_linear_863_646)"/>
<path d="M86.4883 44.4998H63.1642C63.1642 39.3469 61.0746 34.6808 57.6968 31.303L74.1902 14.8096C81.7898 22.4072 86.4883 32.9057 86.4883 44.4998Z" fill="url(#paint3_linear_863_646)"/>
<path d="M86.4883 44.5C86.4883 56.0941 81.7898 66.5926 74.1902 74.1902L57.6968 57.6968C61.0746 54.319 63.1642 49.6529 63.1642 44.5H86.4883Z" fill="url(#paint4_linear_863_646)"/>
<path d="M31.3032 57.6968L14.8098 74.1902C7.21022 66.5926 2.51172 56.0941 2.51172 44.5H25.8358C25.8358 49.6529 27.9254 54.319 31.3032 57.6968Z" fill="url(#paint5_linear_863_646)"/>
<path d="M74.1902 74.19C66.5926 81.7895 56.0941 86.488 44.5 86.488V63.1639C49.6529 63.1639 54.319 61.0743 57.6968 57.6965L74.1902 74.19Z" fill="url(#paint6_linear_863_646)"/>
<path d="M44.4998 63.1639V86.488C32.9057 86.488 22.4072 81.7895 14.8096 74.19L31.303 57.6965C34.6808 61.0743 39.3469 63.1639 44.4998 63.1639Z" fill="url(#paint7_linear_863_646)"/>
<path d="M67.0228 21.9772L57.6968 31.3032C54.319 27.9254 49.6529 25.8358 44.5 25.8358V12.6492C53.2965 12.6492 61.2571 16.2137 67.0228 21.9772Z" fill="url(#paint8_linear_863_646)"/>
<path d="M31.304 31.303C27.9261 34.6808 25.8366 39.3469 25.8366 44.4998H12.6499C12.6499 35.7033 16.2143 27.7427 21.978 21.9771L31.304 31.303Z" fill="url(#paint9_linear_863_646)"/>
<path d="M44.5003 12.6492V25.8358C39.3474 25.8358 34.6813 27.9254 31.3035 31.3032L21.9775 21.9772C27.7432 16.2137 35.7038 12.6492 44.5003 12.6492Z" fill="url(#paint10_linear_863_646)"/>
<path d="M76.3508 44.4998H63.1642C63.1642 39.3469 61.0746 34.6808 57.6968 31.303L67.0228 21.9771C72.7863 27.7427 76.3508 35.7033 76.3508 44.4998Z" fill="url(#paint11_linear_863_646)"/>
<path d="M76.3508 44.5C76.3508 53.2965 72.7863 61.2571 67.0228 67.0228L57.6968 57.6968C61.0746 54.319 63.1642 49.6529 63.1642 44.5H76.3508Z" fill="url(#paint12_linear_863_646)"/>
<path d="M31.304 57.6968L21.978 67.0228C16.2144 61.2571 12.6499 53.2965 12.6499 44.5H25.8366C25.8366 49.6529 27.9261 54.319 31.304 57.6968Z" fill="url(#paint13_linear_863_646)"/>
<path d="M67.0228 67.0225C61.2571 72.786 53.2965 76.3506 44.5 76.3506V63.1639C49.6529 63.1639 54.319 61.0743 57.6968 57.6965L67.0228 67.0225Z" fill="url(#paint14_linear_863_646)"/>
<path d="M44.5003 63.1639V76.3506C35.7038 76.3506 27.7432 72.786 21.9775 67.0225L31.3035 57.6965C34.6813 61.0743 39.3474 63.1639 44.5003 63.1639Z" fill="url(#paint15_linear_863_646)"/>
<path d="M79.0396 20.6211L61.9069 37.7538C62.7187 39.8463 63.1649 42.1209 63.1649 44.4998C63.1649 49.6527 61.0754 54.3188 57.6975 57.6966C54.3197 61.0744 49.6537 63.164 44.5008 63.164C42.1219 63.164 39.8471 62.7177 37.7547 61.9059L20.6221 79.0386C27.4018 83.7348 35.6297 86.4881 44.5009 86.4881C56.095 86.4881 66.5935 81.7896 74.1912 74.19C81.7907 66.5926 86.4892 56.0939 86.4892 44.4998C86.489 35.6288 83.7358 27.4008 79.0396 20.6211Z" fill="url(#paint16_linear_863_646)"/>
<path d="M9.05956 61.871L0.0921974 86.9559C-0.341634 88.1696 0.830374 89.3418 2.04409 88.9079L27.129 79.9406C32.1338 74.9358 14.0642 56.8664 9.05956 61.871Z" fill="url(#paint17_linear_863_646)"/>
<path d="M57.4117 49.6609L27.129 79.9404C26.6342 79.0831 25.8825 78.3245 24.9193 77.787C23.6035 77.0582 21.5457 77.4571 20.121 77.8892C19.8109 77.9815 19.5273 77.82 19.412 77.5727C19.3394 77.4243 19.3263 77.2428 19.4053 77.0648C19.4087 77.0648 19.4087 77.0615 19.4087 77.0615C19.4879 76.8802 19.5572 76.6954 19.6165 76.5108C19.6429 76.4218 19.6692 76.3328 19.6957 76.2436C19.699 76.237 19.699 76.2337 19.699 76.2272C19.775 75.9403 19.8277 75.6534 19.8573 75.3599C19.8673 75.2643 19.8739 75.1653 19.8804 75.0697C19.8886 74.9103 19.8901 74.751 19.8849 74.5917C19.8488 73.4767 19.4846 72.3695 18.7919 71.4289C18.6237 71.198 18.4358 70.9804 18.2281 70.7725C18.0203 70.5647 17.8026 70.3768 17.5718 70.2085C16.4966 69.4171 15.2039 69.0543 13.931 69.1203C13.8353 69.1269 13.7364 69.1335 13.6408 69.1433C13.3472 69.173 13.057 69.2257 12.7735 69.3016C12.7668 69.3016 12.7635 69.3016 12.7569 69.3049C12.6679 69.3313 12.5787 69.3576 12.4897 69.3841C12.3941 69.4138 12.3018 69.4468 12.2094 69.4831C12.1204 69.5161 12.0313 69.5524 11.9423 69.592C11.9389 69.592 11.9389 69.592 11.9356 69.5953C11.7575 69.6745 11.5761 69.6613 11.4278 69.5887C11.1805 69.4733 11.0189 69.1896 11.1112 68.8796C11.5433 67.4549 11.9423 65.4004 11.2135 64.0846C10.6758 63.1184 9.92074 62.3664 9.06006 61.8718L39.3396 31.5892C40.7048 30.2271 42.9144 30.2271 44.2765 31.5892L46.8521 34.1648L54.8361 42.1488L57.4117 44.7243C58.7735 46.086 58.7735 48.2955 57.4117 49.6609Z" fill="url(#paint18_linear_863_646)"/>
<path d="M54.836 42.1485L19.4119 77.5726C19.3393 77.4242 19.3262 77.2428 19.4053 77.0648C19.4086 77.0648 19.4086 77.0614 19.4086 77.0614C19.4878 76.8801 19.8307 75.65 19.8571 75.3598C19.8703 75.2608 19.8768 75.1652 19.8801 75.0696C19.9461 73.7967 19.5833 72.5039 18.7919 71.4288C18.6236 71.1979 18.4357 70.9803 18.228 70.7724C18.0202 70.5646 17.8026 70.3767 17.5717 70.2084C16.4965 69.417 15.2038 69.0542 13.9309 69.1202C13.8353 69.1235 13.7396 69.1301 13.6407 69.1432C13.3505 69.1696 13.0603 69.2225 12.7734 69.3015C12.7667 69.3015 12.7634 69.3015 12.7568 69.3048C12.6678 69.3279 12.0314 69.5521 11.9422 69.5917C11.9389 69.5917 11.9389 69.5917 11.9356 69.595C11.7574 69.6743 11.5761 69.661 11.4277 69.5884L46.8518 34.1643L54.836 42.1485Z" fill="url(#paint19_linear_863_646)"/>
<path d="M5.15609 83.8442C4.20675 82.8949 3.14573 82.1331 2.02346 81.5544L0.0926856 86.9557C-0.341146 88.1694 0.830862 89.3416 2.04458 88.9076L7.44583 86.9768C6.86716 85.8544 6.10542 84.7933 5.15609 83.8442Z" fill="url(#paint20_linear_863_646)"/>
<path d="M86.176 2.82474L49.61 39.3907L44.2611 34.0418C43.0952 32.8759 43.0952 30.9854 44.2611 29.8195L47.4603 26.6204C48.8412 25.2395 49.6168 23.3666 49.6168 21.4139V17.4272C49.6168 14.2907 51.6036 11.4986 54.567 10.4707L84.4684 0.0988994C86.1238 -0.475412 87.4148 1.58572 86.176 2.82474Z" fill="url(#paint21_linear_863_646)"/>
<path d="M86.1753 2.82455L49.6094 39.3905L54.9583 44.7394C56.1242 45.9053 58.0146 45.9053 59.1805 44.7394L62.3797 41.5402C63.7606 40.1593 65.6334 39.3837 67.5862 39.3837H71.5727C74.7091 39.3837 77.5013 37.3969 78.5291 34.4335L88.901 4.53195C89.4753 2.87672 87.4141 1.58553 86.1753 2.82455Z" fill="url(#paint22_linear_863_646)"/>
<path d="M68.9476 21.7693L87.3144 3.40246C87.7716 2.94524 87.8259 2.20096 87.399 1.71513C86.9314 1.1827 86.1199 1.16315 85.6267 1.65614L67.2735 20.0095C66.0718 21.2112 64.4067 21.8691 62.7138 21.7195C61.1479 21.5813 59.5298 22.1741 58.4135 23.4987C56.8316 25.3755 56.8567 28.175 58.4686 30.0262C60.4039 32.2488 63.779 32.3358 65.8272 30.2876C66.8999 29.2149 67.3864 27.7785 67.2877 26.3756C67.1669 24.6663 67.736 22.9809 68.9476 21.7693Z" fill="url(#paint23_linear_863_646)"/>
<path d="M49.3066 23.5261C48.9596 24.684 48.3304 25.7499 47.4603 26.6202L44.2611 29.8193C43.0952 30.9852 43.0952 32.8757 44.2611 34.0416L49.61 39.3905L54.9589 44.7394C56.1248 45.9053 58.0153 45.9053 59.1812 44.7394L62.3803 41.5402C63.2506 40.67 64.3165 40.0407 65.4744 39.6939L49.3066 23.5261Z" fill="url(#paint24_linear_863_646)"/>
<path d="M52.9334 54.1388L34.8613 36.0666L42.0635 28.8644C42.8977 28.0302 44.25 28.0302 45.0839 28.8644L60.1356 43.916C60.9697 44.7502 60.9697 46.1025 60.1356 46.9364L52.9334 54.1388Z" fill="url(#paint25_linear_863_646)"/>
<defs>
<linearGradient id="paint0_linear_863_646" x1="39.9551" y1="0.932754" x2="67.7143" y2="28.692" gradientUnits="userSpaceOnUse">
<stop stop-color="#FFF5D9"/>
<stop offset="1" stop-color="#FFCE47"/>
</linearGradient>
<linearGradient id="paint1_linear_863_646" x1="7.86306" y1="28.8569" x2="20.2883" y2="41.2822" gradientUnits="userSpaceOnUse">
<stop stop-color="#6FA953"/>
<stop offset="1" stop-color="#43765A"/>
</linearGradient>
<linearGradient id="paint2_linear_863_646" x1="28.1268" y1="7.13274" x2="44.4556" y2="23.4618" gradientUnits="userSpaceOnUse">
<stop stop-color="#E4E08E"/>
<stop offset="1" stop-color="#6FA953"/>
</linearGradient>
<linearGradient id="paint3_linear_863_646" x1="57.9079" y1="18.8854" x2="84.4104" y2="45.388" gradientUnits="userSpaceOnUse">
<stop stop-color="#FFCE47"/>
<stop offset="1" stop-color="#FF9356"/>
</linearGradient>
<linearGradient id="paint4_linear_863_646" x1="63.7955" y1="42.8013" x2="79.1596" y2="58.1655" gradientUnits="userSpaceOnUse">
<stop stop-color="#FF9356"/>
<stop offset="1" stop-color="#FF755C"/>
</linearGradient>
<linearGradient id="paint5_linear_863_646" x1="5.64923" y1="44.6715" x2="23.7279" y2="62.7502" gradientUnits="userSpaceOnUse">
<stop stop-color="#7ACBFF"/>
<stop offset="1" stop-color="#45A2E0"/>
</linearGradient>
<linearGradient id="paint6_linear_863_646" x1="44.4705" y1="65.4645" x2="59.6372" y2="80.631" gradientUnits="userSpaceOnUse">
<stop stop-color="#FF755C"/>
<stop offset="1" stop-color="#FF4181"/>
</linearGradient>
<linearGradient id="paint7_linear_863_646" x1="18.5813" y1="57.6033" x2="55.2553" y2="94.2776" gradientUnits="userSpaceOnUse">
<stop stop-color="#FF4181"/>
<stop offset="1" stop-color="#843561"/>
</linearGradient>
<linearGradient id="paint8_linear_863_646" x1="61.2657" y1="29.4108" x2="44.181" y2="12.3262" gradientUnits="userSpaceOnUse">
<stop stop-color="#FFF5D9"/>
<stop offset="1" stop-color="#FFCE47"/>
</linearGradient>
<linearGradient id="paint9_linear_863_646" x1="27.5103" y1="43.4348" x2="6.33527" y2="22.2598" gradientUnits="userSpaceOnUse">
<stop stop-color="#6FA953"/>
<stop offset="1" stop-color="#43765A"/>
</linearGradient>
<linearGradient id="paint10_linear_863_646" x1="42.3194" y1="26.3937" x2="23.4748" y2="7.54912" gradientUnits="userSpaceOnUse">
<stop stop-color="#E4E08E"/>
<stop offset="1" stop-color="#6FA953"/>
</linearGradient>
<linearGradient id="paint11_linear_863_646" x1="76.15" y1="44.2949" x2="56.2562" y2="24.4012" gradientUnits="userSpaceOnUse">
<stop stop-color="#FFCE47"/>
<stop offset="1" stop-color="#FF9356"/>
</linearGradient>
<linearGradient id="paint12_linear_863_646" x1="74.7785" y1="58.8531" x2="61.4878" y2="45.5624" gradientUnits="userSpaceOnUse">
<stop stop-color="#FF9356"/>
<stop offset="1" stop-color="#FF755C"/>
</linearGradient>
<linearGradient id="paint13_linear_863_646" x1="32.7321" y1="64.5862" x2="8.19362" y2="40.0477" gradientUnits="userSpaceOnUse">
<stop stop-color="#7ACBFF"/>
<stop offset="1" stop-color="#45A2E0"/>
</linearGradient>
<linearGradient id="paint14_linear_863_646" x1="59.5632" y1="75.4883" x2="41.6777" y2="57.6028" gradientUnits="userSpaceOnUse">
<stop stop-color="#FF755C"/>
<stop offset="1" stop-color="#FF4181"/>
</linearGradient>
<linearGradient id="paint15_linear_863_646" x1="44.9039" y1="76.7582" x2="23.0763" y2="54.9305" gradientUnits="userSpaceOnUse">
<stop stop-color="#FF4181"/>
<stop offset="1" stop-color="#843561"/>
</linearGradient>
<linearGradient id="paint16_linear_863_646" x1="62.5282" y1="62.5274" x2="49.8429" y2="49.8421" gradientUnits="userSpaceOnUse">
<stop stop-color="#843561" stop-opacity="0"/>
<stop offset="1" stop-color="#3A2F4D"/>
</linearGradient>
<linearGradient id="paint17_linear_863_646" x1="2.13668" y1="68.7888" x2="20.2036" y2="86.8557" gradientUnits="userSpaceOnUse">
<stop stop-color="#FFE0EA"/>
<stop offset="1" stop-color="#FFC0D5"/>
</linearGradient>
<linearGradient id="paint18_linear_863_646" x1="9.06006" y1="55.2539" x2="58.4331" y2="55.2539" gradientUnits="userSpaceOnUse">
<stop stop-color="#FFCE47"/>
<stop offset="1" stop-color="#FF9356"/>
</linearGradient>
<linearGradient id="paint19_linear_863_646" x1="40.6293" y1="63.3661" x2="22.388" y2="45.1247" gradientUnits="userSpaceOnUse">
<stop stop-color="#FFCE47"/>
<stop offset="1" stop-color="#FF9356"/>
</linearGradient>
<linearGradient id="paint20_linear_863_646" x1="2.28024" y1="85.6215" x2="6.89015" y2="90.2314" gradientUnits="userSpaceOnUse">
<stop stop-color="#2F73A0"/>
<stop offset="1" stop-color="#174461"/>
</linearGradient>
<linearGradient id="paint21_linear_863_646" x1="64.2107" y1="15.6202" x2="66.5898" y2="19.5287" gradientUnits="userSpaceOnUse">
<stop stop-color="#EDF5FF"/>
<stop offset="1" stop-color="#C7E9FF"/>
</linearGradient>
<linearGradient id="paint22_linear_863_646" x1="70.2521" y1="23.1407" x2="73.4808" y2="28.9184" gradientUnits="userSpaceOnUse">
<stop stop-color="#EDF5FF"/>
<stop offset="1" stop-color="#C7E9FF"/>
</linearGradient>
<linearGradient id="paint23_linear_863_646" x1="76.3526" y1="19.2762" x2="70.8083" y2="13.7318" gradientUnits="userSpaceOnUse">
<stop stop-color="#2F73A0"/>
<stop offset="1" stop-color="#174461"/>
</linearGradient>
<linearGradient id="paint24_linear_863_646" x1="55.3463" y1="33.6511" x2="52.3174" y2="36.68" gradientUnits="userSpaceOnUse">
<stop stop-color="#7ACBFF" stop-opacity="0"/>
<stop offset="1" stop-color="#2F73A0"/>
</linearGradient>
<linearGradient id="paint25_linear_863_646" x1="49.6692" y1="38.0724" x2="44.9539" y2="45.6457" gradientUnits="userSpaceOnUse">
<stop stop-color="#2F73A0"/>
<stop offset="1" stop-color="#174461"/>
</linearGradient>
</defs>
</svg>
