<svg width="86" height="88" viewBox="0 0 86 88" fill="none" xmlns="http://www.w3.org/2000/svg">
<path d="M48.125 6.875C58.6061 6.875 51.3887 11.0875 60.4473 14.9137C69.5058 18.7398 67.7002 10.9382 74.5985 17.9244C81.4969 24.9105 73.6926 22.9799 77.3804 32.0624C81.0683 41.145 85.3328 34.3573 85.2485 44C85.3327 53.6427 81.0683 46.8549 77.3804 55.9375C73.6925 65.0201 81.4969 63.0895 74.5985 70.0756C67.7002 77.0618 69.5058 69.2601 60.4473 73.0863C51.3887 76.9124 58.6061 81.125 48.125 81.125V6.875Z" fill="#FFCA28"/>
<path d="M48.125 6.875V7.85791C50.2483 9.32635 48.5527 12.2122 54.9463 14.9128C58.7949 16.5384 60.6573 16.0635 62.0845 15.5171C61.5799 15.359 61.0383 15.1629 60.4463 14.9128C51.3878 11.0867 58.6061 6.875 48.125 6.875ZM70.0847 14.9021C68.9138 14.7897 68.0437 15.4583 66.6768 15.8152C67.3537 16.2859 68.1362 16.9482 69.0991 17.9233C75.9975 24.9095 68.1935 22.9802 71.8814 32.0627C75.5692 41.1453 79.8316 34.3573 79.7473 44C79.8315 53.6427 75.5692 46.8547 71.8814 55.9373C68.1934 65.0198 75.9975 63.0905 69.0991 70.0767C68.1362 71.0518 67.3537 71.7141 66.6768 72.1848C69.2729 72.8626 70.046 74.6877 74.5991 70.0767C81.4975 63.0905 73.6935 65.0198 77.3813 55.9373C81.0692 46.8547 85.3315 53.6427 85.2473 44C85.3315 34.3573 81.0692 41.1453 77.3813 32.0627C73.6935 22.9802 81.4975 24.9095 74.5991 17.9233C72.4434 15.7402 71.1376 15.0032 70.0847 14.9021ZM60.0112 71.9834C58.7989 71.8992 57.2109 72.1306 54.9463 73.0872C48.5526 75.7878 50.2483 78.6736 48.125 80.1421V81.125C58.6061 81.125 51.3878 76.9133 60.4463 73.0872C61.0383 72.8371 61.5798 72.641 62.0845 72.4829C61.4971 72.258 60.8592 72.0423 60.0112 71.9834Z" fill="#ECB200"/>
<path d="M48.125 82.5197C48.125 85.5558 45.6413 88 42.5563 88H5.56874C2.48368 88 0 85.5558 0 82.5197V5.48033C0 2.44422 2.48368 0 5.56874 0H42.5563C45.6413 0 48.125 2.44422 48.125 5.48033V82.5197Z" fill="#E4EFF8"/>
<path d="M43.3638 0.0778809C46.7188 37.125 15.5158 80.9176 0.309082 84.2563C1.04693 86.4308 3.10613 88 5.57006 88H42.5554C45.6405 88 48.1252 85.5549 48.1252 82.5188V5.4812C48.1252 2.71769 46.0598 0.463789 43.3638 0.0778809Z" fill="#C4DCF0"/>
<path d="M2.75 77V8.25H45.375V77H2.75Z" fill="#549AD4"/>
<path d="M43.3125 8.25C41.706 47.4355 15.1561 69.2884 2.75 74.25V79.75H45.375V8.25H43.3125Z" fill="#3588CB"/>
<path d="M68.75 44C68.75 55.3909 59.5159 64.625 48.125 64.625C36.7341 64.625 27.5 55.3909 27.5 44C27.5 32.6091 36.7341 23.375 48.125 23.375C59.5159 23.375 68.75 32.6091 68.75 44Z" fill="#E4EFF8"/>
<path d="M48.125 23.375C36.7341 23.375 27.5 32.6091 27.5 44C27.5041 50.1622 30.2633 55.9998 35.0222 59.9145C31.945 56.2172 30.2569 51.5604 30.25 46.75C30.25 35.3591 39.4841 26.125 50.875 26.125C55.6566 26.1288 60.2883 27.7939 63.9778 30.8354C60.0649 26.1162 54.2554 23.3823 48.125 23.375Z" fill="#C4DCF0"/>
<path d="M41.2145 35.7385C40.8578 35.7494 40.5193 35.8986 40.2706 36.1546L33.399 43.0262C32.8592 43.5637 32.8592 44.4376 33.399 44.975L40.2706 51.8467C41.5698 53.1459 43.5186 51.197 42.2194 49.8978L36.312 44.0006L42.2194 38.0933C43.1106 37.2165 42.4642 35.7017 41.2145 35.7385Z" fill="#C4DCF0"/>
<path d="M39.8444 35.7385C39.4877 35.7494 39.1492 35.8986 38.9005 36.1546L32.0288 43.0262C31.4891 43.5637 31.4891 44.4376 32.0288 44.975L38.9005 51.8467C40.1997 53.1459 42.1485 51.197 40.8493 49.8978L34.9419 44.0006L40.8493 38.0933C41.7405 37.2165 41.0941 35.7017 39.8444 35.7385Z" fill="#427096"/>
<path d="M57.597 35.7384C56.4328 35.8541 55.9356 37.2781 56.7748 38.0932L62.672 44.0006L56.7748 49.8978C55.3909 51.1893 57.4147 53.2237 58.7135 51.8466L65.5952 44.975C66.135 44.4375 66.135 43.5637 65.5952 43.0262L58.7135 36.1546C58.4238 35.8534 58.013 35.7003 57.597 35.7384Z" fill="#C4DCF0"/>
<path d="M56.2268 35.7384C55.0627 35.8541 54.5655 37.2781 55.4047 38.0932L61.3019 44.0006L55.4047 49.8978C54.0208 51.1893 56.0446 53.2237 57.3433 51.8466L64.2251 44.975C64.7649 44.4375 64.7649 43.5637 64.2251 43.0262L57.3433 36.1546C57.0537 35.8534 56.6429 35.7003 56.2268 35.7384Z" fill="#427096"/>
<path d="M52.2072 35.7283C51.6544 35.7469 51.1665 36.0948 50.9689 36.6114L45.4675 50.3648C44.7841 52.07 47.3419 53.0952 48.0253 51.3899L53.5267 37.6366C53.9175 36.7093 53.2127 35.6901 52.2072 35.7283Z" fill="#C4DCF0"/>
<path d="M50.8371 35.7283C50.2843 35.7469 49.7964 36.0948 49.5988 36.6114L44.0974 50.3648C43.414 52.07 45.9718 53.0952 46.6552 51.3899L52.1566 37.6366C52.5474 36.7093 51.8426 35.6901 50.8371 35.7283Z" fill="#427096"/>
<path d="M6.86964 17.875C6.11028 17.878 5.49705 18.496 5.50001 19.2554C5.50297 20.0105 6.11443 20.622 6.86964 20.625H9.61964C10.379 20.628 10.997 20.0147 11 19.2554C11.003 18.4918 10.3832 17.872 9.61964 17.875H6.86964Z" fill="#E4EFF8"/>
<path d="M15.1196 17.875C14.3602 17.878 13.747 18.496 13.75 19.2554C13.7529 20.0105 14.3644 20.622 15.1196 20.625H17.8723C18.6317 20.628 19.2497 20.0147 19.2527 19.2554C19.2557 18.4918 18.6359 17.872 17.8723 17.875H15.1196Z" fill="#E4EFF8"/>
<path d="M23.3726 17.875C22.609 17.872 21.9892 18.4918 21.9922 19.2554C21.9952 20.0147 22.6132 20.628 23.3726 20.625H26.1253C26.8804 20.6221 27.4919 20.0105 27.4949 19.2554C27.4979 18.496 26.8846 17.878 26.1253 17.875H23.3726Z" fill="#E4EFF8"/>
<path d="M31.625 17.875C30.8614 17.872 30.2416 18.4918 30.2446 19.2554C30.2477 20.0147 30.8656 20.628 31.625 20.625H34.375C35.1302 20.6221 35.7417 20.0105 35.7446 19.2554C35.7477 18.496 35.1344 17.878 34.375 17.875H31.625Z" fill="#E4EFF8"/>
<path d="M6.86964 26.1277C6.11443 26.1306 5.50297 26.7421 5.50001 27.4973C5.49705 28.2567 6.11028 28.8747 6.86964 28.8777H9.61964C10.3832 28.8807 11.003 28.2609 11 27.4973C10.9971 26.738 10.379 26.1247 9.61964 26.1277H6.86964Z" fill="#E4EFF8"/>
<path d="M15.1196 26.1277C14.3644 26.1306 13.753 26.7421 13.75 27.4973C13.7471 28.2567 14.3602 28.8747 15.1196 28.8777H17.8723C18.6359 28.8807 19.2557 28.2609 19.2527 27.4973C19.2497 26.738 18.6317 26.1247 17.8723 26.1277H15.1196Z" fill="#E4EFF8"/>
<path d="M23.3726 26.1277C22.6132 26.1247 21.9952 26.738 21.9922 27.4973C21.9892 28.2609 22.609 28.8807 23.3726 28.8777H26.1253C26.8846 28.8747 27.4978 28.2567 27.4949 27.4973C27.492 26.7421 26.8804 26.1306 26.1253 26.1277H23.3726Z" fill="#E4EFF8"/>
<path d="M6.86965 34.3777C6.11445 34.3806 5.50299 34.9921 5.50002 35.7473C5.49561 36.5077 6.1092 37.1275 6.86965 37.1304H9.61966C10.3843 37.1334 11.0045 36.5119 11 35.7473C10.9971 34.988 10.379 34.3747 9.61966 34.3777H6.86965Z" fill="#E4EFF8"/>
<path d="M15.1197 34.3777C14.3644 34.3806 13.753 34.9921 13.75 35.7473C13.7456 36.5077 14.3592 37.1275 15.1197 37.1304H17.8723C18.637 37.1334 19.2572 36.5119 19.2527 35.7473C19.2497 34.988 18.6318 34.3747 17.8723 34.3777H15.1197Z" fill="#E4EFF8"/>
<path d="M23.3726 34.3777C22.6132 34.3747 21.9952 34.988 21.9922 35.7473C21.9877 36.512 22.6079 37.1334 23.3726 37.1304H24.7422C25.5079 37.1349 26.1297 36.513 26.1253 35.7473C26.1222 34.9869 25.5026 34.3732 24.7422 34.3777H23.3726Z" fill="#E4EFF8"/>
<path d="M23.3643 42.6248C22.6049 42.6248 21.9893 43.2404 21.9893 43.9998C21.9893 44.7591 22.6049 45.3721 23.3643 45.3721C24.1236 45.3721 24.7393 44.7591 24.7393 43.9998C24.7393 43.2404 24.1236 42.6248 23.3643 42.6248Z" fill="#E4EFF8"/>
<path d="M6.86964 42.6277C6.11028 42.6307 5.49705 43.2487 5.50001 44.0081C5.50297 44.7633 6.11443 45.3748 6.86964 45.3777H9.61964C10.379 45.3807 10.997 44.7674 11 44.0081C11.003 43.2445 10.3832 42.6247 9.61964 42.6277H6.86964Z" fill="#E4EFF8"/>
<path d="M15.1196 42.6275C14.3644 42.6304 13.753 43.2419 13.75 43.9972C13.7471 44.7565 14.3602 45.3746 15.1196 45.3775H17.8723C18.6359 45.3805 19.2557 44.7607 19.2527 43.9972C19.2497 43.2377 18.6317 42.6244 17.8723 42.6275L15.1196 42.6275Z" fill="#E4EFF8"/>
<path d="M6.86964 50.8694C6.11028 50.8724 5.49705 51.4904 5.50001 52.2498C5.50297 53.005 6.11443 53.6164 6.86964 53.6194H9.61964C10.379 53.6224 10.997 53.0091 11 52.2498C11.003 51.4862 10.3832 50.8664 9.61964 50.8694H6.86964Z" fill="#E4EFF8"/>
<path d="M15.1196 50.8694C14.3602 50.8724 13.747 51.4904 13.75 52.2498C13.7529 53.005 14.3644 53.6164 15.1196 53.6194H17.8723C18.6317 53.6224 19.2497 53.0091 19.2527 52.2498C19.2557 51.4862 18.6359 50.8664 17.8723 50.8694H15.1196Z" fill="#E4EFF8"/>
<path d="M23.3726 50.8694C22.609 50.8664 21.9892 51.4862 21.9922 52.2498C21.9952 53.0091 22.6132 53.6224 23.3726 53.6194H24.7422C25.5026 53.6238 26.1223 53.0102 26.1253 52.2498C26.1283 51.4852 25.5068 50.8649 24.7422 50.8694H23.3726Z" fill="#E4EFF8"/>
<path d="M6.86964 59.1221C6.11028 59.1251 5.49705 59.7431 5.50001 60.5025C5.50297 61.2577 6.11443 61.8692 6.86964 61.8721H9.61964C10.379 61.8751 10.997 61.2619 11 60.5025C11.003 59.7389 10.3832 59.1191 9.61964 59.1221H6.86964Z" fill="#E4EFF8"/>
<path d="M15.1196 59.1221C14.3602 59.1251 13.747 59.7431 13.75 60.5025C13.7529 61.2577 14.3644 61.8692 15.1196 61.8721H17.8723C18.6317 61.8751 19.2497 61.2619 19.2527 60.5025C19.2557 59.7389 18.6359 59.1191 17.8723 59.1221H15.1196Z" fill="#E4EFF8"/>
<path d="M23.3726 59.1223C22.609 59.1193 21.9892 59.7391 21.9922 60.5027C21.9952 61.2621 22.6132 61.8753 23.3726 61.8723H26.1253C26.8804 61.8694 27.4919 61.2579 27.4949 60.5027C27.4979 59.7433 26.8846 59.1253 26.1253 59.1223H23.3726Z" fill="#C4DCF0"/>
<path d="M6.86964 67.375C6.11443 67.3779 5.50297 67.9895 5.50001 68.7446C5.49705 69.5041 6.11028 70.122 6.86964 70.125H9.61964C10.3832 70.128 11.003 69.5082 11 68.7446C10.9971 67.9853 10.379 67.372 9.61964 67.375H6.86964Z" fill="#E4EFF8"/>
<path d="M15.1196 67.375C14.3644 67.3779 13.753 67.9895 13.75 68.7446C13.7471 69.5041 14.3602 70.122 15.1196 70.125H17.8723C18.6359 70.128 19.2557 69.5082 19.2527 68.7446C19.2497 67.9853 18.6317 67.372 17.8723 67.375H15.1196Z" fill="#C4DCF0"/>
<path d="M23.3726 67.375C22.6132 67.372 21.9952 67.9853 21.9922 68.7446C21.9892 69.5082 22.609 70.128 23.3726 70.125H26.1253C26.8846 70.122 27.4978 69.5041 27.4949 68.7446C27.492 67.9895 26.8804 67.378 26.1253 67.375H23.3726Z" fill="#C4DCF0"/>
<path d="M31.625 67.375C30.8656 67.372 30.2476 67.9853 30.2446 68.7446C30.2416 69.5082 30.8614 70.128 31.625 70.125H34.375C35.1344 70.122 35.7476 69.5041 35.7446 68.7446C35.7417 67.9895 35.1302 67.378 34.375 67.375H31.625Z" fill="#C4DCF0"/>
</svg>
