<svg width="67" height="92" viewBox="0 0 67 92" fill="none" xmlns="http://www.w3.org/2000/svg">
<path d="M61.6343 82.7686V9.12048C61.6343 4.08338 57.5509 0 52.5138 0H14.2039C9.1668 0 5.08342 4.08338 5.08342 9.12048V82.7686C5.08342 87.8057 9.1668 91.889 14.2039 91.889H52.5138C57.5509 91.889 61.6343 87.8057 61.6343 82.7686Z" fill="#5D6988"/>
<path d="M52.4647 4.41846H14.2721C11.6429 4.41846 9.51147 6.54987 9.51147 9.17909V82.7099C9.51147 85.3391 11.6429 87.4705 14.2721 87.4705H52.4647C55.0939 87.4705 57.2254 85.3391 57.2254 82.7099V9.17909C57.2254 6.54987 55.0939 4.41846 52.4647 4.41846Z" fill="#55ABEE"/>
<path d="M53.3056 9.16931V82.7197C53.3056 82.9452 53.216 83.1615 53.0565 83.321C52.897 83.4805 52.6807 83.5701 52.4551 83.5701H14.2625C14.1509 83.5701 14.0403 83.5481 13.9371 83.5054C13.8339 83.4626 13.7401 83.4 13.6612 83.321C13.5822 83.242 13.5196 83.1483 13.4768 83.0451C13.4341 82.9419 13.4121 82.8313 13.4121 82.7197V9.16931C13.4121 9.05763 13.4341 8.94704 13.4768 8.84385C13.5196 8.74067 13.5822 8.64691 13.6612 8.56794C13.7401 8.48897 13.8339 8.42633 13.9371 8.38359C14.0403 8.34085 14.1509 8.31885 14.2625 8.31885H52.4649C52.5761 8.31884 52.6863 8.3409 52.7889 8.38376C52.8916 8.42662 52.9847 8.48942 53.0629 8.56853C53.1411 8.64763 53.2028 8.74146 53.2444 8.84459C53.2861 8.94772 53.3069 9.05809 53.3056 9.16931Z" fill="#73D3F8"/>
<path d="M37.9775 16.4521V20.9292C37.9729 21.3851 37.8316 21.8291 37.572 22.2037C37.3123 22.5784 36.9462 22.8666 36.5209 23.0309C31.7505 24.8883 33.8425 30.7926 26.1394 44.8888C26.0259 45.0955 25.8589 45.268 25.6561 45.3884C25.4532 45.5087 25.2218 45.5725 24.9859 45.5731C24.8139 45.5731 24.6436 45.5392 24.4846 45.4734C24.3257 45.4075 24.1813 45.311 24.0597 45.1894C23.938 45.0678 23.8416 44.9234 23.7757 44.7644C23.7099 44.6055 23.676 44.4352 23.676 44.2632V26.1395C23.676 25.5899 23.4577 25.0628 23.069 24.6741C22.6804 24.2855 22.1533 24.0671 21.6036 24.0671C20.9944 24.0671 20.4101 23.8251 19.9792 23.3943C19.5484 22.9635 19.3064 22.3792 19.3064 21.7699V16.4912C19.3064 15.8819 19.5484 15.2976 19.9792 14.8668C20.4101 14.436 20.9944 14.1939 21.6036 14.1939H35.7096C36.0073 14.1913 36.3026 14.2479 36.5783 14.3603C36.8539 14.4728 37.1045 14.6389 37.3155 14.8489C37.5265 15.059 37.6937 15.3089 37.8073 15.5841C37.9209 15.8593 37.9788 16.1543 37.9775 16.4521Z" fill="#A4EAFF"/>
<path d="M45.1527 0H19.7561C18.536 0 17.5469 0.989114 17.5469 2.20925C17.5469 3.42938 18.536 4.41849 19.7561 4.41849H45.1527C46.3728 4.41849 47.3619 3.42938 47.3619 2.20925C47.3619 0.989114 46.3728 0 45.1527 0Z" fill="#7682AB"/>
<path d="M36.1984 0H28.7202C27.5001 0 26.511 0.989114 26.511 2.20925C26.511 3.42938 27.5001 4.41849 28.7202 4.41849H36.1984C37.4186 4.41849 38.4077 3.42938 38.4077 2.20925C38.4077 0.989114 37.4186 0 36.1984 0Z" fill="#94AFD8"/>
<path d="M61.6338 15.406C61.6338 14.1859 60.6447 13.1968 59.4246 13.1968C58.2044 13.1968 57.2153 14.1859 57.2153 15.406V31.643C57.2153 32.8631 58.2044 33.8523 59.4246 33.8523C60.6447 33.8523 61.6338 32.8631 61.6338 31.643V15.406Z" fill="#4E5579"/>
<path d="M9.50149 33.168C9.50149 31.9479 8.51457 30.9587 7.29713 30.9587C6.0797 30.9587 5.09277 31.9479 5.09277 33.168V59.8647C5.09277 61.0848 6.0797 62.0739 7.29713 62.0739C8.51457 62.0739 9.50149 61.0848 9.50149 59.8647V33.168Z" fill="#4E5579"/>
<path d="M32.2099 87.4705H18.4168C17.1966 87.4705 16.2075 88.4596 16.2075 89.6797C16.2075 90.8998 17.1966 91.889 18.4168 91.889H32.2099C33.43 91.889 34.4191 90.8998 34.4191 89.6797C34.4191 88.4596 33.43 87.4705 32.2099 87.4705Z" fill="#4E5579"/>
<path d="M57.2152 51.4382V82.7196C57.2126 83.9788 56.7113 85.1857 55.8209 86.0761C54.9305 86.9665 53.7235 87.4679 52.4643 87.4705H52.2591C51.6731 87.4705 51.1112 87.7032 50.6969 88.1175C50.2826 88.5319 50.0498 89.0938 50.0498 89.6797C50.0498 90.2656 50.2826 90.8276 50.6969 91.2419C51.1112 91.6562 51.6731 91.889 52.2591 91.889C53.478 91.923 54.6914 91.7122 55.8274 91.269C56.9635 90.8259 57.9991 90.1595 58.8731 89.3092C59.7472 88.4589 60.4418 87.4419 60.9159 86.3185C61.3901 85.195 61.6342 83.9879 61.6337 82.7685V51.4382H57.2152Z" fill="#4E5579"/>
<path d="M40.91 27.1267L65.3486 51.5653C65.6698 51.8587 65.9069 52.2325 66.0353 52.6481C66.1638 53.0637 66.179 53.5061 66.0794 53.9295C65.9797 54.353 65.7689 54.7422 65.4686 55.0569C65.1683 55.3716 64.7894 55.6005 64.371 55.7199C57.6553 57.6749 53.1684 58.8871 46.7068 62.4844C39.6588 66.3946 40.0204 66.5022 31.0662 75.4564C30.6832 75.8454 30.2267 76.1543 29.7232 76.3651C29.2198 76.576 28.6794 76.6846 28.1335 76.6846C27.5877 76.6846 27.0473 76.576 26.5438 76.3651C26.0403 76.1543 25.5838 75.8454 25.2009 75.4564L17.0677 67.3233C16.68 66.9397 16.3721 66.4829 16.162 65.9796C15.9519 65.4762 15.8438 64.9361 15.8438 64.3907C15.8438 63.8452 15.9519 63.3051 16.162 62.8018C16.3721 62.2984 16.68 61.8417 17.0677 61.458C23.324 55.2018 26.1393 52.8263 28.8569 47.9582C33.6078 39.4926 34.0672 37.5376 36.8532 28.1531C36.9733 27.7486 37.1965 27.3822 37.5009 27.0899C37.8053 26.7976 38.1805 26.5895 38.5896 26.486C38.9988 26.3825 39.4278 26.3871 39.8346 26.4994C40.2414 26.6118 40.612 26.8279 40.91 27.1267Z" fill="#FF7D3F"/>
<path d="M40.9102 27.1267L59.7279 45.9444C60.0269 46.2401 60.2446 46.608 60.3598 47.0125C60.4751 47.417 60.484 47.8444 60.3857 48.2533C60.2874 48.6622 60.0852 49.0389 59.7987 49.3468C59.5122 49.6547 59.1511 49.8835 58.7503 50.011C52.0444 51.9661 47.5477 53.1782 41.0861 56.7756L40.7929 56.9418C40.2652 57.2343 39.6569 57.3477 39.0593 57.2648C38.4617 57.182 37.9071 56.9074 37.479 56.4823L29.8639 48.877C29.5867 48.6021 29.4071 48.2441 29.3524 47.8576C29.2977 47.471 29.3709 47.0772 29.5609 46.7362C33.6079 39.4926 34.4486 36.1103 36.8534 28.1629C36.9722 27.7575 37.1946 27.3901 37.4985 27.0967C37.8024 26.8033 38.1774 26.5941 38.5867 26.4895C38.996 26.385 39.4254 26.3888 39.8328 26.5005C40.2402 26.6122 40.6115 26.828 40.9102 27.1267Z" fill="#FFBA4E"/>
<path d="M34.6539 43.8917C33.7546 45.7686 32.9139 47.3033 32.2394 48.5155C32.0961 48.7613 32.0394 49.048 32.0784 49.3298C32.1174 49.6116 32.2498 49.8722 32.4545 50.0698L33.3636 50.9887C33.4815 51.1285 33.6265 51.2431 33.7899 51.3256C33.9532 51.408 34.1315 51.4566 34.3141 51.4685C34.4966 51.4804 34.6797 51.4552 34.8524 51.3946C35.025 51.334 35.1836 51.2392 35.3187 51.1158L38.828 47.6064C38.9257 47.5149 39.0036 47.4044 39.0568 47.2817C39.11 47.1589 39.1375 47.0266 39.1375 46.8928C39.1375 46.759 39.11 46.6266 39.0568 46.5039C39.0036 46.3811 38.9257 46.2706 38.828 46.1792L36.2571 43.6082C36.1459 43.4916 36.0076 43.4043 35.8545 43.3541C35.7014 43.3039 35.5382 43.2923 35.3796 43.3204C35.2209 43.3484 35.0716 43.4153 34.945 43.5149C34.8184 43.6146 34.7184 43.7441 34.6539 43.8917Z" fill="#FFDD67"/>
<path d="M36.5603 40.7732L40.5682 44.7714C40.641 44.8453 40.7277 44.9039 40.8234 44.944C40.9191 44.9841 41.0217 45.0047 41.1254 45.0047C41.2291 45.0047 41.3318 44.9841 41.4275 44.944C41.5231 44.9039 41.6099 44.8453 41.6826 44.7714L42.6602 43.7938C42.7341 43.7211 42.7927 43.6343 42.8328 43.5387C42.8728 43.443 42.8935 43.3403 42.8935 43.2366C42.8935 43.1329 42.8728 43.0303 42.8328 42.9346C42.7927 42.8389 42.7341 42.7522 42.6602 42.6794L38.2417 38.2512C38.1475 38.1599 38.0323 38.0932 37.9063 38.0568C37.7803 38.0205 37.6472 38.0156 37.5189 38.0426C37.3905 38.0696 37.2708 38.1277 37.1701 38.2118C37.0695 38.2959 36.991 38.4034 36.9415 38.5249C36.7656 39.0039 36.5896 39.5024 36.4137 39.913C36.3499 40.0547 36.3297 40.2122 36.3558 40.3655C36.382 40.5187 36.4531 40.6606 36.5603 40.7732Z" fill="#FFDD67"/>
<path d="M36.0224 43.3344L36.4721 43.7841C36.5779 43.8914 36.6486 44.0283 36.6748 44.1767C36.701 44.3251 36.6815 44.478 36.6187 44.615C35.563 46.8829 34.5659 48.6914 33.7839 50.0892C33.7281 50.187 33.6505 50.2706 33.5572 50.3335C33.4638 50.3964 33.3573 50.437 33.2457 50.4522C33.1342 50.4673 33.0207 50.4565 32.914 50.4207C32.8072 50.3849 32.7102 50.325 32.6304 50.2457L32.1123 49.7667C31.9978 49.6539 31.9241 49.5062 31.9028 49.3469C31.8816 49.1876 31.914 49.0257 31.995 48.8869C32.7477 47.5574 33.735 45.7881 34.7907 43.5397C34.838 43.4238 34.9141 43.3218 35.0118 43.2436C35.1096 43.1654 35.2258 43.1136 35.3492 43.093C35.4727 43.0724 35.5994 43.0838 35.7173 43.126C35.8351 43.1683 35.9402 43.2401 36.0224 43.3344Z" fill="white"/>
<path d="M25.2109 53.2175L39.2973 67.3039C38.0754 68.3401 37.9874 68.477 31.0566 75.4078C30.6737 75.7967 30.2172 76.1056 29.7137 76.3165C29.2102 76.5273 28.6698 76.6359 28.124 76.6359C27.5782 76.6359 27.0378 76.5273 26.5343 76.3165C26.0308 76.1056 25.5743 75.7967 25.1914 75.4078L17.0582 67.2746C16.6704 66.891 16.3626 66.4343 16.1525 65.9309C15.9424 65.4275 15.8342 64.8874 15.8342 64.342C15.8342 63.7965 15.9424 63.2564 16.1525 62.7531C16.3626 62.2497 16.6704 61.793 17.0582 61.4093C24.5266 54.0387 24.2236 54.3808 25.2109 53.2175Z" fill="#64A6EE"/>
<path d="M17.2731 61.2822L17.1069 61.4582C16.4562 62.1036 16.0457 62.9521 15.9436 63.8629L20.0884 68.0077C20.3565 68.2822 20.6859 68.4892 21.0496 68.6115C21.4133 68.7339 21.8008 68.7682 22.1803 68.7116C22.3953 68.686 22.5983 68.599 22.765 68.4609C22.9316 68.3227 23.0549 68.1394 23.1199 67.933C23.185 67.7265 23.189 67.5057 23.1316 67.297C23.0741 67.0883 22.9577 66.9006 22.7962 66.7565L17.2731 61.2822Z" fill="#87CEFF"/>
<path d="M18.0695 63.0113L17.0395 64.0413C16.7838 64.297 16.7838 64.7117 17.0395 64.9675L17.6547 65.5827C17.9105 65.8385 18.3252 65.8385 18.581 65.5827L19.6109 64.5528C19.8667 64.297 19.8667 63.8823 19.6109 63.6265L18.9957 63.0113C18.7399 62.7556 18.3252 62.7556 18.0695 63.0113Z" fill="white"/>
<path d="M24.116 67.5385L25.9733 65.6812C25.2695 66.3752 24.2821 67.3723 24.116 67.5483V67.5385Z" fill="#64A6EE"/>
<path d="M33.8522 61.8589L39.2971 67.3038C38.0752 68.34 37.9872 68.4769 31.0565 75.4076C30.6735 75.7966 30.217 76.1055 29.7135 76.3163C29.2101 76.5272 28.6697 76.6358 28.1238 76.6358C27.578 76.6358 27.0376 76.5272 26.5341 76.3163C26.0307 76.1055 25.5742 75.7966 25.1912 75.4076L19.7952 69.9627C20.1774 70.3529 20.6337 70.6628 21.1373 70.8744C21.6409 71.086 22.1816 71.195 22.7278 71.195C23.274 71.195 23.8147 71.086 24.3183 70.8744C24.8219 70.6628 25.2782 70.3529 25.6604 69.9627C33.0311 62.5627 32.689 62.8462 33.8522 61.8589Z" fill="#4B79DF"/>
<path d="M49.6104 57.1471C49.2683 57.4893 47.929 57.763 43.9406 59.982C42.1126 60.9596 41.2817 61.4386 40.3042 62.0544C40.2163 62.1104 40.1182 62.1486 40.0156 62.1666C39.9129 62.1846 39.8077 62.1822 39.706 62.1595C39.6043 62.1368 39.5081 62.0943 39.4228 62.0343C39.3376 61.9743 39.265 61.8981 39.2093 61.81C39.0957 61.631 39.0576 61.4143 39.1034 61.2072C39.1492 61.0002 39.2752 60.8198 39.4537 60.7054C42.4379 58.8787 45.5366 57.2461 48.7306 55.8177C48.9063 55.7265 49.1095 55.7035 49.3011 55.7532C49.4927 55.8029 49.6591 55.9217 49.7684 56.0868C49.8776 56.2518 49.9219 56.4515 49.8927 56.6472C49.8636 56.843 49.763 57.0211 49.6104 57.1471Z" fill="#FFBA4E"/>
<path d="M25.8596 50.0347L25.2514 50.6429C24.5261 51.3681 24.5261 52.544 25.2514 53.2692L39.2397 67.2575C39.9649 67.9827 41.1407 67.9827 41.866 67.2575L42.4741 66.6493C43.1994 65.9241 43.1994 64.7483 42.4742 64.0231L28.4858 50.0347C27.7606 49.3095 26.5848 49.3095 25.8596 50.0347Z" fill="#352D5B"/>
<path d="M25.8591 50.0303L25.2509 50.6385C24.5257 51.3638 24.5257 52.5396 25.2509 53.2648L36.1914 64.2053C36.9166 64.9305 38.0924 64.9305 38.8176 64.2053L39.4258 63.5971C40.151 62.8719 40.151 61.696 39.4258 60.9708L28.4853 50.0303C27.7601 49.3051 26.5843 49.3051 25.8591 50.0303Z" fill="#3F416A"/>
<path d="M27.4413 51.9618L27.1718 52.2313C26.855 52.5481 26.855 53.0618 27.1718 53.3786L31.0559 57.2627C31.3727 57.5795 31.8863 57.5795 32.2032 57.2627L32.4727 56.9931C32.7895 56.6763 32.7895 56.1627 32.4727 55.8459L28.5886 51.9618C28.2718 51.645 27.7581 51.645 27.4413 51.9618Z" fill="#536997"/>
<path d="M28.7827 53.2849L28.5132 53.5545C28.1963 53.8713 28.1963 54.385 28.5132 54.7019L29.5155 55.7042C29.8323 56.021 30.346 56.021 30.6629 55.7042L30.9325 55.4346C31.2493 55.1177 31.2493 54.604 30.9325 54.2872L29.9302 53.2849C29.6133 52.968 29.0996 52.968 28.7827 53.2849Z" fill="#6291C9"/>
<path d="M18.2598 60.2915L21.9434 56.6078L35.8903 70.5547L32.2066 74.2384L18.2598 60.2915Z" fill="#8C97E4"/>
<path d="M18.2546 60.2888L21.9383 56.6051L30.5082 65.1751L26.8246 68.8587L18.2546 60.2888Z" fill="#E1E7F8"/>
<path d="M28.8235 70.8499L32.5077 67.1656L33.6344 68.2923L29.9502 71.9766L28.8235 70.8499Z" fill="#FF7D3F"/>
<path d="M26.0554 68.0833L29.7397 64.399L30.8664 65.5257L27.1821 69.21L26.0554 68.0833Z" fill="#FF7D3F"/>
<path d="M23.3013 65.3267L26.9855 61.6424L28.1122 62.7691L24.428 66.4534L23.3013 65.3267Z" fill="#FFBA4E"/>
<path d="M20.5332 62.5603L24.2174 58.8761L25.3441 60.0028L21.6599 63.687L20.5332 62.5603Z" fill="#FFBA4E"/>
<path d="M35.9053 31.2815L39.532 34.8984C39.6801 35.05 39.763 35.2535 39.763 35.4654C39.763 35.6773 39.6801 35.8808 39.532 36.0324C39.4576 36.1068 39.3692 36.1659 39.2719 36.2062C39.1746 36.2466 39.0703 36.2673 38.965 36.2673C38.8597 36.2673 38.7554 36.2466 38.6582 36.2062C38.5609 36.1659 38.4725 36.1068 38.398 36.0324L35.3872 33.0215L35.9053 31.2815Z" fill="#FFDD67"/>
<path d="M53.5008 50.0306C53.4263 50.1051 53.3379 50.1642 53.2407 50.2045C53.1434 50.2448 53.0391 50.2655 52.9338 50.2655C52.8285 50.2655 52.7242 50.2448 52.6269 50.2045C52.5297 50.1642 52.4413 50.1051 52.3668 50.0306L41.6139 39.2776C41.5394 39.2032 41.4803 39.1148 41.44 39.0175C41.3997 38.9202 41.3789 38.8159 41.3789 38.7106C41.3789 38.6053 41.3997 38.5011 41.44 38.4038C41.4803 38.3065 41.5394 38.2181 41.6139 38.1437C41.7666 37.9979 41.9697 37.9165 42.1808 37.9165C42.392 37.9165 42.5951 37.9979 42.7478 38.1437L53.5008 48.8966C53.6488 49.0482 53.7317 49.2517 53.7317 49.4636C53.7317 49.6755 53.6488 49.879 53.5008 50.0306Z" fill="#FF7D3F"/>
<path d="M57.5286 52.8949L61.2432 56.6095L59.4837 57.1276L56.3751 54.0288C56.3006 53.9531 56.2418 53.8634 56.202 53.7649C56.1622 53.6665 56.1422 53.5611 56.1431 53.4549C56.144 53.3487 56.1658 53.2437 56.2073 53.146C56.2488 53.0482 56.3091 52.9595 56.3849 52.8851C56.4606 52.8106 56.5503 52.7518 56.6487 52.712C56.7472 52.6722 56.8525 52.6522 56.9587 52.6531C57.0649 52.654 57.1699 52.6758 57.2677 52.7173C57.3655 52.7588 57.4541 52.8191 57.5286 52.8949Z" fill="#FF4B26"/>
<path d="M17.107 67.2842L25.2695 75.4173L20.9683 77.0987C20.7036 77.2019 20.4145 77.2254 20.1366 77.1663C19.8587 77.1073 19.6041 76.9682 19.4042 76.7663L15.7971 73.1592C15.5888 72.9531 15.4462 72.69 15.387 72.403C15.3279 72.116 15.3549 71.8179 15.4647 71.5463L17.107 67.2842Z" fill="#FF7D3F"/>
<path d="M16.4717 68.8191L15.3866 71.5464C15.2768 71.8181 15.2498 72.1162 15.3089 72.4032C15.368 72.6902 15.5107 72.9533 15.719 73.1594L16.501 73.9414C16.7078 74.1486 16.9709 74.2905 17.2576 74.3496C17.5443 74.4087 17.8421 74.3823 18.114 74.2738L19.0426 73.9023C19.2387 73.8262 19.4127 73.7022 19.5487 73.5416C19.6846 73.381 19.7782 73.189 19.821 72.983C19.8637 72.777 19.8543 72.5636 19.7934 72.3622C19.7326 72.1608 19.6224 71.9778 19.4727 71.8299L16.4717 68.8191Z" fill="#FFBA4E"/>
<path d="M32.2373 60.2603L35.4722 57.0253L38.6588 60.2119L35.4239 63.4468L32.2373 60.2603Z" fill="#4E5FB6"/>
<path d="M32.2461 60.2637L35.481 57.0287L37.1815 58.7291L33.9465 61.9641L32.2461 60.2637Z" fill="#6782CF"/>
<path d="M58.0856 40.7929L56.8832 43.0902L49.4246 35.6413L51.7218 34.4291C52.107 34.2246 52.5478 34.1493 52.979 34.2145C53.4103 34.2796 53.8092 34.4816 54.1168 34.7908L57.7239 38.398C58.0331 38.7056 58.2352 39.1045 58.3003 39.5357C58.3654 39.967 58.2901 40.4077 58.0856 40.7929Z" fill="#FF2353"/>
<path d="M31.5122 74.9392L37.5595 68.8919L39.5845 70.9169C39.8475 71.1797 39.9976 71.5347 40.0027 71.9065C40.0079 72.2782 39.8678 72.6373 39.6122 72.9073L35.5553 76.9642C35.2877 77.2318 34.9247 77.3822 34.5462 77.3822C34.1678 77.3822 33.8048 77.2318 33.5372 76.9642L31.5122 74.9392Z" fill="#3F416A"/>
<path d="M31.5088 74.9514L37.5561 68.9041L38.9176 70.2656L32.8703 76.3129L31.5088 74.9514Z" fill="#3A3256"/>
<path d="M50.627 78.0079C51.0039 78.3809 51.2593 78.8591 51.3596 79.3798C51.4599 79.9005 51.4004 80.4393 51.189 80.9256C50.9775 81.4119 50.624 81.8229 50.1748 82.1047C49.7256 82.3865 49.2017 82.5259 48.6719 82.5046C43.8051 82.2462 39.2042 80.2033 35.7488 76.7664L39.4439 73.0518C41.9788 75.5761 45.354 77.0793 48.9261 77.2747C49.5646 77.2984 50.1713 77.5599 50.627 78.0079Z" fill="#4E5FB6"/>
<path d="M50.627 78.0079C51.0039 78.3809 51.2593 78.8591 51.3596 79.3798C51.4599 79.9005 51.4004 80.4393 51.189 80.9256C50.9775 81.4119 50.624 81.8229 50.1748 82.1047C49.7256 82.3865 49.2017 82.5259 48.6719 82.5046C43.8051 82.2462 39.2042 80.2033 35.7488 76.7664L39.4439 73.0518C41.9788 75.5761 45.354 77.0793 48.9261 77.2747C49.5646 77.2984 50.1713 77.5599 50.627 78.0079Z" fill="#E1E7F8"/>
<path d="M49.5027 79.5329C49.0577 79.8172 48.5343 79.954 48.0071 79.9239C43.9353 79.7085 40.0295 78.2404 36.824 75.7204L39.4829 73.0518C42.0178 75.5761 45.393 77.0793 48.9651 77.2747C49.2214 77.2964 49.4643 77.3984 49.6592 77.5662C49.8542 77.734 49.9912 77.9591 50.0508 78.2093C50.1104 78.4595 50.0895 78.7222 49.9911 78.9598C49.8926 79.1975 49.7217 79.398 49.5027 79.5329Z" fill="#C8CEF8"/>
<path d="M47.3346 37.7287L46.9061 38.1572C46.3831 38.6801 46.3831 39.5279 46.9061 40.0508L52.4627 45.6075C52.9856 46.1304 53.8334 46.1304 54.3564 45.6075L54.7849 45.179C55.3078 44.6561 55.3078 43.8082 54.7849 43.2853L49.2282 37.7287C48.7053 37.2057 47.8575 37.2057 47.3346 37.7287Z" fill="#FFD36C"/>
<path d="M22.8767 55.6765L24.3004 54.2528L30.3892 60.3416C30.5102 60.4626 30.5782 60.6266 30.5782 60.7977C30.5782 60.9688 30.5102 61.1329 30.3892 61.2539L29.8847 61.7584C29.7637 61.8794 29.5996 61.9473 29.4286 61.9473C29.2575 61.9473 29.0934 61.8794 28.9724 61.7584L22.8836 55.6696L22.8767 55.6765Z" fill="#87CEFF"/>
<path d="M24.6641 56.4148L25.0443 56.0346C25.1836 55.8953 25.3726 55.817 25.5696 55.817C25.7666 55.817 25.9556 55.8953 26.0949 56.0346L27.0004 56.9401C27.1214 57.0611 27.1894 57.2252 27.1894 57.3963C27.1894 57.5674 27.1214 57.7315 27.0004 57.8525L26.4958 58.3571C26.3749 58.4781 26.2108 58.5461 26.0396 58.5461C25.8685 58.5461 25.7044 58.4781 25.5834 58.3571L24.6779 57.4516C24.5386 57.3123 24.4603 57.1233 24.4603 56.9263C24.4603 56.7292 24.5386 56.5403 24.6779 56.4009L24.6641 56.4148Z" fill="white"/>
<path d="M39.4926 10.3912H27.2244C26.4895 10.3877 25.7731 10.1604 25.1706 9.73948C24.5681 9.31861 24.1081 8.72419 23.8519 8.03537L22.5322 4.41846H44.1848L42.8651 8.03537C42.6125 8.72654 42.1534 9.3233 41.5501 9.74473C40.9468 10.1662 40.2285 10.3919 39.4926 10.3912Z" fill="#3F416A"/>
<path d="M55.5 77C59.6421 77 63 73.6421 63 69.5C63 65.3579 59.6421 62 55.5 62C51.3579 62 48 65.3579 48 69.5C48 73.6421 51.3579 77 55.5 77Z" fill="#FF375D"/>
<path d="M54 72.438V66.562C54 66.4564 54.0302 66.3529 54.0871 66.2633C54.1441 66.1738 54.2256 66.102 54.3222 66.056C54.4188 66.01 54.5266 65.9918 54.6332 66.0034C54.7398 66.015 54.8409 66.056 54.925 66.1217L58.779 69.0597C58.8477 69.1114 58.9034 69.178 58.9417 69.2544C58.9801 69.3308 59 69.4148 59 69.5C59 69.5852 58.9801 69.6692 58.9417 69.7456C58.9034 69.822 58.8477 69.8886 58.779 69.9403L54.925 72.8783C54.8409 72.944 54.7398 72.985 54.6332 72.9966C54.5266 73.0082 54.4188 72.99 54.3222 72.944C54.2256 72.898 54.1441 72.8262 54.0871 72.7367C54.0302 72.6471 54 72.5436 54 72.438Z" fill="white"/>
<path d="M10.1469 45.1135L14.8489 49.8546C15.087 50.0976 15.3922 50.2642 15.7255 50.3328C16.0588 50.4015 16.4049 50.3693 16.7198 50.2402C17.0346 50.1111 17.3038 49.8911 17.4929 49.6082C17.6821 49.3253 17.7825 48.9925 17.7815 48.6522V45.1135H18.4267C19.2641 45.1135 20.0672 44.7809 20.6593 44.1887C21.2515 43.5966 21.5841 42.7935 21.5841 41.956V30.03C21.5841 29.1926 21.2515 28.3895 20.6593 27.7974C20.0672 27.2052 19.2641 26.8726 18.4267 26.8726H3.14769C2.31197 26.8751 1.51137 27.2089 0.921341 27.8008C0.331314 28.3927 -4.00519e-06 29.1943 0 30.03V41.956C-4.00519e-06 42.7918 0.331314 43.5934 0.921341 44.1853C1.51137 44.7771 2.31197 45.1109 3.14769 45.1135H10.1469Z" fill="#00A98C"/>
<path d="M14.5166 42.2005C14.1736 42.2016 13.8337 42.1348 13.5166 42.0039C13.1995 41.873 12.9115 41.6807 12.669 41.4381C12.2416 41.0116 11.9753 40.4501 11.9155 39.8493C11.8556 39.2484 12.0059 38.6455 12.3407 38.143C12.6756 37.6406 13.1743 37.2698 13.7519 37.0938C14.3295 36.9178 14.9502 36.9475 15.5083 37.1779C16.0665 37.4082 16.5275 37.8249 16.8128 38.357C17.0982 38.8892 17.1902 39.5037 17.0732 40.0961C16.9563 40.6885 16.6376 41.222 16.1714 41.6057C15.7052 41.9894 15.1204 42.1996 14.5166 42.2005ZM14.018 40.0793C14.1399 40.2089 14.3083 40.2848 14.4861 40.2903C14.6639 40.2958 14.8366 40.2305 14.9663 40.1086C15.0959 39.9867 15.1718 39.8184 15.1773 39.6406C15.1828 39.4627 15.1174 39.29 14.9956 39.1604C14.9333 39.0929 14.8578 39.0389 14.7736 39.0021C14.6895 38.9652 14.5987 38.9462 14.5068 38.9462C14.415 38.9462 14.3241 38.9652 14.24 39.0021C14.1559 39.0389 14.0803 39.0929 14.018 39.1604C13.9572 39.2204 13.9088 39.2919 13.8758 39.3708C13.8428 39.4497 13.8258 39.5343 13.8258 39.6198C13.8258 39.7053 13.8428 39.79 13.8758 39.8689C13.9088 39.9477 13.9572 40.0193 14.018 40.0793Z" fill="white"/>
<path d="M5.26884 34.0674C4.96475 33.7626 4.74079 33.3873 4.61693 32.9749C4.49306 32.5625 4.47314 32.1259 4.55893 31.704C4.64472 31.2821 4.83356 30.8879 5.10862 30.5567C5.38369 30.2254 5.73643 29.9673 6.13541 29.8055C6.53439 29.6436 6.96723 29.583 7.39533 29.6289C7.82344 29.6749 8.23352 29.8261 8.58903 30.069C8.94455 30.3119 9.23445 30.639 9.4329 31.0211C9.63136 31.4032 9.7322 31.8284 9.72644 32.259C9.71957 32.7724 9.56139 33.2725 9.27171 33.6965C8.98202 34.1205 8.5737 34.4496 8.09785 34.6426C7.62201 34.8357 7.0998 34.8841 6.59658 34.7818C6.09337 34.6794 5.63151 34.431 5.26884 34.0674ZM7.1164 31.5747C7.03002 31.5734 6.94426 31.5894 6.86421 31.6218C6.78415 31.6543 6.71142 31.7025 6.65034 31.7636C6.58925 31.8247 6.54106 31.8974 6.50861 31.9774C6.47617 32.0575 6.46013 32.1433 6.46144 32.2296C6.46443 32.4024 6.53455 32.5672 6.65695 32.6891C6.73288 32.7662 6.82675 32.8233 6.93014 32.8553C7.03354 32.8873 7.14326 32.8931 7.24948 32.8724C7.35569 32.8516 7.45511 32.8048 7.53882 32.7362C7.62253 32.6676 7.68794 32.5793 7.7292 32.4792C7.77045 32.3792 7.78626 32.2704 7.77522 32.1628C7.76418 32.0551 7.72663 31.9519 7.66592 31.8623C7.60522 31.7726 7.52325 31.6995 7.42736 31.6493C7.33146 31.5991 7.22462 31.5735 7.1164 31.5747Z" fill="white"/>
<path d="M6.69616 40.9688C6.504 40.968 6.31633 40.9106 6.15662 40.8037C5.9969 40.6969 5.87222 40.5453 5.79817 40.368C5.72411 40.1907 5.70396 39.9955 5.74023 39.8067C5.7765 39.618 5.86759 39.4442 6.0021 39.307L14.1744 31.1347C14.3614 30.9746 14.6019 30.8909 14.8479 30.9004C15.094 30.9099 15.3273 31.0119 15.5014 31.186C15.6755 31.3601 15.7775 31.5934 15.787 31.8395C15.7965 32.0855 15.7128 32.326 15.5527 32.513L7.39021 40.6853C7.29887 40.7759 7.19055 40.8476 7.07144 40.8962C6.95234 40.9449 6.82481 40.9695 6.69616 40.9688Z" fill="white"/>
<path d="M58.1053 26.4818L54.3906 30.1964C54.2002 30.3846 53.9582 30.5119 53.6952 30.5621C53.4323 30.6123 53.1604 30.5831 52.914 30.4783C52.6677 30.3735 52.4582 30.1978 52.312 29.9735C52.1659 29.7492 52.0898 29.4866 52.0934 29.2189V26.4818H51.5557C50.8963 26.4818 50.2637 26.2205 49.7965 25.7551C49.3293 25.2898 49.0656 24.6582 49.063 23.9988V12.1021C49.063 11.7752 49.1275 11.4516 49.2529 11.1497C49.3783 10.8478 49.5621 10.5736 49.7937 10.3429C50.0253 10.1122 50.3002 9.92955 50.6025 9.80535C50.9049 9.68115 51.2288 9.61787 51.5557 9.61916H63.6186C63.9447 9.61916 64.2675 9.68338 64.5688 9.80816C64.87 9.93294 65.1438 10.1158 65.3743 10.3464C65.6049 10.577 65.7878 10.8507 65.9126 11.1519C66.0373 11.4532 66.1016 11.7761 66.1016 12.1021V23.9988C66.1016 24.3249 66.0373 24.6478 65.9126 24.949C65.7878 25.2503 65.6049 25.524 65.3743 25.7545C65.1438 25.9851 64.87 26.168 64.5688 26.2928C64.2675 26.4176 63.9447 26.4818 63.6186 26.4818H58.1053Z" fill="#E1E7F8"/>
<path d="M58.6722 14.0375L59.2587 15.2301C59.3453 15.408 59.4745 15.5617 59.6348 15.6776C59.7951 15.7936 59.9815 15.8682 60.1776 15.8949L61.4875 16.0904C61.7125 16.1218 61.9242 16.2158 62.0984 16.3618C62.2725 16.5077 62.4022 16.6997 62.4725 16.9157C62.5428 17.1318 62.551 17.3633 62.4961 17.5838C62.4412 17.8043 62.3254 18.0049 62.162 18.1628L61.1844 19.1403C61.0434 19.2779 60.9378 19.4475 60.8765 19.6348C60.8153 19.822 60.8002 20.0213 60.8325 20.2156L61.0867 21.506C61.1256 21.7292 61.1012 21.9589 61.0163 22.169C60.9313 22.379 60.7891 22.5611 60.6059 22.6944C60.4226 22.8278 60.2057 22.9071 59.9797 22.9234C59.7536 22.9397 59.5275 22.8923 59.3271 22.7865L58.1443 22.1707C57.9711 22.0791 57.7781 22.0312 57.5822 22.0312C57.3863 22.0312 57.1933 22.0791 57.0201 22.1707L55.8373 22.7865C55.6368 22.8923 55.4108 22.9397 55.1847 22.9234C54.9587 22.9071 54.7418 22.8278 54.5585 22.6944C54.3753 22.5611 54.2331 22.379 54.1481 22.169C54.0631 21.9589 54.0387 21.7292 54.0777 21.506L54.3025 20.196C54.3375 20.0017 54.3236 19.8017 54.2622 19.614C54.2008 19.4263 54.0937 19.2568 53.9506 19.1208L52.9731 18.1432C52.8096 17.9853 52.6939 17.7847 52.6389 17.5642C52.584 17.3437 52.5922 17.1122 52.6625 16.8962C52.7329 16.6801 52.8625 16.4881 53.0367 16.3422C53.2109 16.1963 53.4225 16.1022 53.6476 16.0708L54.9575 15.8753C55.1535 15.8487 55.3399 15.774 55.5002 15.6581C55.6605 15.5421 55.7897 15.3884 55.8764 15.2106L56.4629 14.018C56.5637 13.8096 56.7216 13.6341 56.9183 13.512C57.1149 13.3899 57.3422 13.3261 57.5737 13.3282C57.8052 13.3302 58.0313 13.398 58.2258 13.5236C58.4203 13.6491 58.5751 13.8274 58.6722 14.0375Z" fill="#FF7D3F"/>
</svg>
