<svg width="89" height="98" viewBox="0 0 89 98" fill="none" xmlns="http://www.w3.org/2000/svg">
<path d="M88.851 78.2322H0.0712891V35.4864C0.0712891 31.8545 3.01561 28.9102 6.64757 28.9102H82.2747C85.9067 28.9102 88.851 31.8545 88.851 35.4864V78.2322Z" fill="#463C4B"/>
<path d="M82.2747 78.2322H0.0712891V35.4864C0.0712891 31.8545 3.01561 28.9102 6.64757 28.9102H75.6985C79.3304 28.9102 82.2747 31.8545 82.2747 35.4864V78.2322Z" fill="#555A6E"/>
<path d="M6.64757 86.4525H82.2747C85.9067 86.4525 88.851 83.5082 88.851 79.8762V78.2322H0.0712891V79.8762C0.0712891 83.5082 3.01561 86.4525 6.64757 86.4525Z" fill="#A5C3DC"/>
<path d="M75.6985 86.4525H6.64757C3.01561 86.4525 0.0712891 83.5082 0.0712891 79.8762V78.2322H82.2747V79.8762C82.2747 83.5082 79.3304 86.4525 75.6985 86.4525Z" fill="#D7E6F0"/>
<path d="M34.5967 86.4524H49.3933V93.0287H34.5967V86.4524Z" fill="#A5C3DC"/>
<path d="M34.5967 89.7405H44.4611V93.0286H34.5967V89.7405Z" fill="#D7E6F0"/>
<path d="M57.6143 97.961H24.7329V96.3169C24.7329 94.5009 26.205 93.0288 28.021 93.0288H54.3262C56.1422 93.0288 57.6143 94.5009 57.6143 96.3169V97.961Z" fill="#D7E6F0"/>
<path d="M57.6134 97.961H47.749V96.3169C47.749 94.5009 49.2211 93.0288 51.0372 93.0288H54.3253C56.1414 93.0288 57.6134 94.5009 57.6134 96.3169V97.961Z" fill="#A5C3DC"/>
<path d="M41.1733 80.4242C55.7012 80.4242 67.4784 68.647 67.4784 54.1191C67.4784 39.5912 55.7012 27.814 41.1733 27.814C26.6454 27.814 14.8682 39.5912 14.8682 54.1191C14.8682 68.647 26.6454 80.4242 41.1733 80.4242Z" fill="#555A6E"/>
<path d="M58.7608 50.831C57.8717 50.831 57.077 50.2811 56.7605 49.4504C56.6681 49.2079 56.5688 48.9689 56.4625 48.7334C56.0957 47.9198 56.2657 46.9652 56.8968 46.3341L56.8976 46.3333C57.734 45.4968 57.734 44.1409 56.8976 43.3045L55.2763 41.6832C54.8581 41.265 54.3101 41.056 53.762 41.056H48.1444C47.8939 40.7025 47.75 40.2738 47.75 39.8203C47.75 38.6374 46.7911 37.6785 45.6084 37.6785H36.7393C35.5566 37.6785 34.5977 38.6374 34.5977 39.8203C34.5977 40.2738 34.4538 40.7025 34.2033 41.056H28.5857C28.0376 41.056 27.4895 41.265 27.0713 41.6832L25.4501 43.3045C24.6136 44.1409 24.6136 45.4968 25.4501 46.3333L25.4509 46.3341C26.082 46.9652 26.252 47.9198 25.8851 48.7334C25.7789 48.9687 25.6796 49.2079 25.5871 49.4504C25.2704 50.2811 24.4759 50.831 23.5869 50.831C22.4042 50.831 21.4453 51.7899 21.4453 52.9728V55.2657C21.4453 56.4486 22.4042 57.4075 23.5869 57.4075C24.4757 57.4075 25.2704 57.9574 25.5871 58.7881C25.6796 59.0306 25.7789 59.2696 25.8851 59.5051C26.252 60.3187 26.082 61.2733 25.4509 61.9044L25.4501 61.9053C24.6136 62.7417 24.6136 64.0976 25.4501 64.9341L27.0713 66.5553C27.4895 66.9735 28.0376 67.1825 28.5857 67.1825H34.2033C34.4538 67.536 34.5977 67.9647 34.5977 68.4182C34.5977 69.6012 35.5566 70.5601 36.7393 70.5601H45.6084C46.7911 70.5601 47.75 69.6012 47.75 68.4182C47.75 67.9647 47.8939 67.536 48.1444 67.1825H53.762C54.3101 67.1825 54.8581 66.9735 55.2763 66.5553L56.8976 64.9341C57.734 64.0976 57.734 62.7417 56.8976 61.9053L56.8968 61.9044C56.2657 61.2733 56.0957 60.3187 56.4625 59.5051C56.5688 59.2698 56.6681 59.0306 56.7605 58.7881C57.0772 57.9574 57.8717 57.4075 58.7608 57.4075C59.9435 57.4075 60.9024 56.4486 60.9024 55.2657V52.9728C60.9024 51.7899 59.9435 50.831 58.7608 50.831ZM39.5453 54.5193C39.4179 52.9026 40.0706 51.4338 41.167 50.4488C42.0852 51.2712 42.7 52.4272 42.8018 53.7186C42.9292 55.3354 42.2765 56.8041 41.1801 57.7891C40.2619 56.9667 39.6472 55.8109 39.5453 54.5193Z" fill="#FAA019"/>
<path d="M54.3254 55.2657V52.9728C54.3254 51.7899 53.3665 50.831 52.1836 50.831C51.2946 50.831 50.4999 50.281 50.1834 49.4504C50.0909 49.2079 49.9917 48.9689 49.8854 48.7334C49.5186 47.9197 49.6885 46.9652 50.3197 46.334L50.3205 46.3332C51.1569 45.4968 51.1569 44.1409 50.3205 43.3044L48.6992 41.6832C47.8628 40.8468 46.5069 40.8468 45.6704 41.6832L45.6696 41.684C45.0385 42.3151 44.0841 42.4851 43.2705 42.1182C43.0352 42.0122 42.796 41.9127 42.5535 41.8203C41.7228 41.5038 41.1729 40.7091 41.1729 39.82C41.1729 38.6371 40.214 37.6782 39.0311 37.6782H36.7382C35.5553 37.6782 34.5964 38.6371 34.5964 39.82C34.5964 40.7091 34.0465 41.5038 33.2158 41.8203C32.9733 41.9127 32.7343 42.012 32.4988 42.1182C31.6852 42.4851 30.7306 42.3151 30.0997 41.684L30.0988 41.6832C29.2624 40.8468 27.9065 40.8468 27.0701 41.6832L25.4488 43.3044C24.6124 44.1409 24.6124 45.4968 25.4488 46.3332L25.4496 46.334C26.0807 46.9652 26.2507 47.9197 25.8839 48.7334C25.7778 48.9687 25.6784 49.2079 25.5859 49.4504C25.2694 50.281 24.4747 50.831 23.5857 50.831C22.4028 50.831 21.4438 51.7899 21.4438 52.9728V55.2657C21.4438 56.4486 22.4028 57.4075 23.5857 57.4075C24.4747 57.4075 25.2694 57.9574 25.5859 58.7881C25.6784 59.0306 25.7778 59.2696 25.8839 59.5051C26.2507 60.3187 26.0807 61.2733 25.4496 61.9044L25.4488 61.9052C24.6124 62.7417 24.6124 64.0976 25.4488 64.934L27.0701 66.5553C27.9065 67.3917 29.2624 67.3917 30.0988 66.5553L30.0997 66.5545C30.7308 65.9233 31.6852 65.7534 32.4988 66.1202C32.7341 66.2263 32.9733 66.3257 33.2158 66.4182C34.0465 66.7347 34.5964 67.5294 34.5964 68.4184C34.5964 69.6013 35.5553 70.5602 36.7382 70.5602H39.0311C40.214 70.5602 41.1729 69.6013 41.1729 68.4184C41.1729 67.5294 41.7228 66.7347 42.5535 66.4182C42.796 66.3257 43.035 66.2265 43.2705 66.1202C44.0841 65.7534 45.0387 65.9233 45.6696 66.5545L45.6704 66.5553C46.5069 67.3917 47.8628 67.3917 48.6992 66.5553L50.3205 64.934C51.1569 64.0976 51.1569 62.7417 50.3205 61.9052L50.3197 61.9044C49.6885 61.2733 49.5186 60.3187 49.8854 59.5051C49.9915 59.2698 50.0909 59.0306 50.1834 58.7881C50.4999 57.9574 51.2946 57.4075 52.1836 57.4075C53.3665 57.4075 54.3254 56.4486 54.3254 55.2657ZM42.8011 53.719C43.0408 56.7581 40.5237 59.2753 37.4846 59.0357C35.0939 58.8473 33.157 56.9103 32.9684 54.5197C32.7287 51.4806 35.2458 48.9633 38.2849 49.2029C40.6758 49.3914 42.6127 51.3283 42.8011 53.719Z" fill="#FFCD05"/>
<path d="M62.0991 72.7198C61.4571 72.0778 60.4164 72.0778 59.774 72.7198C54.8056 77.6882 48.1999 80.4244 41.1734 80.4244C26.6688 80.4244 14.8683 68.6238 14.8683 54.1192H16.9653C17.6231 54.1192 18.1564 53.5859 18.1564 52.9281C18.1564 52.6363 18.0493 52.3547 17.8555 52.1367L14.1362 47.9525C13.9046 47.692 13.5727 47.543 13.2242 47.543C12.8757 47.543 12.5436 47.6922 12.3122 47.9525L8.59286 52.1367C8.39906 52.3547 8.29199 52.6363 8.29199 52.9279C8.29199 53.5857 8.82529 54.119 9.48312 54.119H11.5801C11.5801 70.4368 24.8556 83.7123 41.1734 83.7123C49.0781 83.7123 56.5097 80.634 62.0991 75.0445C62.7411 74.4027 62.7411 73.3618 62.0991 72.7198Z" fill="#FAA019"/>
<path d="M72.8632 54.1192H70.7662C70.7662 43.188 64.8083 33.623 55.9695 28.4986V20.6897H59.2577C59.9225 20.6897 60.522 20.2892 60.7766 19.6749C61.031 19.0604 60.8907 18.3535 60.4205 17.8833L55.4882 12.9511C54.846 12.3089 53.8053 12.3089 53.1631 12.9511L48.2309 17.8833C47.7607 18.3535 47.6201 19.0606 47.8748 19.6749C48.1292 20.2892 48.7287 20.6897 49.3937 20.6897H52.6818V26.8554C49.6212 25.5586 46.2983 24.7639 42.8174 24.5724V9.18123H46.1055C46.7704 9.18123 47.3698 8.7807 47.6245 8.16643C47.8789 7.55196 47.7385 6.84501 47.2683 6.37481L42.3361 1.4426C41.6939 0.800384 40.6532 0.800384 40.011 1.4426L35.0788 6.37481C34.6086 6.84501 34.468 7.55217 34.7226 8.16643C34.9764 8.7807 35.5759 9.18123 36.2407 9.18123H39.5289V24.5722C36.0928 24.759 32.7662 25.5309 29.6644 26.8398V20.6897H32.9526C33.6174 20.6897 34.2169 20.2892 34.4715 19.6749C34.7259 19.0604 34.5856 18.3535 34.1153 17.8833L29.1831 12.9511C28.5409 12.3089 27.5002 12.3089 26.858 12.9511L21.9258 17.8833C21.4556 18.3535 21.315 19.0606 21.5697 19.6749C21.8241 20.2892 22.4235 20.6897 23.0886 20.6897H26.3767V28.4783C24.1642 29.7598 22.1038 31.3373 20.2476 33.1937C19.6056 33.8357 19.6056 34.8766 20.2476 35.5186C20.8898 36.1608 21.9305 36.1608 22.5727 35.5186C27.5411 30.5502 34.1468 27.8141 41.1733 27.8141C55.6779 27.8141 67.4784 39.6146 67.4784 54.1192H65.3814C64.7236 54.1192 64.1903 54.6525 64.1903 55.3103C64.1903 55.6021 64.2974 55.8837 64.4912 56.1017L68.2105 60.2859C68.4421 60.5465 68.774 60.6955 69.1225 60.6955C69.4711 60.6955 69.8032 60.5465 70.0346 60.2859L73.7539 56.1017C73.9477 55.8837 74.0547 55.6021 74.0547 55.3103C74.0543 54.6525 73.521 54.1192 72.8632 54.1192Z" fill="#FAA019"/>
</svg>
