<svg width="378" height="38" viewBox="0 0 378 38" fill="none" xmlns="http://www.w3.org/2000/svg">
<path d="M241.573 22.0927C241.809 22.0963 241.484 22.1208 240.6 22.1664C239.716 22.1531 238.862 22.1107 238.038 22.0394L241.573 22.0927ZM75.6821 19.5008C75.9186 19.4454 76.39 19.4526 77.0962 19.5221C77.8621 19.5337 78.5696 19.5149 79.2187 19.4658C79.3365 19.4676 79.2477 19.4957 78.9522 19.5502C78.6576 19.5457 78.2746 19.5399 77.8032 19.5328C77.3908 19.5266 76.9489 19.5199 76.4775 19.5128C76.0651 19.5066 75.7999 19.5026 75.6821 19.5008ZM10.3981 28.2398C10.5141 28.3594 10.6302 28.479 10.7463 28.5986C10.9212 28.7192 11.0962 28.8397 11.2712 28.9602C11.2703 29.0191 11.2409 29.0187 11.1828 28.9588C11.1248 28.899 11.0373 28.8388 10.9204 28.7781C10.8043 28.6585 10.6873 28.5978 10.5695 28.596C10.5115 28.5362 10.482 28.5357 10.4811 28.5946C10.2472 28.4732 10.1017 28.3532 10.0445 28.2345C9.92759 28.1738 9.81108 28.0836 9.69501 27.964C9.462 27.7837 9.49235 27.7252 9.78606 27.7885C9.66911 27.7278 9.52359 27.6078 9.34949 27.4283C9.46555 27.548 9.55305 27.6082 9.61197 27.6091L9.87311 27.8783C9.93203 27.8791 10.0195 27.9394 10.1356 28.059C10.1945 28.0599 10.282 28.1202 10.3981 28.2398ZM5.75652 25.3409C5.75474 25.4587 5.81277 25.5185 5.93062 25.5203L6.19176 25.7895C6.13284 25.7886 6.10382 25.7587 6.10471 25.6997L6.10738 25.523C5.99131 25.4034 5.93417 25.2846 5.93595 25.1668C5.87792 25.107 5.84935 25.0476 5.85024 24.9887L5.85157 24.9003C5.85246 24.8414 5.91182 24.8128 6.02967 24.8146C6.37608 25.2913 6.63633 25.6194 6.81043 25.7988C6.86846 25.8586 6.89748 25.8885 6.89748 25.8885C6.9564 25.8894 7.01488 25.9198 7.07291 25.9796C7.18897 26.0992 7.247 26.159 7.247 26.159C7.30415 26.2777 7.36173 26.367 7.41977 26.4268C7.47869 26.4277 7.53716 26.458 7.59519 26.5179C7.71126 26.6375 7.76885 26.7267 7.76796 26.7857C7.82599 26.8455 7.88402 26.9053 7.94205 26.9651C8.00008 27.0249 8.02821 27.1137 8.02643 27.2316L7.93805 27.2302C7.87913 27.2294 7.82065 27.199 7.76262 27.1392C7.58586 27.1365 7.38097 27.045 7.14795 26.8647C7.14795 26.8647 7.031 26.804 6.79709 26.6826C6.73995 26.5639 6.59443 26.4438 6.36052 26.3224C6.18642 26.143 5.92617 25.8149 5.57976 25.3382C5.58153 25.2204 5.64046 25.2213 5.75652 25.3409ZM31.625 15.8303C31.625 15.8303 31.5067 15.858 31.2701 15.9133C31.0335 15.9687 30.797 16.024 30.5604 16.0794C30.3247 16.0759 30.089 16.0723 29.8533 16.0687C29.6766 16.0661 29.5886 16.0353 29.5895 15.9764C30.0609 15.9835 30.4144 15.9888 30.6501 15.9924C30.9456 15.9379 31.2706 15.8839 31.625 15.8303ZM9.29677 19.2062C9.11912 19.2624 9.03029 19.2906 9.03029 19.2906C9.03118 19.2316 9.06153 19.1732 9.12134 19.1151C9.18115 19.0571 9.24096 18.9991 9.30077 18.941C9.36058 18.883 9.33156 18.8531 9.21372 18.8513C9.51011 18.7379 9.62795 18.7397 9.56725 18.8567C9.50655 18.9736 9.41639 19.0901 9.29677 19.2062ZM4.07692 19.481C4.01711 19.539 3.95774 19.5676 3.89882 19.5667C3.89882 19.5667 3.86891 19.5957 3.8091 19.6538C3.68948 19.7698 3.62967 19.8279 3.62967 19.8279C3.74929 19.7118 3.92872 19.5377 4.16797 19.3056C4.40721 19.0735 4.70492 18.8717 5.06112 18.7003C5.35928 18.469 5.68601 18.2971 6.04132 18.1846C6.39751 18.0132 6.7238 17.8708 7.02019 17.7574C7.13892 17.7003 7.16838 17.7007 7.10857 17.7587C7.10857 17.7587 7.0492 17.7873 6.93047 17.8444C6.87155 17.8436 6.72336 17.9003 6.4859 18.0145L5.9516 18.2717L4.61388 19.0471C4.49425 19.1632 4.40454 19.2502 4.34473 19.3083C4.28581 19.3074 4.19654 19.365 4.07692 19.481ZM1.33042 19.8816C1.20991 20.0566 1.11975 20.1731 1.05994 20.2311C1.00101 20.2302 1.0019 20.1713 1.0626 20.0543C1.12241 19.9963 1.15232 19.9673 1.15232 19.9673C1.15321 19.9084 1.21346 19.8209 1.33308 19.7048C1.33397 19.6459 1.39423 19.5584 1.51385 19.4423C1.51474 19.3834 1.57499 19.2959 1.69461 19.1799L1.96376 18.9187C2.02357 18.8607 2.05347 18.8317 2.05347 18.8317C2.05436 18.7727 2.08471 18.7143 2.14452 18.6562L2.41367 18.3951L2.68282 18.134C2.80155 18.0768 2.95063 17.9612 3.13006 17.7871C3.24879 17.73 3.36797 17.6433 3.48759 17.5273C3.60543 17.5291 3.33628 17.7902 2.68015 18.3107C2.56142 18.3679 2.47215 18.4254 2.41234 18.4835C2.41145 18.5424 2.35164 18.6004 2.23291 18.6576C2.17221 18.7745 2.11195 18.862 2.05214 18.9201C1.99322 18.9192 1.93341 18.9772 1.87271 19.0941C1.75309 19.2102 1.69328 19.2682 1.69328 19.2682C1.63347 19.3263 1.60312 19.3848 1.60223 19.4437C1.60223 19.4437 1.57232 19.4727 1.51251 19.5307C1.51251 19.5307 1.48216 19.5892 1.42147 19.7061C1.36166 19.7642 1.33131 19.8227 1.33042 19.8816ZM70.5646 7.13573C70.2101 7.18932 69.6794 7.21077 68.9724 7.2001C68.2653 7.18943 67.5288 7.17832 66.7628 7.16676C65.9968 7.1552 65.2603 7.14408 64.5533 7.13341C63.9051 7.12363 63.4347 7.0576 63.1418 6.93531C64.4381 6.95487 65.6161 7.00212 66.6758 7.07704C67.7363 7.09305 69.0326 7.11261 70.5646 7.13573ZM7.97673 24.6672C8.15083 24.8466 8.29635 24.9667 8.4133 25.0274L8.32492 25.026L8.32626 24.9377L8.23787 24.9363L8.15083 24.8466L7.97673 24.6672ZM82.4861 19.6919L82.7513 19.6959L82.4861 19.6919ZM8.32492 25.026L8.4133 25.0274L8.32492 25.026ZM8.32492 25.026L8.32626 24.9377L8.32492 25.026ZM9.10835 25.8335L9.10969 25.7451L9.10835 25.8335ZM9.02131 25.7438C9.08023 25.7446 9.10924 25.7746 9.10835 25.8335C9.10835 25.8335 9.07934 25.8036 9.02131 25.7438ZM8.15083 24.8466L8.23921 24.8479L8.15083 24.8466ZM8.23787 24.9363L8.32626 24.9377C8.26734 24.9368 8.23832 24.9069 8.23921 24.8479L8.23787 24.9363ZM8.93559 25.5657L8.84721 25.5643C8.90613 25.5652 8.93515 25.5951 8.93426 25.654L8.93559 25.5657C8.81953 25.446 8.73203 25.3858 8.67311 25.3849C8.61508 25.3251 8.52803 25.2354 8.41197 25.1158L8.50035 25.1171L8.49902 25.2055L8.5874 25.2068L8.58607 25.2952C8.64499 25.2961 8.674 25.326 8.67311 25.3849L8.7615 25.3862L8.76016 25.4746L8.84854 25.4759L8.76016 25.4746C8.81819 25.5344 8.84721 25.5643 8.84721 25.5643L8.93559 25.5657ZM8.4133 25.0274L8.41197 25.1158L8.4133 25.0274ZM8.93559 25.5657L8.93426 25.654L8.93559 25.5657ZM8.67311 25.3849L8.67445 25.2965L8.58607 25.2952C8.64499 25.2961 8.674 25.326 8.67311 25.3849C8.73203 25.3858 8.76105 25.4157 8.76016 25.4746C8.70213 25.4148 8.67311 25.3849 8.67311 25.3849ZM8.58607 25.2952L8.5874 25.2068L8.58607 25.2952ZM8.5874 25.2068L8.49902 25.2055L8.5874 25.2068ZM8.41197 25.1158L8.50035 25.1171L8.41197 25.1158ZM9.45654 26.1923L9.45521 26.2807L9.45654 26.1923ZM9.10969 25.7451L9.02131 25.7438L9.10969 25.7451ZM8.41197 25.1158L8.4133 25.0274L8.41197 25.1158ZM8.93426 25.654L9.02131 25.7438C8.96327 25.6839 8.93426 25.654 8.93426 25.654C8.99318 25.6549 9.02219 25.6848 9.02131 25.7438C8.96327 25.6839 8.93426 25.654 8.93426 25.654ZM9.88912 26.8177C9.88912 26.8177 9.91813 26.8476 9.97616 26.9074C9.91724 26.9065 9.88823 26.8766 9.88912 26.8177ZM10.4958 27.6224L10.4945 27.7108C10.4953 27.6519 10.4663 27.622 10.4074 27.6211C10.4074 27.6211 10.4078 27.5917 10.4087 27.5327C10.4087 27.5327 10.4378 27.5626 10.4958 27.6224ZM9.71502 26.6382C9.77394 26.6391 9.80296 26.669 9.80207 26.728C9.86099 26.7289 9.89001 26.7588 9.88912 26.8177L9.89045 26.7293C9.83153 26.7284 9.80207 26.728 9.80207 26.728C9.80296 26.669 9.77394 26.6391 9.71502 26.6382ZM10.5828 27.7122L10.4945 27.7108L10.5815 27.8005L10.5828 27.7122ZM9.71502 26.6382L9.71635 26.5499L9.71502 26.6382ZM10.5802 27.8889L10.5815 27.8005L10.5802 27.8889ZM10.2346 27.3533C10.2936 27.3542 10.3226 27.3841 10.3217 27.443L10.2346 27.3533ZM10.236 27.2649C10.1199 27.1453 10.0623 27.056 10.0632 26.9971C10.0623 27.056 10.0619 27.0855 10.0619 27.0855C10.1208 27.0864 10.1498 27.1163 10.1489 27.1752L10.236 27.2649ZM10.4958 27.6224C10.4369 27.6216 10.4078 27.5917 10.4087 27.5327L10.4958 27.6224ZM10.4101 27.4444L10.3217 27.443L10.4101 27.4444ZM10.4101 27.4444L10.4087 27.5327C10.2927 27.4131 10.2351 27.3238 10.236 27.2649C10.2342 27.3828 10.2922 27.4426 10.4101 27.4444L10.4087 27.5327L10.4101 27.4444ZM9.97616 26.9074C9.97527 26.9663 10.0043 26.9962 10.0632 26.9971C10.0043 26.9962 9.97527 26.9663 9.97616 26.9074ZM1.50451 20.061C1.62413 19.9449 1.68439 19.8575 1.68528 19.7985L1.68394 19.8869C1.68394 19.8869 1.62413 19.9449 1.50451 20.061ZM10.1503 27.0868L10.1489 27.1752L10.1503 27.0868ZM10.4945 27.7108L10.4958 27.6224L10.4945 27.7108ZM10.2346 27.3533L10.236 27.2649L10.1489 27.1752L10.236 27.2649L10.2346 27.3533ZM9.10702 25.9219L9.10835 25.8335C9.10746 25.8924 9.13648 25.9223 9.1954 25.9232L9.10702 25.9219ZM9.10969 25.7451L9.02131 25.7438L9.10969 25.7451ZM9.28111 26.1013L9.3695 26.1026C9.31058 26.1017 9.28156 26.0718 9.28245 26.0129L9.28111 26.1013ZM9.10835 25.8335L9.02131 25.7438C9.08023 25.7446 9.10924 25.7746 9.10835 25.8335ZM9.1954 25.9232C9.1954 25.9232 9.22442 25.9531 9.28245 26.0129L9.19407 26.0116L9.1954 25.9232ZM9.10835 25.8335L9.10969 25.7451C9.22397 25.9826 9.33959 26.1316 9.45654 26.1923L9.36816 26.191L9.3695 26.1026C9.25343 25.983 9.16594 25.9227 9.10702 25.9219L9.10835 25.8335ZM9.63064 26.3718L9.54226 26.3704L9.63064 26.3718ZM9.3695 26.1026C9.31058 26.1017 9.28111 26.1013 9.28111 26.1013C9.282 26.0424 9.25299 26.0125 9.19407 26.0116C9.19496 25.9527 9.16639 25.8933 9.10835 25.8335C9.10746 25.8924 9.13648 25.9223 9.1954 25.9232L9.19407 26.0116L9.28245 26.0129C9.28245 26.0129 9.31146 26.0428 9.3695 26.1026ZM9.62931 26.4601L9.71635 26.5499L9.62931 26.4601ZM9.71635 26.5499L9.71502 26.6382L9.71635 26.5499ZM9.63064 26.3718L9.62931 26.4601L9.63064 26.3718ZM9.54226 26.3704L9.54359 26.2821L9.54226 26.3704ZM9.54359 26.2821L9.54226 26.3704L9.71635 26.5499L9.45521 26.2807L9.54359 26.2821ZM9.36816 26.191L9.3695 26.1026C9.36861 26.1615 9.36816 26.191 9.36816 26.191C9.42708 26.1919 9.4561 26.2218 9.45521 26.2807C9.39718 26.2209 9.36816 26.191 9.36816 26.191ZM9.88912 26.8177C9.77305 26.6981 9.71502 26.6382 9.71502 26.6382L9.97616 26.9074L9.88912 26.8177ZM18.189 27.4733C17.8926 27.5867 17.6261 27.6711 17.3896 27.7265C17.2128 27.7238 17.124 27.7519 17.1231 27.8109C17.24 27.8716 17.4467 27.8452 17.7431 27.7318C18.0984 27.6193 18.4827 27.5367 18.896 27.484C18.5997 27.5974 18.3332 27.6818 18.0966 27.7372C17.8609 27.7336 17.5949 27.7885 17.2985 27.9019C17.0619 27.9573 16.8254 28.0126 16.5888 28.068C16.3522 28.1234 16.1156 28.1787 15.8791 28.2341C15.405 28.4037 14.9605 28.5738 14.5453 28.7444C14.19 28.8569 13.8936 28.9703 13.6562 29.0846C13.5973 29.0837 13.5678 29.0832 13.5678 29.0832C13.6276 29.0252 13.687 28.9966 13.7459 28.9975C13.7468 28.9386 13.7767 28.9096 13.8356 28.9105C13.8954 28.8524 13.9253 28.8234 13.9253 28.8234C13.9843 28.8243 14.0436 28.7957 14.1034 28.7377C14.223 28.6217 14.3717 28.5355 14.5493 28.4792C14.727 28.423 14.8756 28.3368 14.9952 28.2208L15.4372 28.2274C15.7318 28.2319 15.9978 28.177 16.2353 28.0627C16.5906 27.9502 16.6499 27.9216 16.4134 27.977C16.1777 27.9734 16.0897 27.9426 16.1495 27.8846C16.6227 27.7738 17.0659 27.6921 17.4793 27.6394C17.8935 27.5278 18.3666 27.4171 18.8987 27.3073C19.0755 27.3099 19.075 27.3394 18.8974 27.3956C18.7206 27.393 18.4845 27.4189 18.189 27.4733ZM34.8688 23.4818C34.6911 23.538 34.4255 23.5635 34.072 23.5582C34.1898 23.5599 34.3371 23.5622 34.5139 23.5648C34.6907 23.5675 34.809 23.5398 34.8688 23.4818C35.2812 23.488 35.6057 23.4634 35.8423 23.4081C35.6646 23.4643 35.3696 23.4893 34.9571 23.4831L34.8688 23.4818ZM49.8173 22.9118C47.3408 22.9922 44.9527 23.0741 42.653 23.1572C40.3533 23.2404 38.0831 23.324 35.8423 23.4081C40.5024 23.1248 45.1906 22.9303 49.907 22.8247C52.6191 22.7478 55.3304 22.7297 58.0408 22.7706C60.752 22.7526 63.5222 22.7355 66.3513 22.7193C67.0584 22.7299 67.2936 22.763 67.057 22.8183C66.8803 22.8156 66.5566 22.7813 66.0862 22.7153C63.2571 22.7315 60.4869 22.7486 57.7756 22.7666C55.1233 22.7856 52.4705 22.8339 49.8173 22.9118ZM42.3932 22.7997C42.9244 22.7488 43.4551 22.7273 43.9854 22.7353C44.5157 22.7433 44.9282 22.7496 45.2228 22.754C44.2211 22.7389 43.3958 22.7559 42.7467 22.805C42.0977 22.8542 41.3014 22.9011 40.3578 22.9458C40.4176 22.8878 40.6242 22.8614 40.9778 22.8668C41.3911 22.8141 41.8629 22.7917 42.3932 22.7997ZM45.5763 22.7593C48.7616 22.5717 52.004 22.5027 55.3036 22.5525C58.6041 22.5434 62.1108 22.5374 65.8237 22.5345C62.6402 22.6043 59.3687 22.6434 56.0093 22.6516C52.6508 22.6009 49.1731 22.6368 45.5763 22.7593ZM25.0074 20.8577C24.4164 20.9667 23.8848 21.047 23.4125 21.0988C22.9402 21.1507 22.5269 21.2033 22.1725 21.2569C21.9966 21.1953 22.1743 21.1391 22.7054 21.0882C23.2366 21.0373 23.7383 20.9859 24.2106 20.9341C24.6248 20.8225 25.2154 20.743 25.9822 20.6956C26.75 20.5893 27.6061 20.4844 28.5506 20.3808C29.4951 20.2772 30.4098 20.2026 31.2945 20.157C32.1801 20.0525 32.9469 20.0051 33.5951 20.0149C33.3005 20.0104 32.6514 20.0596 31.648 20.1623C30.7035 20.2659 29.6411 20.3678 28.4609 20.4678C27.8708 20.5178 27.2807 20.5679 26.6906 20.6179C26.1005 20.6679 25.5394 20.7479 25.0074 20.8577ZM12.0863 21.8119C11.9087 21.8682 11.8493 21.8968 11.9082 21.8976C11.968 21.8396 12.0278 21.7816 12.0876 21.7236C12.2064 21.6664 12.2657 21.6378 12.2657 21.6378C12.3255 21.5798 12.2666 21.5789 12.089 21.6352C12.0907 21.5173 12.2389 21.4606 12.5335 21.4651C12.829 21.4106 13.0357 21.3843 13.1536 21.386C13.0357 21.3843 12.8581 21.4405 12.6206 21.5548L12.0863 21.8119ZM29.319 16.3259C28.7263 16.5527 27.8099 16.7451 26.5699 16.9032C25.92 17.0113 25.241 17.0894 24.5331 17.1377C23.8252 17.1859 23.0877 17.2337 22.3209 17.2811C22.4387 17.2829 22.7632 17.2583 23.2944 17.2074C23.8265 17.0975 24.4469 16.989 25.1558 16.8819C25.9235 16.7756 26.6614 16.6983 27.3693 16.6501C28.1371 16.5438 28.787 16.4357 29.319 16.3259ZM302.608 7.8971C302.667 7.89799 303.815 7.97425 306.052 8.12588C308.289 8.27751 311.232 8.5282 314.881 8.87793C318.529 9.22767 322.648 9.6729 327.237 10.2136C331.885 10.6963 336.562 11.2973 341.266 12.0166C346.028 12.7367 350.613 13.5721 355.018 14.5226C359.484 15.415 363.388 16.4464 366.729 17.6166C370.072 18.7278 372.646 19.9454 374.453 21.2692C376.26 22.593 376.857 24.0459 376.244 25.6279C375.569 27.3858 375.048 28.7039 374.682 29.5824C374.374 30.4618 373.982 31.0157 373.507 31.2443C373.091 31.4738 372.473 31.4644 371.651 31.2163C370.889 30.9691 369.716 30.5978 368.132 30.1024C366.548 29.607 364.464 29.0746 361.88 28.5052C359.354 27.9367 356.091 27.4159 352.091 26.943C352.325 27.0055 352.531 27.0675 352.707 27.1291C352.942 27.1327 353.207 27.1661 353.501 27.2295C354.206 27.358 355 27.4584 355.883 27.5307C356.47 27.6574 356.911 27.723 357.206 27.7274C357.441 27.7899 357.647 27.8225 357.823 27.8252C358.059 27.8287 358.324 27.8622 358.617 27.9255C358.324 27.8622 358 27.8278 357.647 27.8225C357.352 27.818 357.058 27.7841 356.764 27.7208C356.352 27.7145 356.028 27.6802 355.793 27.6177L354.821 27.603C354.174 27.5343 353.526 27.4951 352.878 27.4853C352.29 27.4175 351.672 27.3493 351.025 27.2805C349.73 27.1431 348.435 27.0352 347.14 26.9567C345.844 26.8782 344.52 26.7698 343.167 26.6316C342.519 26.5629 341.872 26.5236 341.224 26.5138C340.635 26.446 340.017 26.3778 339.37 26.3091C339.077 26.2457 338.753 26.2113 338.399 26.206C338.046 26.2007 337.722 26.1663 337.429 26.1029C337.134 26.0985 336.81 26.0936 336.456 26.0883C336.162 26.0838 335.868 26.0499 335.574 25.9866C334.337 25.909 333.13 25.8318 331.953 25.7551C330.834 25.6793 329.716 25.6035 328.597 25.5277C327.773 25.4563 326.86 25.413 325.859 25.3979C324.917 25.3248 323.887 25.2208 322.769 25.0861C322.18 25.0772 321.591 25.0683 321.002 25.0594C320.472 24.9925 319.883 24.9542 319.235 24.9444C318.647 24.8766 318.029 24.8378 317.381 24.828C316.791 24.8191 316.173 24.7803 315.526 24.7116C312.935 24.5546 310.344 24.4271 307.752 24.3291C305.22 24.173 302.836 24.0191 300.599 23.8675C300.892 23.9309 300.951 23.9612 300.774 23.9586C300.656 23.9568 300.362 23.9229 299.892 23.8568C299.479 23.8506 299.008 23.8435 298.478 23.8355C298.007 23.7695 297.625 23.7342 297.33 23.7298C297.683 23.794 297.829 23.8257 297.77 23.8248C297.712 23.8239 297.564 23.8217 297.329 23.8182C297.093 23.8146 296.798 23.8102 296.445 23.8048C296.092 23.7406 295.798 23.7067 295.562 23.7031C295.915 23.7674 296.062 23.799 296.003 23.7981C295.944 23.7973 295.797 23.795 295.561 23.7915C295.326 23.729 295.032 23.6951 294.678 23.6898C294.385 23.6264 294.12 23.5929 293.884 23.5894C293.883 23.6483 293.971 23.6791 294.148 23.6818C294.384 23.6853 294.561 23.688 294.678 23.6898C293.971 23.6791 293.382 23.6702 292.911 23.6631C292.499 23.5979 292.117 23.5627 291.763 23.5574C291.41 23.552 291.056 23.5467 290.703 23.5414C290.408 23.5369 289.996 23.5307 289.465 23.5227C289.816 23.7048 289.696 23.8503 289.105 23.9593C288.574 24.0102 287.837 24.058 286.893 24.1027C286.009 24.0893 285.007 24.0742 283.888 24.0573C282.827 24.0413 281.943 24.0574 281.235 24.1057C281.177 24.0459 281.266 24.0178 281.502 24.0213C281.796 24.0258 282.12 24.0307 282.474 24.036C282.886 24.0422 283.299 24.0484 283.711 24.0547C284.124 24.002 284.478 23.9778 284.773 23.9823L282.652 23.9503C282.298 23.9449 281.945 23.9396 281.591 23.9343C281.297 23.9298 280.973 23.8955 280.62 23.8312L276.555 23.7699C275.201 23.6905 274.052 23.6437 273.109 23.6295C272.226 23.5572 271.049 23.451 269.578 23.311C268.931 23.2423 268.224 23.2021 267.458 23.1906C266.693 23.1201 265.898 23.0786 265.073 23.0662C264.603 23.0001 264.161 22.964 263.749 22.9578C263.336 22.9516 262.895 22.9449 262.423 22.9378C261.953 22.8717 261.482 22.8352 261.01 22.8281C260.598 22.8218 260.156 22.8152 259.685 22.8081C257.8 22.7207 255.886 22.6623 253.941 22.633C252.057 22.5456 250.172 22.4288 248.289 22.2825C248.759 22.3485 248.818 22.3789 248.464 22.3735C248.111 22.3682 247.58 22.3602 246.873 22.3495C246.52 22.3442 246.137 22.3384 245.724 22.3322C245.372 22.2679 245.019 22.2331 244.665 22.2278L243.605 22.2118L242.721 22.1984C242.781 22.1404 242.928 22.1132 243.164 22.1167C243.4 22.1203 243.606 22.1234 243.783 22.1261C244.018 22.1296 244.195 22.1323 244.313 22.1341C244.49 22.1367 244.549 22.1082 244.491 22.0483C244.785 22.1117 244.843 22.1421 244.666 22.1394C244.549 22.1376 244.489 22.1662 244.488 22.2251C245.548 22.3 246.226 22.3103 246.521 22.2558C246.817 22.2013 247.2 22.2071 247.67 22.2731C247.907 22.2178 247.819 22.187 247.406 22.1807C247.053 22.1754 246.611 22.1687 246.081 22.1607C245.61 22.0947 245.139 22.0581 244.668 22.051C244.255 22.0448 244.108 22.0131 244.227 21.956C243.816 21.8908 243.404 21.8551 242.991 21.8489C242.579 21.8427 242.166 21.8365 241.754 21.8302L239.456 21.7956L234.86 21.7262C233.329 21.6442 231.856 21.5925 230.442 21.5711C229.087 21.5507 227.732 21.5302 226.377 21.5098C227.554 21.5865 228.82 21.6645 230.175 21.7439C231.53 21.7643 232.855 21.7844 234.152 21.8039C235.507 21.8244 236.803 21.8734 238.039 21.951C239.335 21.9705 240.514 21.9883 241.574 22.0043C241.928 22.0097 242.193 22.0431 242.369 22.1047C242.545 22.1074 242.369 22.0753 241.84 22.0083C238.363 21.9559 235.299 21.9096 232.648 21.8696C230.056 21.7716 227.759 21.678 225.757 21.5888L224.696 21.5728C224.461 21.5693 224.224 21.5952 223.988 21.6505C223.811 21.6479 223.575 21.6443 223.281 21.6399L220.099 21.5918C218.98 21.5749 217.919 21.5589 216.917 21.5438C215.975 21.4707 215.239 21.4301 214.709 21.4221C214.709 21.4221 214.797 21.4234 214.974 21.4261C215.151 21.4288 215.328 21.4314 215.505 21.4341C215.74 21.4377 215.917 21.4403 216.035 21.4421C216.212 21.4448 216.241 21.4747 216.122 21.5318L222.309 21.6252C223.487 21.643 224.577 21.6889 225.577 21.7629C226.638 21.7789 227.58 21.8226 228.404 21.894C228.169 21.8904 227.933 21.8869 227.697 21.8833C227.462 21.8208 227.227 21.7878 226.991 21.7843L224.34 21.7442L213.823 21.5855L208.52 21.5055C208.047 21.5573 207.605 21.5801 207.193 21.5739C206.78 21.5676 206.338 21.561 205.867 21.5539L203.215 21.5139C201.506 21.547 199.767 21.5502 198 21.5235C196.232 21.4969 194.464 21.4996 192.695 21.5319C191.87 21.5194 191.016 21.5066 190.132 21.4932C189.248 21.4799 188.364 21.496 187.48 21.5416L184.916 21.5029C184.445 21.4958 184.003 21.5186 183.589 21.5713C183.177 21.5651 182.735 21.5584 182.264 21.5513C180.554 21.5844 178.844 21.6175 177.135 21.6507C175.426 21.6249 173.717 21.6286 172.007 21.6617C171.536 21.6546 171.094 21.6479 170.682 21.6417C170.269 21.6355 169.856 21.6587 169.443 21.7114C168.972 21.7043 168.53 21.6976 168.117 21.6914C167.764 21.6861 167.351 21.7093 166.879 21.7611C166.054 21.7486 165.199 21.7652 164.314 21.8108C163.489 21.7984 162.664 21.8154 161.838 21.8618C160.129 21.895 158.448 21.9285 156.798 21.9626C155.147 21.9966 153.496 22.0306 151.846 22.0646C151.432 22.1173 151.019 22.1406 150.607 22.1344C150.254 22.129 149.871 22.1232 149.458 22.117C149.045 22.1697 148.632 22.1929 148.219 22.1867C147.807 22.1805 147.394 22.2037 146.981 22.2564C146.155 22.3029 145.359 22.3204 144.593 22.3088C143.827 22.2972 143.031 22.3147 142.205 22.3612C141.085 22.4032 139.965 22.4452 138.844 22.4872C137.725 22.4704 136.605 22.4829 135.484 22.5249C134.894 22.575 134.334 22.596 133.804 22.588C133.274 22.58 132.713 22.601 132.123 22.651L130.444 22.6257C130.149 22.6802 129.853 22.7052 129.559 22.7007C129.323 22.6972 129.058 22.6932 128.763 22.6887C126.523 22.7728 124.311 22.8573 122.129 22.9422C119.948 22.9682 117.738 23.0233 115.497 23.1073C114.966 23.1582 114.434 23.2092 113.903 23.2601C113.373 23.2521 112.813 23.2436 112.224 23.2347C111.693 23.2857 111.132 23.3361 110.542 23.3862C110.012 23.3782 109.482 23.3702 108.951 23.3622C107.83 23.4631 106.709 23.5346 105.589 23.5766C104.528 23.5606 103.467 23.6035 102.404 23.7054C101.284 23.7474 100.193 23.7899 99.1316 23.8328C98.0701 23.8757 96.9792 23.9182 95.8588 23.9602L92.673 24.1773C92.1427 24.1693 91.5826 24.1903 90.9925 24.2404C90.4622 24.2324 89.9314 24.2538 89.4002 24.3047C87.2773 24.3906 85.1539 24.5058 83.0301 24.6506C80.9063 24.7954 78.7829 24.9106 76.6599 24.9965C76.3653 24.992 76.0998 25.0175 75.8632 25.0729C75.6275 25.0693 75.3623 25.0653 75.0677 25.0608L74.7142 25.0555L74.6258 25.0542L74.5361 25.1412L74.0942 25.1346L73.8291 25.1306L73.0336 25.1186L69.8519 25.0705C68.8493 25.1143 67.8178 25.1282 66.7572 25.1122C65.7555 25.0971 64.724 25.111 63.6625 25.1539C59.5952 25.2104 55.5859 25.3267 51.6346 25.5028C47.6842 25.62 43.7624 25.7966 39.8692 26.0325C38.3354 26.1272 36.8307 26.2518 35.355 26.4064C33.9392 26.5029 32.7282 26.6909 31.7221 26.9704C34.1387 26.9479 36.7339 26.8103 39.5076 26.5574C40.8646 26.4601 42.1917 26.3917 43.4888 26.3523C44.8458 26.2549 46.2023 26.187 47.5584 26.1485C51.274 25.9689 54.9592 25.8477 58.6141 25.785C60.3835 25.6938 62.152 25.6616 63.9197 25.6882C65.7471 25.6569 67.604 25.626 69.4904 25.5955C67.7799 25.6875 66.0404 25.7497 64.2718 25.7819C62.5033 25.8142 60.5875 25.8442 58.5244 25.872C58.7592 25.9345 59.1417 25.9697 59.672 25.9777C60.2032 25.9268 60.7339 25.9054 61.2642 25.9134C61.7954 25.8624 62.2672 25.8401 62.6796 25.8463C63.0921 25.8525 63.3278 25.8561 63.3867 25.857C60.321 25.9286 57.196 26.0288 54.0116 26.1575C50.8281 26.2273 47.6436 26.3561 44.4583 26.5438C41.332 26.7323 38.2935 26.9517 35.343 27.2018C32.3925 27.452 29.6469 27.7936 27.1062 28.2267C26.6938 28.2205 26.6942 28.191 27.1075 28.1383C27.5209 28.0856 27.7869 28.0307 27.9056 27.9736C27.6119 27.9102 27.3169 27.9352 27.0205 28.0486C26.725 28.1031 26.3706 28.1567 25.9572 28.2094C26.608 28.0424 27.1995 27.904 27.7315 27.7942C28.2645 27.6254 28.5622 27.4236 28.6247 27.1888C27.798 27.2942 27.207 27.4032 26.8517 27.5157C26.5562 27.5701 26.1724 27.6233 25.7001 27.6751C25.3466 27.6698 25.4064 27.6117 25.8795 27.501C26.0572 27.4447 26.2344 27.418 26.4112 27.4206C26.5888 27.3644 26.7075 27.3072 26.7673 27.2492C26.4719 27.3037 26.1764 27.3581 25.8809 27.4126C25.6452 27.4091 25.5564 27.4372 25.6144 27.497C25.1421 27.5488 24.9654 27.5461 25.0841 27.489C25.2037 27.3729 25.2934 27.2859 25.3532 27.2279C25.0577 27.2823 24.8801 27.3386 24.8203 27.3966C24.7614 27.3957 24.5846 27.3931 24.29 27.3886C24.4096 27.2725 24.6466 27.1877 25.001 27.1341C25.3555 27.0806 25.7099 27.027 26.0643 26.9734C26.8927 26.7501 27.278 26.6086 27.2199 26.5488C29.1098 26.2827 30.9105 26.0741 32.6219 25.9231C34.3922 25.773 36.1326 25.652 37.8431 25.5599C37.6663 25.5572 37.6074 25.5563 37.6663 25.5572C37.7252 25.5581 37.7837 25.5885 37.8417 25.6483C38.4916 25.5402 39.2884 25.4638 40.232 25.4192C41.1765 25.3155 42.1505 25.2124 43.154 25.1096C44.1565 25.0658 45.1296 25.0216 46.0732 24.9769C47.0169 24.9322 47.8136 24.8558 48.4635 24.7478C48.4055 24.688 48.1408 24.6545 47.6694 24.6474C47.257 24.6412 46.8441 24.6644 46.4308 24.7171C47.8484 24.5027 49.4129 24.3201 51.1243 24.1691C52.8946 24.019 54.6056 23.8975 56.2571 23.8046C56.6106 23.8099 56.6986 23.8407 56.5209 23.8969C56.3442 23.8943 56.52 23.9559 57.0486 24.0817C57.2842 24.0853 57.3726 24.0866 57.3137 24.0857C57.3137 24.0857 57.2548 24.0848 57.1369 24.083C57.0789 24.0232 57.0204 23.9929 56.9615 23.992C56.9624 23.9331 57.1101 23.9058 57.4048 23.9103C57.994 23.9192 58.2587 23.9526 58.1989 24.0107C59.5558 23.9133 61.0887 23.8775 62.7974 23.9033C64.5061 23.929 66.3036 23.9267 68.19 23.8962L71.0182 23.9389C71.3137 23.8844 71.7855 23.8621 72.4336 23.8719L73.7594 23.8919L74.1129 23.8972L74.5548 23.9039L74.6432 23.9052L74.8213 23.8195L75.5283 23.8302C75.7649 23.7748 76.1778 23.7516 76.767 23.7605C77.1803 23.7078 77.5638 23.6841 77.9173 23.6894C78.3306 23.6367 78.7145 23.5836 79.0689 23.53L87.2964 23.1238C88.7123 23.0273 90.0983 22.9598 91.4544 22.9213C92.8702 22.8248 94.2562 22.7573 95.6123 22.7188C97.0282 22.6223 98.4436 22.5553 99.8586 22.5177C101.275 22.4212 102.661 22.3243 104.018 22.2269L108.264 22.0258C108.618 22.0311 108.971 22.0364 109.325 22.0418C109.679 21.9882 110.033 21.9641 110.387 21.9694C110.741 21.9158 111.095 21.8917 111.449 21.897C111.802 21.9023 112.156 21.9077 112.509 21.913C115.399 21.7798 118.289 21.6466 121.179 21.5134C124.127 21.3811 127.105 21.2787 130.112 21.2062C133.119 21.1337 136.155 21.0617 139.22 20.9901C142.286 20.9185 145.411 20.8478 148.594 20.7779C145.942 20.7969 143.231 20.8149 140.46 20.832C137.691 20.7902 134.862 20.8065 131.973 20.8807L129.852 20.8487C129.439 20.9014 129.055 20.9251 128.702 20.9198C128.348 20.9144 127.995 20.9091 127.641 20.9037C126.933 20.952 126.196 20.9703 125.43 20.9588C124.723 20.9481 123.986 20.9665 123.219 21.0138C121.745 21.0505 120.272 21.0872 118.798 21.1239C117.325 21.1017 115.851 21.1089 114.377 21.1456C112.843 21.2403 111.34 21.306 109.866 21.3427C108.393 21.3205 106.889 21.3567 105.356 21.4515C103.823 21.4873 102.319 21.5235 100.845 21.5602C99.3716 21.5969 97.8682 21.6331 96.3354 21.6689C93.3286 21.7414 90.3509 21.8438 87.4021 21.9761C84.5132 22.0504 81.6243 22.1247 78.7354 22.1989C78.2631 22.2507 77.7913 22.2731 77.32 22.266C76.9075 22.2598 76.4652 22.2825 75.9929 22.3344L74.5788 22.313L74.5775 22.4014L74.4891 22.4001L74.1356 22.3947L73.9588 22.3921L73.6053 22.3867L72.8996 22.2877L67.5083 22.2063C65.7406 22.1796 64.0025 22.1534 62.2938 22.1276C60.585 22.1018 58.8759 22.1055 57.1663 22.1386C53.8069 22.1469 50.5939 22.2163 47.5273 22.3468C44.4608 22.4773 41.5996 22.6699 38.9437 22.9245C37.5867 23.0218 36.2592 23.1197 34.9611 23.218C33.6631 23.3162 32.424 23.4154 31.2438 23.5155C30.0038 23.6736 28.7932 23.8321 27.6121 23.9911C26.4319 24.0911 25.2508 24.2501 24.0689 24.468C21.7656 24.7869 19.5789 25.1959 17.5086 25.695C16.9765 25.8049 16.444 25.9442 15.9111 26.1129C15.4379 26.2237 14.9648 26.3344 14.4916 26.4451C14.1952 26.5585 13.9288 26.6429 13.6922 26.6983C13.5145 26.7545 13.307 26.8398 13.0695 26.9541C13.0106 26.9532 12.9512 26.9818 12.8914 27.0398C12.8914 27.0398 12.862 27.0393 12.803 27.0385L12.4482 27.1215L11.9139 27.3786C11.7943 27.4947 11.6456 27.5809 11.468 27.6371C11.2903 27.6934 11.1417 27.7795 11.0221 27.8956C10.9623 27.9536 10.9029 27.9822 10.844 27.9813L10.8426 28.0697L10.7543 28.0684C10.6382 27.9487 10.5802 27.8889 10.5802 27.8889L10.6685 27.8903L10.6672 27.9786L10.6685 27.8903L10.7569 27.8916L10.7583 27.8032L10.8466 27.8045C10.8475 27.7456 10.8774 27.7166 10.9364 27.7175L10.9377 27.6291C10.8199 27.6273 10.7011 27.6845 10.5815 27.8005L10.5828 27.7122L10.4945 27.7108L10.4958 27.6224L10.5842 27.6238L10.5855 27.5354C10.7051 27.4193 10.8837 27.3042 11.1211 27.1899C11.1809 27.1318 11.2403 27.1033 11.2992 27.1042L11.4787 26.9301L11.567 26.9314L11.7451 26.8457C11.7451 26.8457 11.8045 26.8171 11.9232 26.76C12.516 26.5332 13.2271 26.2787 14.0564 25.9965C15.0036 25.7162 15.8615 25.4934 16.6301 25.3282C17.5175 25.1058 18.4339 24.9134 19.3793 24.7509C20.3845 24.5303 21.3893 24.3392 22.3936 24.1775C23.3979 24.0159 24.4018 23.8837 25.4053 23.781C26.4096 23.6193 27.4135 23.4871 28.4169 23.3844C28.2999 23.3237 28.0058 23.2898 27.5344 23.2827C28.7146 23.1826 29.9537 23.0835 31.2518 22.9852C32.5498 22.8869 33.8773 22.7891 35.2343 22.6917C38.0089 22.3799 40.8706 22.1579 43.8193 22.0256L38.1629 21.9403C37.1603 21.9841 36.1283 22.0274 35.0669 22.0703C34.0063 22.0543 32.8859 22.0964 31.7057 22.1964C31.7057 22.1964 31.7646 22.1973 31.8825 22.1991C32.0003 22.2009 32.1476 22.2031 32.3244 22.2058C32.5011 22.2084 32.6484 22.2106 32.7663 22.2124C32.8841 22.2142 32.9131 22.2441 32.8533 22.3021C32.382 22.295 31.8512 22.3165 31.2611 22.3665C30.6719 22.3576 30.0823 22.3782 29.4922 22.4282C28.312 22.5283 27.367 22.6614 26.6573 22.8274C26.8912 22.9488 27.0077 23.039 27.0068 23.0979C27.0068 23.0979 26.9184 23.0966 26.7417 23.0939C26.6247 23.0332 26.4783 22.9721 26.3024 22.9105C26.1265 22.8489 26.0395 22.7592 26.0413 22.6413C25.6297 22.5762 25.1588 22.5396 24.6285 22.5316C24.1571 22.5245 23.9518 22.4625 24.0125 22.3455C23.4813 22.3964 22.9791 22.4773 22.506 22.588C22.0927 22.6407 21.5905 22.7215 20.9995 22.8305C20.8834 22.7108 21.0022 22.6537 21.3557 22.659C21.769 22.6063 22.1828 22.5242 22.5971 22.4126C22.2435 22.4072 22.1261 22.376 22.2449 22.3188C22.3645 22.2028 22.2774 22.1131 21.9837 22.0497C22.2801 21.9363 22.4863 21.9394 22.6024 22.059C22.7193 22.1197 22.8957 22.1519 23.1313 22.1554C23.4858 22.1018 23.5157 22.0728 23.2211 22.0684C22.9854 22.0648 22.9568 22.0055 23.1353 21.8903C23.6076 21.8385 23.8433 21.842 23.8424 21.9009C23.9004 21.9608 24.0468 22.0219 24.2816 22.0844C24.578 21.971 24.7561 21.8853 24.8159 21.8272C24.8757 21.7692 24.6994 21.7371 24.287 21.7309C24.9369 21.6228 25.6453 21.5451 26.4121 21.4977C27.1799 21.3914 27.9182 21.2847 28.627 21.1775C29.2769 21.0695 29.8675 20.99 30.3986 20.9391C30.9298 20.8881 31.2548 20.8341 31.3735 20.777L33.2295 20.805L35.7042 20.8423C35.9408 20.787 35.9417 20.728 35.7069 20.6656C35.4721 20.6031 35.5614 20.5455 35.9747 20.4928C37.6852 20.4007 39.4528 20.4274 41.2776 20.5728C43.1033 20.6593 44.9883 20.7172 46.9327 20.7466C46.9327 20.7466 47.0206 20.7774 47.1965 20.839C47.3733 20.8416 47.55 20.8443 47.7268 20.847C47.9035 20.8496 48.0214 20.8514 48.0803 20.8523C48.1392 20.8532 48.0504 20.8813 47.8138 20.9367C49.818 20.908 52.0865 20.9422 54.6192 21.0394C57.1519 21.1365 59.8328 21.177 62.662 21.1608C61.4264 21.0242 60.0132 20.944 58.4223 20.92C56.8904 20.8969 55.6834 20.8197 54.8013 20.6885C55.037 20.6921 54.8897 20.6899 54.3594 20.6819C53.8889 20.6158 53.2716 20.5181 52.5074 20.3887C51.7423 20.3182 51.0067 20.2482 50.3005 20.1786C49.5952 20.0501 49.1551 19.9256 48.9801 19.8051C50.5719 19.7701 52.3101 19.7964 54.1947 19.8837C56.0801 19.9122 58.0241 19.971 60.0265 20.0602C62.0289 20.1493 64.0019 20.238 65.9454 20.3263C67.9478 20.4154 69.8632 20.4149 71.6916 20.3246C71.3969 20.3202 71.0729 20.3153 70.7194 20.3099C70.4256 20.2466 70.0726 20.2118 69.6601 20.2055C69.6021 20.1457 69.7793 20.1189 70.1917 20.1252C68.1313 19.9762 65.982 19.8554 63.7439 19.7627C61.5647 19.6708 59.4444 19.5799 57.3831 19.4899L58.2669 19.5032C58.2651 19.621 58.0874 19.6773 57.7339 19.672C57.4402 19.6086 57.3232 19.5479 57.3831 19.4899C55.8502 19.5257 54.4058 19.5628 53.0497 19.6013C51.7525 19.6406 50.4554 19.68 49.1582 19.7193C47.8013 19.8167 46.4742 19.8851 45.1771 19.9245C43.8799 19.9638 42.5234 20.0318 41.1075 20.1283C40.6352 20.1801 40.3701 20.1761 40.3121 20.1163C40.254 20.0564 40.0483 20.0239 39.6947 20.0185C39.1037 20.1275 38.3659 20.2048 37.4812 20.2503C36.6563 20.2379 35.7716 20.2835 34.8271 20.3871C33.8834 20.4318 32.9693 20.4769 32.0846 20.5225C31.2588 20.569 30.5214 20.6168 29.8724 20.6659C30.4642 20.498 31.2619 20.3627 32.2653 20.26C33.2688 20.1573 34.3017 20.055 35.364 19.9532C36.4264 19.8513 37.3999 19.7776 38.2846 19.732C39.2291 19.6284 39.8795 19.4909 40.2357 19.3195C39.7643 19.3124 39.1452 19.3325 38.3783 19.3799C37.6124 19.3683 36.875 19.4161 36.1661 19.5233C36.342 19.5849 36.7245 19.6201 37.3138 19.629C37.9039 19.579 38.494 19.5289 39.0841 19.4789C38.4341 19.587 37.4017 19.6598 35.9867 19.6974C34.6315 19.6769 33.0987 19.7127 31.3882 19.8048C30.5026 19.9093 29.6174 19.9843 28.7327 20.0299C27.8489 20.0166 26.9937 20.0626 26.167 20.168C25.2814 20.2725 24.4253 20.3774 23.5986 20.4828C22.7728 20.5293 22.0055 20.6061 21.2967 20.7133C21.0012 20.7678 20.6468 20.8214 20.2334 20.8741C19.8799 20.8687 19.496 20.9219 19.0818 21.0335C18.6676 21.1451 18.2538 21.2273 17.8404 21.28C17.486 21.3335 17.1606 21.417 16.8642 21.5304C16.5688 21.5849 16.3322 21.6403 16.1545 21.6965C16.0358 21.7537 16.0354 21.7831 16.1532 21.7849C16.2121 21.7858 16.3893 21.759 16.6848 21.7045C17.0392 21.6509 17.5709 21.5706 18.2797 21.4634C17.6298 21.5715 16.95 21.7085 16.2402 21.8746C15.5314 21.9818 14.8221 22.1184 14.1124 22.2845C12.6947 22.4989 11.3641 22.8029 10.1206 23.1967C10.1804 23.1387 10.3585 23.053 10.6549 22.9396C10.7745 22.8235 11.0119 22.7092 11.3672 22.5967C11.6636 22.4833 11.9301 22.3989 12.1667 22.3436C12.4622 22.2891 12.6697 22.2038 12.7894 22.0877C12.7894 22.0877 12.7603 22.0578 12.7023 21.998L12.172 21.99C12.4684 21.8766 12.7349 21.7923 12.9715 21.7369C13.2089 21.6226 13.4758 21.5088 13.7722 21.3954C14.0097 21.2811 14.2467 21.1963 14.4833 21.1409C14.7207 21.0266 14.9877 20.9128 15.284 20.7994C15.4608 20.802 15.5492 20.8034 15.5492 20.8034C15.5492 20.8034 15.5193 20.8324 15.4595 20.8904C15.4006 20.8895 15.3412 20.9181 15.2814 20.9761C15.2216 21.0342 15.2506 21.0641 15.3684 21.0658C15.8416 20.9551 16.4915 20.8471 17.3182 20.7417C17.4958 20.6854 17.5846 20.6573 17.5846 20.6573C17.5846 20.6573 17.5257 20.6564 17.4079 20.6546C17.349 20.6537 17.29 20.6528 17.2311 20.6519C17.1731 20.5921 17.1735 20.5627 17.2324 20.5636C17.6458 20.5109 18.2363 20.4314 19.0041 20.3251C19.8308 20.2197 20.3624 20.1393 20.599 20.084C20.1276 20.0768 19.7147 20.1001 19.3603 20.1537C19.0059 20.2073 18.5925 20.26 18.1203 20.3118C17.7096 20.1877 17.0021 20.2065 15.9978 20.3681C14.9943 20.4709 13.9012 20.6606 12.7183 20.9375C11.4765 21.2134 10.3222 21.5496 9.25542 21.946C8.95904 22.0594 8.69211 22.1733 8.45465 22.2875C8.27611 22.4027 8.09757 22.5179 7.91903 22.6331C7.68156 22.7473 7.47356 22.8621 7.29502 22.9773C7.17629 23.0344 7.05711 23.121 6.93749 23.2371L7.11692 23.063L7.29635 22.8889C7.35616 22.8308 7.38607 22.8018 7.38607 22.8018C7.38696 22.7429 7.41731 22.6844 7.47712 22.6264C7.59674 22.5103 7.65744 22.3934 7.65922 22.2755L7.92836 22.0144C7.98906 21.8974 8.22786 21.6948 8.64475 21.4064C8.82329 21.2912 9.0313 21.1765 9.26876 21.0622C9.56514 20.9488 9.94991 20.8367 10.4231 20.726C10.1276 20.7805 9.86153 20.8354 9.62495 20.8908C9.38838 20.9461 9.1219 21.0305 8.82552 21.1439C8.53002 21.1984 8.26399 21.2533 8.02741 21.3087C7.84976 21.3649 7.61274 21.4497 7.31636 21.5631C7.0789 21.6774 6.87134 21.7627 6.69369 21.819C6.51692 21.8163 6.36918 21.8435 6.25045 21.9007C5.95406 22.0141 5.8072 21.9824 5.80987 21.8056C6.05089 21.4556 6.37896 21.1954 6.79407 21.0249C6.79496 20.9659 6.82487 20.9369 6.88379 20.9378C6.94271 20.9387 6.97217 20.9391 6.97217 20.9391C6.97306 20.8802 7.00296 20.8512 7.06189 20.8521C7.18151 20.736 7.24132 20.678 7.24132 20.678C7.41808 20.6807 7.56627 20.624 7.68589 20.5079C8.33847 20.2231 8.84197 20.0539 9.19638 20.0003C9.61061 19.8887 9.99449 19.8355 10.348 19.8409C10.7015 19.8462 11.114 19.8524 11.5854 19.8595C12.2969 19.5756 12.978 19.3501 13.6288 19.1832C14.2805 18.9573 14.9317 18.7608 15.5825 18.5938C16.2931 18.3688 17.0323 18.2032 17.8001 18.0969C18.6276 17.9326 19.5731 17.77 20.6363 17.6093C20.1042 17.7191 19.5722 17.829 19.0401 17.9388C18.5678 17.9906 18.1246 18.0723 17.7104 18.1839C16.7043 18.4634 16.1704 18.6911 16.1088 18.867C16.6409 18.7571 17.114 18.6464 17.5283 18.5348C17.9425 18.4232 18.3567 18.3116 18.7709 18.1999C19.1852 18.0883 19.599 18.0062 20.0123 17.9535C20.4256 17.9008 20.9278 17.8199 21.5188 17.711C21.6357 17.7717 21.5759 17.8297 21.3393 17.8851C21.1626 17.8824 21.0443 17.9101 20.9845 17.9681C21.4567 17.9163 22.1352 17.8676 23.0199 17.8221C23.9645 17.7184 24.9679 17.6157 26.0302 17.5139C27.0337 17.4111 28.0367 17.3379 29.0392 17.2941C30.0427 17.1914 30.839 17.1444 31.4282 17.1533C31.9013 17.0426 32.1973 16.9587 32.316 16.9015C32.4347 16.8444 32.7012 16.76 33.1155 16.6484C34.7635 16.7911 36.1789 16.7241 37.3618 16.4473C38.5455 16.1115 39.757 15.8941 40.9961 15.7949C41.3496 15.8002 41.4081 15.8306 41.1715 15.8859C40.9349 15.9413 40.6988 15.9672 40.4631 15.9636C40.9336 16.0297 41.317 16.006 41.6134 15.8926C41.9098 15.7792 42.2941 15.6966 42.7664 15.6448C42.5905 15.5832 42.4133 15.61 42.2348 15.7252C42.0571 15.7814 41.7621 15.8064 41.3496 15.8002C41.7049 15.6877 42.2365 15.6073 42.9445 15.5591C43.6533 15.4519 44.1854 15.3421 44.5407 15.2296C43.2435 15.2689 42.1236 15.2815 41.1809 15.2673C40.2979 15.195 39.178 15.2076 37.821 15.305C38.3522 15.254 38.9713 15.2339 39.6784 15.2446C40.3863 15.1963 41.0648 15.1476 41.7138 15.0985L45.1607 15.1505C45.8097 15.1014 46.3704 15.0509 46.8426 14.9991C47.3738 14.9482 47.876 14.8674 48.3491 14.7566C47.6421 14.746 46.6395 14.7898 45.3415 14.888C44.0443 14.9274 42.8945 14.969 41.8919 15.0128C41.5973 15.0083 41.5089 15.007 41.6268 15.0088C41.7455 14.9516 41.8343 14.9235 41.8932 14.9244C41.4808 14.9182 41.0384 14.941 40.5662 14.9928C40.0948 14.9857 39.5645 14.9777 38.9753 14.9688C39.2119 14.9134 39.5364 14.8888 39.9488 14.8951C40.3622 14.8424 40.8045 14.8196 41.2759 14.8267C41.7482 14.7749 42.1905 14.7521 42.603 14.7583C43.0752 14.7065 43.4296 14.6529 43.6662 14.5976C43.4305 14.594 43.1065 14.5891 42.694 14.5829C42.2816 14.5767 41.8687 14.5999 41.4553 14.6526C41.1018 14.6473 40.7773 14.6718 40.4818 14.7263C40.2461 14.7227 40.1278 14.7504 40.1269 14.8094C39.8332 14.746 39.3913 14.7393 38.8012 14.7893C38.2709 14.7813 37.7398 14.8323 37.2077 14.9421C37.3836 15.0037 37.7661 15.0389 38.3553 15.0478C38.0598 15.1023 37.5286 15.1532 36.7618 15.2006C36.0547 15.1899 35.3178 15.2083 34.5509 15.2556C33.784 15.303 33.0761 15.3512 32.4271 15.4004C31.8379 15.3915 31.4834 15.4451 31.3638 15.5611C31.5397 15.6227 31.8638 15.6276 32.336 15.5758C32.8092 15.4651 33.252 15.4128 33.6644 15.419C33.1323 15.5289 32.6007 15.6093 32.0695 15.6602C31.5384 15.7111 30.9773 15.791 30.3863 15.9C29.7364 16.008 29.0869 16.0866 28.4379 16.1358C27.8478 16.1858 27.1689 16.264 26.4011 16.3702C26.2842 16.3095 26.285 16.2506 26.4038 16.1935C26.5234 16.0774 26.7015 15.9917 26.9381 15.9363C27.1755 15.8221 27.4126 15.7372 27.6491 15.6819C27.9446 15.6274 28.1812 15.572 28.3588 15.5158C28.1821 15.5131 27.9754 15.5395 27.7388 15.5948C27.5621 15.5922 27.3853 15.5895 27.2086 15.5868C27.2094 15.5279 27.4161 15.5015 27.8286 15.5078C28.2999 15.5149 28.6834 15.4912 28.9789 15.4367C29.2743 15.3823 29.4516 15.3555 29.5105 15.3564C29.5703 15.2983 29.689 15.2412 29.8667 15.1849C29.5131 15.1796 29.277 15.2055 29.1583 15.2626C29.0404 15.2609 28.7753 15.2569 28.3628 15.2506C28.4816 15.1935 28.6882 15.1671 28.9829 15.1716C29.2775 15.176 29.543 15.1506 29.7796 15.0952C28.2459 15.1899 26.8586 15.3458 25.6177 15.5628C24.4366 15.7218 23.2872 15.7339 22.1695 15.5992C20.9893 15.6992 19.8966 15.8595 18.8913 16.0801C17.887 16.2418 16.9117 16.4333 15.9654 16.6548C15.0789 16.8182 14.2215 17.0115 13.393 17.2348C12.6235 17.4589 11.824 17.712 10.9947 17.9942C10.9947 17.9942 10.9353 18.0228 10.8166 18.0799C10.9344 18.0817 10.9938 18.0531 10.9947 17.9942C11.2911 17.8808 11.5866 17.8263 11.8812 17.8308C12.1767 17.7763 12.4726 17.6923 12.769 17.579C13.1243 17.4664 13.4493 17.4124 13.7439 17.4169C14.0983 17.3633 14.3938 17.3088 14.6303 17.2534C14.7482 17.2552 14.5411 17.311 14.009 17.4209C13.5359 17.5316 12.9739 17.6704 12.3231 17.8374C12.0267 17.9508 11.7013 18.0343 11.3469 18.0879C10.9925 18.1415 10.6671 18.225 10.3707 18.3384C10.0743 18.4518 9.80782 18.5361 9.57125 18.5915C9.3936 18.6478 9.24585 18.675 9.12801 18.6732C9.06909 18.6723 8.98026 18.7005 8.86153 18.7576C8.80172 18.8156 8.71245 18.8732 8.59372 18.9304C8.4741 19.0464 8.35537 19.1036 8.23752 19.1018C8.11879 19.1589 8.02952 19.2165 7.96971 19.2746C7.96971 19.2746 7.91035 19.3031 7.79161 19.3603C7.49523 19.4737 7.31713 19.5594 7.25732 19.6174C7.19751 19.6754 7.37516 19.6192 7.79028 19.4487C7.61174 19.5638 7.37383 19.7076 7.07656 19.8799C6.83909 19.9942 6.57217 20.108 6.27579 20.2214C6.03832 20.3357 5.74105 20.508 5.38397 20.7384L5.11482 20.9995C5.0559 20.9986 4.96663 21.0562 4.84701 21.1723L5.20587 20.8241L5.29559 20.737C5.29559 20.737 5.23622 20.7656 5.11749 20.8227C5.05857 20.8219 4.9992 20.8504 4.93939 20.9085C4.87958 20.9665 4.82022 20.9951 4.7613 20.9942C4.7613 20.9942 4.73139 21.0232 4.67158 21.0812C4.25469 21.3696 3.89538 21.7473 3.59366 22.2142C3.59188 22.332 3.56153 22.3905 3.50261 22.3896C3.50172 22.4485 3.47137 22.507 3.41156 22.565C3.41156 22.565 3.41112 22.5945 3.41023 22.6534C3.40934 22.7123 3.37943 22.7414 3.32051 22.7405C3.32051 22.7405 3.32007 22.7699 3.31918 22.8289C3.3174 22.9467 3.28661 23.0346 3.2268 23.0927C3.22413 23.2694 3.19244 23.4163 3.13175 23.5332L3.12508 23.9751C3.12419 24.0341 3.15276 24.0934 3.21079 24.1532L3.20946 24.2416L3.21079 24.1532L3.21212 24.0649C3.2139 23.947 3.21568 23.8292 3.21746 23.7113C3.27905 23.5355 3.3094 23.477 3.30851 23.5359L3.30451 23.801C3.30273 23.9189 3.33086 24.0077 3.38889 24.0675L3.38755 24.1559L3.38622 24.2443C3.38444 24.3621 3.41257 24.451 3.4706 24.5108C3.58311 24.8661 3.6965 25.1625 3.81079 25.3999C4.09739 25.9347 4.32819 26.2623 4.50317 26.3828L4.41612 26.2931C4.3572 26.2922 4.29873 26.2618 4.24069 26.202L3.97955 25.9329L3.63136 25.574C3.51352 25.5722 3.45326 25.6597 3.45059 25.8365C3.62202 26.1927 3.79389 26.5194 3.96621 26.8167C4.13942 27.055 4.31218 27.3229 4.4845 27.6201C4.6577 27.8585 4.83091 28.0968 5.00412 28.3352C5.17821 28.5146 5.38132 28.724 5.61345 28.9632C5.6706 29.0819 5.7572 29.2011 5.87326 29.3207C5.98933 29.4403 6.10583 29.5305 6.22279 29.5912C6.39599 29.8296 6.59911 30.0389 6.83212 30.2192C7.29638 30.6977 7.79098 31.1177 8.31594 31.4792C8.024 31.298 7.73206 31.1168 7.44012 30.9356C7.20711 30.7553 6.94507 30.5451 6.65403 30.3049C6.36298 30.0648 6.07148 29.8541 5.77955 29.6729C5.54742 29.4337 5.28627 29.1645 4.99611 28.8655C4.70596 28.5664 4.41535 28.2968 4.1243 28.0567C3.89306 27.7585 3.63281 27.4305 3.34354 27.0725C3.22925 26.835 3.08506 26.6266 2.91097 26.4472C2.79579 26.2686 2.68151 26.0312 2.56811 25.7348C2.45471 25.4384 2.37078 25.1425 2.3163 24.847C2.26183 24.5515 2.23681 24.2564 2.24126 23.9618C2.18501 23.7842 2.1591 23.548 2.16355 23.2534L2.17022 22.8115C2.172 22.6937 2.17333 22.6053 2.17422 22.5464C2.23403 22.4883 2.26482 22.4004 2.2666 22.2826C2.26838 22.1647 2.29917 22.0768 2.35899 22.0187C2.36076 21.9009 2.39156 21.813 2.45137 21.7549C2.45315 21.6371 2.51474 21.4612 2.63613 21.2273C2.75575 21.1112 2.81601 21.0238 2.8169 20.9648C2.93652 20.8488 2.99633 20.7907 2.99633 20.7907C3.05703 20.6738 3.11728 20.5863 3.17709 20.5283C3.2369 20.4702 3.29716 20.3827 3.35786 20.2658L3.62701 20.0046C3.74663 19.8886 3.80644 19.8305 3.80644 19.8305C3.92517 19.7734 4.04434 19.6868 4.16396 19.5707C4.28358 19.4547 4.37286 19.3971 4.43178 19.398C4.49159 19.3399 4.52149 19.3109 4.52149 19.3109C4.58041 19.3118 4.63978 19.2832 4.69959 19.2252L4.78797 19.2265L4.87769 19.1395C4.93661 19.1404 4.96607 19.1408 4.96607 19.1408C5.02588 19.0828 5.08524 19.0542 5.14417 19.0551C5.20398 18.9971 5.38207 18.9114 5.67846 18.798C6.09535 18.5096 6.48189 18.2797 6.83809 18.1083C7.19428 17.9368 7.55048 17.7654 7.90667 17.594C8.26198 17.4815 8.58782 17.3685 8.8842 17.2551C9.2404 17.0837 9.56669 16.9413 9.86307 16.8279C10.5148 16.602 11.166 16.4055 11.8168 16.2386C12.4676 16.0716 13.2068 15.9059 14.0343 15.7416C13.7397 15.7372 13.5929 15.7055 13.5938 15.6466C13.6536 15.5885 13.7134 15.5305 13.7732 15.4725C13.8919 15.4153 13.9517 15.3573 13.9526 15.2984C14.0124 15.2403 13.895 15.2091 13.6004 15.2047C13.246 15.2582 13.1273 15.3154 13.2442 15.3761C13.421 15.3787 13.3612 15.4368 13.0648 15.5502C12.7693 15.6046 12.5332 15.6306 12.3564 15.6279C12.1797 15.6252 12.0324 15.623 11.9145 15.6212C11.7386 15.5596 11.8877 15.444 12.3618 15.2744C10.4701 15.6584 9.46352 15.9673 9.34212 16.2012C8.21728 16.5378 7.23975 16.8767 6.40952 17.2178C5.6391 17.5008 4.95706 17.7852 4.3634 18.0709C4.24378 18.187 4.18397 18.245 4.18397 18.245C4.06435 18.3611 3.97508 18.4187 3.91616 18.4178L3.64701 18.6789C3.5872 18.7369 3.52784 18.7655 3.46892 18.7646C3.46892 18.7646 3.43901 18.7936 3.3792 18.8517L3.11005 19.1128L2.84091 19.374C2.7811 19.432 2.72129 19.49 2.66148 19.5481C2.66059 19.607 2.63024 19.6655 2.57043 19.7235L2.48071 19.8105L2.47938 19.8989C2.42046 19.898 2.39055 19.927 2.38966 19.986C2.38966 19.986 2.3602 19.9855 2.30128 19.9846C2.30039 20.0436 2.27004 20.102 2.21023 20.1601C2.09061 20.2761 2.0308 20.3342 2.0308 20.3342C1.9094 20.5681 1.84826 20.7145 1.84737 20.7734C1.72775 20.8895 1.63759 21.006 1.57689 21.1229C1.576 21.1818 1.54565 21.2403 1.48584 21.2984L1.48317 21.4751C1.42336 21.5331 1.39301 21.5916 1.39212 21.6505C1.39123 21.7095 1.36088 21.7679 1.30107 21.826C1.29841 22.0027 1.26717 22.1201 1.20736 22.1782L1.20335 22.4433L1.19935 22.7085C1.13954 22.7665 1.1083 22.8839 1.10564 23.0606C1.10475 23.1196 1.0744 23.178 1.01459 23.2361C1.01459 23.2361 1.0137 23.295 1.01192 23.4128L1.00792 23.678L1.00258 24.0315L0.997248 24.385C1.05528 24.4449 1.08341 24.5337 1.08163 24.6515L1.07763 24.9167C1.07674 24.9756 1.07585 25.0345 1.07496 25.0934C1.13388 25.0943 1.1629 25.1242 1.16201 25.1831C1.16023 25.301 1.18836 25.3898 1.24639 25.4496L1.24372 25.6264C1.30086 25.7451 1.32899 25.8339 1.3281 25.8929C1.3281 25.8929 1.35667 25.9522 1.41381 26.071C1.41292 26.1299 1.4415 26.1892 1.49953 26.2491L1.49686 26.4258C1.55489 26.4856 1.58346 26.545 1.58257 26.6039C1.58169 26.6628 1.61026 26.7222 1.66829 26.782L1.92543 27.3163C1.98346 27.3761 2.01203 27.4355 2.01115 27.4944C2.06918 27.5542 2.12721 27.614 2.18524 27.6738C2.24238 27.7926 2.29953 27.9113 2.35667 28.03C2.41381 28.1488 2.47095 28.2675 2.5281 28.3862C2.64238 28.6237 2.72854 28.7723 2.78657 28.8321C2.90086 29.0696 2.95756 29.2178 2.95667 29.2767L3.13076 29.4561C3.12898 29.574 3.15756 29.6333 3.21648 29.6342C3.27362 29.753 3.30175 29.8418 3.30086 29.9007C3.35978 29.9016 3.41781 29.9614 3.47495 30.0801L3.21381 29.811C3.15667 29.6923 3.07006 29.5731 2.954 29.4535C2.83705 29.3928 2.74955 29.3325 2.69152 29.2727C2.69241 29.2138 2.66384 29.1544 2.60581 29.0946C2.54778 29.0348 2.48974 28.975 2.43171 28.9152C2.4326 28.8563 2.40403 28.7969 2.346 28.7371C1.8246 28.1399 1.42149 27.515 1.13667 26.8624C1.07952 26.7437 1.02193 26.6544 0.963903 26.5946C0.905871 26.5348 0.848284 26.4455 0.791141 26.3268C0.793809 26.15 0.738 25.9429 0.623714 25.7054C0.509429 25.468 0.45362 25.2609 0.456288 25.0841C0.34378 24.7288 0.288416 24.4922 0.290195 24.3744C0.294641 24.0798 0.268737 23.8436 0.212483 23.666C0.214262 23.5481 0.21604 23.4303 0.217819 23.3125C0.278518 23.1955 0.309757 23.0781 0.311535 22.9603C0.315981 22.6657 0.348554 22.4599 0.409254 22.3429C0.411032 22.2251 0.412366 22.1367 0.413255 22.0778C0.473065 22.0197 0.503859 21.9318 0.505638 21.814C0.565448 21.7559 0.596242 21.668 0.598021 21.5502C0.59891 21.4912 0.599354 21.4618 0.599354 21.4618C0.658276 21.4627 0.688181 21.4337 0.68907 21.3747C0.689959 21.3158 0.720309 21.2573 0.780119 21.1993C0.840819 21.0823 0.871613 20.9944 0.872502 20.9355C0.931423 20.9364 0.900184 21.0538 0.778785 21.2877L0.774784 21.5528C0.714974 21.6109 0.684624 21.6693 0.683735 21.7283L0.77345 21.6412C0.774339 21.5823 0.835484 21.4359 0.956883 21.202C1.07828 20.9681 1.16978 20.7632 1.23136 20.5873C1.35098 20.4712 1.41124 20.3837 1.41213 20.3248C1.47194 20.2668 1.53175 20.2088 1.59156 20.1507C1.65137 20.0927 1.68128 20.0637 1.68128 20.0637C1.68216 20.0048 1.71251 19.9463 1.77232 19.8882C1.77321 19.8293 1.80356 19.7708 1.86337 19.7128C1.92407 19.5959 2.01423 19.4794 2.13385 19.3633L2.22357 19.2762C2.16465 19.2754 2.07538 19.3329 1.95576 19.449C1.95487 19.5079 1.89461 19.5954 1.77499 19.7115C1.77499 19.7115 1.74509 19.7405 1.68528 19.7985C1.92541 19.5075 2.16509 19.2459 2.40433 19.0138C2.64358 18.7816 2.85291 18.5785 3.03234 18.4044C3.62956 17.883 4.10626 17.5366 4.46245 17.3652C4.93827 17.0777 5.38418 16.8192 5.80018 16.5898C6.21619 16.3603 6.60229 16.1599 6.95848 15.9884C7.3736 15.8179 7.75925 15.6469 8.11544 15.4755C8.47164 15.3041 8.82739 15.1621 9.18269 15.0496C9.538 14.9371 9.8933 14.8246 10.2486 14.7121C10.6048 14.5406 10.9311 14.3982 11.2275 14.2848C12.4719 13.8321 13.7749 13.4098 15.1363 13.0178C16.5575 12.5678 17.9475 12.2351 19.3062 12.0199C18.7759 12.0119 18.3032 12.0932 17.8881 12.2637C17.4739 12.3753 16.9418 12.4852 16.2919 12.5932C17.298 12.3137 18.4514 12.0365 19.7521 11.7614C21.0528 11.4864 22.3826 11.2412 23.7413 11.026C25.0411 10.8099 26.2521 10.6219 27.3743 10.462C28.5554 10.303 29.4709 10.1695 30.1208 10.0615C30.2993 9.94628 30.5355 9.92038 30.8292 9.98374C31.1238 9.98819 31.4778 9.96406 31.8911 9.91137C31.5983 9.78908 30.8912 9.77841 29.7699 9.87935C29.9476 9.8231 30.1252 9.76685 30.3029 9.7106C30.5404 9.59631 30.2752 9.59231 29.5075 9.69859C29.9217 9.58697 30.4238 9.50615 31.0139 9.45612C31.6639 9.34806 32.3727 9.24089 33.1404 9.13461C33.9073 9.08724 34.6742 9.03988 35.441 8.99252C36.2079 8.94516 36.9163 8.86745 37.5662 8.75939C37.2725 8.69602 37.1256 8.66434 37.1256 8.66434C37.1265 8.60541 37.1573 8.51748 37.218 8.40053C37.8081 8.3505 38.4861 8.33126 39.2521 8.34282C40.019 8.29546 40.6385 8.24587 41.1108 8.19407C41.7598 8.14493 42.1723 8.15115 42.3481 8.21274C42.5829 8.27522 43.0838 8.28278 43.8506 8.23541C44.6773 8.13002 45.7392 8.05764 47.0364 8.01829C48.3344 7.92001 49.7499 7.85296 51.2827 7.81716C51.2229 7.87519 50.9573 7.90065 50.4859 7.89354C50.0735 7.88732 49.6311 7.91011 49.1589 7.96192C51.222 7.93412 53.1383 7.87463 54.9077 7.78347C56.7369 7.63427 58.6831 7.54577 60.7462 7.51797C57.8019 7.35567 54.738 7.30943 51.5545 7.37926C48.3719 7.39016 45.2772 7.43186 42.2704 7.50435C42.9801 7.33826 44.0126 7.26544 45.3678 7.28589C46.7819 7.30723 48.1375 7.29822 49.4347 7.25886L65.255 7.49761C65.197 7.4378 65.0206 7.40567 64.726 7.40123C64.4904 7.39767 64.2547 7.39411 64.019 7.39056C65.0215 7.34675 66.1419 7.30473 67.3802 7.26448C68.6773 7.22512 69.8263 7.24246 70.827 7.3165C71.0627 7.32005 71.0922 7.3205 70.9154 7.31783C70.7985 7.25713 70.7989 7.22767 70.9168 7.22945C71.2712 7.17586 71.6251 7.15174 71.9787 7.15707C72.3322 7.16241 72.6857 7.16774 73.0393 7.17308L74.0998 7.18908L74.2766 7.19175L74.4547 7.10604C74.5136 7.10693 74.3953 7.13461 74.0998 7.18908C73.8641 7.18553 73.8641 7.18553 74.0998 7.18908L74.1895 7.10204L74.7198 7.11004C75.4278 7.06179 76.1353 7.043 76.8423 7.05367C77.6092 7.00631 78.347 6.92904 79.0559 6.82187C80.5307 6.72625 81.9756 6.65966 83.3906 6.62208C84.8654 6.52646 86.3696 6.4313 87.9034 6.33657L92.4148 6.13945C93.1826 6.03317 93.92 5.98536 94.6271 5.99603C95.3939 5.94867 96.1608 5.90131 96.9276 5.85395C98.4614 5.75923 99.9652 5.69352 101.439 5.65683C102.972 5.62102 104.505 5.55576 106.039 5.46104C106.865 5.41457 107.631 5.39667 108.338 5.40734C109.105 5.35997 109.901 5.31306 110.727 5.26659C111.553 5.22011 112.319 5.20221 113.026 5.21288C113.793 5.16552 114.59 5.1186 115.415 5.07213C116.949 4.97741 118.511 4.94205 120.102 4.96606C121.694 4.93115 123.286 4.86677 124.879 4.77294L129.656 4.57982C130.481 4.53335 131.277 4.51589 132.043 4.52745C132.809 4.53901 133.605 4.52155 134.431 4.47508C136.082 4.38213 137.704 4.34767 139.294 4.37167C140.886 4.33676 142.507 4.30229 144.158 4.26827C157.305 3.99519 170.597 3.84218 184.034 3.80923C197.531 3.77717 211.231 3.92499 225.134 4.25268C225.014 4.42767 224.423 4.50716 223.363 4.49115C224.364 4.50627 225.396 4.52183 226.456 4.53783C227.517 4.55384 228.606 4.59975 229.725 4.67556L236.177 4.77293L242.894 4.8743L246.252 4.92498C246.782 4.99191 247.312 5.02937 247.842 5.03737C248.431 5.04627 248.991 5.05471 249.521 5.06272C249.462 5.06183 249.315 5.0596 249.079 5.05605C248.843 5.05249 248.608 5.01947 248.373 4.95699C250.67 5.10951 253.055 5.23391 255.528 5.33017C258.003 5.36752 260.566 5.43566 263.216 5.5346C265.866 5.69245 268.516 5.85031 271.165 6.00817C273.875 6.10799 276.613 6.23772 279.381 6.39735L281.413 6.42803C281.648 6.49051 282.001 6.5253 282.473 6.53242L283.445 6.54709C284.151 6.61668 284.828 6.68583 285.475 6.75453C286.182 6.7652 286.889 6.80533 287.595 6.87492C288.949 6.95429 290.274 7.03322 291.569 7.1117C292.924 7.19108 294.278 7.29991 295.631 7.43821C296.279 7.44799 296.927 7.48723 297.574 7.55593C298.281 7.5666 298.958 7.60629 299.605 7.67499C299.899 7.73836 300.223 7.77271 300.576 7.77804C300.93 7.78338 301.254 7.78827 301.549 7.79271C301.783 7.85519 302.136 7.88999 302.608 7.8971ZM37.893 10.5324C37.6574 10.5288 37.3034 10.5529 36.8311 10.6047C36.3598 10.5976 35.8879 10.62 35.4157 10.6718C34.9434 10.7236 34.5596 10.7767 34.2641 10.8312C33.9695 10.8268 33.8811 10.8254 33.9989 10.8272C34.3524 10.8325 34.7649 10.8388 35.2363 10.8459C35.7085 10.7941 36.1513 10.7418 36.5647 10.6891C36.978 10.6364 37.3025 10.6118 37.5382 10.6154C37.8337 10.5609 37.952 10.5332 37.893 10.5324ZM34.2841 9.50547C33.635 9.55461 33.1628 9.60642 32.8673 9.66089C32.6316 9.65734 32.3955 9.68324 32.1589 9.73861C32.6312 9.6868 33.0735 9.66401 33.486 9.67023C33.8984 9.67645 34.1644 9.62153 34.2841 9.50547ZM25.4192 11.1397C24.7693 11.2478 24.1783 11.3567 23.6463 11.4666C23.1151 11.5175 22.6718 11.5992 22.3165 11.7117C23.6744 11.5554 24.8854 11.3674 25.9495 11.1477C26.4816 11.0379 27.0132 10.9575 27.5444 10.9066C28.1345 10.8566 28.784 10.778 29.4928 10.6708C29.6704 10.6145 29.7298 10.586 29.6709 10.5851C29.6709 10.5851 29.5231 10.6123 29.2276 10.6668C28.5777 10.7748 27.9283 10.8534 27.2792 10.9026C26.6891 10.9526 26.0691 11.0317 25.4192 11.1397ZM22.9325 11.8978C22.2826 12.0059 21.7211 12.1153 21.2479 12.226C20.8337 12.3376 20.715 12.3948 20.8918 12.3974C21.2471 12.2849 21.6903 12.2032 22.2215 12.1523C22.7527 12.1014 23.3137 12.0214 23.9047 11.9125C24.4368 11.8026 24.9385 11.7513 25.4099 11.7584C25.8821 11.7066 26.2665 11.624 26.5629 11.5106C26.1504 11.5044 25.5898 11.5548 24.8809 11.662C24.2319 11.7112 23.5824 11.7898 22.9325 11.8978ZM12.2747 15.1846C12.3345 15.1266 12.2761 15.0963 12.0993 15.0936C11.9225 15.0909 11.864 15.0606 11.9239 15.0025C11.3329 15.1115 10.9481 15.2236 10.7696 15.3387C10.6499 15.4548 10.4419 15.5695 10.1456 15.6829L12.2747 15.1846ZM14.1441 14.3288C14.3815 14.2146 14.5601 14.0994 14.6797 13.9833C14.7984 13.9262 14.8873 13.898 14.9462 13.8989C15.006 13.8409 15.1252 13.7543 15.3037 13.6391C15.3626 13.64 15.5697 13.5842 15.925 13.4717C16.0429 13.4735 16.3973 13.4199 16.9883 13.3109C16.6928 13.3654 16.545 13.3927 16.545 13.3927C16.5459 13.3337 16.5758 13.3047 16.6348 13.3056C16.7535 13.2485 16.8129 13.2199 16.8129 13.2199C16.8137 13.161 16.6669 13.1293 16.3723 13.1248C16.017 13.2373 15.6322 13.3494 15.218 13.461C14.8636 13.5146 14.4498 13.5968 13.9766 13.7075C13.5624 13.8191 13.1477 13.9602 12.7326 14.1307C12.3184 14.2423 11.9042 14.354 11.49 14.4656C10.6606 14.7477 9.94956 15.0022 9.35679 15.229C8.76313 15.5147 8.37659 15.7446 8.19716 15.9187C8.49354 15.8053 8.76047 15.6915 8.99793 15.5772C9.29431 15.4638 9.56124 15.35 9.7987 15.2357L11.1324 14.7254C11.9028 14.4423 13.0567 14.1356 14.594 13.8052C14.652 13.865 14.3552 14.0079 13.7035 14.2338C13.4071 14.3472 13.1406 14.4316 12.9041 14.4869C12.6675 14.5423 12.5488 14.5994 12.5479 14.6584C13.4344 14.4949 13.9664 14.3851 14.1441 14.3288ZM15.9974 14.5336C15.5243 14.6443 15.2573 14.7582 15.1966 14.8751C15.1359 14.9921 15.3127 14.9948 15.7269 14.8831C15.61 14.8224 15.6403 14.764 15.818 14.7077C16.0546 14.6523 16.1144 14.5943 15.9974 14.5336ZM19.6211 14.5883C20.6843 14.4275 21.5717 14.2052 22.2832 13.9213C22.1064 13.9186 21.9292 13.9454 21.7516 14.0016C21.5748 13.999 21.6346 13.9409 21.931 13.8275C21.2811 13.9356 20.8084 14.0169 20.5129 14.0713C20.2183 14.0669 20.0121 14.0638 19.8942 14.062C19.7166 14.1183 19.5394 14.1451 19.3626 14.1424C19.1858 14.1397 18.8609 14.1937 18.3877 14.3045C18.9787 14.1955 19.2443 14.1701 19.1845 14.2281C19.1247 14.2861 18.947 14.3424 18.6515 14.3969C18.3552 14.5103 17.9704 14.6223 17.4972 14.733C17.025 14.7849 16.6415 14.8085 16.3469 14.8041C16.3452 14.9219 16.3144 15.0099 16.2546 15.0679C16.1956 15.067 15.9287 15.1809 15.4538 15.4094C16.2814 15.2451 17.0201 15.1089 17.67 15.0009C18.3797 14.8348 19.0301 14.6972 19.6211 14.5883ZM33.541 11.8811C34.0133 11.8293 34.4556 11.8065 34.8681 11.8127C35.3403 11.7609 35.6653 11.7069 35.8429 11.6506C34.7216 11.7516 33.9543 11.8284 33.541 11.8811ZM36.1965 11.656C36.6696 11.5452 37.3481 11.4966 38.2319 11.5099C39.1755 11.4652 39.7661 11.3857 40.0035 11.2714C39.1188 11.317 38.3814 11.3648 37.7913 11.4148C37.2012 11.4649 36.6696 11.5452 36.1965 11.656ZM34.7917 11.016C36.1486 10.9186 37.5351 10.8216 38.951 10.7251C40.4258 10.6295 41.8711 10.5335 43.287 10.437C41.5774 10.4701 40.0146 10.5349 38.5988 10.6314C37.1829 10.7279 35.7965 10.8249 34.4395 10.9222C33.2593 11.0223 32.1376 11.1527 31.0743 11.3135C30.012 11.4153 28.9791 11.5176 27.9756 11.6203C27.9756 11.6203 28.0055 11.5913 28.0653 11.5333C28.0055 11.5913 27.9167 11.6194 27.7989 11.6176C27.681 11.6159 27.5627 11.6435 27.444 11.7007C27.3851 11.6998 27.2967 11.6985 27.1789 11.6967C26.7075 11.6896 26.0585 11.7387 25.2318 11.8441C24.464 11.9504 23.6668 12.0562 22.8402 12.1616C22.3679 12.2134 21.9251 12.2657 21.5118 12.3184C21.0984 12.3711 20.6846 12.4532 20.2704 12.5649C19.8571 12.6176 19.4732 12.6707 19.1188 12.7243C18.7644 12.7779 18.4394 12.8319 18.1439 12.8864C18.9117 12.7801 19.7084 12.7037 20.5342 12.6572C21.36 12.6108 22.1867 12.5054 23.0142 12.3411C23.3097 12.2866 23.5454 12.2901 23.7213 12.3517C23.957 12.3553 24.2226 12.3298 24.5181 12.2753C25.168 12.1673 25.759 12.0583 26.291 11.9485C26.8231 11.8387 27.3257 11.7284 27.7989 11.6176L27.9756 11.6203C27.8569 11.6775 27.8564 11.7069 27.9743 11.7087C28.0921 11.7105 28.2988 11.6841 28.5943 11.6296C28.8898 11.5752 29.1848 11.5502 29.4794 11.5546C29.8339 11.501 30.0695 11.5046 30.1865 11.5653C29.5375 11.6144 28.9175 11.6935 28.3265 11.8024C27.7364 11.8524 27.2646 11.8748 26.911 11.8695C27.0271 11.9891 27.4387 12.0542 28.1457 12.0649C28.9153 11.8408 29.8611 11.6488 30.9833 11.4889C32.1644 11.3299 33.4338 11.1723 34.7917 11.016ZM43.93 14.6899C44.2844 14.6364 44.7263 14.643 45.2558 14.7099C45.845 14.7188 46.0815 14.6635 45.9655 14.5439C45.553 14.5376 45.1111 14.531 44.6397 14.5238C44.2273 14.5176 43.9907 14.573 43.93 14.6899ZM9.00495 20.9698C9.24241 20.8555 9.30222 20.7975 9.18438 20.7957C8.94869 20.7922 8.71212 20.8475 8.47466 20.9618C8.23631 21.135 8.20596 21.1935 8.38361 21.1372C8.56126 21.081 8.76838 21.0252 9.00495 20.9698ZM31.4886 19.0107C31.7269 18.8375 31.6399 18.7478 31.2274 18.7415C30.7543 18.8523 30.2521 18.9331 29.7209 18.984C29.1906 18.976 28.8362 19.0296 28.6577 19.1448C29.1299 19.093 29.6018 19.0706 30.0731 19.0777C30.5445 19.0848 31.0163 19.0625 31.4886 19.0107ZM27.5074 19.2158C28.0377 19.2238 28.5983 19.1733 29.1893 19.0644C29.8401 18.8974 30.1365 18.784 30.0785 18.7242C29.7821 18.8376 29.3388 18.9193 28.7487 18.9693C28.2176 19.0202 27.8038 19.1024 27.5074 19.2158ZM30.6168 18.2019C29.849 18.3082 29.3174 18.3886 29.0219 18.443C28.7862 18.4395 28.7273 18.4386 28.8451 18.4404C28.963 18.4422 29.1692 18.4453 29.4638 18.4497C29.8182 18.3961 30.2025 18.3135 30.6168 18.2019ZM18.0319 20.3104C18.9773 20.1479 19.8629 20.0434 20.6887 19.9969C21.5153 19.8915 22.1653 19.7835 22.6384 19.6727C22.4018 19.7281 22.0474 19.7817 21.5752 19.8335C21.1038 19.8264 20.6025 19.8483 20.0713 19.8992C19.5982 20.0099 19.1549 20.0916 18.7416 20.1443C18.3881 20.139 18.1515 20.1944 18.0319 20.3104ZM19.4527 19.8899C20.0436 19.7809 20.6337 19.7309 21.223 19.7398C21.8131 19.6897 22.3741 19.6098 22.9062 19.5C22.6705 19.4964 22.3755 19.5214 22.0211 19.575C21.7265 19.5706 21.4019 19.5951 21.0475 19.6487C20.752 19.7032 20.4565 19.7577 20.161 19.8121C19.8664 19.8077 19.6303 19.8336 19.4527 19.8899ZM24.8573 19.0874C24.3261 19.1383 24.1779 19.195 24.4127 19.2575C24.6484 19.2611 24.9135 19.2651 25.2081 19.2695C25.3858 19.2133 25.563 19.1865 25.7398 19.1891C25.9174 19.1329 26.2129 19.0784 26.6262 19.0257C26.5075 19.0828 26.241 19.1672 25.8268 19.2788C25.4135 19.3315 25.3836 19.3606 25.7371 19.3659C26.0335 19.2525 26.4468 19.1998 26.9771 19.2078C27.5083 19.1569 27.8631 19.0738 28.0417 18.9587C27.6292 18.9524 27.423 18.9493 27.423 18.9493C27.8962 18.8386 28.4278 18.7582 29.0179 18.7082C29.6669 18.659 30.1101 18.5773 30.3476 18.463C29.1094 18.5033 27.8997 18.6029 26.7186 18.7619C25.5384 18.8619 24.4466 18.9633 23.4432 19.0661C23.9743 19.0151 24.3292 18.9321 24.5078 18.8169C24.0944 18.8696 23.6516 18.9219 23.1794 18.9737C22.7669 18.9675 22.5598 19.0233 22.558 19.1411C22.7937 19.1447 23.1178 19.1496 23.5302 19.1558C24.0025 19.104 24.4448 19.0812 24.8573 19.0874ZM28.4716 19.7608C28.9438 19.709 29.4451 19.6871 29.9754 19.6951C30.5646 19.7039 31.1842 19.6544 31.8341 19.5463L31.8368 19.3695C30.6566 19.4696 29.5063 19.5406 28.3859 19.5827C27.3244 19.6256 26.3794 19.7587 25.551 19.9819C26.0241 19.8712 26.4964 19.8194 26.9678 19.8265C27.4391 19.8336 27.9404 19.8117 28.4716 19.7608ZM27.9883 22.4939C28.8141 22.4475 29.3743 22.4264 29.6689 22.4309C29.9644 22.3764 30.0827 22.3487 30.0238 22.3478C29.9657 22.288 29.2873 22.3367 27.9883 22.4939ZM26.2287 21.937C27.5794 22.252 29.701 22.2546 32.5935 21.9446C32.3578 21.9411 32.0333 21.9656 31.62 22.0183C31.2665 22.013 30.9424 22.0081 30.6478 22.0036C30.2934 22.0572 30.0572 22.0831 29.9394 22.0814C29.8216 22.0796 29.9403 22.0224 30.2956 21.9099C29.4698 21.9564 28.7623 21.9752 28.1731 21.9663C27.5848 21.8985 26.9366 21.8887 26.2287 21.937ZM31.4582 26.878C31.7546 26.7646 32.0796 26.7106 32.4331 26.7159C32.7875 26.6623 33.2013 26.5801 33.6745 26.4694C32.8478 26.5748 32.0805 26.6516 31.3725 26.6999C30.7235 26.749 29.8973 26.825 28.8938 26.9277C28.7751 26.9848 28.7747 27.0143 28.8925 27.0161C29.0103 27.0178 29.1577 27.0201 29.3344 27.0227C29.5112 27.0254 29.6585 27.0276 29.7763 27.0294C29.954 26.9731 30.0424 26.9745 30.0415 27.0334C29.5701 27.0263 29.275 27.0513 29.1563 27.1084C29.0376 27.1656 28.9773 27.2531 28.9756 27.3709C29.5665 27.262 30.0392 27.1807 30.3937 27.1271C30.807 27.0744 31.1619 26.9914 31.4582 26.878ZM49.6098 24.9419C49.2572 24.8776 48.9037 24.8723 48.5492 24.9259C48.1957 24.9205 47.7833 24.9143 47.3119 24.9072C47.3119 24.9072 47.4297 24.909 47.6654 24.9125C47.9609 24.858 48.256 24.833 48.5506 24.8375C48.8452 24.8419 49.0809 24.8455 49.2576 24.8481C49.4933 24.8517 49.6107 24.8829 49.6098 24.9419ZM74.8733 20.3726C75.875 20.3877 77.1123 20.4064 78.5853 20.4286C80.1182 20.3928 81.2975 20.3517 82.1233 20.3052C80.7681 20.2848 79.4718 20.2652 78.2345 20.2465C76.9971 20.2279 75.8767 20.2699 74.8733 20.3726ZM78.063 19.8903C79.7709 19.9751 80.5074 19.9862 80.2726 19.9237C80.0387 19.8023 79.3022 19.7912 78.063 19.8903ZM81.8634 19.9477C82.3946 19.8968 82.9249 19.9048 83.4543 19.9717C83.9837 20.0386 84.4261 20.0158 84.7814 19.9033C84.1323 19.9525 83.5726 19.944 83.1021 19.878C82.6316 19.812 82.2188 19.8352 81.8634 19.9477ZM96.1893 19.6335C97.1918 19.5897 98.164 19.6044 99.1059 19.6775C100.108 19.6926 100.992 19.6765 101.759 19.6291C101.405 19.6238 100.875 19.6158 100.168 19.6051C99.4607 19.5945 98.7537 19.5838 98.0466 19.5731C97.3396 19.5624 96.7794 19.5835 96.366 19.6362C95.9536 19.6299 95.8947 19.629 96.1893 19.6335ZM92.3995 18.8691C93.461 18.8262 94.6104 18.814 95.8477 18.8327C97.1449 18.7934 98.4122 18.783 99.6495 18.8017C100.946 18.8212 102.184 18.8105 103.363 18.7693C104.601 18.7291 105.722 18.6576 106.725 18.5549C105.193 18.5907 103.66 18.597 102.128 18.5739C100.596 18.5508 99.0049 18.5562 97.3542 18.5902C96.8829 18.5831 96.4111 18.6055 95.9388 18.6573C95.4674 18.6502 94.9961 18.6431 94.5247 18.6359C94.0533 18.6288 93.5815 18.6512 93.1093 18.703C92.6968 18.6968 92.2545 18.7196 91.7822 18.7714C90.8386 18.8161 89.9539 18.8616 89.1281 18.9081C88.3032 18.8957 87.5372 18.8841 86.8302 18.8734C86.7712 18.8725 86.8007 18.873 86.9185 18.8748C87.0962 18.8185 86.9788 18.7873 86.5664 18.781C85.387 18.8222 83.8537 18.8874 81.9665 18.9768C80.1391 19.0082 78.3406 19.0695 76.5712 19.1606C77.4541 19.2329 78.4853 19.2484 79.6646 19.2073C80.9028 19.1671 81.9339 19.1826 82.7579 19.254C81.3429 19.2916 80.0168 19.301 78.7794 19.2823C77.601 19.2646 76.4221 19.2762 75.2428 19.3174L74.4474 19.3054L74.2706 19.3027L74.1822 19.3014L74.0939 19.3L73.8287 19.296L73.3868 19.2894L71.7076 19.264C71.1183 19.2551 70.5291 19.2462 69.9399 19.2373C69.4096 19.2293 68.82 19.2499 68.171 19.2991C68.6423 19.3062 69.0548 19.3124 69.4083 19.3177C69.8207 19.324 70.085 19.3869 70.2011 19.5065C68.7896 19.3084 67.1113 19.2241 65.166 19.2537C63.2796 19.2842 61.658 19.3481 60.301 19.4455C61.7142 19.5258 63.2158 19.6073 64.8058 19.6903C66.3958 19.7732 68.0447 19.857 69.7525 19.9417C70.1649 19.948 70.5769 19.9836 70.9885 20.0488C71.4009 20.055 71.8134 20.0612 72.2258 20.0675L73.5516 20.0875L74.2573 20.1865L75.0541 20.1101C75.879 20.1226 76.7038 20.135 77.5287 20.1475C78.4134 20.1019 79.2687 20.0559 80.0945 20.0094C79.6231 20.0023 79.0335 20.0229 78.3255 20.0711C77.6774 20.0613 77.0292 20.0516 76.3811 20.0418C76.0865 20.0373 75.7915 20.0623 75.496 20.1168C75.2014 20.1124 74.9072 20.0785 74.6135 20.0151L74.5251 20.0138L74.4367 20.0124L74.26 20.0098L74.1716 20.0084L73.9948 20.0058L73.6413 20.0004C73.5234 19.9986 73.4351 19.9973 73.3761 19.9964C73.3181 19.9366 73.2596 19.9063 73.2007 19.9054L73.8194 19.9147L74.1729 19.92L74.2613 19.9214L74.438 19.924L74.5264 19.9254L74.7032 19.928L75.7638 19.9441C76.1173 19.9494 76.4708 19.9547 76.8244 19.9601C77.1788 19.9065 77.5033 19.8819 77.7979 19.8863L75.5 19.8517L74.5278 19.837L74.4394 19.8357L74.2626 19.833L74.1742 19.8317C74.1751 19.7727 74.1167 19.7424 73.9988 19.7406L73.7337 19.7366L74.0872 19.7419L74.1756 19.7433L74.264 19.7446L74.4407 19.7473L74.6175 19.7499C74.8532 19.7535 75.0598 19.7272 75.2375 19.6709L76.4748 19.6896C76.8873 19.6958 77.2703 19.7016 77.6238 19.7069C78.0362 19.7131 78.4197 19.6895 78.7741 19.6359L82.4861 19.6919C82.1326 19.6866 81.7201 19.6803 81.2488 19.6732C80.7774 19.6661 80.6886 19.6942 80.9823 19.7576C81.6893 19.7683 82.4553 19.7798 83.2802 19.7923C84.1649 19.7467 85.0197 19.7301 85.8446 19.7426C86.6695 19.755 87.4355 19.7666 88.1425 19.7773C88.9094 19.7299 89.5584 19.6808 90.0896 19.6298C89.9727 19.5691 89.7075 19.5651 89.2942 19.6178C88.8808 19.6705 88.6452 19.667 88.5871 19.6072C89.7075 19.5651 90.5918 19.549 91.2399 19.5588C91.947 19.5695 92.7138 19.5221 93.5405 19.4167C93.187 19.4114 92.8035 19.4351 92.3902 19.4878C92.0367 19.4824 91.8313 19.4204 91.7742 19.3016C92.2456 19.3088 92.4518 19.3119 92.3929 19.311C92.3938 19.2521 92.6009 19.1963 93.0142 19.1436C94.8417 19.1122 96.5798 19.1384 98.2287 19.2223C99.9374 19.248 101.618 19.2145 103.269 19.1215C102.032 19.1028 100.706 19.0828 99.292 19.0615C97.8779 19.0402 96.4633 19.0483 95.0483 19.0859L92.9272 19.0538C92.5727 19.1074 92.2188 19.1316 91.8652 19.1262C91.5706 19.1218 91.2466 19.1169 90.893 19.1115C90.2449 19.1018 89.5963 19.1214 88.9473 19.1706C88.2992 19.1608 87.6805 19.1515 87.0913 19.1426C87.5046 19.0899 88.0059 19.068 88.5951 19.0769C89.2433 19.0867 89.8914 19.0964 90.5395 19.1062C91.1885 19.0571 91.8371 19.0374 92.4852 19.0472C93.1334 19.057 93.6936 19.0359 94.1658 18.9841C93.7534 18.9779 93.3999 18.9726 93.1053 18.9681C92.8705 18.9057 92.6352 18.8726 92.3995 18.8691ZM149.13 20.4324L150.721 20.4564L153.902 20.5045C155.022 20.5213 156.053 20.5369 156.996 20.5511C157.998 20.5073 158.913 20.4622 159.738 20.4157C158.619 20.3988 157.558 20.4123 156.555 20.4561C155.613 20.4419 154.64 20.4272 153.639 20.4121L150.722 20.3681C150.25 20.4199 149.749 20.4418 149.218 20.4338C148.747 20.4266 148.246 20.4191 147.716 20.4111L149.13 20.4324ZM140.451 21.4507C144.874 21.2817 149.237 21.1707 153.54 21.1178C157.844 21.0059 162.147 20.8941 166.451 20.7822C162.031 20.8334 157.639 20.9144 153.276 21.0254C148.973 21.0783 144.61 21.1893 140.187 21.3583C139.126 21.4012 138.035 21.4437 136.915 21.4857C135.854 21.4697 134.793 21.4832 133.731 21.5261C133.2 21.577 132.67 21.5984 132.139 21.5904C131.609 21.5824 131.049 21.6035 130.459 21.6535C129.928 21.6455 129.398 21.6669 128.866 21.7179C128.336 21.7099 127.805 21.7313 127.274 21.7822C125.092 21.8672 122.94 21.9526 120.817 22.0384C118.695 22.0653 116.573 22.1217 114.45 22.2075C116.573 22.1217 118.724 22.0657 120.905 22.0397C123.087 21.9548 125.269 21.8698 127.451 21.7849C127.981 21.7929 128.512 21.8009 129.042 21.8089C129.573 21.758 130.134 21.7075 130.724 21.6575C131.254 21.6655 131.784 21.6735 132.315 21.6815C132.846 21.6306 133.406 21.6096 133.995 21.6185C135.057 21.5755 136.118 21.5621 137.178 21.5781C138.299 21.5361 139.39 21.4936 140.451 21.4507ZM205.945 4.6703C206.829 4.68364 207.713 4.69698 208.596 4.71031C209.481 4.66473 210.365 4.64861 211.249 4.66195L207.537 4.60593L205.681 4.57792L203.825 4.54991L196.401 4.43787C193.925 4.45944 191.48 4.452 189.064 4.41555C186.707 4.37998 184.32 4.37343 181.904 4.39589C179.487 4.41836 177.1 4.44126 174.742 4.46462C172.384 4.48797 170.027 4.51132 167.669 4.53468C165.31 4.61695 162.952 4.66977 160.594 4.69312C158.297 4.65844 155.998 4.68268 153.698 4.76585C151.398 4.84901 149.099 4.93217 146.799 5.01534C144.559 5.04047 142.319 5.09506 140.078 5.17911L133.445 5.34423C132.855 5.39425 132.295 5.44473 131.763 5.49564C131.233 5.48764 130.673 5.47919 130.084 5.4703C129.553 5.52122 128.992 5.5717 128.402 5.62172C127.872 5.61372 127.342 5.60572 126.811 5.59772C124.629 5.68266 122.448 5.7676 120.266 5.85254C118.143 5.93837 115.99 6.02376 113.809 6.1087L110.623 6.32583C110.093 6.31783 109.562 6.33929 109.031 6.3902C108.559 6.38309 108.058 6.40499 107.527 6.45591C106.465 6.49883 105.404 6.54174 104.342 6.58466C103.281 6.62757 102.249 6.67093 101.246 6.71474C100.833 6.76744 100.567 6.85182 100.447 6.96788C100.387 7.02591 100.063 7.05048 99.4734 7.04159C99.4734 7.04159 99.5617 7.04292 99.7385 7.04559C99.9162 6.98934 100.093 6.96255 100.27 6.96521C100.448 6.90896 100.537 6.88083 100.537 6.88083C100.596 6.8228 100.45 6.79112 100.096 6.78578C99.0926 6.88851 98.0601 6.96133 96.9987 7.00424C95.9372 7.04716 94.8757 7.09008 93.8143 7.13299C93.2831 7.18391 92.7519 7.23483 92.2207 7.28575C91.6904 7.27774 91.1892 7.29965 90.7169 7.35145C90.2447 7.40326 89.7728 7.42561 89.3015 7.41849C88.889 7.41227 88.4761 7.43551 88.0628 7.4882C88.8859 7.61849 90.0054 7.63539 91.4213 7.53889C92.8372 7.44239 94.1642 7.37401 95.4025 7.33376C95.698 7.27929 96.1403 7.2565 96.7295 7.26539C97.3786 7.21625 98.0271 7.19657 98.6753 7.20635C99.3832 7.1581 100.002 7.13798 100.533 7.14598C101.123 7.09595 101.536 7.04325 101.773 6.98789C101.773 6.98789 101.713 7.01646 101.595 7.0736C101.536 7.07271 101.447 7.07138 101.329 7.0696C101.27 7.06871 101.27 7.06871 101.329 7.0696C101.388 7.07049 101.565 7.07316 101.86 7.0776C103.509 7.1025 105.219 7.06936 106.988 6.9782C108.758 6.88703 110.468 6.79498 112.12 6.70203C111.531 6.69314 110.853 6.71238 110.086 6.75974C109.32 6.74818 108.554 6.73662 107.788 6.72506C107.081 6.71439 106.374 6.70372 105.667 6.69305C104.96 6.68238 104.37 6.67348 103.899 6.66637C104.725 6.6199 105.521 6.60244 106.287 6.614C107.113 6.56753 107.938 6.55052 108.763 6.56297C109.174 6.62811 109.557 6.66335 109.91 6.66869C110.323 6.67491 110.735 6.68114 111.148 6.68736L113.534 6.72337C115.244 6.69024 117.13 6.63031 119.194 6.54359C121.259 6.39795 123.294 6.28132 125.299 6.19371C126.184 6.14813 127.068 6.13201 127.952 6.14535C128.896 6.10065 129.81 6.05551 130.695 6.00993C131.579 5.96435 132.464 5.94823 133.348 5.96156C134.232 5.91598 135.146 5.87084 136.09 5.82615C137.859 5.7939 139.627 5.76166 141.396 5.72941C143.223 5.69805 145.051 5.63724 146.879 5.54696C147.764 5.50138 148.648 5.48525 149.532 5.49859C150.476 5.4539 151.389 5.43822 152.273 5.45156C153.158 5.40598 154.042 5.38985 154.926 5.40319C155.87 5.3585 156.784 5.31336 157.669 5.26777C159.496 5.23642 161.294 5.20462 163.062 5.17237C164.89 5.14102 166.717 5.10966 168.545 5.07831C170.313 5.04606 172.082 5.01381 173.85 4.98157C175.678 4.95021 177.505 4.91886 179.333 4.8875C180.217 4.90084 181.1 4.91418 181.984 4.92751C182.869 4.88193 183.783 4.83679 184.727 4.7921L187.378 4.83211C187.85 4.78031 188.293 4.75751 188.705 4.76374C189.118 4.76996 189.56 4.77663 190.031 4.78375C191.858 4.75239 193.656 4.75005 195.423 4.77672C197.192 4.74448 198.961 4.71223 200.729 4.67999C201.613 4.69333 202.497 4.70666 203.381 4.72C204.265 4.67442 205.12 4.65785 205.945 4.6703ZM215.592 21.5238C215.002 21.5149 214.325 21.5047 213.559 21.4931C212.853 21.4236 212.352 21.416 212.056 21.4705C212.587 21.4785 213.234 21.5177 213.999 21.5882C214.765 21.5998 215.296 21.5783 215.592 21.5238ZM281.602 23.2272C282.25 23.237 282.986 23.2776 283.81 23.3489C284.694 23.3623 285.401 23.3729 285.931 23.381C285.107 23.3096 284.283 23.2677 283.458 23.2552C282.693 23.1847 282.074 23.1754 281.602 23.2272Z" fill="#5956E8"/>
</svg>
