<svg width="1920" height="169" viewBox="0 0 1920 169" fill="none" xmlns="http://www.w3.org/2000/svg">
<path d="M70.7718 131.586C19.8391 134.566 3.537 154.104 0 169H1920C1912.72 137.717 1873.88 151.604 1854.18 153.931C1825.07 122.276 1774.85 132.207 1746.55 136.242C1705.93 114.642 1664.44 127.242 1648.78 136.242C1624.52 105.704 1554.29 112.655 1522.2 119.948C1502.19 97.9762 1450.71 98.69 1427.46 101.793C1425.95 85.5004 1396.39 65.0178 1306.19 65.0178C1291.04 30.756 1234.19 35.5352 1207.66 42.2076C1182.8 16.8836 1132.63 23.8973 1110.65 30.5696C1093.67 5.61805 1042.44 5.27676 1018.94 8.22506C994.079 -6.67132 965.632 2.01824 954.516 8.22506C901.764 -1.08524 869.88 27.0008 860.533 42.2076C815.663 23.9594 779.135 44.9809 761.702 52.5843C713.801 41.7843 677.608 57.6719 670.282 69.7753C620.772 57.8474 593.003 74.6246 579.366 85.4494C526.837 74.6246 487.695 95.1678 480.874 108.202C446.312 93.3058 400.571 93.9909 384.402 103.146C321.266 77.3596 288.191 105.901 266.717 118.315C229.123 116.825 199.872 118.862 189.009 126.931C143.475 104.587 85.1725 116.69 70.7718 131.586Z" fill="#292930"/>
</svg>
