<svg width="84" height="85" viewBox="0 0 84 85" fill="none" xmlns="http://www.w3.org/2000/svg">
<path d="M83.6775 54.3473L41.8386 56.745L0 54.3473V4.76971C0 2.13554 2.13529 0.000244141 4.76946 0.000244141H78.9079C81.5421 0.000244141 83.6773 2.13554 83.6773 4.76971V54.3473H83.6775Z" fill="#EFFBFF"/>
<path d="M83.6772 4.76979V54.3479H80.3133V4.76979C80.3133 2.1348 78.1766 0 75.5435 0H78.9074C81.5423 0 83.6772 2.1348 83.6772 4.76979Z" fill="#D6F6FD"/>
<path d="M78.9081 67.4753H4.76946C2.13529 67.4753 0 65.34 0 62.7058V54.3474H83.6774V62.7058C83.6775 65.34 81.5421 67.4753 78.9081 67.4753Z" fill="#41408C"/>
<path d="M83.6771 54.3479V62.7055C83.6771 65.3403 81.5423 67.4753 78.9073 67.4753H75.54C78.1749 67.4753 80.3098 65.3405 80.3098 62.7055V54.3479H83.6771Z" fill="#88BDE7"/>
<path d="M50.8994 83.7621H32.7773V67.4751L41.5601 66.0532L50.8994 67.4751V83.7621Z" fill="#41408C"/>
<path d="M47.625 67.4751H50.8993V83.7621H47.625V67.4751Z" fill="#88BDE7"/>
<path d="M25.4626 46.1115C35.9217 46.1115 44.4004 37.6328 44.4004 27.1738C44.4004 16.7148 35.9217 8.23608 25.4626 8.23608C15.0036 8.23608 6.5249 16.7148 6.5249 27.1738C6.5249 37.6328 15.0036 46.1115 25.4626 46.1115Z" fill="#FFE54C"/>
<path d="M44.4011 27.174C44.4011 37.6329 35.9224 46.1116 25.4636 46.1116C23.1166 46.1116 20.8706 45.6856 18.7964 44.9028C19.8908 45.0997 21.0172 45.2025 22.167 45.2025C32.6258 45.2025 41.1046 36.7238 41.1046 26.2649C41.1046 18.1531 36.0031 11.2317 28.8342 8.53613C37.6851 10.1256 44.4011 17.8652 44.4011 27.174Z" fill="#FFD500"/>
<path d="M58.2141 46.1115C68.6731 46.1115 77.1518 37.6328 77.1518 27.1738C77.1518 16.7148 68.6731 8.23608 58.2141 8.23608C47.7551 8.23608 39.2764 16.7148 39.2764 27.1738C39.2764 37.6328 47.7551 46.1115 58.2141 46.1115Z" fill="#00D6A0"/>
<path d="M77.1513 27.1738C77.1513 37.6327 68.6726 46.1114 58.2138 46.1114C55.8668 46.1114 53.6191 45.6838 51.5449 44.9008C52.6393 45.0996 53.7674 45.2021 54.9189 45.2021C65.3777 45.2021 73.8564 36.7234 73.8564 26.2646C73.8564 18.1527 68.7566 11.233 61.5877 8.5376C70.437 10.127 77.1513 17.8667 77.1513 27.1738Z" fill="#00CD8B"/>
<path d="M57.0409 85H26.6356C25.9375 85 25.3716 84.4341 25.3716 83.736C25.3716 83.0379 25.9374 82.4719 26.6356 82.4719H57.0411C57.7392 82.4719 58.3051 83.0379 58.3051 83.736C58.3051 84.4341 57.7391 85 57.0409 85Z" fill="#A8CFEE"/>
<path d="M44.3619 62.1753H39.3153C38.6172 62.1753 38.0513 61.6094 38.0513 60.9113C38.0513 60.2132 38.6171 59.6472 39.3153 59.6472H44.3619C45.06 59.6472 45.6259 60.2132 45.6259 60.9113C45.6259 61.6094 45.06 62.1753 44.3619 62.1753Z" fill="#5FAEE2"/>
<path d="M32.3877 20.2847C31.6999 20.2847 31.1426 20.8421 31.1426 21.5298V32.818C31.1426 33.5057 31.6999 34.0631 32.3877 34.0631C33.0755 34.0631 33.6328 33.5057 33.6328 32.818V21.5298C33.6328 20.842 33.0755 20.2847 32.3877 20.2847Z" fill="#FFC700"/>
<path d="M26.3813 20.2844C25.6935 20.2844 25.1362 20.8419 25.1362 21.5295V29.2889C25.1362 29.8773 24.9724 30.6353 23.6939 31.2791C23.3059 31.4745 22.8635 31.5805 22.3908 31.5727C21.8602 31.572 21.3982 31.4413 20.9789 31.1736C20.1294 30.6305 19.7827 30.087 19.7827 29.2971V21.5295C19.7827 20.8419 19.2254 20.2844 18.5376 20.2844C17.8498 20.2844 17.2925 20.8419 17.2925 21.5295V29.2971C17.2925 30.9632 18.0596 32.2634 19.6381 33.272C20.4577 33.7954 21.3826 34.0616 22.3875 34.0629H22.3961C23.2632 34.0629 24.0767 33.8746 24.814 33.5031C27.1385 32.3325 27.6265 30.5653 27.6265 29.2888V21.5294C27.6265 20.8417 27.069 20.2844 26.3813 20.2844Z" fill="#FFC700"/>
<path d="M69.8208 32.1014L66.0726 26.7733L69.2614 22.2466C69.6576 21.6844 69.5229 20.9076 68.9606 20.5115C68.3982 20.1154 67.6217 20.2502 67.2256 20.8123L64.5506 24.6096L61.8797 20.813C61.4844 20.2509 60.708 20.1154 60.145 20.511C59.5826 20.9066 59.4474 21.6834 59.8432 22.2459L63.0274 26.7721L59.2738 32.1006C58.8777 32.6627 59.0123 33.4395 59.5746 33.8356C59.7926 33.9892 60.0428 34.0629 60.2905 34.0629C60.6818 34.0629 61.0671 33.8789 61.3096 33.5348L64.5494 28.9357L67.7844 33.5341C68.0268 33.8788 68.4121 34.0629 68.8039 34.0629C69.0513 34.0629 69.3013 33.9893 69.5193 33.8361C70.0812 33.4407 70.2165 32.6639 69.8208 32.1014Z" fill="#00C376"/>
<path d="M55.4687 20.2844C54.7809 20.2844 54.2236 20.8419 54.2236 21.5295V29.2889C54.2236 29.8773 54.0598 30.6353 52.7813 31.2791C52.3943 31.474 51.9577 31.5728 51.483 31.5728H51.4782C50.9476 31.5722 50.4856 31.4415 50.0663 31.1736C49.2168 30.6307 48.8701 30.0871 48.8701 29.2972V21.5297C48.8701 20.8421 48.3128 20.2846 47.625 20.2846C46.9372 20.2846 46.3799 20.8421 46.3799 21.5297V29.2972C46.3799 30.9635 47.1472 32.2638 48.7255 33.2722C49.5451 33.7956 50.47 34.0617 51.4749 34.0631H51.4835C52.3505 34.0631 53.1638 33.8748 53.9014 33.5033C56.2259 32.3327 56.7139 30.5654 56.7139 29.2889V21.5295C56.7139 20.8417 56.1564 20.2844 55.4687 20.2844Z" fill="#00C376"/>
<path d="M58.3058 83.7367C58.3058 84.434 57.7397 85.0001 57.0407 85.0001H55.0303V82.4717H57.0407C57.7397 82.4717 58.3058 83.0378 58.3058 83.7367Z" fill="#88BDE7"/>
</svg>
