<svg width="31" height="31" viewBox="0 0 31 31" fill="none" xmlns="http://www.w3.org/2000/svg">
<path fill-rule="evenodd" clip-rule="evenodd" d="M17.6361 26.6256V16.4688H21.1105L21.6318 12.5093H17.6361V9.98177C17.6361 8.83577 17.9592 8.05479 19.6366 8.05479L21.7724 8.05393V4.51244C21.4031 4.46536 20.1352 4.35742 18.6595 4.35742C15.578 4.35742 13.4683 6.2023 13.4683 9.58963V12.5093H9.9834V16.4688H13.4683V26.6256H17.6361Z" fill="#556987"/>
<mask id="mask0_507_306" style="mask-type:luminance" maskUnits="userSpaceOnUse" x="9" y="4" width="13" height="23">
<path fill-rule="evenodd" clip-rule="evenodd" d="M17.6361 26.6256V16.4688H21.1105L21.6318 12.5093H17.6361V9.98177C17.6361 8.83577 17.9592 8.05479 19.6366 8.05479L21.7724 8.05393V4.51244C21.4031 4.46536 20.1352 4.35742 18.6595 4.35742C15.578 4.35742 13.4683 6.2023 13.4683 9.58963V12.5093H9.9834V16.4688H13.4683V26.6256H17.6361Z" fill="white"/>
</mask>
<g mask="url(#mask0_507_306)">
</g>
</svg>
