<svg width="31" height="31" viewBox="0 0 31 31" fill="none" xmlns="http://www.w3.org/2000/svg">
<path fill-rule="evenodd" clip-rule="evenodd" d="M9.82533 2.96582H21.0503C24.8625 2.96582 27.964 6.06724 27.9638 9.87919V21.1042C27.9638 24.9161 24.8625 28.0175 21.0503 28.0175H9.82533C6.01338 28.0175 2.91211 24.9163 2.91211 21.1042V9.87919C2.91211 6.06724 6.01338 2.96582 9.82533 2.96582ZM21.0505 25.7949C23.637 25.7949 25.7413 23.6907 25.7413 21.1042H25.7411V9.87922C25.7411 7.29288 23.6368 5.18856 21.0503 5.18856H9.82536C7.23902 5.18856 5.13485 7.29288 5.13485 9.87922V21.1042C5.13485 23.6907 7.23902 25.795 9.82536 25.7949H21.0505ZM8.87685 15.4925C8.87685 11.8745 11.8201 8.93119 15.438 8.93119C19.0559 8.93119 21.9992 11.8745 21.9992 15.4925C21.9992 19.1103 19.0559 22.0535 15.438 22.0535C11.8201 22.0535 8.87685 19.1103 8.87685 15.4925ZM11.1363 15.492C11.1363 17.8641 13.0662 19.7938 15.4382 19.7938C17.8102 19.7938 19.7402 17.8641 19.7402 15.492C19.7402 13.1198 17.8104 11.19 15.4382 11.19C13.0661 11.19 11.1363 13.1198 11.1363 15.492Z" fill="#556987"/>
<mask id="mask0_507_308" style="mask-type:luminance" maskUnits="userSpaceOnUse" x="2" y="2" width="26" height="27">
<path fill-rule="evenodd" clip-rule="evenodd" d="M9.82533 2.96582H21.0503C24.8625 2.96582 27.964 6.06724 27.9638 9.87919V21.1042C27.9638 24.9161 24.8625 28.0175 21.0503 28.0175H9.82533C6.01338 28.0175 2.91211 24.9163 2.91211 21.1042V9.87919C2.91211 6.06724 6.01338 2.96582 9.82533 2.96582ZM21.0505 25.7949C23.637 25.7949 25.7413 23.6907 25.7413 21.1042H25.7411V9.87922C25.7411 7.29288 23.6368 5.18856 21.0503 5.18856H9.82536C7.23902 5.18856 5.13485 7.29288 5.13485 9.87922V21.1042C5.13485 23.6907 7.23902 25.795 9.82536 25.7949H21.0505ZM8.87685 15.4925C8.87685 11.8745 11.8201 8.93119 15.438 8.93119C19.0559 8.93119 21.9992 11.8745 21.9992 15.4925C21.9992 19.1103 19.0559 22.0535 15.438 22.0535C11.8201 22.0535 8.87685 19.1103 8.87685 15.4925ZM11.1363 15.492C11.1363 17.8641 13.0662 19.7938 15.4382 19.7938C17.8102 19.7938 19.7402 17.8641 19.7402 15.492C19.7402 13.1198 17.8104 11.19 15.4382 11.19C13.0661 11.19 11.1363 13.1198 11.1363 15.492Z" fill="white"/>
</mask>
<g mask="url(#mask0_507_308)">
</g>
</svg>
