<svg width="32" height="31" viewBox="0 0 32 31" fill="none" xmlns="http://www.w3.org/2000/svg">
<path d="M25.0676 4.00977H6.69631C5.43329 4.00977 4.3999 5.04315 4.3999 6.30617V24.6774C4.3999 25.9404 5.43329 26.9738 6.69631 26.9738H25.0676C26.3306 26.9738 27.364 25.9404 27.364 24.6774V6.30617C27.364 5.04315 26.3306 4.00977 25.0676 4.00977ZM11.2891 23.5292H7.84451V13.1954H11.2891V23.5292ZM9.56682 11.2434C8.41861 11.2434 7.50005 10.3249 7.50005 9.17668C7.50005 8.02848 8.41861 7.10991 9.56682 7.10991C10.715 7.10991 11.6336 8.02848 11.6336 9.17668C11.6336 10.3249 10.715 11.2434 9.56682 11.2434ZM23.9194 23.5292H20.4747V17.4437C20.4747 16.5252 19.671 15.7214 18.7524 15.7214C17.8339 15.7214 17.0301 16.5252 17.0301 17.4437V23.5292H13.5855V13.1954H17.0301V14.5732C17.6042 13.6547 18.8673 12.9658 19.9006 12.9658C22.0822 12.9658 23.9194 14.8029 23.9194 16.9845V23.5292Z" fill="#556987"/>
</svg>
