<svg width="62" height="62" viewBox="0 0 62 62" fill="none" xmlns="http://www.w3.org/2000/svg">
<circle cx="30.8072" cy="31.1559" r="30.6187" fill="#292930"/>
<path d="M40.2607 32.432C39.98 32.432 39.6866 32.3427 39.4059 32.2789C38.838 32.1519 38.2796 31.9857 37.7347 31.7814C37.1428 31.5661 36.4922 31.5773 35.9081 31.8128C35.324 32.0483 34.8477 32.4915 34.5707 33.0572L34.29 33.644C33.051 32.9413 31.9064 32.0839 30.8837 31.0925C29.8922 30.0698 29.0348 28.9251 28.3321 27.6861L28.919 27.4182C29.4846 27.1413 29.9279 26.6649 30.1634 26.0808C30.3989 25.4967 30.4101 24.8461 30.1948 24.2543C29.9922 23.7045 29.826 23.1419 29.6972 22.5702C29.6334 22.2896 29.5824 21.9961 29.5441 21.7155C29.3892 20.8168 28.9185 20.003 28.2168 19.4206C27.5152 18.8382 26.6286 18.5255 25.7168 18.5388H21.8767C21.3374 18.5381 20.804 18.6514 20.3115 18.8712C19.819 19.0911 19.3785 19.4126 19.0189 19.8146C18.6519 20.2275 18.3786 20.7149 18.2179 21.2435C18.0571 21.772 18.0127 22.3291 18.0876 22.8764C18.7811 28.1864 21.2072 33.1192 24.9896 36.91C28.7804 40.6924 33.7132 43.1185 39.0232 43.812C39.1888 43.8247 39.3551 43.8247 39.5208 43.812C40.4615 43.8134 41.3699 43.4682 42.0723 42.8424C42.4743 42.4828 42.7958 42.0424 43.0156 41.5499C43.2355 41.0574 43.3488 40.524 43.3481 39.9847V36.1573C43.3412 35.2758 43.0302 34.4237 42.4677 33.7449C41.9052 33.0662 41.1256 32.6024 40.2607 32.432ZM40.8858 40.0867C40.8854 40.2647 40.8477 40.4407 40.7752 40.6033C40.7027 40.7659 40.597 40.9115 40.4648 41.0308C40.325 41.1582 40.1586 41.2529 39.9777 41.3081C39.7967 41.3632 39.6058 41.3775 39.4187 41.3497C34.6578 40.728 30.2334 38.5583 26.8267 35.175C23.4172 31.7654 21.2286 27.3255 20.6009 22.5447C20.5732 22.3576 20.5874 22.1667 20.6426 21.9857C20.6978 21.8048 20.7925 21.6384 20.9199 21.4986C21.0406 21.3648 21.1883 21.2581 21.3532 21.1856C21.5181 21.113 21.6965 21.0762 21.8767 21.0776H25.704C25.999 21.0704 26.2872 21.1656 26.5199 21.347C26.7525 21.5285 26.915 21.7849 26.9798 22.0727C26.9798 22.4171 27.0946 22.7744 27.1712 23.1188C27.3186 23.7872 27.5148 24.4438 27.758 25.0835L25.972 25.9255C25.665 26.0665 25.4264 26.3234 25.3085 26.64C25.1809 26.9506 25.1809 27.299 25.3085 27.6096C27.1447 31.5425 30.3061 34.7039 34.239 36.54C34.5496 36.6676 34.898 36.6676 35.2086 36.54C35.5252 36.4222 35.7821 36.1836 35.923 35.8766L36.7268 34.0905C37.385 34.3305 38.0584 34.5266 38.7425 34.6774C39.0742 34.754 39.4314 34.8177 39.7759 34.8688C40.0637 34.9336 40.3201 35.0961 40.5016 35.3287C40.683 35.5613 40.7782 35.8496 40.771 36.1446L40.8858 40.0867ZM33.3587 18.3984C33.0653 18.3984 32.7591 18.3984 32.4657 18.3984C32.1273 18.4272 31.8142 18.5892 31.5953 18.8488C31.3764 19.1084 31.2696 19.4443 31.2983 19.7827C31.3271 20.121 31.4891 20.4341 31.7487 20.653C32.0083 20.8719 32.3442 20.9788 32.6826 20.95H33.3587C35.3889 20.95 37.3359 21.7565 38.7714 23.192C40.2069 24.6275 41.0134 26.5745 41.0134 28.6047C41.0134 28.8343 41.0134 29.0512 41.0134 29.2809C40.9851 29.6174 41.0915 29.9515 41.3091 30.2097C41.5267 30.468 41.8379 30.6295 42.1744 30.6587H42.2764C42.5958 30.66 42.9041 30.5415 43.1403 30.3265C43.3765 30.1115 43.5235 29.8158 43.5522 29.4977C43.5522 29.2043 43.5522 28.8981 43.5522 28.6047C43.5522 25.9 42.4787 23.306 40.5674 21.3923C38.6561 19.4786 36.0634 18.4018 33.3587 18.3984ZM35.9103 28.6047C35.9103 28.943 36.0447 29.2675 36.284 29.5068C36.5232 29.7461 36.8477 29.8805 37.1861 29.8805C37.5244 29.8805 37.8489 29.7461 38.0882 29.5068C38.3274 29.2675 38.4619 28.943 38.4619 28.6047C38.4619 27.2513 37.9242 25.9533 36.9672 24.9962C36.0102 24.0392 34.7122 23.5016 33.3587 23.5016C33.0204 23.5016 32.6959 23.636 32.4566 23.8752C32.2174 24.1145 32.0829 24.439 32.0829 24.7773C32.0829 25.1157 32.2174 25.4402 32.4566 25.6795C32.6959 25.9187 33.0204 26.0531 33.3587 26.0531C34.0354 26.0531 34.6844 26.322 35.163 26.8005C35.6415 27.279 35.9103 27.928 35.9103 28.6047Z" fill="#F0FDF4"/>
</svg>
