<svg width="32" height="31" viewBox="0 0 32 31" fill="none" xmlns="http://www.w3.org/2000/svg">
<path fill-rule="evenodd" clip-rule="evenodd" d="M28.5207 8.02289C27.6499 8.40876 26.7156 8.67045 25.7338 8.78728C26.7362 8.187 27.5036 7.23488 27.8672 6.10385C26.9269 6.65974 25.889 7.06339 24.7831 7.2822C23.8975 6.33747 22.6379 5.74902 21.2407 5.74902C18.5603 5.74902 16.3869 7.92237 16.3869 10.6014C16.3869 10.9813 16.4298 11.3524 16.5126 11.7073C12.4793 11.5047 8.90294 9.57235 6.5093 6.63608C6.09089 7.35168 5.85286 8.1855 5.85286 9.07557C5.85286 10.7596 6.71037 12.2454 8.01144 13.1147C7.21601 13.0881 6.4679 12.8693 5.81296 12.5056V12.5662C5.81296 14.917 7.48659 16.8789 9.70575 17.3254C9.29917 17.4348 8.87043 17.4955 8.42688 17.4955C8.11346 17.4955 7.81037 17.4644 7.51319 17.4053C8.13117 19.3347 9.9231 20.7377 12.0462 20.7762C10.3859 22.0772 8.29234 22.8505 6.01848 22.8505C5.6267 22.8505 5.24079 22.8268 4.86084 22.784C7.00906 24.1634 9.55943 24.9677 12.3005 24.9677C21.229 24.9677 26.1094 17.5723 26.1094 11.1588L26.0931 10.5304C27.0467 9.85027 27.8717 8.99573 28.5207 8.02289Z" fill="#556987"/>
</svg>
