<svg width="109" height="108" viewBox="0 0 109 108" fill="none" xmlns="http://www.w3.org/2000/svg">
<g clip-path="url(#clip0_1266_916)">
<path d="M89.5757 93.871C99.5359 84.4506 105.751 71.1117 105.751 56.3202C105.751 27.7782 82.6135 4.64026 54.0715 4.64026C25.5295 4.64026 2.3916 27.7782 2.3916 56.3202C2.3916 84.8621 25.5295 108 54.0715 108C56.3081 108 58.5115 107.858 60.6732 107.582L89.5757 93.871Z" fill="#816AE2"/>
<path d="M83.7787 77.111C83.3252 75.4444 83.1653 73.7116 83.3062 71.9901L84.1502 64.0409C84.5621 59.0533 83.8019 54.0562 81.594 49.5651C75.8892 37.9608 77.1979 37.1187 77.0207 25.6018C77.0207 23.2492 75.1134 21.3417 72.7606 21.3417C70.4078 21.3417 68.5005 23.249 68.5005 25.6018C68.5005 72.4366 68.5876 68.9998 68.2989 70.373V76.5058C68.2989 81.673 64.0951 85.877 58.928 85.877C55.4962 85.877 43.6616 85.877 35.6084 85.877C39.191 90.8593 44.0921 94.7604 49.7798 97.1227C49.815 97.1372 49.8503 97.152 49.8855 97.167C54.2799 99.023 59.1866 102.727 60.0065 107.322L60.0858 107.65C71.658 106.309 82.0638 101.146 90.0094 93.4547L83.7787 77.111Z" fill="#F9BA8F"/>
<path d="M19.7861 21.4906L18.4886 20.2885C16.4883 18.4352 13.3354 18.5554 11.4821 20.5555C9.62885 22.5558 9.74908 25.7087 11.7492 27.562L19.7861 35.0088V21.4906Z" fill="#F9BA8F"/>
<path d="M14.3861 23.8353C13.1591 22.6984 12.6429 21.0729 12.8524 19.524C12.3516 19.7803 11.8852 20.1207 11.4821 20.5555C9.62885 22.5558 9.74908 25.7087 11.7492 27.562L19.7861 35.0087V28.839L14.3861 23.8353Z" fill="#FCAD6D"/>
<path d="M84.1674 78.1288C82.4077 90.2632 71.9642 99.5851 59.3421 99.5851C57.1629 99.5851 55.0489 99.3069 53.0332 98.7848C56.3751 100.828 59.3814 103.815 60.007 107.322L60.0863 107.65C71.6586 106.308 82.0641 101.146 90.0099 93.4544L84.1674 78.1288Z" fill="#FD995B"/>
<path d="M61.1619 86.0784H26.9405C22.8937 86.0784 19.6016 82.7861 19.6016 78.7392V7.33921C19.6016 3.29237 22.8937 6.10352e-05 26.9405 6.10352e-05H61.1619C65.2088 6.10352e-05 68.5009 3.29237 68.5009 7.33921V78.7394C68.5009 82.7861 65.2086 86.0784 61.1619 86.0784Z" fill="#2A428C"/>
<path d="M26.9405 6.10352e-05C22.8937 6.10352e-05 19.6016 3.29237 19.6016 7.339V78.7392C19.6016 82.7861 22.8939 86.0784 26.9405 86.0784H37.1423C34.8781 83.7686 37.519 81.5122 37.519 81.5122C33.7924 80.5345 34.1088 76.618 34.1088 76.618C34.1088 76.618 34.1088 16.7654 34.1088 13.0212C34.1088 9.27709 37.912 8.33146 37.912 8.33146C36.4139 6.83338 37.912 5.25915 37.912 5.25915V2.72263C36.5301 1.84682 36.8022 0.654389 37.103 6.10352e-05L26.9405 6.10352e-05Z" fill="#142766"/>
<path d="M38.6447 5.25939H37.9119C37.2114 5.25939 36.6436 4.69155 36.6436 3.99102C36.6436 3.2905 37.2114 2.72266 37.9119 2.72266H38.6447C39.3452 2.72266 39.9131 3.2905 39.9131 3.99102C39.9131 4.69155 39.3452 5.25939 38.6447 5.25939Z" fill="#3C58A0"/>
<path d="M50.015 5.25939H42.9734C42.2729 5.25939 41.7051 4.69155 41.7051 3.99102C41.7051 3.2905 42.2729 2.72266 42.9734 2.72266H50.015C50.7155 2.72266 51.2833 3.2905 51.2833 3.99102C51.2833 4.69155 50.7155 5.25939 50.015 5.25939Z" fill="#3C58A0"/>
<path d="M61.1624 4.56604H56.0191C55.0602 4.56604 54.2831 5.34334 54.2831 6.30206C54.2831 7.41813 53.3699 8.33149 52.2539 8.33149H35.8499C34.7338 8.33149 33.8205 7.41834 33.8205 6.30206C33.8205 5.34334 33.0432 4.56604 32.0845 4.56604H26.941C25.4095 4.56604 24.168 5.80762 24.168 7.33902V78.7393C24.168 80.2707 25.4095 81.5122 26.941 81.5122H61.1624C62.6938 81.5122 63.9354 80.2707 63.9354 78.7393C63.9354 71.3946 63.9354 9.29927 63.9354 7.33902C63.9354 5.80762 62.6938 4.56604 61.1624 4.56604Z" fill="#73C3F9"/>
<path d="M37.5193 81.5124C36.9919 79.237 39.6312 78.7055 39.6312 78.7055C39.6312 78.7055 41.3098 64.0012 39.6312 62.3226C37.9525 60.644 39.6312 59.0588 39.6312 59.0588C39.6312 59.0588 41.4651 44.51 39.6312 42.6759C37.7973 40.842 39.6312 39.412 39.6312 39.412V23.0292C36.3464 20.9552 38.0742 17.9711 38.0742 17.9711V13.2725C35.5921 10.7904 37.9114 8.33251 37.9122 8.33167H35.8497C34.7336 8.33167 33.8203 7.41852 33.8203 6.30224C33.8203 5.34353 33.043 4.56622 32.0842 4.56622H26.941C25.4095 4.56622 24.168 5.80759 24.168 7.33921V78.7397C24.168 80.2711 25.4095 81.5126 26.941 81.5126H37.5193V81.5124Z" fill="#4FABF7"/>
<path d="M33.7342 17.9709H54.3679C55.6654 17.9709 56.7171 16.9191 56.7171 15.6217C56.7171 14.3242 55.6654 13.2725 54.3679 13.2725H33.7342C32.4367 13.2725 31.3848 14.3242 31.3848 15.6217C31.3848 16.9194 32.4367 17.9709 33.7342 17.9709Z" fill="#E9EFFF"/>
<path d="M33.735 13.2725H38.0744V17.9711H33.735C32.4375 17.9711 31.3857 16.9194 31.3857 15.6219C31.3855 14.324 32.4375 13.2725 33.735 13.2725Z" fill="#9BD8F9"/>
<path d="M58.5382 39.4118H29.5653C28.4031 39.4118 27.4521 38.4609 27.4521 37.2986V25.1421C27.4521 23.9798 28.4031 23.0289 29.5653 23.0289H58.5382C59.7005 23.0289 60.6514 23.9798 60.6514 25.1421V37.2986C60.6514 38.4609 59.7005 39.4118 58.5382 39.4118Z" fill="#E9EFFF"/>
<path d="M58.5382 59.0585H29.5653C28.4031 59.0585 27.4521 58.1076 27.4521 56.9454V44.7888C27.4521 43.6266 28.4031 42.6757 29.5653 42.6757H58.5382C59.7005 42.6757 60.6514 43.6266 60.6514 44.7888V56.9454C60.6514 58.1076 59.7005 59.0585 58.5382 59.0585Z" fill="#E9EFFF"/>
<path d="M58.5382 78.7053H29.5653C28.4031 78.7053 27.4521 77.7544 27.4521 76.5921V64.4356C27.4521 63.2733 28.4031 62.3224 29.5653 62.3224H58.5382C59.7005 62.3224 60.6514 63.2733 60.6514 64.4356V76.5921C60.6514 77.7544 59.7005 78.7053 58.5382 78.7053Z" fill="#E9EFFF"/>
<path d="M58.5382 39.4118H29.5653C28.4031 39.4118 27.4521 38.4609 27.4521 37.2986V25.1421C27.4521 23.9798 28.4031 23.0289 29.5653 23.0289H58.5382C59.7005 23.0289 60.6514 23.9798 60.6514 25.1421V37.2986C60.6514 38.4609 59.7005 39.4118 58.5382 39.4118Z" fill="#E9EFFF"/>
<path d="M58.5382 59.0585H29.5653C28.4031 59.0585 27.4521 58.1076 27.4521 56.9454V44.7888C27.4521 43.6266 28.4031 42.6757 29.5653 42.6757H58.5382C59.7005 42.6757 60.6514 43.6266 60.6514 44.7888V56.9454C60.6514 58.1076 59.7005 59.0585 58.5382 59.0585Z" fill="#E9EFFF"/>
<path d="M58.5382 78.7053H29.5653C28.4031 78.7053 27.4521 77.7544 27.4521 76.5921V64.4356C27.4521 63.2733 28.4031 62.3224 29.5653 62.3224H58.5382C59.7005 62.3224 60.6514 63.2733 60.6514 64.4356V76.5921C60.6514 77.7544 59.7005 78.7053 58.5382 78.7053Z" fill="#E9EFFF"/>
<path d="M37.5181 37.2987V25.1423C37.5181 23.9801 38.469 23.0292 39.6313 23.0292H29.5653C28.4031 23.0292 27.4521 23.9801 27.4521 25.1423V37.2987C27.4521 38.4609 28.4031 39.4118 29.5653 39.4118H39.6313C38.469 39.4118 37.5181 38.4609 37.5181 37.2987Z" fill="#D3DCFB"/>
<path d="M37.5181 56.9454V44.7888C37.5181 43.6266 38.469 42.6757 39.6313 42.6757H29.5653C28.4031 42.6757 27.4521 43.6266 27.4521 44.7888V56.9454C27.4521 58.1076 28.4031 59.0585 29.5653 59.0585H39.6313C38.469 59.0585 37.5181 58.1076 37.5181 56.9454Z" fill="#D3DCFB"/>
<path d="M37.5181 76.5921V64.4356C37.5181 63.2733 38.469 62.3224 39.6313 62.3224H29.5653C28.4031 62.3224 27.4521 63.2733 27.4521 64.4356V76.5921C27.4521 77.7544 28.4031 78.7053 29.5653 78.7053H39.6313C38.469 78.7053 37.5181 77.7544 37.5181 76.5921Z" fill="#D3DCFB"/>
<path d="M42.9087 29.8239H34.4355C33.5618 29.8239 32.8535 29.1157 32.8535 28.2418C32.8535 27.3679 33.5618 26.6598 34.4355 26.6598H42.9087C43.7824 26.6598 44.4907 27.3679 44.4907 28.2418C44.4907 29.1155 43.7824 29.8239 42.9087 29.8239Z" fill="#3C58A0"/>
<path d="M53.6665 35.7812H34.4355C33.5618 35.7812 32.8535 35.0731 32.8535 34.1992C32.8535 33.3252 33.5618 32.6171 34.4355 32.6171H53.6665C54.5402 32.6171 55.2485 33.3252 55.2485 34.1992C55.2485 35.0731 54.5402 35.7812 53.6665 35.7812Z" fill="#BEC8F7"/>
<path d="M49.5186 29.8239H48.3232C47.4495 29.8239 46.7412 29.1157 46.7412 28.2418C46.7412 27.3679 47.4495 26.6598 48.3232 26.6598H49.5186C50.3923 26.6598 51.1007 27.3679 51.1007 28.2418C51.1007 29.1155 50.3925 29.8239 49.5186 29.8239Z" fill="#BEC8F7"/>
<path d="M42.9087 49.4706H34.4355C33.5618 49.4706 32.8535 48.7625 32.8535 47.8885C32.8535 47.0146 33.5618 46.3065 34.4355 46.3065H42.9087C43.7824 46.3065 44.4907 47.0146 44.4907 47.8885C44.4907 48.7625 43.7824 49.4706 42.9087 49.4706Z" fill="#3C58A0"/>
<path d="M53.6665 55.4279H34.4355C33.5618 55.4279 32.8535 54.7198 32.8535 53.8459C32.8535 52.972 33.5618 52.2639 34.4355 52.2639H53.6665C54.5402 52.2639 55.2485 52.972 55.2485 53.8459C55.2485 54.7196 54.5402 55.4279 53.6665 55.4279Z" fill="#BEC8F7"/>
<path d="M49.5186 49.4706H48.3232C47.4495 49.4706 46.7412 48.7625 46.7412 47.8885C46.7412 47.0146 47.4495 46.3065 48.3232 46.3065H49.5186C50.3923 46.3065 51.1007 47.0146 51.1007 47.8885C51.1007 48.7625 50.3925 49.4706 49.5186 49.4706Z" fill="#BEC8F7"/>
<path d="M42.9087 69.1173H34.4355C33.5618 69.1173 32.8535 68.409 32.8535 67.5353C32.8535 66.6614 33.5618 65.9532 34.4355 65.9532H42.9087C43.7824 65.9532 44.4907 66.6614 44.4907 67.5353C44.4907 68.4092 43.7824 69.1173 42.9087 69.1173Z" fill="#3C58A0"/>
<path d="M53.6665 75.0746H34.4355C33.5618 75.0746 32.8535 74.3665 32.8535 73.4926C32.8535 72.6186 33.5618 71.9105 34.4355 71.9105H53.6665C54.5402 71.9105 55.2485 72.6186 55.2485 73.4926C55.2485 74.3665 54.5402 75.0746 53.6665 75.0746Z" fill="#BEC8F7"/>
<path d="M49.5186 69.1173H48.3232C47.4495 69.1173 46.7412 68.409 46.7412 67.5353C46.7412 66.6614 47.4495 65.9532 48.3232 65.9532H49.5186C50.3923 65.9532 51.1007 66.6614 51.1007 67.5353C51.1007 68.4092 50.3925 69.1173 49.5186 69.1173Z" fill="#BEC8F7"/>
<path d="M27.0018 47.6386C25.371 49.3984 22.6225 49.5033 20.8627 47.8725L13.586 41.1301C11.8261 39.4996 11.7213 36.7508 13.352 34.991C14.9828 33.2311 17.7313 33.1263 19.4911 34.7571L26.7679 41.4995C28.5277 43.1302 28.6325 45.8787 27.0018 47.6386Z" fill="#F9BA8F"/>
<path d="M23.8563 44.8078L16.5796 38.0654C15.3625 36.9378 14.9383 35.2756 15.3308 33.7754C14.5972 33.9872 13.9089 34.3903 13.352 34.9912C11.7213 36.7511 11.8261 39.4998 13.586 41.1304L20.8627 47.8728C22.6225 49.5033 25.371 49.3987 27.0018 47.6388C27.5047 47.0961 27.8413 46.4589 28.0164 45.7898C26.6016 46.1979 25.0152 45.8817 23.8563 44.8078Z" fill="#FCAD6D"/>
<path d="M27.0018 71.3373C25.371 73.0971 22.6225 73.2019 20.8627 71.5712L13.586 64.8288C11.8261 63.1982 11.7213 60.4495 13.352 58.6897C14.9828 56.9298 17.7313 56.825 19.4911 58.4557L26.7679 65.1981C28.5277 66.8287 28.6325 69.5774 27.0018 71.3373Z" fill="#F9BA8F"/>
<path d="M23.8563 68.5062L16.5796 61.7638C15.3625 60.6361 14.9383 58.9739 15.3308 57.4738C14.5972 57.6855 13.9089 58.0886 13.352 58.6896C11.7213 60.4495 11.8261 63.1982 13.586 64.8287L20.8627 71.5711C22.6225 73.2017 25.371 73.0971 27.0018 71.3372C27.5047 70.7945 27.8413 70.1572 28.0164 69.4881C26.6016 69.8965 25.0152 69.5801 23.8563 68.5062Z" fill="#FCAD6D"/>
<path d="M27.0018 59.488C25.371 61.2479 22.6225 61.3527 20.8627 59.7219L13.586 52.9795C11.8261 51.349 11.7213 48.6003 13.352 46.8404C14.9828 45.0806 17.7313 44.9757 19.4911 46.6065L26.7679 53.3489C28.5277 54.9794 28.6325 57.7279 27.0018 59.488Z" fill="#F9BA8F"/>
<path d="M23.8563 56.657L16.5796 49.9146C15.3625 48.7869 14.9383 47.1248 15.3308 45.6246C14.5972 45.8364 13.9087 46.2395 13.352 46.8404C11.7213 48.6003 11.8261 51.3488 13.586 52.9795L20.8627 59.7219C22.6225 61.3527 25.371 61.2479 27.0018 59.488C27.5047 58.9453 27.8413 58.308 28.0164 57.6389C26.6016 58.0473 25.0152 57.7309 23.8563 56.657Z" fill="#FCAD6D"/>
<path d="M89.1013 18.3278C86.2961 21.896 83.7644 27.0226 85.7883 32.6171C89.5852 43.1119 95.6322 52.0212 92.8195 67.5353C91.5434 74.5747 95.7311 77.5255 100.687 78.6489C103.931 71.8901 105.751 64.3183 105.751 56.3201C105.751 41.2955 99.3375 27.7708 89.1013 18.3278Z" fill="#9181F2"/>
</g>
<defs>
<clipPath id="clip0_1266_916">
<rect width="108" height="108" fill="white" transform="translate(0.0712891 6.10352e-05)"/>
</clipPath>
</defs>
</svg>
