<svg width="89" height="89" viewBox="0 0 89 89" fill="none" xmlns="http://www.w3.org/2000/svg">
<g clip-path="url(#clip0_1267_1607)">
<path d="M63.3177 74.7555H5.9535C3.03058 74.7555 0.661133 72.386 0.661133 69.4631V34.9961C0.661133 31.505 3.49123 28.6749 6.98239 28.6749H63.3171C66.8083 28.6749 69.6384 31.505 69.6384 34.9961V68.4349C69.6382 71.9257 66.8085 74.7555 63.3177 74.7555Z" fill="#D9DDFF"/>
<path d="M44.2425 87.6768H26.0566L29.1131 74.7555H41.1861L44.2425 87.6768Z" fill="#6967BF"/>
<path d="M41.1864 74.7557H34.1299L37.1863 87.6768H44.2429L41.1864 74.7557Z" fill="#5B59B2"/>
<path d="M0.661133 63.6359V69.4631C0.661133 72.386 3.03058 74.7555 5.9535 74.7555H64.346C67.2689 74.7555 69.6384 72.386 69.6384 69.4631V63.6359H0.661133Z" fill="#7776D0"/>
<path d="M49.9682 86.3538H20.3308C19.6 86.3538 19.0078 86.9462 19.0078 87.6768C19.0078 88.4076 19.6 89 20.3308 89H49.9682C50.6989 89 51.2913 88.4076 51.2913 87.6768C51.2912 86.9462 50.6989 86.3538 49.9682 86.3538Z" fill="#7776D0"/>
<path d="M38.8896 44.0781L37.3285 35.9087C37.1915 35.2364 36.6177 34.7396 35.9325 34.7006C35.2462 34.6587 34.6207 35.0902 34.4085 35.7427C34.4035 35.7582 34.3986 35.7737 34.3943 35.7893L33.1566 40.1312L31.8718 35.7763C31.8671 35.7603 31.8621 35.7443 31.8569 35.7285C31.6379 35.0782 31.0076 34.6558 30.3223 34.702C29.6376 34.7479 29.0689 35.2504 28.9357 35.94L27.4646 44.0913C27.3349 44.8105 27.8126 45.4986 28.5317 45.6283C29.2503 45.7575 29.939 45.2805 30.0687 44.5612L30.6896 41.1206L31.727 44.637C31.7317 44.6528 31.7366 44.6684 31.7418 44.6841C31.9492 45.3015 32.5244 45.7147 33.1752 45.7147H33.1835C33.8373 45.7112 34.4122 45.2909 34.6138 44.6688C34.6187 44.6538 34.6234 44.6389 34.6275 44.6236L35.6288 41.1112L36.2907 44.5746C36.4279 45.2923 37.1207 45.7632 37.8387 45.6259C38.5564 45.4889 39.0269 44.7959 38.8896 44.0781Z" fill="white"/>
<path d="M15.7211 42.1962C15.1612 41.7269 14.3267 41.8004 13.8573 42.3605C13.7932 42.4371 13.7242 42.5084 13.6522 42.5727C13.2825 42.9018 12.8059 43.0686 12.235 43.0686C10.6568 43.0686 9.37275 41.7846 9.37275 40.2066C9.37275 38.6284 10.6568 37.3445 12.235 37.3445C12.8086 37.3445 13.3618 37.5133 13.834 37.8324C14.4402 38.2418 15.262 38.0822 15.6712 37.4768C16.0803 36.8713 15.921 36.0488 15.3156 35.6397C14.4039 35.0237 13.3385 34.6981 12.235 34.6981C9.19753 34.6981 6.72656 37.1691 6.72656 40.2064C6.72656 43.2437 9.19753 45.7147 12.235 45.7147C13.4568 45.7147 14.5553 45.3114 15.4121 44.5486C15.5798 44.3991 15.7392 44.2347 15.8857 44.0598C16.3549 43.5001 16.2814 42.6655 15.7211 42.1962Z" fill="white"/>
<path d="M25.405 38.1966C25.405 36.2675 23.7804 34.6982 21.7835 34.6982H19.5592C19.5587 34.6982 19.5583 34.6982 19.5578 34.6982C19.5573 34.6982 19.5569 34.6982 19.5564 34.6982C18.8256 34.6982 18.2334 35.2906 18.2334 36.0212V44.3917C18.2334 45.1225 18.8256 45.7149 19.5564 45.7149C20.2872 45.7149 20.8794 45.1225 20.8794 44.3917V42.7556L23.0888 45.2657C23.3502 45.563 23.7156 45.7147 24.0825 45.7147C24.393 45.7147 24.7048 45.6061 24.9562 45.3848C25.5048 44.9021 25.558 44.066 25.0753 43.5175L23.219 41.4085C24.5037 40.8705 25.405 39.6333 25.405 38.1966ZM21.7833 37.3444C22.3029 37.3444 22.7588 37.7426 22.7588 38.1966C22.7588 38.6507 22.3031 39.0489 21.7833 39.0489C21.5678 39.0489 21.234 39.05 20.8904 39.0515C20.8888 38.7209 20.8876 38.4023 20.8876 38.1965C20.8876 38.0192 20.8869 37.692 20.886 37.3442H21.7833V37.3444Z" fill="white"/>
<path d="M81.2613 16.1622V45.0168C81.2613 47.6176 79.153 49.726 76.5521 49.726H65.2107L57.487 55.4753V49.726H51.9064C49.3056 49.726 47.1973 47.6176 47.1973 45.0168V16.1622C47.1973 13.5614 49.3056 11.453 51.9064 11.453H76.552C79.1528 11.4528 81.2613 13.5614 81.2613 16.1622Z" fill="#FFF5B5"/>
<path d="M76.5517 11.4526H69.4951C72.0959 11.4526 74.2043 13.561 74.2043 16.1618V45.0164C74.2043 47.6172 72.0959 49.7256 69.4951 49.7256H76.5517C79.1525 49.7256 81.2608 47.6172 81.2608 45.0164V16.162C81.261 13.5612 79.1527 11.4526 76.5517 11.4526Z" fill="#FFEF8F"/>
<path d="M57.862 33.8443V27.8577C57.862 27.1269 57.2698 26.5347 56.5388 26.5347C55.8079 26.5347 55.2158 27.1271 55.2158 27.8577V33.8443C55.2158 34.5751 55.8081 35.1673 56.5388 35.1673C57.2696 35.1673 57.862 34.5751 57.862 33.8443Z" fill="#FFD54D"/>
<path d="M73.2429 33.8443V27.8577C73.2429 27.1269 72.6506 26.5347 71.9197 26.5347C71.1887 26.5347 70.5967 27.1271 70.5967 27.8577V33.8443C70.5967 34.5751 71.1889 35.1673 71.9197 35.1673C72.6505 35.1673 73.2429 34.5751 73.2429 33.8443Z" fill="#FFD54D"/>
<path d="M64.229 26.4125C62.5449 26.4125 61.1748 27.7826 61.1748 29.4666V32.2352C61.1748 33.9194 62.5449 35.2895 64.229 35.2895C65.9132 35.2895 67.2833 33.9194 67.2833 32.2352V29.4666C67.2833 27.7828 65.9132 26.4125 64.229 26.4125ZM64.6371 32.2354C64.6371 32.4605 64.4539 32.6435 64.229 32.6435C64.004 32.6435 63.821 32.4605 63.821 32.2354V29.4668C63.821 29.2419 64.004 29.0588 64.229 29.0588C64.4539 29.0588 64.6371 29.2419 64.6371 29.4668V32.2354Z" fill="#FFD54D"/>
<path d="M64.2293 24.9986C64.96 24.9986 65.5524 24.4062 65.5524 23.6756V17.6889C65.5524 16.9581 64.9602 16.3659 64.2293 16.3659C63.4983 16.3659 62.9062 16.9583 62.9062 17.6889V23.6756C62.9062 24.4062 63.4985 24.9986 64.2293 24.9986Z" fill="#FFD54D"/>
<path d="M56.5385 16.2435C54.8545 16.2435 53.4844 17.6136 53.4844 19.2979V22.0664C53.4844 23.7505 54.8545 25.1206 56.5385 25.1206C58.2228 25.1206 59.5929 23.7505 59.5929 22.0664V19.2979C59.5929 17.6136 58.2226 16.2435 56.5385 16.2435ZM56.9467 22.0664C56.9467 22.2914 56.7635 22.4744 56.5385 22.4744C56.3136 22.4744 56.1306 22.2914 56.1306 22.0664V19.2979C56.1306 19.0728 56.3136 18.8897 56.5385 18.8897C56.7635 18.8897 56.9467 19.0728 56.9467 19.2979V22.0664Z" fill="#FFD54D"/>
<path d="M71.9194 16.2435C70.2353 16.2435 68.8652 17.6136 68.8652 19.2979V22.0664C68.8652 23.7505 70.2353 25.1206 71.9194 25.1206C73.6036 25.1206 74.9737 23.7505 74.9737 22.0664V19.2979C74.9737 17.6136 73.6036 16.2435 71.9194 16.2435ZM72.3275 22.0664C72.3275 22.2914 72.1445 22.4744 71.9194 22.4744C71.6945 22.4744 71.5114 22.2914 71.5114 22.0664V19.2979C71.5114 19.0728 71.6945 18.8897 71.9194 18.8897C72.1443 18.8897 72.3275 19.0728 72.3275 19.2979V22.0664Z" fill="#FFD54D"/>
<path d="M64.2293 36.7038C63.4985 36.7038 62.9062 37.2962 62.9062 38.0268V44.0134C62.9062 44.7442 63.4985 45.3365 64.2293 45.3365C64.96 45.3365 65.5524 44.744 65.5524 44.0134V38.0268C65.5524 37.296 64.9602 36.7038 64.2293 36.7038Z" fill="#FFD54D"/>
<path d="M56.5385 36.5814C54.8545 36.5814 53.4844 37.9515 53.4844 39.6358V42.4043C53.4844 44.0884 54.8545 45.4585 56.5385 45.4585C58.2228 45.4585 59.5929 44.0884 59.5929 42.4043V39.6358C59.5929 37.9517 58.2226 36.5814 56.5385 36.5814ZM56.9467 42.4045C56.9467 42.6294 56.7635 42.8125 56.5385 42.8125C56.3136 42.8125 56.1306 42.6294 56.1306 42.4045V39.6359C56.1306 39.4108 56.3136 39.2278 56.5385 39.2278C56.7635 39.2278 56.9467 39.4108 56.9467 39.6359V42.4045Z" fill="#FFD54D"/>
<path d="M71.9194 36.5814C70.2353 36.5814 68.8652 37.9515 68.8652 39.6358V42.4043C68.8652 44.0884 70.2353 45.4585 71.9194 45.4585C73.6036 45.4585 74.9737 44.0884 74.9737 42.4043V39.6358C74.9737 37.9517 73.6036 36.5814 71.9194 36.5814ZM72.3275 42.4045C72.3275 42.6294 72.1445 42.8125 71.9194 42.8125C71.6945 42.8125 71.5114 42.6294 71.5114 42.4045V39.6359C71.5114 39.4108 71.6945 39.2278 71.9194 39.2278C72.1443 39.2278 72.3275 39.4108 72.3275 39.6359V42.4045Z" fill="#FFD54D"/>
<path d="M81.7991 71.8925C82.277 72.8291 82.5483 73.8888 82.5483 75.0122C82.5483 78.8093 79.4702 81.8873 75.6733 81.8873C72.9998 81.8873 70.6846 80.3604 69.5474 78.1319L64.3857 80.7605C66.4805 84.8657 70.7485 87.6766 75.6734 87.6766C82.6679 87.6766 88.338 82.0065 88.338 75.012C88.338 72.9424 87.8414 70.9888 86.9611 69.2635L81.7991 71.8925Z" fill="#A6F5CF"/>
<path d="M68.7983 75.0123C68.7983 71.2151 71.8765 68.1372 75.6734 68.1372V62.3477C68.6789 62.3477 63.0088 68.0178 63.0088 75.0123C63.0088 77.0818 63.5054 79.0355 64.3859 80.7607L69.5475 78.1321C69.0695 77.1955 68.7983 76.1359 68.7983 75.0123Z" fill="#FFD54D"/>
<path d="M81.7999 71.8926L86.9615 69.2639C84.8667 65.1588 80.5987 62.3478 75.6738 62.3478V68.1374C78.3473 68.1372 80.6625 69.6641 81.7999 71.8926Z" fill="#FF8CCC"/>
<path d="M6.63184 13.7665H14.4642V21.9508H6.63184V13.7665Z" fill="#FFD54D"/>
<path d="M30.5811 8.76025H38.4134V21.9509H30.5811V8.76025Z" fill="#A6F5CF"/>
<path d="M18.6064 0H26.4388V21.9508H18.6064V0Z" fill="#FF8CCC"/>
<path d="M39.0525 48.9808H8.09058C7.35981 48.9808 6.76758 49.5732 6.76758 50.304C6.76758 51.0347 7.35981 51.627 8.09058 51.627H39.0525C39.7833 51.627 40.3755 51.0346 40.3755 50.304C40.3757 49.5732 39.7833 48.9808 39.0525 48.9808Z" fill="white"/>
<path d="M24.8942 54.7157H8.09058C7.35981 54.7157 6.76758 55.3081 6.76758 56.0389C6.76758 56.7697 7.35981 57.3619 8.09058 57.3619H24.8942C25.625 57.3619 26.2172 56.7695 26.2172 56.0389C26.2174 55.3081 25.625 54.7157 24.8942 54.7157Z" fill="white"/>
</g>
<defs>
<clipPath id="clip0_1267_1607">
<rect width="89" height="89" fill="white"/>
</clipPath>
</defs>
</svg>
