<svg width="107" height="107" viewBox="0 0 107 107" fill="none" xmlns="http://www.w3.org/2000/svg">
<path d="M9.19531 66.666C9.19531 63.9005 11.4454 61.6504 14.2109 61.6504H92.7891C95.5546 61.6504 97.8047 63.9005 97.8047 66.666V81.4755C102.189 73.927 104.701 65.1567 104.701 55.7988C104.701 27.5212 81.7777 4.59766 53.5 4.59766C25.2223 4.59766 2.29883 27.5212 2.29883 55.7988C2.29883 65.1567 4.81103 73.9272 9.19531 81.4755V66.666Z" fill="#8379C1"/>
<path d="M20.918 95.2969C29.7705 102.608 41.1222 107 53.4999 107C65.8776 107 77.2294 102.608 86.0818 95.2969H20.918Z" fill="#8379C1"/>
<path d="M89.2447 61.6504C89.4451 60.1112 89.5498 58.542 89.5498 56.9482C89.5498 37.0385 73.4097 20.8984 53.5 20.8984C33.5903 20.8984 17.4502 37.0385 17.4502 56.9482C17.4502 58.542 17.5549 60.1112 17.7553 61.6504H89.2447Z" fill="#6E61B6"/>
<path d="M95.2597 15.6256H93.3523C92.4514 15.6256 91.6537 15.0473 91.3699 14.1921C91.2708 13.8935 91.1619 13.5994 91.0439 13.31C90.7279 12.5363 90.9151 11.6486 91.5059 11.0576L92.8223 9.74118C93.6384 8.9251 93.6384 7.60181 92.8223 6.78572L90.5636 4.52702C89.7475 3.71094 88.4242 3.71094 87.6082 4.52702L86.5601 5.57508C85.934 6.20119 84.9785 6.37089 84.1829 5.98239C83.8103 5.80036 83.4283 5.63422 83.0379 5.48521C82.2396 5.1803 81.724 4.39954 81.724 3.545V2.08984C81.724 0.935623 80.7884 0 79.6341 0H76.44C75.2858 0 74.3502 0.935623 74.3502 2.08984V3.545C74.3502 4.39954 73.8346 5.1803 73.0363 5.48521C72.6459 5.63422 72.2641 5.80036 71.8913 5.98239C71.0957 6.37089 70.1402 6.20119 69.5141 5.57528L68.466 4.52723C67.6499 3.71114 66.3266 3.71114 65.5106 4.52723L63.2519 6.78572C62.4358 7.60181 62.4358 8.9251 63.2519 9.74118L64.5685 11.0576C65.1593 11.6484 65.3463 12.5363 65.0305 13.31C64.9125 13.5992 64.8036 13.8935 64.7045 14.1919C64.4209 15.0471 63.623 15.6253 62.7221 15.6253H60.8145C60.226 15.6253 59.6954 15.8694 59.3154 16.2609V16.6441C59.3154 18.027 60.1957 19.2878 61.5056 19.7816C62.2122 20.0479 62.9152 20.3545 63.5954 20.6926C64.0527 20.92 64.5448 21.0353 65.0577 21.0353C65.9457 21.0353 66.8176 20.6727 67.4499 20.0403L69.4848 18.0053C70.0376 17.4527 70.7722 17.1484 71.5536 17.1484C72.3352 17.1484 73.0699 17.4527 73.6225 18.0053L77.7092 22.0919C78.8498 23.2328 78.8498 25.089 77.7092 26.2298L75.2354 28.7034C74.2699 29.6691 73.9801 31.095 74.4975 32.3357C74.737 32.9104 74.955 33.5019 75.146 34.0937C75.5909 35.473 76.8676 36.3994 78.3232 36.3994H81.7238V33.6774C81.7238 32.82 82.2475 32.0496 83.0448 31.7343L83.3445 31.6156C84.1192 31.309 85.0021 31.4919 85.5912 32.081L87.6082 34.0979C88.4242 34.914 89.7475 34.914 90.5636 34.0979L92.8223 31.8392C93.6384 31.0231 93.6384 29.6998 92.8223 28.8837L91.0721 27.1333C90.4414 26.5026 90.2823 25.5423 90.6727 24.7404C90.7546 24.5722 90.8332 24.4021 90.9084 24.2303C91.238 23.4775 91.991 22.9996 92.8127 22.9996H95.2595C96.4137 22.9996 97.3493 22.0639 97.3493 20.9097V17.7154C97.3495 16.5612 96.4139 15.6256 95.2597 15.6256Z" fill="#9FACBA"/>
<path d="M59.3154 16.6444C59.3154 18.0272 60.1957 19.288 61.5056 19.7818C62.2122 20.0481 62.9152 20.3547 63.5954 20.6928C64.0527 20.9202 64.5448 21.0355 65.0577 21.0355C65.669 21.0355 66.2706 20.8602 66.7939 20.5467C67.9678 12.4419 73.9477 5.89315 81.7532 3.89087C81.7344 3.7776 81.724 3.66224 81.724 3.54521V2.08984C81.724 0.935623 80.7884 0 79.6341 0H76.44C75.2858 0 74.3502 0.935623 74.3502 2.08984V3.545C74.3502 4.39954 73.8346 5.1803 73.0363 5.48521C72.6459 5.63422 72.2641 5.80036 71.8913 5.98239C71.0957 6.37089 70.1402 6.20119 69.5141 5.57528L68.466 4.52723C67.6499 3.71114 66.3266 3.71114 65.5106 4.52723L63.2519 6.78572C62.4358 7.60181 62.4358 8.92509 63.2519 9.74118L64.5685 11.0576C65.1593 11.6484 65.3463 12.5363 65.0305 13.31C64.9125 13.5992 64.8036 13.8935 64.7045 14.1919C64.4209 15.0471 63.623 15.6253 62.7221 15.6253H60.8145C60.226 15.6253 59.6954 15.8694 59.3154 16.2609V16.6444Z" fill="#8D9CA8"/>
<path d="M71.554 17.1486C72.3356 17.1486 73.0704 17.4529 73.623 18.0055L77.7097 22.0922C78.8503 23.233 78.8503 25.0892 77.7097 26.23L77.4045 26.5352C77.6135 26.5517 77.824 26.5625 78.0371 26.5625C82.4289 26.5625 85.9892 23.0023 85.9892 18.6105C85.9892 14.2187 82.4289 10.6582 78.0371 10.6582C74.0228 10.6582 70.7049 13.6335 70.1641 17.4989C70.5862 17.2705 71.0606 17.1486 71.554 17.1486Z" fill="#8379C1"/>
<path d="M77.7094 22.092C77.9178 22.3005 78.0873 22.5331 78.2196 22.7808C80.4425 22.6844 82.2166 20.8571 82.2166 18.6103C82.2166 16.3018 80.3454 14.4306 78.0369 14.4306C75.8476 14.4306 74.0545 16.1148 73.875 18.2577L77.7094 22.092Z" fill="#C5D3DD"/>
<path d="M77.7094 22.092C77.9178 22.3003 78.0871 22.5329 78.2194 22.7804C78.7466 22.7574 79.2499 22.6418 79.7088 22.4412C78.2327 21.796 77.201 20.324 77.201 18.6103C77.201 16.8966 78.233 15.4245 79.7088 14.7794C79.1968 14.5556 78.6315 14.4306 78.0369 14.4306C75.8476 14.4306 74.0545 16.1148 73.875 18.2577L77.7094 22.092Z" fill="#B6C4CF"/>
<path d="M25.0781 48.2392H29.5399C30.7964 48.2392 31.9245 48.9926 32.4227 50.146C32.5871 50.5268 32.7616 50.9021 32.9458 51.2718C33.5407 52.4662 33.2843 53.9104 32.3407 54.854L29.1427 58.0521C28.169 59.0258 27.9726 60.4797 28.5479 61.6504H78.4521C79.0272 60.4799 78.831 59.026 77.8573 58.0521L74.6592 54.854C73.7157 53.9104 73.4593 52.4664 74.0542 51.2718C74.2384 50.9021 74.4129 50.5268 74.5773 50.146C75.0755 48.9926 76.2036 48.2392 77.4601 48.2392H81.9219C83.6531 48.2392 85.0566 46.8357 85.0566 45.1045V39.325C85.0566 37.5938 83.6531 36.1902 81.9219 36.1902H78.3234C76.9675 36.1902 75.7612 35.3198 75.3451 34.0293C75.1508 33.4266 74.9322 32.835 74.6906 32.2551C74.2047 31.0893 74.4906 29.7439 75.3836 28.8509L77.8571 26.3774C79.0814 25.1532 79.0814 23.1684 77.8571 21.9442L73.7706 17.8577C72.5464 16.6335 70.5617 16.6335 69.3375 17.8577L67.3024 19.8928C66.3507 20.8445 64.8938 21.1051 63.6886 20.5058C63.0042 20.1655 62.3005 19.8581 61.5793 19.5864C60.3493 19.1227 59.5244 17.9591 59.5244 16.6444V13.793C59.5244 12.0617 58.1209 10.6582 56.3896 10.6582H50.6102C48.8789 10.6582 47.4754 12.0617 47.4754 13.793V16.6441C47.4754 17.9589 46.6505 19.1223 45.4205 19.5862C44.6995 19.8581 43.9956 20.1653 43.3112 20.5055C42.106 21.1049 40.6493 20.8443 39.6974 19.8926L37.6623 17.8575C36.4381 16.6333 34.4534 16.6333 33.2291 17.8575L29.1425 21.9442C27.9182 23.1684 27.9182 25.1532 29.1425 26.3774L31.6162 28.8511C32.5092 29.7441 32.7951 31.0896 32.3092 32.2553C32.0676 32.835 31.8488 33.4268 31.6547 34.0296C31.2386 35.32 30.0321 36.1905 28.6764 36.1905H25.0781C23.3469 36.1905 21.9434 37.594 21.9434 39.3252V45.1047C21.9434 46.8359 23.3469 48.2392 25.0781 48.2392Z" fill="#C5D3DD"/>
<path d="M25.0781 48.2392H29.5399C30.7964 48.2392 31.9245 48.9926 32.4227 50.146C32.5871 50.5268 32.7616 50.9021 32.9458 51.2718C33.5407 52.4662 33.2843 53.9104 32.3407 54.854L29.1427 58.0521C28.169 59.0258 27.9726 60.4797 28.5479 61.6504H40.451C37.209 56.7706 35.3184 50.9157 35.3184 44.6182C35.3184 29.8664 45.6817 17.5371 59.5244 14.5077V13.793C59.5244 12.0617 58.1209 10.6582 56.3896 10.6582H50.6102C48.8789 10.6582 47.4754 12.0617 47.4754 13.793V16.6441C47.4754 17.9589 46.6505 19.1223 45.4205 19.5862C44.6995 19.8581 43.9956 20.1653 43.3112 20.5055C42.106 21.1049 40.6493 20.8443 39.6974 19.8926L37.6623 17.8575C36.4381 16.6333 34.4534 16.6333 33.2291 17.8575L29.1425 21.9442C27.9182 23.1684 27.9182 25.1532 29.1425 26.3774L31.6162 28.8511C32.5092 29.7441 32.7951 31.0896 32.3092 32.2553C32.0676 32.835 31.8488 33.4268 31.6547 34.0296C31.2386 35.32 30.0321 36.1905 28.6764 36.1905H25.0781C23.3469 36.1905 21.9434 37.594 21.9434 39.3252V45.1047C21.9434 46.8359 23.3469 48.2392 25.0781 48.2392Z" fill="#B6C4CF"/>
<path d="M53.4997 57.7487C62.7126 57.7487 70.181 50.2802 70.181 41.0673C70.181 31.8545 62.7126 24.386 53.4997 24.386C44.2869 24.386 36.8184 31.8545 36.8184 41.0673C36.8184 50.2802 44.2869 57.7487 53.4997 57.7487Z" fill="#9FACBA"/>
<path d="M53.5004 52.1527C59.6227 52.1527 64.5858 47.1896 64.5858 41.0673C64.5858 34.945 59.6227 29.9819 53.5004 29.9819C47.3781 29.9819 42.415 34.945 42.415 41.0673C42.415 47.1896 47.3781 52.1527 53.5004 52.1527Z" fill="#6E61B6"/>
<path d="M53.5 47.3369C56.9626 47.3369 59.7695 44.5299 59.7695 41.0673C59.7695 37.6048 56.9626 34.7978 53.5 34.7978C50.0374 34.7978 47.2305 37.6048 47.2305 41.0673C47.2305 44.5299 50.0374 47.3369 53.5 47.3369Z" fill="#C5D3DD"/>
<path d="M52.2461 41.0673C52.2461 38.4966 53.7938 36.2885 56.0078 35.3209C55.2396 34.9852 54.3919 34.7978 53.5 34.7978C50.0373 34.7978 47.2305 37.6047 47.2305 41.0673C47.2305 44.53 50.0373 47.3369 53.5 47.3369C54.3919 47.3369 55.2396 47.1494 56.0078 46.8138C53.7938 45.8462 52.2461 43.638 52.2461 41.0673Z" fill="#B6C4CF"/>
<path d="M92.7891 95.5059H14.2109C11.3255 95.5059 8.98633 93.1667 8.98633 90.2812V66.666C8.98633 63.7806 11.3255 61.4414 14.2109 61.4414H92.7891C95.6745 61.4414 98.0137 63.7806 98.0137 66.666V90.2812C98.0137 93.1667 95.6745 95.5059 92.7891 95.5059Z" fill="#01C0FA"/>
<path d="M21.3164 90.2812V66.666C21.3164 63.7806 23.6556 61.4414 26.541 61.4414H14.2109C11.3255 61.4414 8.98633 63.7806 8.98633 66.666V90.2812C8.98633 93.1667 11.3255 95.5059 14.2109 95.5059H26.541C23.6556 95.5059 21.3164 93.1667 21.3164 90.2812Z" fill="#08A9F1"/>
<path d="M56.1138 67.1201H48.0039C46.965 67.1201 46.123 67.9621 46.123 69.001V87.9462C46.123 88.9851 46.965 89.8271 48.0039 89.8271C49.0428 89.8271 49.8848 88.9851 49.8848 87.9462V80.3545H51.9171C51.9311 80.3785 51.9433 80.4032 51.9585 80.427L57.4122 88.9592C57.771 89.5209 58.3783 89.8273 58.9988 89.8273C59.3453 89.8273 59.6962 89.7316 60.0099 89.531C60.8851 88.9715 61.1411 87.8085 60.5816 86.9333L56.3718 80.3472C58.879 80.2126 60.8778 78.1305 60.8778 75.5905V71.8841C60.8778 69.2572 58.7405 67.1201 56.1138 67.1201ZM57.116 75.5905C57.116 76.1432 56.6665 76.5928 56.1138 76.5928H49.8848V70.8818H56.1138C56.6665 70.8818 57.116 71.3314 57.116 71.8841V75.5905Z" fill="white"/>
<path d="M71.7488 67.1201H65.4922C64.4533 67.1201 63.6113 67.9621 63.6113 69.001V87.9462C63.6113 88.9851 64.4533 89.8271 65.4922 89.8271C66.531 89.8271 67.373 88.9851 67.373 87.9462V80.3545H71.7488C75.3976 80.3545 78.366 77.3861 78.366 73.7372C78.366 70.0885 75.3976 67.1201 71.7488 67.1201ZM71.7488 76.5928H67.373V70.8818H71.7488C73.3232 70.8818 74.6043 72.1627 74.6043 73.7372C74.6043 75.3117 73.3235 76.5928 71.7488 76.5928Z" fill="white"/>
<path d="M41.5086 70.8818C42.5475 70.8818 43.3895 70.0398 43.3895 69.001C43.3895 67.9621 42.5475 67.1201 41.5086 67.1201H30.5156C29.4768 67.1201 28.6348 67.9621 28.6348 69.001V87.9462C28.6348 88.9851 29.4768 89.8271 30.5156 89.8271H41.5086C42.5475 89.8271 43.3895 88.9851 43.3895 87.9462C43.3895 86.9074 42.5475 86.0654 41.5086 86.0654H32.3965V80.3545H41.5086C42.5475 80.3545 43.3895 79.5125 43.3895 78.4736C43.3895 77.4347 42.5475 76.5928 41.5086 76.5928H32.3965V70.8818H41.5086Z" fill="white"/>
<path d="M19.958 82.5488C21.9778 82.5488 23.6152 80.9114 23.6152 78.8916C23.6152 76.8718 21.9778 75.2344 19.958 75.2344C17.9382 75.2344 16.3008 76.8718 16.3008 78.8916C16.3008 80.9114 17.9382 82.5488 19.958 82.5488Z" fill="white"/>
<path d="M19.6445 78.8916C19.6445 77.4747 20.4516 76.2488 21.6299 75.6415C21.1285 75.383 20.5609 75.2344 19.958 75.2344C17.9382 75.2344 16.3008 76.8718 16.3008 78.8916C16.3008 80.9114 17.9382 82.5488 19.958 82.5488C20.5609 82.5488 21.1285 82.4002 21.6299 82.1417C20.4516 81.5344 19.6445 80.3085 19.6445 78.8916Z" fill="#EAF6FF"/>
<path d="M87.042 82.5488C89.0618 82.5488 90.6992 80.9114 90.6992 78.8916C90.6992 76.8718 89.0618 75.2344 87.042 75.2344C85.0222 75.2344 83.3848 76.8718 83.3848 78.8916C83.3848 80.9114 85.0222 82.5488 87.042 82.5488Z" fill="white"/>
<path d="M86.7285 78.8916C86.7285 77.4747 87.5356 76.2488 88.7139 75.6415C88.2125 75.383 87.6449 75.2344 87.042 75.2344C85.0222 75.2344 83.3848 76.8718 83.3848 78.8916C83.3848 80.9114 85.0222 82.5488 87.042 82.5488C87.6449 82.5488 88.2125 82.4002 88.7139 82.1417C87.5356 81.5344 86.7285 80.3085 86.7285 78.8916Z" fill="#EAF6FF"/>
</svg>
