<svg width="83" height="74" viewBox="0 0 83 74" fill="none" xmlns="http://www.w3.org/2000/svg">
<path d="M28.3975 60.4646H43.8817V67.8619H28.3975V60.4646Z" fill="#6E61B6"/>
<path d="M28.3975 60.4646H33.9539V67.8619H28.3975V60.4646Z" fill="#6354B1"/>
<path d="M48.3213 67.6982H23.9577C21.8355 67.6982 20.1152 69.4186 20.1152 71.5407V73.5086C20.1152 73.78 20.3351 73.9999 20.6065 73.9999H51.6725C51.9439 73.9999 52.1638 73.78 52.1638 73.5086V71.5407C52.1638 69.4186 50.4435 67.6982 48.3213 67.6982Z" fill="#54469C"/>
<path d="M28.3615 73.5087V71.5409C28.3615 69.4186 30.0819 67.6984 32.204 67.6984H23.9577C21.8355 67.6984 20.1152 69.4188 20.1152 71.5409V73.5087C20.1152 73.7801 20.3351 74 20.6065 74H28.8527C28.5815 74 28.3615 73.7801 28.3615 73.5087Z" fill="#463B84"/>
<path d="M70.0194 47.2101V21.6089H58.3909C58.0284 21.6089 57.7335 21.314 57.7335 20.9513V12.0315H3.66572C2.88941 12.0315 2.25781 12.6631 2.25781 13.4394V48.9247H67.7681C68.4152 48.2352 69.1753 47.6537 70.0194 47.2101Z" fill="#EAF6FF"/>
<path d="M10.5986 12.0315H3.66572C2.88941 12.0315 2.25781 12.6631 2.25781 13.4394V48.9247H9.19086V13.4394C9.19086 12.6631 9.82246 12.0315 10.5986 12.0315Z" fill="#D8ECFE"/>
<path d="M2.41992 43.9319H6.69284C7.14504 43.9319 7.51158 43.5654 7.51158 43.113V23.2262H2.41992V43.9319Z" fill="#6E61B6"/>
<path d="M6.69284 17.8248H2.41992V23.2262H7.51174V18.6435C7.51174 18.1915 7.14504 17.8248 6.69284 17.8248Z" fill="#54469C"/>
<path d="M72.2783 46.4065V21.6088H69.8584V47.2962C70.6041 46.8835 71.4176 46.5796 72.2783 46.4065Z" fill="#54469C"/>
<path d="M81.9056 8.11993H58.3523L57.5723 8.28126V20.9513C57.5723 21.4035 57.9388 21.77 58.391 21.77H81.7801C82.2323 21.77 82.5988 21.4035 82.5988 20.9513V8.28126L81.9056 8.11993Z" fill="#FFE5C2"/>
<path d="M65.4687 54.7247C65.4687 52.3187 66.4769 50.1451 68.0912 48.5996H2.41991V13.4394C2.41991 12.7521 2.97907 12.1928 3.66649 12.1928H57.7343V9.77289H3.66649C1.64473 9.77289 0 11.4178 0 13.4394V56.9596C0 58.9812 1.64473 60.6259 3.66649 60.6259H65.4687V54.7247Z" fill="#54469C"/>
<path d="M6.93305 56.9596V49.9733V48.5994H2.41991V13.4394C2.41991 12.7521 2.97907 12.1928 3.66649 12.1928H7.15149C7.66273 10.783 9.0153 9.77289 10.5994 9.77289H3.66649C1.64473 9.77289 0 11.4178 0 13.4394V56.9596C0 58.9812 1.64473 60.6259 3.66649 60.6259H10.5995C8.57779 60.6259 6.93305 58.9812 6.93305 56.9596Z" fill="#463B84"/>
<path d="M59.9053 29.7469C58.6494 29.7469 57.4804 30.1157 56.4977 30.7489L58.3914 33.7399C58.4566 33.843 58.4604 33.9685 58.4016 34.0755C58.3427 34.1824 58.2346 34.2463 58.1125 34.2463H53.8665C53.6963 34.8176 53.6035 35.4221 53.6035 36.0487C53.6035 39.529 56.4248 42.3504 59.9053 42.3504C63.3856 42.3504 66.2071 39.5291 66.2071 36.0487C66.2071 32.5682 63.3856 29.7469 59.9053 29.7469Z" fill="#FED402"/>
<path d="M58.2917 33.5819C58.9815 31.9633 60.3286 30.6922 61.9983 30.1043C61.3434 29.8737 60.6393 29.747 59.9056 29.747C58.6497 29.747 57.4807 30.1158 56.498 30.749L58.2917 33.5819Z" fill="#FAC600"/>
<path d="M57.7901 36.0484C57.7901 35.4219 57.8826 34.8172 58.0528 34.2461H53.8675C53.6973 34.8174 53.6045 35.4219 53.6045 36.0484C53.6045 39.5288 56.4259 42.3502 59.9063 42.3502C60.6401 42.3502 61.344 42.2234 61.999 41.9929C59.5476 41.1298 57.7901 38.7949 57.7901 36.0484Z" fill="#FAC600"/>
<path d="M73.9548 73.0858C69.1993 73.0858 65.3086 69.1951 65.3086 64.4396V54.7248C65.3086 49.9694 69.1993 46.0786 73.9548 46.0786C78.7102 46.0786 82.601 49.9694 82.601 54.7248V64.4396C82.601 69.1951 78.7102 73.0858 73.9548 73.0858Z" fill="#EAF6FF"/>
<path d="M68.8873 64.4396V54.7248C68.8873 51.7373 70.4232 49.092 72.744 47.5379V46.1655C68.5563 46.7587 65.3076 50.3799 65.3076 54.7248V64.4396C65.3076 69.195 69.1984 73.0858 73.9538 73.0858C74.5662 73.0858 75.1636 73.0196 75.7407 72.8964C71.8382 72.0649 68.8873 68.5807 68.8873 64.4396Z" fill="#D8ECFE"/>
<path d="M73.9541 51.4261C74.3992 51.4261 74.8135 51.5569 75.1641 51.7792V46.1655C74.7683 46.1095 74.3647 46.0786 73.9541 46.0786C73.5435 46.0786 73.14 46.1095 72.7441 46.1655V51.7792C73.0949 51.5568 73.509 51.4261 73.9541 51.4261Z" fill="#C4E2FF"/>
<path d="M73.9541 57.829C73.509 57.829 73.0947 57.6983 72.7441 57.4759V60.845C72.7441 61.5132 73.2857 62.055 73.9541 62.055C74.6225 62.055 75.1641 61.5132 75.1641 60.845V57.4757C74.8135 57.6983 74.3992 57.829 73.9541 57.829Z" fill="#C4E2FF"/>
<path d="M73.9542 57.9905C72.6129 57.9905 71.5254 56.9032 71.5254 55.5617V53.6936C71.5254 52.3523 72.6127 51.2648 73.9542 51.2648C75.2955 51.2648 76.383 52.3521 76.383 53.6936V55.5617C76.3828 56.903 75.2955 57.9905 73.9542 57.9905Z" fill="#0ED290"/>
<path d="M73.7086 55.5618V53.6936C73.7086 52.7455 74.2531 51.9266 75.0452 51.5265C74.7166 51.3605 74.3464 51.265 73.953 51.265C72.6118 51.265 71.5244 52.3523 71.5244 53.6937V55.5619C71.5244 56.9032 72.6118 57.9907 73.953 57.9907C74.3464 57.9907 74.7166 57.895 75.0452 57.7292C74.2531 57.3288 73.7086 56.5097 73.7086 55.5618Z" fill="#00C285"/>
<path d="M37.6499 34.2463C37.5278 34.2463 37.4197 34.1824 37.361 34.0754C37.3021 33.9685 37.3058 33.8429 37.3711 33.7399L44.7115 22.1461H27.9883C27.717 22.1461 27.4971 22.3659 27.4971 22.6373V41.859C27.4971 42.1303 27.7171 42.3502 27.9883 42.3502H47.21C47.4814 42.3502 47.7012 42.1303 47.7012 41.859V34.2463H37.6499Z" fill="#0ED290"/>
<path d="M33.0627 41.859V22.6373C33.0627 22.3659 33.2826 22.1461 33.554 22.1461H27.9893C27.7179 22.1461 27.498 22.3659 27.498 22.6373V41.859C27.498 42.1303 27.7181 42.3502 27.9893 42.3502H33.554C33.2828 42.3502 33.0627 42.1302 33.0627 41.859Z" fill="#00C285"/>
<path d="M22.0952 23.3558H13.0928C12.4244 23.3558 11.8828 22.8141 11.8828 22.1459C11.8828 21.4777 12.4244 20.9359 13.0928 20.9359H22.0952C22.7635 20.9359 23.3051 21.4777 23.3051 22.1459C23.3051 22.8141 22.7635 23.3558 22.0952 23.3558Z" fill="#60B7FF"/>
<path d="M22.0952 27.3169H13.0928C12.4244 27.3169 11.8828 26.7752 11.8828 26.107C11.8828 25.4388 12.4244 24.897 13.0928 24.897H22.0952C22.7635 24.897 23.3051 25.4388 23.3051 26.107C23.3051 26.7752 22.7635 27.3169 22.0952 27.3169Z" fill="#60B7FF"/>
<path d="M22.0952 31.278H13.0928C12.4244 31.278 11.8828 30.7363 11.8828 30.068C11.8828 29.3998 12.4244 28.8581 13.0928 28.8581H22.0952C22.7635 28.8581 23.3051 29.3998 23.3051 30.068C23.3051 30.7363 22.7635 31.278 22.0952 31.278Z" fill="#60B7FF"/>
<path d="M22.0952 37.2198H13.0928C12.4244 37.2198 11.8828 36.678 11.8828 36.0098C11.8828 35.3416 12.4244 34.7999 13.0928 34.7999H22.0952C22.7635 34.7999 23.3051 35.3416 23.3051 36.0098C23.3051 36.678 22.7635 37.2198 22.0952 37.2198Z" fill="#60B7FF"/>
<path d="M22.0952 41.1808H13.0928C12.4244 41.1808 11.8828 40.6391 11.8828 39.9709C11.8828 39.3027 12.4244 38.7609 13.0928 38.7609H22.0952C22.7635 38.7609 23.3051 39.3027 23.3051 39.9709C23.3051 40.6391 22.7635 41.1808 22.0952 41.1808Z" fill="#60B7FF"/>
<path d="M17.774 45.1419H13.0928C12.4244 45.1419 11.8828 44.6002 11.8828 43.9319C11.8828 43.2637 12.4244 42.722 13.0928 42.722H17.774C18.4424 42.722 18.984 43.2637 18.984 43.9319C18.984 44.6002 18.4422 45.1419 17.774 45.1419Z" fill="#60B7FF"/>
<path d="M47.4668 17.4931L37.2352 33.6534C37.0281 33.9806 37.2631 34.4075 37.6503 34.4075H58.1134C58.5006 34.4075 58.7357 33.9804 58.5285 33.6534L48.297 17.4931C48.104 17.1885 47.6596 17.1885 47.4668 17.4931Z" fill="#FD4755"/>
<path d="M42.801 33.6534L50.6648 21.233L48.297 17.4931C48.104 17.1885 47.6597 17.1885 47.4668 17.4931L37.2352 33.6534C37.0281 33.9804 37.2631 34.4075 37.6503 34.4075H43.2161C42.8289 34.4076 42.5939 33.9806 42.801 33.6534Z" fill="#FB2B3A"/>
<path d="M63.0602 20.9513V8.28131H57.5742V20.9513C57.5742 21.4035 57.9408 21.7701 58.393 21.7701H63.8791C63.4269 21.7702 63.0602 21.4035 63.0602 20.9513Z" fill="#FED2A4"/>
<path d="M77.6738 14.1727H62.5C61.8316 14.1727 61.29 13.6309 61.29 12.9627C61.29 12.2945 61.8316 11.7527 62.5 11.7527H77.6738C78.3422 11.7527 78.8838 12.2945 78.8838 12.9627C78.8838 13.6309 78.342 14.1727 77.6738 14.1727Z" fill="#FE7701"/>
<path d="M67.0325 18.0673H62.5C61.8316 18.0673 61.29 17.5256 61.29 16.8574C61.29 16.1891 61.8316 15.6474 62.5 15.6474H67.0325C67.7009 15.6474 68.2424 16.1891 68.2424 16.8574C68.2424 17.5256 67.7009 18.0673 67.0325 18.0673Z" fill="#FE7701"/>
<path d="M77.6744 18.0673H71.5654C70.897 18.0673 70.3555 17.5255 70.3555 16.8573C70.3555 16.1891 70.897 15.6473 71.5654 15.6473H77.6744C78.3428 15.6473 78.8844 16.1891 78.8844 16.8573C78.8844 17.5255 78.3426 18.0673 77.6744 18.0673Z" fill="#FE7701"/>
<path d="M82.601 8.28131H57.5742V4.59901C57.5742 4.14681 57.9408 3.78027 58.393 3.78027H81.7821C82.2343 3.78027 82.6008 4.14681 82.6008 4.59901V8.28131H82.601Z" fill="#6E61B6"/>
<path d="M63.8791 3.78009H58.393C57.9408 3.78009 57.5742 4.14663 57.5742 4.59883V8.28129H63.0603V4.59899C63.0602 4.14663 63.4269 3.78009 63.8791 3.78009Z" fill="#6354B1"/>
<path d="M38.3899 55.5846H33.8887C33.2203 55.5846 32.6787 55.0428 32.6787 54.3746C32.6787 53.7064 33.2203 53.1647 33.8887 53.1647H38.3899C39.0582 53.1647 39.5998 53.7064 39.5998 54.3746C39.5998 55.0428 39.0581 55.5846 38.3899 55.5846Z" fill="#0ED290"/>
<path d="M7.13438 0.372828L6.97064 0H2.84662C1.94222 0 1.20898 0.733234 1.20898 1.63764V4.66414C1.20898 5.56854 1.94222 6.30178 2.84662 6.30178H6.97064L7.13438 5.91701V0.372828Z" fill="#FD4755"/>
<path d="M2.84662 3.59259C1.94222 3.59259 1.20898 2.85936 1.20898 1.95496V4.66413C1.20898 5.56853 1.94222 6.30176 2.84662 6.30176H6.97064L7.13438 5.917V3.20766L6.97064 3.59259H2.84662Z" fill="#FB2B3A"/>
<path d="M42.4922 2.70078L36.319 0L36.1553 0.330238V5.92346L36.319 6.30161L42.4922 3.60083C42.8847 3.42918 42.8847 2.87244 42.4922 2.70078Z" fill="#54469C"/>
<path d="M42.4925 2.70077L40.4251 1.7962L36.3193 3.59242V6.3016L42.4925 3.60081C42.885 3.42916 42.885 2.87242 42.4925 2.70077Z" fill="#463B84"/>
<path d="M6.97168 0H36.3196V6.30178H6.97168V0Z" fill="#FED402"/>
<path d="M11.0833 2.78597V0H6.97168V6.30178H36.3196V3.5926H11.8899C11.4445 3.5926 11.0833 3.23139 11.0833 2.78597Z" fill="#FAC600"/>
</svg>
