<svg width="85" height="85" viewBox="0 0 85 85" fill="none" xmlns="http://www.w3.org/2000/svg">
<path fill-rule="evenodd" clip-rule="evenodd" d="M30.3965 66.3748H53.2133V79.3712H30.3965V66.3748Z" fill="#A79BA7"/>
<path fill-rule="evenodd" clip-rule="evenodd" d="M51.4434 66.3748H53.2128V79.3712H51.4434V66.3748Z" fill="#837683"/>
<path fill-rule="evenodd" clip-rule="evenodd" d="M17.1408 84.9122H66.4675V81.1094C66.4675 79.0179 64.3257 77.3065 61.7079 77.3065H21.9002C19.2824 77.3065 17.1406 79.0177 17.1406 81.1094L17.1408 84.9122Z" fill="#ECEFF1"/>
<path fill-rule="evenodd" clip-rule="evenodd" d="M17.1416 84.9121H66.4683V81.1093C66.4683 79.8663 65.7118 78.7578 64.5485 78.0626C64.81 78.5325 64.9556 79.0515 64.9556 79.5967V83.3995H17.1416V84.9121Z" fill="#D1D1D6"/>
<path fill-rule="evenodd" clip-rule="evenodd" d="M11.086 18.8815H72.5229C75.5926 18.8815 78.104 21.3929 78.104 24.4626V62.8581C78.104 65.9277 75.5926 68.4392 72.5229 68.4392H11.086C8.01635 68.4392 5.50488 65.9277 5.50488 62.8581V24.4626C5.50488 21.3929 8.01635 18.8815 11.086 18.8815Z" fill="#ECEFF1"/>
<path fill-rule="evenodd" clip-rule="evenodd" d="M75.6357 19.8369C77.1218 20.8423 78.1037 22.5434 78.1037 24.4626V62.8583C78.1037 65.9279 75.5923 68.4394 72.5226 68.4394H11.0855C9.16629 68.4394 7.46538 67.4576 6.45996 65.9715C7.35066 66.5742 8.42265 66.9269 9.57305 66.9269H71.01C74.0796 66.9269 76.5911 64.4154 76.5911 61.3458V22.9501C76.5913 21.7997 76.2384 20.7277 75.6357 19.8369Z" fill="#D1D1D6"/>
<path fill-rule="evenodd" clip-rule="evenodd" d="M10.9459 23.5486H72.6631C73.0888 23.5486 73.4371 23.8971 73.4371 24.3226V59.0784H10.1719V24.3226C10.1719 23.8969 10.5202 23.5486 10.9459 23.5486Z" fill="#D8ECFE"/>
<path fill-rule="evenodd" clip-rule="evenodd" d="M69.6377 23.5486H72.6628C73.0885 23.5486 73.4369 23.8971 73.4369 24.3226V59.0784H70.4118V24.3226C70.4118 23.8969 70.0634 23.5486 69.6377 23.5486Z" fill="#C4E2FF"/>
<path d="M41.8049 55.858C49.8488 55.858 56.3697 49.3372 56.3697 41.2933C56.3697 33.2494 49.8488 26.7286 41.8049 26.7286C33.7611 26.7286 27.2402 33.2494 27.2402 41.2933C27.2402 49.3372 33.7611 55.858 41.8049 55.858Z" fill="#685E68"/>
<path fill-rule="evenodd" clip-rule="evenodd" d="M41.8047 26.7286C49.8486 26.7286 56.3694 33.2494 56.3694 41.2933C56.3694 49.3372 49.8486 55.858 41.8047 55.858C41.5128 55.858 41.2232 55.8484 40.9355 55.8314C48.5746 55.3817 54.6311 49.0453 54.6311 41.2933C54.6311 33.5412 48.5748 27.2049 40.9355 26.7552C41.2232 26.7381 41.5128 26.7286 41.8047 26.7286Z" fill="#544854"/>
<path fill-rule="evenodd" clip-rule="evenodd" d="M41.805 44.4361C37.0781 44.4361 33.1047 47.6608 31.9639 52.0303C34.5558 54.4072 38.011 55.8578 41.805 55.8578C45.5989 55.8578 49.0543 54.4072 51.6461 52.0301C50.5052 47.6608 46.5319 44.4361 41.805 44.4361Z" fill="#8AC9FE"/>
<path fill-rule="evenodd" clip-rule="evenodd" d="M41.8052 44.4361C39.1232 44.4361 36.6842 45.4745 34.8672 47.1708C36.6284 45.709 38.8903 44.8298 41.3579 44.8298C46.0847 44.8298 50.058 48.0543 51.199 52.4237C51.3508 52.2954 51.4999 52.1643 51.6463 52.0301C50.5055 47.6608 46.5321 44.4361 41.8052 44.4361Z" fill="#60B7FF"/>
<path d="M41.8046 42.698C44.6448 42.698 46.9472 40.3956 46.9472 37.5554C46.9472 34.7153 44.6448 32.4129 41.8046 32.4129C38.9645 32.4129 36.6621 34.7153 36.6621 37.5554C36.6621 40.3956 38.9645 42.698 41.8046 42.698Z" fill="#F6DCCD"/>
<path fill-rule="evenodd" clip-rule="evenodd" d="M41.8053 32.4129C44.6453 32.4129 46.9477 34.7153 46.9477 37.5553C46.9477 40.3953 44.6453 42.6978 41.8053 42.6978C41.6082 42.6978 41.4139 42.6863 41.2227 42.6648C43.7882 42.3753 45.7823 40.1983 45.7823 37.5554C45.7823 34.9126 43.7884 32.7355 41.2227 32.4461C41.414 32.4244 41.6084 32.4129 41.8053 32.4129Z" fill="#F1CBBC"/>
<path fill-rule="evenodd" clip-rule="evenodd" d="M32.109 21.3084C32.109 17.1708 32.109 13.0332 32.109 8.89553C32.109 7.5315 30.9965 6.41882 29.6323 6.41882C23.5857 6.41882 17.5389 6.41882 11.4923 6.41882C10.1283 6.41882 9.01562 7.53132 9.01562 8.89553V21.3084C9.01562 22.6724 10.1283 23.7851 11.4923 23.7851H13.5882V28.8301L18.4347 23.7851H29.6325C30.9964 23.7851 32.109 22.6726 32.109 21.3084Z" fill="#FFE177"/>
<path fill-rule="evenodd" clip-rule="evenodd" d="M32.1089 21.3084C32.1089 17.1708 32.1089 13.0332 32.1089 8.89553C32.1089 7.5315 30.9964 6.41882 29.6322 6.41882H27.8939C29.258 6.41882 30.3706 7.53132 30.3706 8.89553V21.3084C30.3706 22.6724 29.2581 23.7851 27.8939 23.7851H29.6322C30.9963 23.7851 32.1089 22.6726 32.1089 21.3084ZM13.5879 27.0206V28.8301L18.4344 23.7851H16.6961L13.5879 27.0206Z" fill="#FFD064"/>
<path fill-rule="evenodd" clip-rule="evenodd" d="M14.085 19.4307C13.317 19.4307 12.6943 18.8081 12.6943 18.0401C12.6943 17.2721 13.317 16.6495 14.085 16.6495H26.6901C27.4581 16.6495 28.0807 17.2721 28.0807 18.0401C28.0807 18.8081 27.4581 19.4307 26.6901 19.4307H14.085ZM14.085 13.3756C13.317 13.3756 12.6943 12.753 12.6943 11.985C12.6943 11.217 13.317 10.5944 14.085 10.5944H26.6901C27.4581 10.5944 28.0807 11.217 28.0807 11.985C28.0807 12.753 27.4581 13.3756 26.6901 13.3756H14.085Z" fill="#ECEFF1"/>
<path fill-rule="evenodd" clip-rule="evenodd" d="M23.1794 16.3645C23.1794 12.2268 23.1794 8.08919 23.1794 3.95156C23.1794 2.58753 22.0669 1.47485 20.7026 1.47485C14.656 1.47485 8.60925 1.47485 2.56264 1.47485C1.19861 1.47485 0.0859375 2.58735 0.0859375 3.95156V16.3645C0.0859375 17.7285 1.19861 18.8412 2.56264 18.8412H4.65849V23.8862L9.50499 18.8412H20.7028C22.0669 18.8412 23.1794 17.7285 23.1794 16.3645Z" fill="#6CF5C2"/>
<path fill-rule="evenodd" clip-rule="evenodd" d="M23.1791 16.3645C23.1791 12.2268 23.1791 8.08919 23.1791 3.95156C23.1791 2.58753 22.0666 1.47485 20.7024 1.47485H18.9641C20.3281 1.47485 21.4408 2.58735 21.4408 3.95156V16.3645C21.4408 17.7285 20.3283 18.8412 18.9641 18.8412H20.7024C22.0666 18.8412 23.1791 17.7285 23.1791 16.3645ZM4.6582 22.0766V23.8862L9.5047 18.8412H7.76642L4.6582 22.0766Z" fill="#00E499"/>
<path fill-rule="evenodd" clip-rule="evenodd" d="M5.15527 14.4866C4.3873 14.4866 3.76465 13.8639 3.76465 13.096C3.76465 12.328 4.3873 11.7053 5.15527 11.7053H17.7604C18.5284 11.7053 19.151 12.328 19.151 13.096C19.151 13.8639 18.5284 14.4866 17.7604 14.4866H5.15527ZM5.15527 8.43146C4.3873 8.43146 3.76465 7.8088 3.76465 7.04083C3.76465 6.27286 4.3873 5.65021 5.15527 5.65021H17.7604C18.5284 5.65021 19.151 6.27286 19.151 7.04083C19.151 7.8088 18.5284 8.43146 17.7604 8.43146H5.15527Z" fill="#ECEFF1"/>
<path fill-rule="evenodd" clip-rule="evenodd" d="M12.9787 49.256C15.2455 50.9528 14.7315 50.7656 17.5582 50.9229C18.6442 50.9834 19.526 51.7234 19.774 52.7821C20.4198 55.5389 20.1462 55.065 22.2108 57.0027C23.0038 57.7468 23.2037 58.8805 22.7129 59.8512C21.4357 62.378 21.5307 61.8395 21.8668 64.6506C21.9957 65.7304 21.4202 66.7275 20.4205 67.1556C17.8178 68.2702 18.2369 67.9186 16.6872 70.2882C16.092 71.1984 15.0103 71.5921 13.9692 71.2775C11.2589 70.4584 11.8059 70.4584 9.09577 71.2775C8.05472 71.5921 6.97298 71.1984 6.3778 70.2882C4.82812 67.9186 5.24722 68.2702 2.64449 67.1556C1.6448 66.7275 1.06909 65.7304 1.19824 64.6506C1.53425 61.8393 1.62916 62.378 0.351871 59.8512C-0.138672 58.8807 0.0612301 57.747 0.85406 57.0027C2.91862 55.065 2.64501 55.5389 3.29078 52.7821C3.53884 51.7234 4.42067 50.9834 5.50657 50.9229C8.33354 50.7656 7.81953 50.9528 10.0861 49.256C10.957 48.6044 12.108 48.6044 12.9787 49.256Z" fill="#FFE177"/>
<path fill-rule="evenodd" clip-rule="evenodd" d="M12.9783 49.256C15.245 50.9528 14.731 50.7655 17.5578 50.9229C18.6437 50.9834 19.5255 51.7233 19.7736 52.7821C20.4194 55.5389 20.1458 55.065 22.2103 57.0027C23.0033 57.7468 23.2032 58.8805 22.7125 59.8512C21.4352 62.378 21.5303 61.8394 21.8663 64.6506C21.9953 65.7304 21.4198 66.7275 20.4201 67.1556C17.8173 68.2702 18.2364 67.9186 16.6868 70.2882C16.0916 71.1983 15.0098 71.5921 13.9688 71.2774L13.7993 71.226C14.2566 71.0494 14.6598 70.7295 14.9483 70.2882C16.498 67.9186 16.0789 68.2702 18.6816 67.1556C19.6813 66.7275 20.2568 65.7304 20.1279 64.6506C19.7919 61.8393 19.6969 62.378 20.9741 59.8512C21.4646 58.8807 21.2647 57.747 20.4719 57.0027C18.4073 55.065 18.6809 55.5389 18.0351 52.7821C17.7871 51.7233 16.9051 50.9834 15.8194 50.9229C12.9924 50.7655 13.5064 50.9528 11.2399 49.256C11.058 49.1199 10.864 49.0125 10.6627 48.9331C11.425 48.633 12.2894 48.7405 12.9783 49.256ZM10.6629 70.8048C9.61595 70.5223 9.37572 70.6626 7.52637 71.226C8.01204 71.4136 8.55908 71.4394 9.09534 71.2774C9.79987 71.0645 10.284 70.9072 10.6629 70.8048Z" fill="#FFD064"/>
<path d="M11.5329 66.8304C15.2634 66.8304 18.2875 63.8062 18.2875 60.0758C18.2875 56.3453 15.2634 53.3212 11.5329 53.3212C7.80246 53.3212 4.77832 56.3453 4.77832 60.0758C4.77832 63.8062 7.80246 66.8304 11.5329 66.8304Z" fill="#ECEFF1"/>
<path fill-rule="evenodd" clip-rule="evenodd" d="M11.5329 53.3214C11.8274 53.3214 12.1175 53.3403 12.4021 53.3768C9.08213 53.8032 6.5166 56.6399 6.5166 60.076C6.5166 63.512 9.08213 66.3486 12.4021 66.7751C12.1175 66.8116 11.8274 66.8306 11.5329 66.8306C7.80258 66.8306 4.77832 63.8065 4.77832 60.076C4.77832 56.3454 7.80241 53.3214 11.5329 53.3214Z" fill="#D1D1D6"/>
<path fill-rule="evenodd" clip-rule="evenodd" d="M7.52672 71.226C7.06938 71.0494 6.66628 70.7294 6.37772 70.288C5.29616 68.6342 5.17361 68.3059 4.31334 67.8796L1.19903 74.2675C1.11108 74.4481 1.13037 74.649 1.25118 74.8095C1.37199 74.9699 1.55973 75.0441 1.75754 75.0095L4.69698 74.4959L6.20911 77.0983C6.30906 77.2704 6.4841 77.366 6.68279 77.3573C6.88165 77.3486 7.04748 77.238 7.13213 77.0578L9.9704 71.0091C9.72113 71.0857 9.43379 71.1751 9.0957 71.2773C8.55944 71.4395 8.0124 71.4136 7.52672 71.226Z" fill="#FE646F"/>
<path fill-rule="evenodd" clip-rule="evenodd" d="M16.687 70.2882C16.0918 71.1984 15.0101 71.5921 13.969 71.2775C13.9382 71.2681 13.9078 71.2589 13.8779 71.2498L15.8799 75.8192C15.9597 76.0012 16.1222 76.116 16.3204 76.13C16.5186 76.1441 16.6959 76.0537 16.8005 75.8848L18.3896 73.3241L21.323 73.9249C21.5191 73.965 21.708 73.897 21.8337 73.7413C21.9592 73.5854 21.9854 73.3863 21.9046 73.2031L19.7985 68.4394L19.4185 67.58C18.6479 67.908 18.294 68.0837 17.9608 68.4394C17.6373 68.7848 17.3335 69.2996 16.687 70.2882Z" fill="#FE646F"/>
<path fill-rule="evenodd" clip-rule="evenodd" d="M1.14453 74.5094C1.14696 74.6149 1.18277 74.7187 1.25109 74.8094C1.3719 74.9699 1.55963 75.0441 1.75745 75.0095L4.69462 74.4962L4.44083 74.0596L1.5014 74.5732C1.37294 74.5958 1.24883 74.5725 1.14453 74.5094ZM5.98026 76.7045L6.20919 77.0984C6.30914 77.2705 6.48418 77.3661 6.68287 77.3574C6.88173 77.3487 7.04756 77.2382 7.13221 77.0579L9.97048 71.0092C9.8083 71.0591 9.62978 71.1144 9.43179 71.1751L6.87599 76.6216C6.79151 76.8017 6.62551 76.9124 6.42665 76.9211C6.24482 76.9291 6.08299 76.8498 5.98026 76.7045Z" fill="#FD4755"/>
<path fill-rule="evenodd" clip-rule="evenodd" d="M13.9403 71.2688L13.8779 71.2498L13.8816 71.2582C13.901 71.262 13.9207 71.2655 13.9403 71.2688ZM16.0715 76.0482C16.1436 76.0951 16.2281 76.1234 16.3204 76.13C16.5186 76.1441 16.6959 76.0537 16.8005 75.8848L18.3896 73.3241L21.323 73.9249C21.5191 73.965 21.708 73.897 21.8337 73.7413C21.9592 73.5854 21.9854 73.3863 21.9046 73.2031L19.7985 68.4394L19.4185 67.58C19.3287 67.6182 19.2445 67.6544 19.1653 67.6889L19.4611 68.3582L21.5672 73.1219C21.648 73.305 21.6218 73.5042 21.4963 73.6599C21.3706 73.8157 21.1817 73.8838 20.9856 73.8437L18.0522 73.2429L16.4631 75.8036C16.3743 75.9468 16.2331 76.0337 16.0715 76.0482Z" fill="#FD4755"/>
<path d="M80.5725 62.505C80.9413 55.8049 75.8089 50.0745 69.1089 49.7056C62.4089 49.3367 56.6784 54.4691 56.3095 61.1692C55.9406 67.8692 61.0731 73.5997 67.7731 73.9686C74.4731 74.3374 80.2036 69.205 80.5725 62.505Z" fill="#FE646F"/>
<path fill-rule="evenodd" clip-rule="evenodd" d="M68.4282 49.7502C75.1349 49.7502 80.5717 55.187 80.5717 61.8938C80.5717 68.6005 75.1349 74.0374 68.4282 74.0374C68.18 74.0374 67.9339 74.0291 67.6895 74.0145C74.0521 73.6326 79.0943 68.3526 79.0943 61.894C79.0943 55.4354 74.0521 50.1554 67.6895 49.7735C67.934 49.7583 68.18 49.7502 68.4282 49.7502Z" fill="#FD4755"/>
<path d="M68.4285 69.6971C72.7382 69.6971 76.232 66.2034 76.232 61.8936C76.232 57.5839 72.7382 54.0901 68.4285 54.0901C64.1187 54.0901 60.625 57.5839 60.625 61.8936C60.625 66.2034 64.1187 69.6971 68.4285 69.6971Z" fill="#ECEFF1"/>
<path fill-rule="evenodd" clip-rule="evenodd" d="M68.4285 54.0901C68.6437 54.0901 68.8568 54.0994 69.0675 54.1164C65.0566 54.4416 61.903 57.7991 61.903 61.8936C61.903 65.9882 65.0568 69.3458 69.0675 69.6711C68.8568 69.6881 68.6437 69.6973 68.4285 69.6973C64.1188 69.6973 60.625 66.2035 60.625 61.8938C60.625 57.5839 64.1188 54.0901 68.4285 54.0901Z" fill="#D1D1D6"/>
<path d="M69.783 65.0794C71.5505 64.3468 72.3894 62.32 71.6568 60.5525C70.9242 58.7851 68.8975 57.9462 67.13 58.6788C65.3625 59.4114 64.5236 61.4381 65.2562 63.2056C65.9888 64.9731 68.0156 65.812 69.783 65.0794Z" fill="#FE646F"/>
<path fill-rule="evenodd" clip-rule="evenodd" d="M68.4284 58.4301C68.5459 58.4301 68.662 58.436 68.7765 58.4475C67.0271 58.622 65.6612 60.0983 65.6612 61.8936C65.6612 63.6889 67.0273 65.1653 68.7765 65.3398C68.662 65.3513 68.5459 65.3572 68.4284 65.3572C66.5156 65.3572 64.9648 63.8064 64.9648 61.8936C64.9648 59.9808 66.5156 58.4301 68.4284 58.4301Z" fill="#FD4755"/>
<path fill-rule="evenodd" clip-rule="evenodd" d="M82.8473 52.0517L78.896 56.003C78.767 56.1319 78.5956 56.1824 78.4174 56.1439L75.2817 55.4681C75.0768 55.4239 74.9259 55.2731 74.8818 55.0681L74.2059 51.9323C74.1675 51.7539 74.2179 51.5827 74.3469 51.4537L78.2982 47.5026C78.4367 47.3641 78.6264 47.3157 78.8143 47.3712C79.0022 47.4266 79.1353 47.5699 79.1767 47.7616L79.7107 50.2393C79.7549 50.4443 79.9057 50.5952 80.1107 50.6393L82.5884 51.1733C82.78 51.2147 82.9234 51.3477 82.9789 51.5358C83.0341 51.7235 82.986 51.9131 82.8473 52.0517Z" fill="#E3A76F"/>
<path fill-rule="evenodd" clip-rule="evenodd" d="M82.8465 52.0517L78.8952 56.003C78.7662 56.1319 78.5948 56.1824 78.4167 56.1439L75.281 55.4681C75.076 55.4239 74.9251 55.2731 74.881 55.0681L74.8789 55.0589L77.8401 55.697C78.0184 55.7355 78.1896 55.685 78.3186 55.5561L82.2699 51.6048C82.397 51.4777 82.4481 51.3079 82.413 51.1354L82.5875 51.173C82.779 51.2144 82.9225 51.3473 82.9779 51.5354C83.0334 51.7235 82.9852 51.9131 82.8465 52.0517Z" fill="#C48958"/>
<path fill-rule="evenodd" clip-rule="evenodd" d="M80.0449 48.3386C80.5879 47.7955 81.4684 47.7955 82.0112 48.3386C82.5543 48.8816 82.5543 49.762 82.0112 50.3049L69.4254 62.8907C68.8823 63.4338 68.0019 63.4338 67.459 62.8907C66.916 62.3477 66.916 61.4673 67.459 60.9244L80.0449 48.3386Z" fill="#685E68"/>
<path fill-rule="evenodd" clip-rule="evenodd" d="M78.7295 8.69287H80.7918C81.2705 8.69287 81.6609 9.08329 81.6609 9.56201V26.5122C81.6609 26.9909 81.2705 27.3813 80.7918 27.3813H78.7295C78.2508 27.3813 77.8604 26.9909 77.8604 26.5122V9.56201C77.8605 9.08329 78.2508 8.69287 78.7295 8.69287Z" fill="#8AC9FE"/>
<path fill-rule="evenodd" clip-rule="evenodd" d="M79.7207 8.69287H80.7917C81.2704 8.69287 81.6608 9.08329 81.6608 9.56201V26.5122C81.6608 26.9909 81.2704 27.3813 80.7917 27.3813H79.7207C80.1994 27.3813 80.5898 26.9909 80.5898 26.5122V9.56201C80.5898 9.08329 80.1994 8.69287 79.7207 8.69287Z" fill="#60B7FF"/>
<path fill-rule="evenodd" clip-rule="evenodd" d="M73.7351 12.2812H71.6729C71.1941 12.2812 70.8037 12.6716 70.8037 13.1503V26.5121C70.8037 26.9909 71.1941 27.3813 71.6729 27.3813H73.7351C74.2139 27.3813 74.6043 26.9909 74.6043 26.5121V13.1503C74.6043 12.6716 74.2139 12.2812 73.7351 12.2812Z" fill="#6CF5C2"/>
<path fill-rule="evenodd" clip-rule="evenodd" d="M73.7351 12.2812H72.7402C73.219 12.2812 73.6094 12.6716 73.6094 13.1503V26.5121C73.6094 26.9909 73.219 27.3813 72.7402 27.3813H73.7351C74.2138 27.3813 74.6042 26.9909 74.6042 26.5121V13.1503C74.6042 12.6716 74.2138 12.2812 73.7351 12.2812Z" fill="#00E499"/>
<path fill-rule="evenodd" clip-rule="evenodd" d="M66.6785 16.27C65.991 16.27 65.3037 16.27 64.6162 16.27C64.1375 16.27 63.7471 16.6604 63.7471 17.1392V26.512C63.7471 26.9907 64.1375 27.3811 64.6162 27.3811H66.6785C67.1572 27.3811 67.5477 26.9907 67.5477 26.512C67.5477 23.2146 67.5477 20.4363 67.5477 17.1392C67.5477 16.6604 67.1572 16.27 66.6785 16.27Z" fill="#FFE177"/>
<path fill-rule="evenodd" clip-rule="evenodd" d="M66.6785 16.27H65.8428C66.3215 16.27 66.7119 16.6604 66.7119 17.1392V26.512C66.7119 26.9907 66.3215 27.3811 65.8428 27.3811H66.6785C67.1573 27.3811 67.5477 26.9907 67.5477 26.512C67.5477 23.2146 67.5477 20.4363 67.5477 17.1392C67.5477 16.6604 67.1573 16.27 66.6785 16.27Z" fill="#FFD064"/>
<path fill-rule="evenodd" clip-rule="evenodd" d="M58.7725 20.0901H59.6207C60.0995 20.0901 60.4899 20.4805 60.4899 20.9592V26.5122C60.4899 26.9909 60.0995 27.3813 59.6207 27.3813H58.7725C59.2512 27.3813 59.6416 26.9909 59.6416 26.5122V20.9592C59.6416 20.4805 59.2512 20.0901 58.7725 20.0901Z" fill="#FD4755"/>
<path fill-rule="evenodd" clip-rule="evenodd" d="M57.5586 20.0901H59.6209C60.0996 20.0901 60.49 20.4805 60.49 20.9592V26.5122C60.49 26.9909 60.0996 27.3813 59.6209 27.3813H57.5586C57.0799 27.3813 56.6895 26.9909 56.6895 26.5122V20.9592C56.6896 20.4805 57.0799 20.0901 57.5586 20.0901Z" fill="#FE646F"/>
<path fill-rule="evenodd" clip-rule="evenodd" d="M78.692 3.02503C77.927 3.06397 77.2751 2.47539 77.2362 1.71037C77.1973 0.94535 77.7858 0.293495 78.5507 0.254557L81.5901 0.0895943C82.3551 0.0506568 83.007 0.639239 83.0459 1.40426C83.0506 1.49482 83.0462 1.58382 83.0341 1.67021L83.0351 1.67039L82.5965 4.68248C82.4886 5.44141 81.7856 5.96916 81.0267 5.86121C80.2678 5.75326 79.74 5.0503 79.848 4.29137L80.043 2.95167L78.692 3.02503Z" fill="#A79BA7"/>
<path fill-rule="evenodd" clip-rule="evenodd" d="M56.7464 17.8001C56.0234 18.0521 55.233 17.6702 54.981 16.9473C54.7289 16.2243 55.1108 15.4339 55.8338 15.1819C59.9279 13.7561 64.1455 11.924 68.319 9.54533C72.4792 7.17414 76.5986 4.25539 80.5113 0.648108C81.0753 0.129057 81.9533 0.165561 82.4722 0.729633C82.9913 1.29371 82.9548 2.17171 82.3907 2.69059C78.3207 6.44284 74.028 9.48327 69.6879 11.957C65.3609 14.4233 60.9893 16.3224 56.7464 17.8001Z" fill="#A79BA7"/>
<path fill-rule="evenodd" clip-rule="evenodd" d="M54.8271 28.7717C54.0592 28.7717 53.4365 28.1491 53.4365 27.3811C53.4365 26.6131 54.0592 25.9905 54.8271 25.9905H83.5236C84.2915 25.9905 84.9142 26.6131 84.9142 27.3811C84.9142 28.1491 84.2915 28.7717 83.5236 28.7717H54.8271Z" fill="#9FACBA"/>
</svg>
