<svg width="89" height="88" viewBox="0 0 89 88" fill="none" xmlns="http://www.w3.org/2000/svg">
<path d="M65.1391 88H24.769C20.8574 88 17.6865 84.8291 17.6865 80.9175V7.08245C17.6865 3.17092 20.8574 0 24.769 0H65.1391C69.0507 0 72.2216 3.17092 72.2216 7.08245V80.9175C72.2218 84.8291 69.0507 88 65.1391 88Z" fill="#3D6D93"/>
<path d="M65.1399 0H59.8281C63.7397 0 66.9106 3.17092 66.9106 7.08245V80.9175C66.9106 84.8291 63.7397 88 59.8281 88H65.1399C69.0515 88 72.2224 84.8291 72.2224 80.9175V7.08245C72.2225 3.17092 69.0515 0 65.1399 0Z" fill="#335E80"/>
<path d="M57.9595 6.72842C57.9595 8.05049 56.8878 9.12213 55.5658 9.12213H34.3418C33.0197 9.12213 31.9481 8.05049 31.9481 6.72842C31.9481 5.94605 31.3139 5.312 30.5317 5.312H25.654C24.1873 5.312 22.998 6.50103 22.998 7.96799V80.0324C22.998 81.4992 24.1871 82.6884 25.654 82.6884H64.2535C65.7203 82.6884 66.9095 81.4994 66.9095 80.0324V7.96781C66.9095 6.50103 65.7205 5.31183 64.2535 5.31183H59.3759C58.5937 5.31183 57.9595 5.94605 57.9595 6.72842Z" fill="#F9F7F8"/>
<path d="M44.9549 5.88891C45.6882 5.88891 46.2828 5.29438 46.2828 4.561C46.2828 3.82762 45.6882 3.23309 44.9549 3.23309C44.2215 3.23309 43.627 3.82762 43.627 4.561C43.627 5.29438 44.2215 5.88891 44.9549 5.88891Z" fill="#335E80"/>
<path d="M16.2644 40.2891C24.72 40.2891 31.5747 33.4344 31.5747 24.9788C31.5747 16.5232 24.72 9.66852 16.2644 9.66852C7.80875 9.66852 0.954102 16.5232 0.954102 24.9788C0.954102 33.4344 7.80875 40.2891 16.2644 40.2891Z" fill="#FFE179"/>
<path d="M16.2654 9.66852C15.3589 9.66852 14.4725 9.75188 13.6094 9.90278C20.7982 11.1609 26.2637 17.4294 26.2637 24.9786C26.2637 32.5279 20.7982 38.7963 13.6094 40.0545C14.4725 40.2056 15.3589 40.2887 16.2654 40.2887C24.7209 40.2887 31.5755 33.4342 31.5755 24.9785C31.5755 16.5227 24.7211 9.66852 16.2654 9.66852Z" fill="#FBD268"/>
<path d="M21.5766 32.9466H10.9529C9.48608 32.9466 8.29688 31.7576 8.29688 30.2906V19.6668C8.29688 18.2001 9.48591 17.0109 10.9529 17.0109H21.5766C23.0434 17.0109 24.2326 18.1999 24.2326 19.6668V30.2906C24.2324 31.7574 23.0434 32.9466 21.5766 32.9466Z" fill="#F58A97"/>
<path d="M21.5766 17.0109H16.2646C17.7314 17.0109 18.9206 18.1999 18.9206 19.6668V30.2906C18.9206 31.7574 17.7314 32.9466 16.2646 32.9466H21.5764C23.0432 32.9466 24.2324 31.7574 24.2324 30.2906V19.6668C24.2324 18.2001 23.0434 17.0109 21.5766 17.0109Z" fill="#F07281"/>
<path d="M16.2644 27.6348C17.7312 27.6348 18.9204 26.4457 18.9204 24.9788C18.9204 23.5119 17.7312 22.3228 16.2644 22.3228C14.7975 22.3228 13.6084 23.5119 13.6084 24.9788C13.6084 26.4457 14.7975 27.6348 16.2644 27.6348Z" fill="white"/>
<path d="M15.3101 76.4212C23.7657 76.4212 30.6202 69.5667 30.6202 61.1111C30.6202 52.6556 23.7657 45.801 15.3101 45.801C6.85457 45.801 0 52.6556 0 61.1111C0 69.5667 6.85457 76.4212 15.3101 76.4212Z" fill="#8FD8FA"/>
<path d="M15.3102 45.8005C14.3419 45.8005 13.396 45.8946 12.4775 46.0664C19.5791 47.3955 24.9551 53.6234 24.9551 61.1108C24.9551 68.598 19.5792 74.8259 12.4775 76.1552C13.396 76.3271 14.3419 76.4211 15.3102 76.4211C23.7658 76.4211 30.6203 69.5666 30.6203 61.111C30.6203 52.6554 23.7659 45.8005 15.3102 45.8005Z" fill="#6BCDFE"/>
<path d="M20.186 55.2398C18.9599 53.8299 16.823 53.681 15.4132 54.9072C14.6625 55.5601 14.2373 56.5104 14.2505 57.5052V58.2605C11.8267 58.3234 9.5193 57.2913 7.95215 55.4781C7.71702 55.2061 7.27513 55.2944 7.17373 55.6395C6.61874 57.5254 5.8594 62.2698 11.2298 64.6568C10.1625 65.3814 8.95487 65.858 7.69519 66.0615C7.36794 66.1145 7.52951 66.7184 7.61235 66.9347C8.18229 68.4221 14.6106 69.0389 18.5476 65.801C20.9612 63.8158 21.6996 60.9895 21.951 59.4667C22.3685 59.0361 22.9842 58.2917 23.4194 57.2113C23.622 56.7084 23.7478 56.2265 23.8231 55.7863C23.9351 55.1322 23.2626 54.6389 22.6653 54.9281C22.4165 55.0486 22.1336 55.1535 21.8168 55.2241C21.1288 55.3773 20.5439 55.3109 20.186 55.2398Z" fill="white"/>
<path d="M73.6452 76.4211C82.1009 76.4211 88.9555 69.5665 88.9555 61.1108C88.9555 52.6552 82.1009 45.8005 73.6452 45.8005C65.1896 45.8005 58.335 52.6552 58.335 61.1108C58.335 69.5665 65.1896 76.4211 73.6452 76.4211Z" fill="#F58A97"/>
<path d="M73.6462 45.8005C72.7399 45.8005 71.8534 45.8839 70.9902 46.0348C78.1791 47.2929 83.6445 53.5616 83.6445 61.1106C83.6445 68.6599 78.1791 74.9284 70.9902 76.1865C71.8534 76.3376 72.7398 76.4208 73.6462 76.4208C82.1018 76.4208 88.9565 69.5662 88.9565 61.1105C88.9565 52.6551 82.1018 45.8005 73.6462 45.8005Z" fill="#F07281"/>
<path d="M69.8877 55.9036C69.8877 55.5076 70.3162 55.2601 70.6589 55.4581L79.9704 60.8367C80.3131 61.0347 80.3131 61.5297 79.9704 61.7277L70.6589 67.1064C70.3162 67.3044 69.8877 67.0569 69.8877 66.6609V55.9036Z" fill="white"/>
<path d="M73.6452 40.2889C82.1009 40.2889 88.9555 33.4342 88.9555 24.9786C88.9555 16.523 82.1009 9.66833 73.6452 9.66833C65.1896 9.66833 58.335 16.523 58.335 24.9786C58.335 33.4342 65.1896 40.2889 73.6452 40.2889Z" fill="#8FD8FA"/>
<path d="M73.6462 9.66852C72.7399 9.66852 71.8534 9.75188 70.9902 9.90278C78.1791 11.1609 83.6445 17.4294 83.6445 24.9786C83.6445 32.5279 78.1791 38.7963 70.9902 40.0545C71.8534 40.2056 72.7398 40.2887 73.6462 40.2887C82.1018 40.2887 88.9565 33.4342 88.9565 24.9785C88.9565 16.5231 82.1018 9.66852 73.6462 9.66852Z" fill="#6BCDFE"/>
<path d="M78.288 15.3738H75.1411C72.9353 15.3738 71.1405 17.1685 71.1405 19.3743V23.2326H69.0017C68.2682 23.2326 67.6738 23.8271 67.6738 24.5605C67.6738 25.2941 68.2683 25.8884 69.0017 25.8884H71.1405V34.3295C71.1405 35.0631 71.7351 35.6574 72.4685 35.6574C73.2018 35.6574 73.7964 35.0629 73.7964 34.3295V25.8884H75.935C76.6686 25.8884 77.2629 25.2939 77.2629 24.5605C77.2629 23.8269 76.6684 23.2326 75.935 23.2326H73.7964V19.3743C73.7964 18.6329 74.3995 18.0298 75.1409 18.0298H78.2878C79.0214 18.0298 79.6157 17.4352 79.6157 16.7019C79.616 15.9683 79.0215 15.3738 78.288 15.3738Z" fill="white"/>
<path d="M44.6677 33.3023C39.1624 33.4467 34.6139 37.8314 34.2746 43.3283C34.185 44.7777 34.3878 46.168 34.8249 47.4499C34.9133 47.709 34.9088 47.9906 34.8179 48.2489L33.393 52.3019C33.1959 52.8625 33.7354 53.4021 34.2961 53.2049L37.1473 52.2025C37.5529 52.0599 37.9998 52.1426 38.3375 52.4088C40.2306 53.901 42.6387 54.7683 45.2522 54.6975C50.9973 54.5418 55.6374 49.7837 55.6565 44.0366C55.6766 38.0139 50.7215 33.1435 44.6677 33.3023Z" fill="#AEE69C"/>
<path d="M44.6666 33.3023C43.8541 33.3236 43.0635 33.4395 42.3033 33.6354C46.9369 34.8217 50.3603 39.0293 50.3436 44.0366C50.3271 48.9742 46.8985 53.1786 42.29 54.3647C43.2333 54.6067 44.226 54.7251 45.2511 54.6973C50.9962 54.5416 55.6363 49.7836 55.6554 44.0364C55.6755 38.0139 50.7203 33.1435 44.6666 33.3023Z" fill="#89DAA4"/>
<path d="M46.3538 47.8617C45.6596 47.8617 44.9649 47.6767 44.3537 47.3055L42.3663 46.0989C41.1106 45.336 40.3898 43.8986 40.53 42.4365L40.5324 42.4096C40.6151 41.5463 40.8952 40.7029 41.3428 39.9659C41.7235 39.3389 42.5406 39.1395 43.1673 39.5202C43.7941 39.9009 43.9936 40.7177 43.6129 41.3447C43.372 41.7416 43.2211 42.1957 43.1769 42.6578L43.1745 42.6848C43.1303 43.1446 43.3544 43.5916 43.7451 43.8288L45.7325 45.0354C46.1228 45.2724 46.6225 45.2653 47.0061 45.017L47.0334 44.9991C47.4231 44.7468 47.7563 44.4036 47.9973 44.0067C48.378 43.3799 49.1947 43.1805 49.8217 43.5607C50.4486 43.9414 50.6483 44.7581 50.2678 45.3851C49.8202 46.1221 49.2011 46.7596 48.4772 47.2283L48.45 47.246C47.8175 47.6558 47.0858 47.8617 46.3538 47.8617Z" fill="white"/>
</svg>
