<svg width="97" height="76" viewBox="0 0 97 76" fill="none" xmlns="http://www.w3.org/2000/svg">
<path fill-rule="evenodd" clip-rule="evenodd" d="M7.48678 6.68127H88.6178C90.2544 6.68127 91.5947 8.02156 91.5947 9.65819V62.2256C91.5947 63.8622 90.2544 65.1958 88.6178 65.1958H7.48678C5.85015 65.1958 4.5166 63.8622 4.5166 62.2256V9.65819C4.5166 8.02156 5.85015 6.68127 7.48678 6.68127Z" fill="#1C3B5C"/>
<path fill-rule="evenodd" clip-rule="evenodd" d="M2.40837 75.6554H93.7026C94.989 75.6554 96.0397 74.6048 96.0397 73.3184V69.5198C96.0397 68.2334 94.989 67.1827 93.7026 67.1827H2.40837C1.12196 67.1827 0.0712891 68.2334 0.0712891 69.5198V73.3184C0.0712891 74.6048 1.12196 75.6554 2.40837 75.6554Z" fill="#E1E3E8"/>
<path fill-rule="evenodd" clip-rule="evenodd" d="M8.73926 10.7762H87.3715V61.1008H8.73926V10.7762Z" fill="#53B4ED"/>
<path fill-rule="evenodd" clip-rule="evenodd" d="M18.0684 63.3234H24.9045V67.1826H18.0684V63.3234Z" fill="#205081"/>
<path fill-rule="evenodd" clip-rule="evenodd" d="M71.2012 63.3234H78.044V67.1826H71.2012V63.3234Z" fill="#205081"/>
<path fill-rule="evenodd" clip-rule="evenodd" d="M36.7168 67.1827H59.3939V69.87H36.7168V67.1827Z" fill="#C5C7CB"/>
<path fill-rule="evenodd" clip-rule="evenodd" d="M94.8745 73.4396H1.22973C0.81215 73.4396 0.414779 73.3251 0.0712891 73.1298V73.3183C0.0712891 74.6047 1.12196 75.6554 2.40837 75.6554H93.7026C94.989 75.6554 96.0397 74.6047 96.0397 73.3183V73.1298C95.6962 73.3251 95.2988 73.4396 94.8745 73.4396Z" fill="#C5C7CB"/>
<path fill-rule="evenodd" clip-rule="evenodd" d="M60.0205 16.0632H71.6183V17.2284H60.0205V16.0632Z" fill="white"/>
<path fill-rule="evenodd" clip-rule="evenodd" d="M73.4844 16.0632H79.6739V17.2284H73.4844V16.0632Z" fill="white"/>
<path fill-rule="evenodd" clip-rule="evenodd" d="M68.083 20.6027H75.7947V21.7679H68.083V20.6027Z" fill="white"/>
<path fill-rule="evenodd" clip-rule="evenodd" d="M60.0205 20.6027H66.2101V21.7679H60.0205V20.6027Z" fill="white"/>
<path fill-rule="evenodd" clip-rule="evenodd" d="M60.0205 25.2701H71.6183V26.4353H60.0205V25.2701Z" fill="white"/>
<path fill-rule="evenodd" clip-rule="evenodd" d="M73.4844 25.2701H79.6739V26.4353H73.4844V25.2701Z" fill="white"/>
<path fill-rule="evenodd" clip-rule="evenodd" d="M60.0205 31.5472H66.2101V32.7124H60.0205V31.5472Z" fill="#FFC42E"/>
<path fill-rule="evenodd" clip-rule="evenodd" d="M13.1172 6.25696H54.4841V61.1008H13.1172V6.25696Z" fill="white"/>
<path fill-rule="evenodd" clip-rule="evenodd" d="M16.249 6.10352e-05H51.3591C53.0833 6.10352e-05 54.4909 1.4077 54.4909 3.13188V6.25697H13.1172V3.13188C13.1172 1.4077 14.5248 6.10352e-05 16.249 6.10352e-05Z" fill="#205081"/>
<path d="M35.8347 2.20917H18.3437C17.5476 2.20917 16.9023 2.61926 16.9023 3.12514C16.9023 3.63102 17.5476 4.04111 18.3437 4.04111H35.8347C36.6307 4.04111 37.276 3.63102 37.276 3.12514C37.276 2.61926 36.6307 2.20917 35.8347 2.20917Z" fill="#55ACE0"/>
<path d="M42.2133 4.27681C42.8457 4.27681 43.3583 3.76419 43.3583 3.13184C43.3583 2.4995 42.8457 1.98688 42.2133 1.98688C41.581 1.98688 41.0684 2.4995 41.0684 3.13184C41.0684 3.76419 41.581 4.27681 42.2133 4.27681Z" fill="#FF576B"/>
<path d="M46.2739 4.27681C46.9062 4.27681 47.4188 3.76419 47.4188 3.13184C47.4188 2.4995 46.9062 1.98688 46.2739 1.98688C45.6415 1.98688 45.1289 2.4995 45.1289 3.13184C45.1289 3.76419 45.6415 4.27681 46.2739 4.27681Z" fill="#FFC42E"/>
<path d="M50.3422 4.27681C50.9746 4.27681 51.4872 3.76419 51.4872 3.13184C51.4872 2.4995 50.9746 1.98688 50.3422 1.98688C49.7099 1.98688 49.1973 2.4995 49.1973 3.13184C49.1973 3.76419 49.7099 4.27681 50.3422 4.27681Z" fill="#53B4ED"/>
<path fill-rule="evenodd" clip-rule="evenodd" d="M15.8584 28.0315H25.2471V33.689H15.8584V28.0315Z" fill="#00DCAB"/>
<path fill-rule="evenodd" clip-rule="evenodd" d="M15.8584 35.0023H22.2096V35.8307H15.8584V35.0023Z" fill="#AFB0B5"/>
<path fill-rule="evenodd" clip-rule="evenodd" d="M15.8584 36.7265H23.3815V37.1441H15.8584V36.7265ZM15.8584 39.2118H21.5159V39.6226H15.8584V39.2118ZM15.8584 37.9658H23.3815V38.3833H15.8584V37.9658Z" fill="#AFB0B5"/>
<path fill-rule="evenodd" clip-rule="evenodd" d="M29.1133 28.0315H38.502V33.689H29.1133V28.0315Z" fill="#FF576B"/>
<path fill-rule="evenodd" clip-rule="evenodd" d="M29.1133 35.0023H35.4645V35.8307H29.1133V35.0023Z" fill="#AFB0B5"/>
<path fill-rule="evenodd" clip-rule="evenodd" d="M29.1133 36.7265H36.6364V37.1441H29.1133V36.7265ZM29.1133 39.2118H34.7708V39.6226H29.1133V39.2118ZM29.1133 37.9658H36.6364V38.3833H29.1133V37.9658Z" fill="#AFB0B5"/>
<path fill-rule="evenodd" clip-rule="evenodd" d="M42.3604 28.0315H51.7491V33.689H42.3604V28.0315Z" fill="#FFC42E"/>
<path fill-rule="evenodd" clip-rule="evenodd" d="M42.3604 35.0023H48.7115V35.8307H42.3604V35.0023Z" fill="#AFB0B5"/>
<path fill-rule="evenodd" clip-rule="evenodd" d="M42.3604 36.7265H49.8835V37.1441H42.3604V36.7265ZM42.3604 39.2118H48.0246V39.6226H42.3604V39.2118ZM42.3604 37.9658H49.8835V38.3833H42.3604V37.9658Z" fill="#AFB0B5"/>
<path fill-rule="evenodd" clip-rule="evenodd" d="M13.1172 6.25696H54.4841V12.4667H13.1172V6.25696Z" fill="white"/>
<path fill-rule="evenodd" clip-rule="evenodd" d="M13.1172 12.4667H54.4841V26.3343H13.1172V12.4667Z" fill="#FFC42E"/>
<path d="M33.801 10.3788C34.623 10.3788 35.2894 9.71242 35.2894 8.89037C35.2894 8.06832 34.623 7.40192 33.801 7.40192C32.9789 7.40192 32.3125 8.06832 32.3125 8.89037C32.3125 9.71242 32.9789 10.3788 33.801 10.3788Z" fill="#FF576B"/>
<path fill-rule="evenodd" clip-rule="evenodd" d="M32.6689 10.9581H35.1145V11.3236H32.6689V10.9581Z" fill="#FF576B"/>
<path d="M17.4472 17.2419C18.0466 17.2419 18.5855 17.4843 18.9761 17.875C19.3667 18.2656 19.6025 18.8044 19.6025 19.3971C19.6025 19.9965 19.3667 20.5353 18.9761 20.9192V20.926C18.5855 21.3099 18.0466 21.5523 17.4472 21.5523C16.8545 21.5523 16.3157 21.3099 15.9251 20.926V20.9192C15.5345 20.5353 15.292 19.9965 15.292 19.3971C15.292 18.8044 15.5345 18.2656 15.9251 17.875C16.3157 17.4843 16.8545 17.2419 17.4472 17.2419ZM18.7336 18.1174C18.4036 17.7874 17.9524 17.5854 17.4472 17.5854C16.9488 17.5854 16.4976 17.7874 16.1676 18.1174C15.8375 18.4407 15.6355 18.8987 15.6355 19.3971C15.6355 19.9022 15.8375 20.3535 16.1676 20.6835C16.4976 21.0135 16.9488 21.2156 17.4472 21.2156C17.9524 21.2156 18.4036 21.0135 18.7336 20.6835C19.0636 20.3535 19.2657 19.9022 19.2657 19.3971C19.2657 18.8987 19.0636 18.4407 18.7336 18.1174Z" fill="white"/>
<path fill-rule="evenodd" clip-rule="evenodd" d="M16.7266 19.3971L17.6762 18.4474V20.3467L16.7266 19.3971Z" fill="white"/>
<path d="M49.3847 17.2419C48.7853 17.2419 48.2465 17.4843 47.8559 17.875C47.4652 18.2656 47.2295 18.8044 47.2295 19.3971C47.2295 19.9965 47.4652 20.5353 47.8559 20.9192V20.926C48.2465 21.3099 48.7853 21.5523 49.3847 21.5523C49.9774 21.5523 50.5162 21.3099 50.9069 20.926V20.9192C51.2975 20.5353 51.54 19.9965 51.54 19.3971C51.54 18.8044 51.2975 18.2656 50.9069 17.875C50.5162 17.4843 49.9774 17.2419 49.3847 17.2419ZM48.0983 18.1174C48.4283 17.7874 48.8796 17.5854 49.3847 17.5854C49.8831 17.5854 50.3344 17.7874 50.6644 18.1174C50.9944 18.4407 51.1965 18.8987 51.1965 19.3971C51.1965 19.9022 50.9944 20.3535 50.6644 20.6835C50.3344 21.0135 49.8831 21.2156 49.3847 21.2156C48.8796 21.2156 48.4283 21.0135 48.0983 20.6835C47.7683 20.3535 47.5662 19.9022 47.5662 19.3971C47.5662 18.8987 47.7683 18.4407 48.0983 18.1174Z" fill="white"/>
<path fill-rule="evenodd" clip-rule="evenodd" d="M50.1049 19.3972L49.1553 18.4475V20.3468L50.1049 19.3972Z" fill="white"/>
<path fill-rule="evenodd" clip-rule="evenodd" d="M22.9365 22.502H35.5446V22.9937H22.9365V22.502ZM22.9365 20.6768H44.6707V21.1685H22.9365V20.6768ZM22.9365 18.8583H44.6707V19.35H22.9365V18.8583ZM27.449 15.8814H40.1582V17.1409H27.449V15.8814Z" fill="white"/>
<path fill-rule="evenodd" clip-rule="evenodd" d="M15.8584 41.7038H25.2471V47.3613H15.8584V41.7038Z" fill="#FF576B"/>
<path fill-rule="evenodd" clip-rule="evenodd" d="M15.8584 48.6746H22.2096V49.503H15.8584V48.6746Z" fill="#AFB0B5"/>
<path fill-rule="evenodd" clip-rule="evenodd" d="M15.8584 50.3987H23.3815V50.8163H15.8584V50.3987ZM15.8584 52.884H21.5159V53.3016H15.8584V52.884ZM15.8584 51.6447H23.3815V52.0556H15.8584V51.6447Z" fill="#AFB0B5"/>
<path fill-rule="evenodd" clip-rule="evenodd" d="M29.1133 41.7038H38.502V47.3613H29.1133V41.7038Z" fill="#FFC42E"/>
<path fill-rule="evenodd" clip-rule="evenodd" d="M29.1133 48.6746H35.4645V49.503H29.1133V48.6746Z" fill="#AFB0B5"/>
<path fill-rule="evenodd" clip-rule="evenodd" d="M29.1133 50.3987H36.6364V50.8163H29.1133V50.3987ZM29.1133 52.884H34.7708V53.3016H29.1133V52.884ZM29.1133 51.6447H36.6364V52.0556H29.1133V51.6447Z" fill="#AFB0B5"/>
<path fill-rule="evenodd" clip-rule="evenodd" d="M42.3604 41.7037H51.7491V47.3612H42.3604V41.7037Z" fill="#00DCAB"/>
<path fill-rule="evenodd" clip-rule="evenodd" d="M42.3604 48.6746H48.7115V49.503H42.3604V48.6746Z" fill="#AFB0B5"/>
<path fill-rule="evenodd" clip-rule="evenodd" d="M42.3604 50.3987H49.8835V50.8163H42.3604V50.3987ZM42.3604 52.884H48.0246V53.3016H42.3604V52.884ZM42.3604 51.6447H49.8835V52.0556H42.3604V51.6447Z" fill="#AFB0B5"/>
<path fill-rule="evenodd" clip-rule="evenodd" d="M68.082 36.0867H75.7937V37.2518H68.082V36.0867Z" fill="white"/>
<path fill-rule="evenodd" clip-rule="evenodd" d="M60.0205 36.0867H66.2101V37.2518H60.0205V36.0867Z" fill="white"/>
<path fill-rule="evenodd" clip-rule="evenodd" d="M60.0205 40.7541H71.6183V41.9193H60.0205V40.7541Z" fill="white"/>
<path fill-rule="evenodd" clip-rule="evenodd" d="M73.4834 40.7541H79.673V41.9193H73.4834V40.7541Z" fill="white"/>
<path fill-rule="evenodd" clip-rule="evenodd" d="M60.0205 47.3546H66.2101V48.5197H60.0205V47.3546Z" fill="#FFC42E"/>
<path fill-rule="evenodd" clip-rule="evenodd" d="M68.082 51.894H75.7937V53.0592H68.082V51.894Z" fill="white"/>
<path fill-rule="evenodd" clip-rule="evenodd" d="M60.0205 51.894H66.2101V53.0592H60.0205V51.894Z" fill="white"/>
<path fill-rule="evenodd" clip-rule="evenodd" d="M60.0205 56.5614H71.6183V57.7266H60.0205V56.5614Z" fill="white"/>
<path fill-rule="evenodd" clip-rule="evenodd" d="M73.4834 56.5614H79.673V57.7266H73.4834V56.5614Z" fill="white"/>
<path fill-rule="evenodd" clip-rule="evenodd" d="M60.0205 12.561H71.6183V13.7262H60.0205V12.561Z" fill="#FFC42E"/>
</svg>
