<svg width="30" height="30" viewBox="0 0 30 30" fill="none" xmlns="http://www.w3.org/2000/svg">
<rect width="30" height="30" rx="5" fill="#5956E8"/>
<path d="M17.24 14.9115C17.24 15.3489 17.1086 15.7765 16.8625 16.1402C16.6164 16.504 16.2665 16.7874 15.8572 16.9548C15.4479 17.1222 14.9975 17.166 14.563 17.0807C14.1285 16.9953 13.7294 16.7847 13.4161 16.4754C13.1028 16.1661 12.8895 15.772 12.803 15.343C12.7166 14.914 12.761 14.4693 12.9305 14.0651C13.1 13.661 13.3872 13.3156 13.7555 13.0726C14.1239 12.8295 14.557 12.6998 15 12.6998C15.5939 12.7005 16.1632 12.9337 16.5832 13.3483C17.0031 13.763 17.2393 14.3251 17.24 14.9115ZM22 11.8704V17.9526C21.9988 18.9787 21.5854 19.9625 20.8506 20.6881C20.1157 21.4137 19.1193 21.8218 18.08 21.823H11.92C10.8807 21.8218 9.88433 21.4137 9.14944 20.6881C8.41455 19.9625 8.00118 18.9787 8 17.9526V11.8704C8.00118 10.8443 8.41455 9.86051 9.14944 9.13491C9.88433 8.40931 10.8807 8.00116 11.92 8H18.08C19.1193 8.00116 20.1157 8.40931 20.8506 9.13491C21.5854 9.86051 21.9988 10.8443 22 11.8704ZM18.36 14.9115C18.36 14.2554 18.1629 13.6139 17.7937 13.0684C17.4245 12.5228 16.8998 12.0976 16.2858 11.8465C15.6719 11.5954 14.9963 11.5297 14.3445 11.6577C13.6927 11.7857 13.094 12.1017 12.6241 12.5657C12.1542 13.0296 11.8342 13.6207 11.7046 14.2643C11.5749 14.9078 11.6415 15.5749 11.8958 16.1811C12.1501 16.7873 12.5807 17.3054 13.1333 17.6699C13.6858 18.0345 14.3355 18.229 15 18.229C15.8908 18.228 16.7449 17.8782 17.3748 17.2562C18.0047 16.6343 18.359 15.7911 18.36 14.9115ZM19.48 11.3175C19.48 11.1535 19.4307 10.9931 19.3384 10.8567C19.2461 10.7204 19.1149 10.614 18.9615 10.5513C18.808 10.4885 18.6391 10.4721 18.4761 10.5041C18.3132 10.5361 18.1635 10.6151 18.046 10.7311C17.9286 10.8471 17.8486 10.9948 17.8161 11.1557C17.7837 11.3166 17.8004 11.4834 17.8639 11.6349C17.9275 11.7865 18.0352 11.916 18.1733 12.0071C18.3115 12.0983 18.4739 12.1469 18.64 12.1469C18.8628 12.1469 19.0764 12.0595 19.234 11.904C19.3915 11.7484 19.48 11.5375 19.48 11.3175Z" fill="white"/>
</svg>
