<svg width="30" height="30" viewBox="0 0 30 30" fill="none" xmlns="http://www.w3.org/2000/svg">
<rect width="30" height="30" rx="5" fill="#5956E8"/>
<g clip-path="url(#clip0_660_436)">
<path d="M11.2233 21.0007H8.23786V11.6538H11.2233V21.0007ZM9.72896 10.3788C8.77432 10.3788 8 9.61004 8 8.68191C8 8.2361 8.18216 7.80855 8.5064 7.49331C8.83065 7.17807 9.27041 7.00098 9.72896 7.00098C10.1875 7.00098 10.6273 7.17807 10.9515 7.49331C11.2758 7.80855 11.4579 8.2361 11.4579 8.68191C11.4579 9.61004 10.6833 10.3788 9.72896 10.3788ZM22.3968 21.0007H19.4178V16.4507C19.4178 15.3663 19.3953 13.9757 17.8656 13.9757C16.3134 13.9757 16.0756 15.1538 16.0756 16.3725V21.0007H13.0934V11.6538H15.9566V12.9288H15.9984C16.397 12.1944 17.3706 11.4194 18.8231 11.4194C21.8446 11.4194 22.4 13.3538 22.4 15.8663V21.0007H22.3968Z" fill="white"/>
</g>
<defs>
<clipPath id="clip0_660_436">
<rect width="14.4" height="16" fill="white" transform="translate(8 7)"/>
</clipPath>
</defs>
</svg>
