<svg width="239" height="82" viewBox="0 0 239 82" fill="none" xmlns="http://www.w3.org/2000/svg">
<path d="M93.513 54.333C92.5757 54.333 91.8603 54.074 91.367 53.556C90.8737 53.038 90.627 52.3103 90.627 51.373V30.838C90.627 29.876 90.8737 29.1483 91.367 28.655C91.885 28.1617 92.6127 27.915 93.55 27.915H102.541C105.452 27.915 107.696 28.655 109.275 30.135C110.854 31.5903 111.643 33.6253 111.643 36.24C111.643 38.8547 110.854 40.902 109.275 42.382C107.696 43.862 105.452 44.602 102.541 44.602H96.362V51.373C96.362 52.3103 96.1153 53.038 95.622 53.556C95.1533 54.074 94.4503 54.333 93.513 54.333ZM96.362 40.162H101.579C103.059 40.162 104.181 39.829 104.946 39.163C105.735 38.497 106.13 37.5227 106.13 36.24C106.13 34.9573 105.735 33.9953 104.946 33.354C104.181 32.7127 103.059 32.392 101.579 32.392H96.362V40.162ZM117.241 54.333C116.304 54.333 115.588 54.0863 115.095 53.593C114.602 53.0997 114.355 52.3967 114.355 51.484V38.349C114.355 37.4363 114.589 36.7457 115.058 36.277C115.551 35.7837 116.23 35.537 117.093 35.537C117.981 35.537 118.659 35.7837 119.128 36.277C119.597 36.7457 119.831 37.4363 119.831 38.349V40.273H119.461C119.757 38.793 120.411 37.646 121.422 36.832C122.433 36.018 123.741 35.5617 125.344 35.463C125.961 35.4137 126.429 35.574 126.75 35.944C127.095 36.2893 127.28 36.869 127.305 37.683C127.354 38.4477 127.194 39.052 126.824 39.496C126.479 39.94 125.887 40.2113 125.048 40.31L124.197 40.384C122.791 40.5073 121.743 40.9143 121.052 41.605C120.386 42.2957 120.053 43.2947 120.053 44.602V51.484C120.053 52.3967 119.806 53.0997 119.313 53.593C118.844 54.0863 118.154 54.333 117.241 54.333ZM138.01 54.407C136.061 54.407 134.359 54.0247 132.904 53.26C131.473 52.4953 130.363 51.3977 129.574 49.967C128.785 48.5363 128.39 46.8467 128.39 44.898C128.39 43.4427 128.612 42.1353 129.056 40.976C129.5 39.8167 130.141 38.83 130.98 38.016C131.843 37.1773 132.867 36.5483 134.051 36.129C135.235 35.685 136.555 35.463 138.01 35.463C139.959 35.463 141.648 35.8453 143.079 36.61C144.534 37.3747 145.657 38.46 146.446 39.866C147.26 41.272 147.667 42.9493 147.667 44.898C147.667 46.378 147.433 47.6977 146.964 48.857C146.52 50.0163 145.879 51.0153 145.04 51.854C144.201 52.6927 143.178 53.334 141.969 53.778C140.785 54.1973 139.465 54.407 138.01 54.407ZM138.01 50.226C138.824 50.226 139.527 50.0287 140.119 49.634C140.711 49.2393 141.18 48.6597 141.525 47.895C141.87 47.1057 142.043 46.1067 142.043 44.898C142.043 43.0973 141.673 41.7777 140.933 40.939C140.193 40.0757 139.219 39.644 138.01 39.644C137.221 39.644 136.518 39.829 135.901 40.199C135.309 40.569 134.84 41.1487 134.495 41.938C134.174 42.7027 134.014 43.6893 134.014 44.898C134.014 46.6987 134.384 48.043 135.124 48.931C135.864 49.7943 136.826 50.226 138.01 50.226ZM153.952 54.333C153.039 54.333 152.336 54.0863 151.843 53.593C151.374 53.0997 151.14 52.3967 151.14 51.484V38.349C151.14 37.4363 151.374 36.7457 151.843 36.277C152.336 35.7837 153.015 35.537 153.878 35.537C154.766 35.537 155.444 35.7837 155.913 36.277C156.382 36.7457 156.616 37.4363 156.616 38.349V40.717L156.209 39.237C156.702 38.1023 157.467 37.1897 158.503 36.499C159.539 35.8083 160.76 35.463 162.166 35.463C163.572 35.463 164.744 35.796 165.681 36.462C166.618 37.128 167.284 38.1517 167.679 39.533H167.161C167.704 38.275 168.53 37.2883 169.64 36.573C170.775 35.833 172.07 35.463 173.525 35.463C174.931 35.463 176.078 35.7467 176.966 36.314C177.879 36.8567 178.557 37.6953 179.001 38.83C179.445 39.94 179.667 41.3583 179.667 43.085V51.484C179.667 52.3967 179.42 53.0997 178.927 53.593C178.458 54.0863 177.78 54.333 176.892 54.333C175.979 54.333 175.276 54.0863 174.783 53.593C174.314 53.0997 174.08 52.3967 174.08 51.484V43.27C174.08 42.0613 173.883 41.1857 173.488 40.643C173.118 40.0757 172.477 39.792 171.564 39.792C170.503 39.792 169.677 40.162 169.085 40.902C168.493 41.642 168.197 42.6903 168.197 44.047V51.484C168.197 52.3967 167.95 53.0997 167.457 53.593C166.988 54.0863 166.31 54.333 165.422 54.333C164.534 54.333 163.843 54.0863 163.35 53.593C162.857 53.0997 162.61 52.3967 162.61 51.484V43.27C162.61 42.0613 162.413 41.1857 162.018 40.643C161.648 40.0757 161.007 39.792 160.094 39.792C159.033 39.792 158.207 40.162 157.615 40.902C157.023 41.642 156.727 42.6903 156.727 44.047V51.484C156.727 53.3833 155.802 54.333 153.952 54.333ZM192.679 54.407C190.73 54.407 189.028 54.0247 187.573 53.26C186.142 52.4953 185.032 51.3977 184.243 49.967C183.453 48.5363 183.059 46.8467 183.059 44.898C183.059 43.4427 183.281 42.1353 183.725 40.976C184.169 39.8167 184.81 38.83 185.649 38.016C186.512 37.1773 187.536 36.5483 188.72 36.129C189.904 35.685 191.223 35.463 192.679 35.463C194.627 35.463 196.317 35.8453 197.748 36.61C199.203 37.3747 200.325 38.46 201.115 39.866C201.929 41.272 202.336 42.9493 202.336 44.898C202.336 46.378 202.101 47.6977 201.633 48.857C201.189 50.0163 200.547 51.0153 199.709 51.854C198.87 52.6927 197.846 53.334 196.638 53.778C195.454 54.1973 194.134 54.407 192.679 54.407ZM192.679 50.226C193.493 50.226 194.196 50.0287 194.788 49.634C195.38 49.2393 195.848 48.6597 196.194 47.895C196.539 47.1057 196.712 46.1067 196.712 44.898C196.712 43.0973 196.342 41.7777 195.602 40.939C194.862 40.0757 193.887 39.644 192.679 39.644C191.889 39.644 191.186 39.829 190.57 40.199C189.978 40.569 189.509 41.1487 189.164 41.938C188.843 42.7027 188.683 43.6893 188.683 44.898C188.683 46.6987 189.053 48.043 189.793 48.931C190.533 49.7943 191.495 50.226 192.679 50.226ZM214.471 54.407C212.769 54.407 211.339 54.1233 210.179 53.556C209.045 52.9887 208.194 52.1623 207.626 51.077C207.084 49.9917 206.812 48.6227 206.812 46.97V40.014H205.258C204.568 40.014 204.025 39.829 203.63 39.459C203.26 39.089 203.075 38.5833 203.075 37.942C203.075 37.2513 203.26 36.7333 203.63 36.388C204.025 36.018 204.568 35.833 205.258 35.833H206.812V33.021C206.812 32.0837 207.059 31.3807 207.552 30.912C208.046 30.4187 208.736 30.172 209.624 30.172C210.537 30.172 211.228 30.4187 211.696 30.912C212.165 31.3807 212.399 32.0837 212.399 33.021V35.833H215.914C216.605 35.833 217.135 36.018 217.505 36.388C217.875 36.7333 218.06 37.2513 218.06 37.942C218.06 38.5833 217.875 39.089 217.505 39.459C217.135 39.829 216.605 40.014 215.914 40.014H212.399V46.748C212.399 47.784 212.634 48.561 213.102 49.079C213.596 49.597 214.373 49.856 215.433 49.856C215.803 49.856 216.149 49.819 216.469 49.745C216.79 49.671 217.086 49.6217 217.357 49.597C217.703 49.5723 217.986 49.6833 218.208 49.93C218.43 50.152 218.541 50.6577 218.541 51.447C218.541 52.039 218.443 52.557 218.245 53.001C218.048 53.445 217.703 53.7657 217.209 53.963C216.889 54.0863 216.445 54.185 215.877 54.259C215.335 54.3577 214.866 54.407 214.471 54.407ZM229.768 54.407C227.622 54.407 225.772 54.0247 224.218 53.26C222.688 52.4707 221.504 51.373 220.666 49.967C219.852 48.5363 219.445 46.859 219.445 44.935C219.445 43.0603 219.839 41.42 220.629 40.014C221.418 38.5833 222.516 37.4733 223.922 36.684C225.352 35.87 226.968 35.463 228.769 35.463C230.076 35.463 231.26 35.685 232.321 36.129C233.381 36.5483 234.294 37.165 235.059 37.979C235.823 38.7683 236.403 39.7427 236.798 40.902C237.192 42.0367 237.39 43.307 237.39 44.713C237.39 45.1817 237.242 45.5393 236.946 45.786C236.65 46.008 236.218 46.119 235.651 46.119H224.033V43.233H233.357L232.765 43.751C232.765 42.7397 232.617 41.901 232.321 41.235C232.025 40.5443 231.593 40.0263 231.026 39.681C230.483 39.3357 229.805 39.163 228.991 39.163C228.078 39.163 227.301 39.3727 226.66 39.792C226.018 40.2113 225.525 40.8157 225.18 41.605C224.834 42.3943 224.662 43.344 224.662 44.454V44.75C224.662 46.6247 225.093 48.006 225.957 48.894C226.845 49.782 228.152 50.226 229.879 50.226C230.471 50.226 231.149 50.152 231.914 50.004C232.678 49.856 233.394 49.6217 234.06 49.301C234.627 49.0297 235.133 48.9433 235.577 49.042C236.021 49.116 236.366 49.3133 236.613 49.634C236.859 49.9547 236.995 50.3247 237.02 50.744C237.069 51.1633 236.983 51.5827 236.761 52.002C236.539 52.3967 236.169 52.7297 235.651 53.001C234.812 53.4697 233.862 53.815 232.802 54.037C231.766 54.2837 230.754 54.407 229.768 54.407Z" fill="white"/>
<path d="M34.6646 18.1641C29.0278 18.1641 23.5176 19.8356 18.8308 22.9672C14.144 26.0988 10.4911 30.5499 8.33398 35.7576C6.17689 40.9653 5.61249 46.6957 6.71217 52.2241C7.81185 57.7526 10.5262 62.8308 14.512 66.8166C18.4978 70.8024 23.576 73.5168 29.1045 74.6164C34.6329 75.7161 40.3633 75.1517 45.571 72.9946C50.7787 70.8375 55.2298 67.1846 58.3614 62.4978C61.4931 57.811 63.1646 52.3008 63.1646 46.6641L34.6646 46.6641L34.6646 18.1641Z" fill="#FFDC60"/>
<path d="M69.2778 40.582C69.2778 32.9714 66.2545 25.6725 60.873 20.291C55.4915 14.9094 48.1925 11.8861 40.5819 11.8861L40.5819 40.582H69.2778Z" fill="#5956E8"/>
</svg>
